<?xml version="1.0" standalone="no"?>
<!DOCTYPE svg PUBLIC "-//W3C//DTD SVG 1.1//EN" "http://www.w3.org/Graphics/SVG/1.1/DTD/svg11.dtd" >
<svg xmlns="http://www.w3.org/2000/svg" xmlns:xlink="http://www.w3.org/1999/xlink" version="1.1" viewBox="-10 0 16393 16383">
   <path fill="currentColor"
d="M8703 1559l1018 1521q-1 0 53 5q1875 204 3260 1043q51 35 54 34l1931 -304l-338 1949q20 42 29 64q224 511 215 1053q-18 875 -608 1656q-37 50 -37 49l209 1729l-1822 -439q-12 8 -38 20q-1244 643 -2814 819l-67 7l-1030 1571l-1161 -1587q-9 0 -18 -1.5t-18 -2.5
q-1824 -226 -3157 -1052q-78 -46 -74 -47l-1890 222l324 -1940q-18 -42 -26 -63q-184 -461 -184 -941q0 -911 644 -1726q40 -46 40 -49l-109 -1691l1714 449q-4 0 98 -50q1170 -574 2610 -754q36 -2 37 -4zM8719 3894q-2038 0 -3549.5 916t-1511.5 2114t1511.5 2113.5
t3549.5 915.5t3550 -915.5t1512 -2113.5t-1512 -2114t-3550 -916z" />
</svg>
