<?xml version="1.0" standalone="no"?>
<!DOCTYPE svg PUBLIC "-//W3C//DTD SVG 1.1//EN" "http://www.w3.org/Graphics/SVG/1.1/DTD/svg11.dtd" >
<svg xmlns="http://www.w3.org/2000/svg" xmlns:xlink="http://www.w3.org/1999/xlink" version="1.1" viewBox="-10 0 16393 16383">
   <path fill="currentColor"
d="M5670 5100h-3359l1680 -2738zM5215 4881l-1224 -2148l-1225 2148h2449zM10257 5100h-3359l1680 -2738zM9801 4881l-1223 -2148l-1224 2148h2447zM15107 5100h-3358l1679 -2738zM14652 4881l-1224 -2148l-1224 2148h2448zM7937 8474h-3358l1679 -2737zM7482 8255
l-1224 -2146l-1224 2146h2448zM12629 8474h-3359l1680 -2737zM12174 8255l-1224 -2146l-1224 2146h2448zM5670 11532h-3359l1680 -2738zM5215 11313l-1224 -2147l-1225 2147h2449zM10257 11532h-3359l1680 -2738zM9801 11313l-1223 -2147l-1224 2147h2447zM15107 11532
h-3358l1679 -2738zM14652 11313l-1224 -2147l-1224 2147h2448z" />
</svg>
