<?xml version="1.0" standalone="no"?>
<!DOCTYPE svg PUBLIC "-//W3C//DTD SVG 1.1//EN" "http://www.w3.org/Graphics/SVG/1.1/DTD/svg11.dtd" >
<svg xmlns="http://www.w3.org/2000/svg" xmlns:xlink="http://www.w3.org/1999/xlink" version="1.1" viewBox="-10 0 16751 16383">
   <path fill="currentColor"
d="M6527 7646q1030 152 1515.5 -786t1235.5 -1289q585 -272 1267 -9.5t1000 793.5q69 115 130 305.5t65 190.5l4049 8l3 -592l939 939l-921 991l-1 -697l-3988 -5q-50 0 -50 12q0 438 -55 836l-669 -7q11 -152 42.5 -369.5t44.5 -359.5q69 -753 -552.5 -1240.5t-1242.5 1.5
q-106 84 -235 271t-324 442q-764 1003 -1828.5 1205.5t-1790.5 -783.5l-4241 3l-3 -651l3896 6q20 0 -52.5 -563t32.5 -856h683q-84 726 137.5 1414t913.5 790z" />
</svg>
