<?xml version="1.0" standalone="no"?>
<!DOCTYPE svg PUBLIC "-//W3C//DTD SVG 1.1//EN" "http://www.w3.org/Graphics/SVG/1.1/DTD/svg11.dtd" >
<svg xmlns="http://www.w3.org/2000/svg" xmlns:xlink="http://www.w3.org/1999/xlink" version="1.1" viewBox="-10 0 16636 16383">
   <path fill="currentColor"
d="M16376 8155l21 959q-2381 -4 -4163.5 -4t-3477 2.5t-3555 5.5t-4395.5 4l-3 -975q3990 11 7547 4t8026 4zM3547 4773h554l-2128 3374h-554zM5132 4773h554l-2128 3374h-556zM6715 4773h555l-2128 3374h-555zM8299 4773h555l-2128 3374h-555zM10041 4773h555l-2127 3374
h-555zM11942 4773h555l-2128 3374h-555zM14002 4773h554l-2128 3374h-554zM16062 4773h554l-2128 3374h-554z" />
</svg>
