<?xml version="1.0" standalone="no"?>
<!DOCTYPE svg PUBLIC "-//W3C//DTD SVG 1.1//EN" "http://www.w3.org/Graphics/SVG/1.1/DTD/svg11.dtd" >
<svg xmlns="http://www.w3.org/2000/svg" xmlns:xlink="http://www.w3.org/1999/xlink" version="1.1" viewBox="-10 0 16530 16383">
   <path fill="currentColor"
d="M8253 4015v-1295h-542l783 -703l783 703h-542v1302q2175 75 3838.5 843.5t1837.5 1847.5h1419v-524l680 758l-680 758v-525h-1418q-173 1080 -1837.5 1849t-3839.5 844v1302h542l-783 703l-783 -703h542v-1296q-2592 -13 -3851.5 -841t-1396.5 -1860h-1317v520l-675 -751
l675 -752v520h1317q138 -1031 1397 -1858.5t3851 -841.5zM8535 4762q-1937 0 -3312.5 641.5t-1375.5 1543.5q0 903 1375.5 1544t3312.5 641q1936 0 3311.5 -641t1375.5 -1544q0 -902 -1375.5 -1543.5t-3311.5 -641.5z" />
</svg>
