<?xml version="1.0" standalone="no"?>
<!DOCTYPE svg PUBLIC "-//W3C//DTD SVG 1.1//EN" "http://www.w3.org/Graphics/SVG/1.1/DTD/svg11.dtd" >
<svg xmlns="http://www.w3.org/2000/svg" xmlns:xlink="http://www.w3.org/1999/xlink" version="1.1" viewBox="-10 0 16393 16383">
   <path fill="currentColor"
d="M3999 3305q148 549 490 1124q281 478 703 1222q362 650 634 1327q276 687 276 1437q0 426 -167 821q-165 395 -453 698q-286 302 -671 479q-387 176 -812 176q-428 0 -806 -166q-381 -166 -661 -447q-281 -279 -448 -662q-167 -379 -167 -805q0 -745 255 -1453
q261 -713 600 -1357q345 -661 692 -1260q350 -608 535 -1134zM8700 3305q143 541 488 1124q362 618 702 1222q359 644 636 1327q274 686 274 1437q0 432 -166 821q-168 399 -452 698q-291 304 -672 479q-386 176 -810 176q-429 0 -807 -166q-382 -167 -661 -447
q-283 -282 -447 -662q-167 -375 -167 -805q0 -753 255 -1453q257 -706 598 -1357q351 -671 693 -1260q347 -606 536 -1134zM13398 3305q144 538 489 1124q325 549 703 1222q361 647 635 1327q276 687 276 1437q0 425 -166 821q-169 397 -453 698q-287 302 -671 479
q-387 176 -813 176q-428 0 -807 -166q-381 -167 -660 -447q-281 -279 -448 -662q-166 -380 -166 -805q0 -749 255 -1453q252 -697 598 -1357q361 -689 692 -1260q346 -600 536 -1134z" />
</svg>
