<?xml version="1.0" standalone="no"?>
<!DOCTYPE svg PUBLIC "-//W3C//DTD SVG 1.1//EN" "http://www.w3.org/Graphics/SVG/1.1/DTD/svg11.dtd" >
<svg xmlns="http://www.w3.org/2000/svg" xmlns:xlink="http://www.w3.org/1999/xlink" version="1.1" viewBox="-10 0 16636 16383">
   <path fill="currentColor"
d="M803 7925h961q1109 -177 2213.5 -817t1324.5 -1375l235 3q-105 637 -980 1263.5t-1933 925.5h325q1109 -177 2214.5 -817t1325.5 -1375l233 3q-104 637 -979 1263.5t-1932 925.5h324q1109 -177 2214.5 -817t1325.5 -1375l234 3q-104 637 -980 1263.5t-1932 925.5h418
q1109 -177 2214 -817t1324 -1375l235 3q-104 637 -979.5 1263.5t-1932.5 925.5h387q1110 -177 2214.5 -817t1323.5 -1375l235 3q-104 637 -979.5 1263.5t-1932.5 925.5h294q1108 -177 2213.5 -817t1324.5 -1375l235 3q-104 637 -979.5 1263.5t-1931.5 925.5h541
q1109 -177 2214.5 -817t1325.5 -1375l234 3q-104 637 -979 1263.5t-1933 925.5h387q1110 -177 2215 -817t1324 -1375l235 3q-105 637 -980 1263.5t-1933 925.5h325q1109 -177 2214.5 -817t1325.5 -1375l234 3q-104 637 -980 1263.5t-1932 925.5h324q1109 -177 2214.5 -817
t1324.5 -1375l235 3q-104 637 -979.5 1263.5t-1932.5 925.5h2624v369h-15525v-369z" />
</svg>
