<?xml version="1.0" standalone="no"?>
<!DOCTYPE svg PUBLIC "-//W3C//DTD SVG 1.1//EN" "http://www.w3.org/Graphics/SVG/1.1/DTD/svg11.dtd" >
<svg xmlns="http://www.w3.org/2000/svg" xmlns:xlink="http://www.w3.org/1999/xlink" version="1.1" viewBox="-10 0 16393 16383">
   <path fill="currentColor"
d="M2053 4607h13312v394q-119 1 -238 1.5t-237 1.5q-235 71 -452 250q-27 28 -40 36q0 -42 -59 70h-7q-190 243 -294 513q-46 146 -163 332q-145 186 -144 184h-7q-231 268 -522 423q540 1 1081.5 1.5t1081.5 2.5v225q-317 0 -475 1q-78 29 -150 56q-171 82 -346 237
q-2 4 -2 7h-7q-42 47 -43 53h-7q-126 163 -213 320q-45 101 -85.5 204.5t-86.5 202.5q-66 104 -87 140l-104 130q-21 23 -25 32h-6q-159 184 -450 384q-77 44 -77 48h2164v431h-13312v-433h308.5h309.5q589 -239 932 -859q27 -59 112 -273q16 -33 94 -183q25 -37 83.5 -133
t98.5 -109q9 -21 31.5 -37t31.5 -37h7q19 -55 92 -81v-6l120 -86q17 -6 17 -9h-2237v-227h308.5h309.5q173 -62 401 -229q123 -106 133 -109v-7q224 -207 398 -512q20 -45 59 -142t81 -192q131 -241 278 -405q5 0 22 -27q61 -53 71 -56v-7q121 -92 170 -123
q-558 0 -1116.5 -24t-1114.5 -8v-366zM2952 8856q624 -2 938 -2q177 -79 348 -192q408 -318 598 -701q59 -151 111 -274q92 -179 238 -372h7q16 -51 104.5 -120t124.5 -99l84 -54h-864q-223 75 -419 220v7q-90 44 -90 84q-3 1 -5 2t-4 1q-231 257 -362 636
q-143 337 -440 590v7q-10 3 -36 25v6q5 -1 -195 148q-67 42 -138 88zM4167 8856q288 0 577 -1t578 -1q231 -101 394 -227l20 -10v-7q283 -198 528 -639q52 -129 113 -274q101 -201 244 -386h8q0 -5 2 -9q120 -134 304 -259q-270 0 -540 -0.5t-540 -0.5q-126 45 -191 75
q-109 61 -263 179q-223 223 -369 546q-56 153 -85 220q-188 369 -642 706q-35 21 -138 88zM5603 8856q287 0 575.5 -1t576.5 -1q340 -136 625 -437h7q4 -14 32 -42h6q-2 4 140 -181q61 -98 87 -135q63 -125 115 -255t120 -254q75 -121 238 -316l45 -35v-7q8 -5 68 -57
l130 -92q-270 0 -538.5 -0.5t-537.5 -0.5q-102 35 -168 63q-217 117 -359 260q-109 130 -148 186q-117 188 -216 466q-175 367 -476 606q-2 4 -2 8q-10 3 -189 140q-21 13 -131 85zM7035 8856q320 0 640.5 -1t641.5 -1q119 -51 250 -123q120 -83 241 -177v-8
q234 -196 441 -551q27 -59 111 -273q101 -205 245 -397h7q47 -136 187 -183v-6q66 -49 137 -94h-1212q-206 74 -356 174l-114 92v7q-4 0 -8 2q-182 181 -328 478q-38 95 -112 285q-116 222 -315 419q22 -73 -13 20q-13 6 -179 156q-111 82 -264 181zM8599 8856
q319 0 640.5 -1t643.5 -1q319 -149 507 -322q6 -2 9 -2v-8q227 -203 419 -537q192 -489 446 -759q72 -66 109 -99q102 -70 125 -85h-1212q-150 49 -368 181v8q-10 2 -50 31v7q-90 30 -90 84l-9 3q-230 254 -362 636q-144 339 -441 590v7q-9 3 -35 25v6q5 -1 -195 148
q-21 13 -137 88zM10160 8856q266 0 533 -1t534 -1q180 -76 388 -220q105 -88 115 -91v-7q122 -113 161 -161h7q3 -10 133 -171q54 -86 90 -138q62 -122 114 -249.5t115 -250.5q79 -127 180 -258h8q0 -4 2 -10q130 -152 306 -256h-993q-161 51 -376 184v8q-238 151 -455 614
q-56 155 -85 221q-91 172 -318 430l-3 10q-4 0 -8 2q-30 27 -55.5 51.5t-138.5 120.5q-115 84 -254 173zM11508 8856q353 0 707 -1t708 -1l127 -57q94 -51 250 -156q253 -203 466 -497q40 -64 108 -191q55 -143 111 -274q111 -217 251 -383q4 -2 8 -2q4 -13 156 -156
q101 -74 139 -96h-1342q-228 83 -384 195q-336 274 -509 790q-79 155 -199 317q-150 168 -161 175v6q5 -2 -161 140l-132 98q-140 88 -143 93zM2952 6817q233 0 466 -1.5t467 -1.5q422 -161 780 -614q77 -113 97 -141q60 -108 107.5 -223.5t98.5 -229.5q220 -408 537 -602
h-864q-261 86 -485 279q0 20 -43 44q-139 165 -254 377q-42 98 -81 199t-59 146q-32 59 -103 174h-8q-22 34 -102 137h-6q-22 30 -75 83q-5 15 -24 23v7q5 -1 -80 70v7q-10 3 -118 94q-129 96 -251 173zM4167 6817q287 0 575 -1.5t576 -1.5q175 -64 424 -244
q186 -165 181 -163q98 -106 231 -284q98 -157 168 -329.5t163 -334.5q-15 23 97 -142h8q96 -145 347 -313h-1082q-122 40 -276 120q-80 56 -153 112q-176 169 -281 336q-93 175 -177 403q-82 190 -297 436q-2 6 -2 9q-2 0 -8 3q-133 137 -286 257q-162 106 -208 137z
M5603 6817q287 0 575.5 -1.5t576.5 -1.5q249 -101 502 -311q201 -189 384 -465q69 -126 123 -261.5t120 -264.5q41 -64 135 -198h7q3 -9 99 -119q147 -132 245 -191h-1082q-224 81 -392 201q-324 278 -501 791q-94 184 -283 411q-117 114 -304 273q-121 79 -205 137z
M7032 6817q321 0 642.5 -1.5t642.5 -1.5q150 -66 299 -153q174 -130 171 -129v-6q-32 9 63 -50v-7l10 -5q192 -192 340 -422q69 -124 121 -257.5t120 -259.5l86 -136q122 -170 145 -170q11 -56 88 -84v-7q96 -74 169 -123q-303 0 -605.5 -0.5t-603.5 -0.5q-95 32 -236 99
q-74 46 -191 130v8q-5 3 -9 5l-8 4q-183 175 -322 430q-53 117 -99 236.5t-109 230.5q-147 214 -142 197h-6q-2 6 -110 125q-8 3 -100 91q-198 160 -356 257zM8599 6817q318 0 638.5 -1.5t641.5 -1.5q358 -142 709 -525q13 -17 93 -118q88 -136 127 -207q73 -176 140 -330
q104 -197 252 -383h6q6 -13 39 -49q16 0 30 -29.5t41 -29.5v-8q41 -34 182 -131h-1212q-261 86 -484 279q0 14 -17.5 17.5t-17.5 24.5q-7 3 -114 127q-117 176 -190 347q-56 155 -85 221q-93 169 -226 340h-7q-89 122 -78 92q-3 0 -7 2q-3 9 -94 89v7q-9 3 -118 94
q-141 105 -249 173zM10160 6817q266 0 533 -1.5t534 -1.5q151 -60 400 -227q82 -73 165 -144q62 -68 57 -61h7q1 -7 77 -90q152 -197 223 -332q52 -127 112 -270q97 -201 240 -396q138 -158 333 -289q-249 0 -496.5 -0.5t-495.5 -0.5q-49 16 -204 80q-56 33 -140 84
q-124 95 -272 263q-155 217 -271 544q-86 197 -346 494q-6 2 -8 3q-162 149 -321 263q-69 44 -127 82zM11508 6817q352 0 705 -1.5t707 -1.5q298 -122 517 -328q8 -2 10 -2v-8q4 -2 7 -3q258 -258 394 -509q171 -395 253 -531q5 -6 82.5 -115t103.5 -109q14 -51 73 -71v-6
q133 -101 179 -128h-1342q-65 21 -122 42q-128 60 -310 187v8q-12 6 -95 85q-94 113 -141 176q-135 222 -225 483q-147 326 -518 636v6q-62 42 -91 63v8q-47 30 -93.5 59.5t-93.5 59.5z" />
</svg>
