<?xml version="1.0" standalone="no"?>
<!DOCTYPE svg PUBLIC "-//W3C//DTD SVG 1.1//EN" "http://www.w3.org/Graphics/SVG/1.1/DTD/svg11.dtd" >
<svg xmlns="http://www.w3.org/2000/svg" xmlns:xlink="http://www.w3.org/1999/xlink" version="1.1" viewBox="-10 0 16393 16383">
   <path fill="currentColor"
d="M4202 3305q147 544 490 1124q320 543 703 1222q362 650 634 1327q276 684 276 1437q0 425 -166 821q-166 395 -453 698q-289 304 -671 479q-387 176 -813 176q-428 0 -806 -166q-382 -167 -661 -447q-279 -276 -448 -662q-166 -380 -166 -805q0 -749 255 -1453
q257 -706 598 -1357q364 -692 692 -1260q350 -606 536 -1134zM4206 4896q-128 359 -363 768q-250 435 -469 853q-232 446 -405 919q-173 477 -173 983q0 288 113 547q115 259 303 446q192 193 448 304q259 113 546 113q290 0 550 -121q259 -118 455 -323q194 -206 306 -473
q113 -268 113 -556q0 -509 -187 -973q-188 -465 -429 -897q-239 -424 -477 -829q-233 -397 -331 -761zM8630 3305q143 541 488 1124q325 549 703 1222q361 647 635 1327q276 691 276 1437q0 425 -166 821q-169 397 -453 698q-287 302 -672 479q-387 176 -811 176
q-428 0 -807 -166q-380 -166 -660 -447q-281 -279 -448 -662q-166 -376 -166 -805q0 -749 255 -1453q252 -697 598 -1357q347 -662 692 -1260q346 -600 536 -1134zM8633 4896q-126 357 -362 768q-235 406 -469 853q-235 446 -405 919q-173 477 -173 983q0 288 113 547
q111 256 303 446q187 191 448 304q256 113 545 113t549 -121q261 -118 455 -323q193 -205 307 -473q113 -268 113 -556q0 -510 -188 -973q-188 -468 -430 -897q-247 -441 -475 -829q-228 -383 -331 -761zM13195 3305q145 543 489 1124q293 495 703 1222q361 647 635 1327
q276 691 276 1437q0 426 -167 821q-167 397 -453 698q-285 301 -671 479q-387 176 -812 176q-428 0 -807 -166q-380 -166 -660 -447q-284 -281 -448 -662q-167 -379 -167 -805q0 -745 255 -1453q255 -700 599 -1357q331 -635 692 -1260q346 -600 536 -1134zM13198 4896
q-126 357 -362 768q-235 406 -469 853q-233 443 -406 919q-172 479 -172 983q0 287 112 547q114 260 304 446q187 191 448 304q256 113 545 113q290 0 550 -121q261 -118 455 -323q193 -205 307 -473q113 -268 113 -556q0 -506 -188 -973q-184 -458 -430 -897
q-247 -441 -475 -829q-230 -386 -332 -761z" />
</svg>
