<?xml version="1.0" standalone="no"?>
<!DOCTYPE svg PUBLIC "-//W3C//DTD SVG 1.1//EN" "http://www.w3.org/Graphics/SVG/1.1/DTD/svg11.dtd" >
<svg xmlns="http://www.w3.org/2000/svg" xmlns:xlink="http://www.w3.org/1999/xlink" version="1.1" viewBox="-10 0 16636 16383">
   <path fill="currentColor"
d="M16616 8628q-1020 756 -2605 1364.5t-3194 723t-2970.5 -439t-1934.5 -2123.5q-874 -1417 -1502.5 -2159.5t-1182 -1090t-1117 -439t-1307.5 -206.5q1499 -824 3396.5 -1033t3358.5 238q1091 280 1860.5 1137.5t1673 1766t2170.5 1605.5t3354 656zM14426 9017
q-1560 -187 -2431.5 -838t-1450.5 -1422.5t-1063 -1490t-1268 -1041.5q-1041 -485 -2477 -527.5t-2640 415.5q1086 326 1740.5 733.5t1662.5 2702.5q263 1229 1220 1783.5t2167.5 636.5t2455 -206.5t2084.5 -745.5z" />
</svg>
