<?xml version="1.0" standalone="no"?>
<!DOCTYPE svg PUBLIC "-//W3C//DTD SVG 1.1//EN" "http://www.w3.org/Graphics/SVG/1.1/DTD/svg11.dtd" >
<svg xmlns="http://www.w3.org/2000/svg" xmlns:xlink="http://www.w3.org/1999/xlink" version="1.1" viewBox="-10 0 16636 16383">
   <path fill="currentColor"
d="M16616 8170v661h-6834.5h-2795h-1934h-4249.5v-661h4880q14 -777 620 -1955t2421 -1151q1449 22 2173 930t727 2176h4992zM10923 8182q-3 -1032 -557.5 -1770t-1663.5 -756q-1399 -23 -1896.5 935t-434.5 1591h4552zM11177 5097l2002 205l-334 375l-889 -71l1951 1853
l-336 377l-2583 -2527zM6242 5097l189 212l-2584 2527l-336 -377l1951 -1853l-889 71l-334 -375z" />
</svg>
