<?xml version="1.0" standalone="no"?>
<!DOCTYPE svg PUBLIC "-//W3C//DTD SVG 1.1//EN" "http://www.w3.org/Graphics/SVG/1.1/DTD/svg11.dtd" >
<svg xmlns="http://www.w3.org/2000/svg" xmlns:xlink="http://www.w3.org/1999/xlink" version="1.1" viewBox="-10 0 16393 16383">
   <path fill="currentColor"
d="M7302 11750q-242 204 -784 120.5t-1028 -322t-738.5 -566t84.5 -614.5q993 -843 2104 -1564t1231 -1354q67 -231 43 -488t-51 -517q-189 -916 -1471.5 -1726.5t-1842.5 -1657.5q-336 -507 398 -850t1592 -136q1973 596 3765 1790t2101 2580q121 542 -24 1005
q-193 1133 -1810.5 2251.5t-3568.5 2048.5zM7323 11064q1572 -749 2999 -1773.5t1583 -1938.5q104 -403 20 -809q-237 -1120 -1880 -2296.5t-3233 -1656.5q-692 -166 -1040.5 167.5t546.5 903.5q690 441 1711 1292.5t1173 1589.5q94 433 7 809q-97 510 -1453.5 1430
t-2157.5 1600q-543 462 396.5 735.5t1328.5 -53.5z" />
</svg>
