<?xml version="1.0" standalone="no"?>
<!DOCTYPE svg PUBLIC "-//W3C//DTD SVG 1.1//EN" "http://www.w3.org/Graphics/SVG/1.1/DTD/svg11.dtd" >
<svg xmlns="http://www.w3.org/2000/svg" xmlns:xlink="http://www.w3.org/1999/xlink" version="1.1" viewBox="-10 0 16636 16383">
   <path fill="currentColor"
d="M8919 5423h88q731 -1054 1414 -1485q902 -567 2129 -567q1776 0 2919 1035q1147 1029 1147 2741q0 1552 -885 2437q-890 888 -2240 888q-1022 0 -1886 -473q-858 -475 -1812 -1770h-96q-939 1664 -1788 2200q-844 537 -2125 537q-2034 0 -3505 -1278
q-1476 -1279 -1476 -3114q0 -1621 1136 -2632q1135 -1014 2841 -1014q2652 0 4139 2495zM10066 7545q604 866 1351 1247q747 383 1719 383q1261 0 1982 -590q719 -588 719 -1587t-663 -1604q-664 -601 -1734 -601q-1032 0 -1731 507q-703 511 -1643 2245zM8606 6151
q-688 -968 -1383 -1368q-999 -567 -2325 -567q-1508 0 -2417 734q-900 731 -900 1895q0 1202 885 1952q886 747 2303 747q1296 0 2022 -673q723 -667 1815 -2720z" />
</svg>
