<?xml version="1.0" standalone="no"?>
<!DOCTYPE svg PUBLIC "-//W3C//DTD SVG 1.1//EN" "http://www.w3.org/Graphics/SVG/1.1/DTD/svg11.dtd" >
<svg xmlns="http://www.w3.org/2000/svg" xmlns:xlink="http://www.w3.org/1999/xlink" version="1.1" viewBox="-10 0 16393 16383">
   <path fill="currentColor"
d="M13232 10193q-1757 543 -3669 814t-3575 -134q-2190 -534 -1721.5 -1602t3299.5 -1367q803 -110 2388 -156.5t1976 -846.5q166 -342 -220 -680.5t-1582.5 -528.5t-3333 -159.5t-5470.5 427.5l20 -352q363 -60 739 -123.5t436 -72.5q6015 -881 8148.5 -128t1921.5 1660
q-142 606 -777 890.5t-1438 401.5t-1612 143t-1299 116q-2303 317 -2446.5 932.5t1635.5 939.5q1440 264 3132 43.5t3220 -709.5q1177 -372 1837 -1362.5t398.5 -2059t-1646 -1944t-4296.5 -1016.5q-1143 -55 -2540 -21.5t-3073 309.5q-374 38 -1044.5 228.5t-1214.5 346.5
l26 -432q412 -140 828 -266.5t641 -177.5q5969 -981 8943.5 -222.5t3827 2165t19.5 2915.5t-2478 2029z" />
</svg>
