<?xml version="1.0" standalone="no"?>
<!DOCTYPE svg PUBLIC "-//W3C//DTD SVG 1.1//EN" "http://www.w3.org/Graphics/SVG/1.1/DTD/svg11.dtd" >
<svg xmlns="http://www.w3.org/2000/svg" xmlns:xlink="http://www.w3.org/1999/xlink" version="1.1" viewBox="-10 0 16636 16383">
   <path fill="currentColor"
d="M16616 8682h-4613h-3288.5h-3291.5h-4620v-659h4249.5h1934h2795h6834.5v659zM16616 6941v658h-6834.5h-2795h-1934h-4249.5v-658h9378l2 -1720q1212 2 1476.5 0.5t339.5 -4t339.5 -4t1477.5 -1.5l6 1729h2794zM10681 5660v1278h2608v-1278h-2608zM3597 6941l6 -1729
q1212 0 1476 1.5t339 4t339.5 4t1477.5 -0.5l3 1720h-3641zM6737 5660h-2607v1278h2607v-1278z" />
</svg>
