<?xml version="1.0" standalone="no"?>
<!DOCTYPE svg PUBLIC "-//W3C//DTD SVG 1.1//EN" "http://www.w3.org/Graphics/SVG/1.1/DTD/svg11.dtd" >
<svg xmlns="http://www.w3.org/2000/svg" xmlns:xlink="http://www.w3.org/1999/xlink" version="1.1" viewBox="-10 0 16636 16383">
   <path fill="currentColor"
d="M2660 5715l-1494 2468h443l1494 -2468h-443zM5202 5715l-1494 2468h442l1494 -2468h-442zM7743 5715l-1494 2468h442l1494 -2468h-442zM10283 5715l-1494 2468h443l1494 -2468h-443zM12824 5715l-1494 2468h443l1494 -2468h-443zM15366 5715l-1493 2468h441l1494 -2468
h-442zM803 5334h15813v387h-15813v-387zM803 8174h15813v386h-15813v-386z" />
</svg>
