<?xml version="1.0" standalone="no"?>
<!DOCTYPE svg PUBLIC "-//W3C//DTD SVG 1.1//EN" "http://www.w3.org/Graphics/SVG/1.1/DTD/svg11.dtd" >
<svg xmlns="http://www.w3.org/2000/svg" xmlns:xlink="http://www.w3.org/1999/xlink" version="1.1" viewBox="-10 0 16636 16383">
   <path fill="currentColor"
d="M6769 6419v-1803h-1171l1692 -2839l1691 2839h-1169v1807l5965 3v-1171l2839 1692l-2839 1692v-1170l-5965 -2v1812h1169l-1691 2839l-1692 -2839h1171l10 -1831l-5976 21v-1043zM7152 6803l-5838 6v276l5850 -21l-12 2471h-1043l1181 2072l1181 -2072h-1043v-2452
l6732 2v787l1689 -925l-1689 -925v787l-6732 -3v-2446h1043l-1181 -2072l-1181 2072h1043v2443z" />
</svg>
