<?xml version="1.0" standalone="no"?>
<!DOCTYPE svg PUBLIC "-//W3C//DTD SVG 1.1//EN" "http://www.w3.org/Graphics/SVG/1.1/DTD/svg11.dtd" >
<svg xmlns="http://www.w3.org/2000/svg" xmlns:xlink="http://www.w3.org/1999/xlink" version="1.1" viewBox="-10 0 16636 16383">
   <path fill="currentColor"
d="M16616 7525l-718 705l-731 -731l-731 731h-53l-731 -731l-731 731h-52l-732 -731l-731 731h-52l-732 -731l-731 731h-52l-731 -731l-731 731h-52l-731 -731l-731 731h-53l-731 -731l-731 731h-53l-731 -731l-731 731h-53l-731 -731l-731 731h-53l-731 -731l-731 731h6
v-414l781 -760l691 692l692 -692h131l692 692l692 -692h131l692 692l692 -692h130l693 692l692 -692l6 -1392h3153v1392l692 692l693 -692h130l692 692l692 -692h131l692 692l692 -692h131l692 692l692 -692z" />
</svg>
