<?xml version="1.0" standalone="no"?>
<!DOCTYPE svg PUBLIC "-//W3C//DTD SVG 1.1//EN" "http://www.w3.org/Graphics/SVG/1.1/DTD/svg11.dtd" >
<svg xmlns="http://www.w3.org/2000/svg" xmlns:xlink="http://www.w3.org/1999/xlink" version="1.1" viewBox="-10 0 16636 16383">
   <path fill="currentColor"
d="M6854 8381q9 623 775 901.5t1624 292.5l-109 602q-363 57 -871.5 -41.5t-772.5 -167.5q-370 -98 -698 -364q-761 -560 -721 -1222.5t659 -1222.5h-8h-5929v-449h6558h1.5h2.5h3q241 -137 502 -249q330 -142 568 -233t352 -175q669 -489 200 -1096.5t-1357 -637.5
q-168 -6 -427 -4.5t-437 -7.5l99 -591q237 16 443.5 -8t548.5 5q86 3 344.5 58t404.5 103q3 2 213.5 80.5t333.5 151.5q569 345 765.5 979t-214.5 1117q-221 260 -729 508h46h6528v-326l1064 552l-1064 540v-317h-7514q-137 25 -75 0q-458 213 -786.5 490.5t-322.5 731.5z
" />
</svg>
