<?xml version="1.0" standalone="no"?>
<!DOCTYPE svg PUBLIC "-//W3C//DTD SVG 1.1//EN" "http://www.w3.org/Graphics/SVG/1.1/DTD/svg11.dtd" >
<svg xmlns="http://www.w3.org/2000/svg" xmlns:xlink="http://www.w3.org/1999/xlink" version="1.1" viewBox="-10 0 16636 16383">
   <path fill="currentColor"
d="M6082 4908q-764 1313 -1468 2010t-1359 1063.5t-1265.5 546.5t-1186.5 459q1338 -2337 2406.5 -2864.5t2872.5 -1214.5zM5540 5321q-1436 546 -2286 966t-1915 2279q918 -444 1951.5 -800t2249.5 -2445zM9746 4908q-764 1313 -1468 2010t-1358.5 1063.5t-1265.5 546.5
t-1187 459q1338 -2337 2406.5 -2864.5t2872.5 -1214.5zM9203 5321q-1435 546 -2285 966t-1915 2279q918 -444 1951.5 -800t2248.5 -2445zM13257 4908q-764 1313 -1468.5 2010t-1359 1063.5t-1265 546.5t-1186.5 459q1338 -2337 2406.5 -2864.5t2872.5 -1214.5zM12715 5321
q-1437 546 -2287 966t-1914 2279q918 -444 1951 -800t2250 -2445zM16616 4908q-764 1313 -1468 2010t-1359 1063.5t-1265.5 546.5t-1186.5 459q1337 -2337 2406 -2864.5t2873 -1214.5zM16074 5321q-1436 546 -2286.5 966t-1914.5 2279q918 -444 1951.5 -800t2249.5 -2445z
" />
</svg>
