<?xml version="1.0" standalone="no"?>
<!DOCTYPE svg PUBLIC "-//W3C//DTD SVG 1.1//EN" "http://www.w3.org/Graphics/SVG/1.1/DTD/svg11.dtd" >
<svg xmlns="http://www.w3.org/2000/svg" xmlns:xlink="http://www.w3.org/1999/xlink" version="1.1" viewBox="-10 0 16636 16383">
   <path fill="currentColor"
d="M16616 6871q-569 297 -1096 546l-1245 553q-113 47 -375 151l-981 356q-313 105 -668 209l-850 222q-506 118 -976 192l-516 70q-497 58 -971 73l-586 2q-584 -13 -1139 -88l-326 -47q-503 -83 -996 -211l-864 -251q-281 -92 -568 -194l-1182 -451q-62 -24 -123 -47.5
t-121 -47.5l-1052 -393q-144 -48 -185 -62l-262 -86q-382 -118 -731 -204q456 -243 938 -483l1231 -586q267 -118 408 -178l935 -377q387 -144 732 -258q266 -141 446 -161t322 -69q545 -148 1083 -246l396 -63q558 -77 1089 -94l462 -2q613 13 1261 110l203 34
q518 89 1108 246l756 222q345 111 676 225l1068 388q135 50 364 137l947 356q70 27 141.5 53t143.5 53l263 98q444 164 840 303zM15022 6287q-146 -55 -519 -196zM13626 5762l-466 -169q256 92 466 169zM11963 5192l-228 -67q152 44 228 67zM5643 5098q-96 27 -205 60z
M4134 5608l-482 193q307 -125 482 -193zM2765 6188l-705 335q354 -174 705 -335zM2175 7584l638 239q-389 -149 -638 -239zM3567 8117l582 222q-179 -66 -582 -222zM5240 8715l338 100q-165 -45 -338 -100zM7013 9129l51 7q-13 -1 -26 -3t-25 -4zM8613 9248h20.5h21.5h-42z
M10164 9139l50 -8q-16 2 -50 8zM11574 8868q72 -17 145 -36.5t147 -38.5zM13101 8414q211 -72 529 -190zM14485 7882q359 -152 719 -318zM14157 6429q-50 -17 -92 -34l50 178zM12726 5894q-163 -60 -408 -148l225 768zM11305 5416q-462 -134 -870 -222l480 1551zM9992 5111
q-533 -88 -1043 -106l514 1743zM8276 5010q-434 22 -877 89l424 1453zM6762 5219q-443 101 -833 220l359 1221zM4898 5793q-178 67 -456 182l200 688zM3195 6534q-28 14 -82 40l35 119zM4587 8024q262 99 289 108l-159 -542zM6005 8511q374 108 754 188l-415 -1341z
M7329 8800q465 67 917 85l-449 -1530zM9044 8883q388 -18 762 -66l-371 -1265zM10558 8697q345 -67 732 -166l-319 -1088zM12394 8197q211 -71 402 -143l-179 -614zM14076 7527q15 -7 30.5 -14t30.5 -15l-26 -87zM15348 6907l24 -12l24 -12q-15 -4 -29 -9.5t-28 -10.5z
M13989 6999l-208 -711q-192 -72 -377.5 -142t-365.5 -137l-322 1094l259 883q391 -148 824 -337zM10841 6999l-539 -1832q10 3 -157 -30l-578 1966l493 1679q151 -22 270 -43zM7692 6999l-546 -1857q-10 2 -160 30l-567 1931l476 1624q68 12 136.5 24.5t138.5 24.5z
M4543 6999l-279 -950q-359 151 -787 351l-208 703l136 464q217 81 434.5 166t437.5 170zM2903 6678q-394 194 -853 437l6 23q428 106 882 261l87 -291zM4816 7257l278 955q306 113 614 209l497 -1510l-441 -1422q-247 79 -471 157zM7934 6930l575 1962q128 2 259 0
l557 -1718l-636 -2174h-65.5h-64.5zM11054 7192l402 1294q232 -62 549 -160l439 -1479l-342 -1176q-332 -111 -493 -162zM14234 6995l115 406q377 -176 857 -422l-48 -180q-319 -114 -780 -287z" />
</svg>
