<?xml version="1.0" standalone="no"?>
<!DOCTYPE svg PUBLIC "-//W3C//DTD SVG 1.1//EN" "http://www.w3.org/Graphics/SVG/1.1/DTD/svg11.dtd" >
<svg xmlns="http://www.w3.org/2000/svg" xmlns:xlink="http://www.w3.org/1999/xlink" version="1.1" viewBox="-10 0 16636 16383">
   <path fill="currentColor"
d="M4177 5672h-3374v-447h15813v447h-966q-963 1561 -1795.5 1901.5t-1576.5 648.5h4338v448h-15813v-448h338q795 -1364 1444.5 -1787t1591.5 -763zM12121 8222q795 -1364 1444.5 -1787t1591.5 -763h-3060q-963 1561 -1795 1901.5t-1577 648.5h3396zM15406 5731
q-1012 386 -1612 682t-1350 1607q647 -312 1375.5 -564t1586.5 -1725zM8569 8222q794 -1364 1443.5 -1787t1591.5 -763h-3167q-963 1561 -1795 1901.5t-1577 648.5h3504zM11854 5731q-1013 386 -1612.5 682t-1349.5 1607q646 -312 1375 -564t1587 -1725zM4908 8222
q795 -1364 1445 -1787t1593 -763h-3276q-963 1561 -1795.5 1901.5t-1576.5 648.5h3610zM8194 5731q-1012 386 -1611.5 682t-1350.5 1607q648 -312 1376 -564t1586 -1725zM4427 5731q-1013 386 -1613 682t-1350 1607q647 -312 1376 -564t1587 -1725z" />
</svg>
