<?xml version="1.0" standalone="no"?>
<!DOCTYPE svg PUBLIC "-//W3C//DTD SVG 1.1//EN" "http://www.w3.org/Graphics/SVG/1.1/DTD/svg11.dtd" >
<svg xmlns="http://www.w3.org/2000/svg" xmlns:xlink="http://www.w3.org/1999/xlink" version="1.1" viewBox="-10 0 16636 16383">
   <path fill="currentColor"
d="M8268 6499v-1528h-993l1434 -2407l1434 2407h-992v1531l5058 4v-993l2407 1434l-2407 1434v-992l-5058 -1v1536h992l-1434 2407l-1434 -2407h993l9 -1552l-5067 17v992l-2407 -1434l2407 -1434v993zM8592 6825l-5708 5v-775l-1540 892l1540 893v-776l5718 -18l-10 2095
h-884l1001 1757l1001 -1757h-884v-2079l5708 2v667l1432 -784l-1432 -784v667l-5708 -3v-2073h884l-1001 -1757l-1001 1757h884v2071z" />
</svg>
