<?xml version="1.0" standalone="no"?>
<!DOCTYPE svg PUBLIC "-//W3C//DTD SVG 1.1//EN" "http://www.w3.org/Graphics/SVG/1.1/DTD/svg11.dtd" >
<svg xmlns="http://www.w3.org/2000/svg" xmlns:xlink="http://www.w3.org/1999/xlink" version="1.1" viewBox="-10 0 16636 16383">
   <path fill="currentColor"
d="M14209 6508v-991l2407 1432l-2407 1435v-992q-2099 0 -3229.5 -2t-1644.5 -4.5t-588 -5t-58.5 -4t-55.5 -2t-580.5 1t-1632 5.5t-3210.5 11v992l-2407 -1435l2407 -1432v991q3060 -3 4013.5 -4t1486 -0.5t1486 2t4013.5 2.5zM14534 6833q-3371 -1 -4348 -2.5t-1476 -2
t-1477 0.5t-4349 4v-775l-1540 891l1540 894v-776q2282 -7 3497 -11t1750 -5.5t584.5 -1t2 2t1 4t581.5 5t1744.5 4.5t3489.5 2v667l1432 -785l-1432 -782v666zM8104 2887h893v1385h900l-1346 2235l-1346 -2235h899v-1385zM8321 3213v1333h-625l855 1528l880 -1528h-651
v-1333h-459zM8104 11007v-1385h-899l1346 -2234l1346 2234h-900v1385h-893zM8321 10682h459v-1334h651l-880 -1527l-855 1527h625v1334z" />
</svg>
