<?xml version="1.0" encoding="UTF-8" standalone="no"?>
<!-- Creator: CorelDRAW -->

<svg
   xmlns:dc="http://purl.org/dc/elements/1.1/"
   xmlns:cc="http://creativecommons.org/ns#"
   xmlns:rdf="http://www.w3.org/1999/02/22-rdf-syntax-ns#"
   xmlns:svg="http://www.w3.org/2000/svg"
   xmlns="http://www.w3.org/2000/svg"
   xmlns:sodipodi="http://sodipodi.sourceforge.net/DTD/sodipodi-0.dtd"
   xmlns:inkscape="http://www.inkscape.org/namespaces/inkscape"
   xml:space="preserve"
   width="2.1419001mm"
   height="1.9371001mm"
   style="clip-rule:evenodd;fill-rule:evenodd;image-rendering:optimizeQuality;shape-rendering:geometricPrecision;text-rendering:geometricPrecision"
   viewBox="0 0 2.1419001 1.9371001"
   version="1.1"
   id="svg10"
   sodipodi:docname="Mina em atividade.svg"
   inkscape:version="0.92.5 (2060ec1f9f, 2020-04-08)"><metadata
   id="metadata14"><rdf:RDF><cc:Work
       rdf:about=""><dc:format>image/svg+xml</dc:format><dc:type
         rdf:resource="http://purl.org/dc/dcmitype/StillImage" /></cc:Work></rdf:RDF></metadata><sodipodi:namedview
   pagecolor="#ffffff"
   bordercolor="#666666"
   borderopacity="1"
   objecttolerance="10"
   gridtolerance="10"
   guidetolerance="10"
   inkscape:pageopacity="0"
   inkscape:pageshadow="2"
   inkscape:window-width="1920"
   inkscape:window-height="1057"
   id="namedview12"
   showgrid="false"
   inkscape:zoom="53.821773"
   inkscape:cx="5.4039347"
   inkscape:cy="4.0416793"
   inkscape:window-x="-8"
   inkscape:window-y="-8"
   inkscape:window-maximized="1"
   inkscape:current-layer="svg10"
   showguides="true"
   inkscape:guide-bbox="true"><sodipodi:guide
     position="2.1482555,2.3055649"
     orientation="1,0"
     id="guide821"
     inkscape:locked="false" /><sodipodi:guide
     position="0.0049159164,2.236742"
     orientation="1,0"
     id="guide823"
     inkscape:locked="false" /><sodipodi:guide
     position="0.59482589,-0.0098318331"
     orientation="0,1"
     id="guide825"
     inkscape:locked="false" /><sodipodi:guide
     position="0.76196705,1.9319552"
     orientation="0,1"
     id="guide827"
     inkscape:locked="false" /><sodipodi:guide
     position="-1.4649431,1.4403635"
     orientation="0,1"
     id="guide829"
     inkscape:locked="false" /><sodipodi:guide
     position="-1.2732224,0.52600307"
     orientation="0,1"
     id="guide831"
     inkscape:locked="false" /></sodipodi:namedview>
 <defs
   id="defs4">
  <style
   type="text/css"
   id="style2">
   <![CDATA[
    .fil0 {fill:black}
   ]]>
  </style>
 </defs>
 <g
   id="Camada_x0020_1"
   transform="matrix(0.40326893,0,0,0.44690865,-41.301683,-64.136815)">
  <metadata
   id="CorelCorpID_0Corel-Layer" />
  <path
   class="fil0"
   d="m 105.163,145.812 0.6088,0.6088 -0.1937,0.1882 -0.6253,-0.6088 -0.6255,0.6254 -0.1937,-0.1882 0.631,-0.6254 -0.4373,-0.4593 -0.2657,0.2878 -0.1328,-0.1328 c 0,-0.0849 0.0175,-0.1726 0.0526,-0.263 0.035,-0.0904 0.0858,-0.1743 0.1522,-0.2518 0.0701,-0.059 0.1448,-0.1061 0.2242,-0.1411 0.0793,-0.0351 0.1614,-0.0526 0.2463,-0.0526 l 0.0664,0.005 0.1107,0.1107 -0.2657,0.2491 0.4373,0.4538 0.4759,-0.4704 c -0.0185,-0.0517 -0.0425,-0.1006 -0.072,-0.1467 -0.0295,-0.0461 -0.0683,-0.0932 -0.1162,-0.1411 -0.0406,-0.0296 -0.0803,-0.0581 -0.119,-0.0858 -0.0388,-0.0277 -0.0821,-0.0563 -0.13,-0.0858 0.1327,0 0.2665,0.0286 0.4012,0.0858 0.1347,0.0572 0.2592,0.1393 0.3736,0.2463 0.107,0.0996 0.1845,0.2177 0.2325,0.3542 0.0479,0.1365 0.0719,0.2749 0.0719,0.415 -0.0369,-0.1032 -0.0996,-0.1917 -0.1882,-0.2655 -0.0406,-0.0369 -0.0802,-0.0702 -0.119,-0.0997 -0.0387,-0.0295 -0.0876,-0.059 -0.1467,-0.0885 z"
   id="path7"
   inkscape:connector-curvature="0"
   style="fill:#000000" />
 </g>
</svg>