<?xml version="1.0" encoding="UTF-8" standalone="no"?>
<!-- Creator: CorelDRAW -->

<svg
   xmlns:dc="http://purl.org/dc/elements/1.1/"
   xmlns:cc="http://creativecommons.org/ns#"
   xmlns:rdf="http://www.w3.org/1999/02/22-rdf-syntax-ns#"
   xmlns:svg="http://www.w3.org/2000/svg"
   xmlns="http://www.w3.org/2000/svg"
   xmlns:sodipodi="http://sodipodi.sourceforge.net/DTD/sodipodi-0.dtd"
   xmlns:inkscape="http://www.inkscape.org/namespaces/inkscape"
   xml:space="preserve"
   width="2.0639mm"
   height="1.8669mm"
   style="clip-rule:evenodd;fill-rule:evenodd;image-rendering:optimizeQuality;shape-rendering:geometricPrecision;text-rendering:geometricPrecision"
   viewBox="0 0 2.0639 1.8668999"
   version="1.1"
   id="svg10"
   sodipodi:docname="Mina paralisada.svg"
   inkscape:version="0.92.5 (2060ec1f9f, 2020-04-08)"><metadata
   id="metadata14"><rdf:RDF><cc:Work
       rdf:about=""><dc:format>image/svg+xml</dc:format><dc:type
         rdf:resource="http://purl.org/dc/dcmitype/StillImage" /></cc:Work></rdf:RDF></metadata><sodipodi:namedview
   pagecolor="#ffffff"
   bordercolor="#666666"
   borderopacity="1"
   objecttolerance="10"
   gridtolerance="10"
   guidetolerance="10"
   inkscape:pageopacity="0"
   inkscape:pageshadow="2"
   inkscape:window-width="1920"
   inkscape:window-height="1057"
   id="namedview12"
   showgrid="false"
   showguides="true"
   inkscape:guide-bbox="true"
   inkscape:zoom="76.115481"
   inkscape:cx="4.2052238"
   inkscape:cy="3.0002413"
   inkscape:window-x="-8"
   inkscape:window-y="-8"
   inkscape:window-maximized="1"
   inkscape:current-layer="svg10"><sodipodi:guide
     position="0.013904312,0"
     orientation="0,1"
     id="guide821"
     inkscape:locked="false" /><sodipodi:guide
     position="2.0682663,1.8597016"
     orientation="0,1"
     id="guide823"
     inkscape:locked="false" /><sodipodi:guide
     position="2.0682663,1.8597016"
     orientation="1,0"
     id="guide825"
     inkscape:locked="false" /><sodipodi:guide
     position="0.0034760779,0.99415823"
     orientation="1,0"
     id="guide827"
     inkscape:locked="false" /></sodipodi:namedview>
 <defs
   id="defs4">
  <style
   type="text/css"
   id="style2">
   <![CDATA[
    .fil0 {fill:black}
   ]]>
  </style>
 </defs>
 <g
   id="Camada_x0020_1"
   transform="matrix(0.44588905,0,0,0.45059218,-45.812583,-65.989051)">
  <metadata
   id="CorelCorpID_0Corel-Layer" />
  <path
   class="fil0"
   d="m 104.843,148.351 -0.5867,-0.5867 0.1867,-0.1813 0.6025,0.5867 0.6027,-0.6027 0.1867,0.1813 -0.608,0.6027 0.4213,0.4426 0.256,-0.2774 0.128,0.128 c 0,0.0818 -0.0169,0.1662 -0.0507,0.2534 -0.0337,0.0871 -0.0826,0.168 -0.1466,0.2426 -0.0676,0.0569 -0.1396,0.1022 -0.216,0.136 -0.0765,0.0338 -0.1556,0.0507 -0.2374,0.0507 l -0.064,-0.005 -0.1066,-0.1067 0.256,-0.24 -0.4214,-0.4373 -0.4585,0.4533 c 0.0178,0.0498 0.0409,0.0969 0.0693,0.1413 0.0285,0.0445 0.0658,0.0898 0.112,0.136 0.0391,0.0285 0.0773,0.056 0.1147,0.0827 0.0372,0.0267 0.079,0.0542 0.1252,0.0827 -0.1279,0 -0.2568,-0.0276 -0.3866,-0.0827 -0.1297,-0.0551 -0.2497,-0.1342 -0.36,-0.2373 -0.1031,-0.096 -0.1777,-0.2098 -0.224,-0.3414 -0.0462,-0.1315 -0.0693,-0.2649 -0.0693,-0.3999 0.0356,0.0996 0.096,0.1848 0.1813,0.2559 0.0392,0.0356 0.0774,0.0676 0.1147,0.096 0.0373,0.0285 0.0845,0.0569 0.1413,0.0854 z"
   id="path7"
   inkscape:connector-curvature="0"
   style="fill:#000000" />
 </g>
</svg>