<?xml version="1.0" standalone="no"?>
<!DOCTYPE svg PUBLIC "-//W3C//DTD SVG 1.1//EN" "http://www.w3.org/Graphics/SVG/1.1/DTD/svg11.dtd" >
<svg xmlns="http://www.w3.org/2000/svg" xmlns:xlink="http://www.w3.org/1999/xlink" version="1.1" viewBox="-10 0 17456 16383">
   <path fill="currentColor"
d="M6414 6193q-693 103 -914.5 790.5t-137.5 1413.5h-682q-105 -291 -33.5 -854.5t53.5 -563.5l-3897 6l3 -651l4241 2q725 -986 1790 -783t1830 1205q195 257 323 443.5t236 270.5q621 490 1242.5 2t552.5 -1241q-14 -143 -46 -360.5t-42 -369.5l669 -6q55 398 55 836
q0 12 51 12l3987 -7l1 -695l920 990l-939 940l-2 -593l-4049 7q-4 0 -65.5 192t-128.5 306q-319 532 -1001 794t-1267 -12q-750 -349 -1235.5 -1287t-1514.5 -787z" />
</svg>
