<?xml version="1.0" standalone="no"?>
<!DOCTYPE svg PUBLIC "-//W3C//DTD SVG 1.1//EN" "http://www.w3.org/Graphics/SVG/1.1/DTD/svg11.dtd" >
<svg xmlns="http://www.w3.org/2000/svg" xmlns:xlink="http://www.w3.org/1999/xlink" version="1.1" viewBox="-10 0 18136 16383">
   <path fill="currentColor"
d="M15099 7295q-2166 -3 -3452.5 -2.5t-2566.5 0.5l-2 2612l-546 -3l-2 -2608q-1088 2 -2524 3.5t-3688 2.5q-262 763 -1050 763q-460 0 -786 -333.5t-326 -802.5q0 -470 326 -804t786 -334q770 0 1042 741q30 73 46 134q1950 3 3336 2t2838 -2l-2 -2673l554 -2l-2 2674
q1163 0 2586.5 0.5t3401.5 3.5q201 -878 1082 -878q459 0 786 334t327 804q0 469 -327 802.5t-786 333.5q-793 0 -1051 -768z" />
</svg>
