<?xml version="1.0" standalone="no"?>
<!DOCTYPE svg PUBLIC "-//W3C//DTD SVG 1.1//EN" "http://www.w3.org/Graphics/SVG/1.1/DTD/svg11.dtd" >
<svg xmlns="http://www.w3.org/2000/svg" xmlns:xlink="http://www.w3.org/1999/xlink" version="1.1" viewBox="-10 0 17786 16383">
   <path fill="currentColor"
d="M489 7151l3 -652q3084 3 4530.5 5t2329.5 3l-1371 -1575h775l897 1034q279 324 396 495q157 -213 390 -459l992 -1070h710l-1438 1577q870 1 2283.5 24t4363.5 19v-808l1580 1059l-1580 1024l11 -682q-2842 6 -4286 6.5t-2387 -1.5l1588 1813h-808l-1240 -1438
q-76 -88 -216 -270q-179 235 -236 302l-1238 1406h-784l1649 -1816q-971 -1 -2434 -1.5t-4480 5.5z" />
</svg>
