<?xml version="1.0" standalone="no"?>
<!DOCTYPE svg PUBLIC "-//W3C//DTD SVG 1.1//EN" "http://www.w3.org/Graphics/SVG/1.1/DTD/svg11.dtd" >
<svg xmlns="http://www.w3.org/2000/svg" xmlns:xlink="http://www.w3.org/1999/xlink" version="1.1" viewBox="-10 0 17802 16383">
   <path fill="currentColor"
d="M9171 8381q7 623 773.5 901.5t1626.5 292.5l-109 602q-365 57 -873.5 -41.5t-771.5 -167.5q-370 -97 -698 -364q-760 -560 -720 -1223t658 -1222h-8h-8246v-449h4240h1.5h2.5h1h2q245 -140 502 -249q330 -142 568.5 -233.5t353.5 -174.5q669 -489 199.5 -1097
t-1358.5 -638q-168 -6 -427 -4t-437 -7l99 -591q237 16 443.5 -8.5t548.5 5.5q86 3 345 58t405 103q3 2 214 80.5t333 151.5q568 345 765 979t-213 1117q-220 259 -730 508h47h8723l-1 -987l1515 1144l-1515 1195l9 -911l-5084 8q-130 24 -75 0q-458 212 -787 490.5
t-322 731.5z" />
</svg>
