<?xml version="1.0" standalone="no"?>
<!DOCTYPE svg PUBLIC "-//W3C//DTD SVG 1.1//EN" "http://www.w3.org/Graphics/SVG/1.1/DTD/svg11.dtd" >
<svg xmlns="http://www.w3.org/2000/svg" xmlns:xlink="http://www.w3.org/1999/xlink" version="1.1" viewBox="-10 0 16393 16383">
   <path fill="currentColor"
d="M16159 6627l-7 642q-2522 -3 -3977 -3.5t-2825.5 1t-3147 3.5t-4939.5 3l-3 -651q2208 4 3734 3.5t3049.5 -2t3382.5 -1.5t4733 5zM3243 5142q396 0 396 396t-396 396q-395 0 -395 -396t395 -396zM8709 5142q395 0 395 396t-395 396t-395 -396t395 -396zM14176 5142
q395 0 395 396t-395 396q-396 0 -396 -396t396 -396zM3243 7961q396 0 396 396t-396 396q-395 0 -395 -396t395 -396zM8709 7961q395 0 395 396t-395 396t-395 -396t395 -396zM14176 7961q395 0 395 396t-395 396q-396 0 -396 -396t396 -396z" />
</svg>
