<?xml version="1.0" standalone="no"?>
<!DOCTYPE svg PUBLIC "-//W3C//DTD SVG 1.1//EN" "http://www.w3.org/Graphics/SVG/1.1/DTD/svg11.dtd" >
<svg xmlns="http://www.w3.org/2000/svg" xmlns:xlink="http://www.w3.org/1999/xlink" version="1.1" viewBox="-10 0 18010 16383">
   <path fill="currentColor"
d="M803 7183l3 -651q4368 3 5827 6t1848 4q-31 -186 -110 -383q-131 -325 -403 -678h408q243 326 361 654q73 205 102 409q147 1 436.5 1t1005 -0.5t1998.5 -2.5t3416 -6l1 -696l1447 1027l-1466 904l-2 -593q-3759 7 -5003 6.5t-1852 -3.5q-28 148 -83 297
q-118 331 -361 654h-408q270 -349 403 -678q54 -135 88 -274q-637 -3 -2046.5 -3t-5609.5 6z" />
</svg>
