<?xml version="1.0" standalone="no"?>
<!DOCTYPE svg PUBLIC "-//W3C//DTD SVG 1.1//EN" "http://www.w3.org/Graphics/SVG/1.1/DTD/svg11.dtd" >
<svg xmlns="http://www.w3.org/2000/svg" xmlns:xlink="http://www.w3.org/1999/xlink" version="1.1" viewBox="-10 0 17597 16383">
   <path fill="currentColor"
d="M14716 7294q-1953 -3 -3138 -3t-2325 1.5t-2597.5 3t-3954.5 2.5q-246 717 -987 717q-432 0 -738.5 -313.5t-306.5 -754.5t306.5 -754.5t738.5 -313.5q724 0 980 696q22 54 43 126q1712 3 2952.5 2t2492.5 -2t2757.5 -1t3747.5 3q188 -824 1018 -824q432 0 738.5 313.5
t306.5 754.5t-306.5 754.5t-738.5 313.5q-745 0 -989 -721z" />
</svg>
