<?xml version="1.0" standalone="no"?>
<!DOCTYPE svg PUBLIC "-//W3C//DTD SVG 1.1//EN" "http://www.w3.org/Graphics/SVG/1.1/DTD/svg11.dtd" >
<svg xmlns="http://www.w3.org/2000/svg" xmlns:xlink="http://www.w3.org/1999/xlink" version="1.1" viewBox="-10 0 18136 16383">
   <path fill="currentColor"
d="M15099 8216q-2166 -3 -3452.5 -3t-2566.5 2h-550q-1088 2 -2524 3.5t-3688 2.5q-262 763 -1050 763q-460 0 -786 -333.5t-326 -803.5t326 -803t786 -333q771 0 1042 739q29 71 46 134q1950 3 3336 2.5t2838 -2.5l-2 -2672l554 -1l-2 2673q1163 -1 2586.5 -0.5t3401.5 3.5
q200 -876 1082 -876q459 0 786 333t327 803t-327 803.5t-786 333.5q-793 0 -1051 -768z" />
</svg>
