<?xml version="1.0" standalone="no"?>
<!DOCTYPE svg PUBLIC "-//W3C//DTD SVG 1.1//EN" "http://www.w3.org/Graphics/SVG/1.1/DTD/svg11.dtd" >
<svg xmlns="http://www.w3.org/2000/svg" xmlns:xlink="http://www.w3.org/1999/xlink" version="1.1" viewBox="-10 0 17680 16383">
   <path fill="currentColor"
d="M7448 8671l316 -1690q-1619 -1 -2814.5 -2t-3514.5 2l-10 -637v0q636 1 1602.5 4t1934 7t1773.5 7t1122 3l217 -1057h-2160v-652h3212l-384 1688q1211 1 2833 5t3880 1v-73v-652l1350 1015l-1350 961v-620l220 -1q1154 -2 456 -1t-2128.5 2.5t-3032 3t-2254.5 0.5l-55 -4
l-183 1016h2184v674h-3214z" />
</svg>
