<?xml version="1.0" standalone="no"?>
<!DOCTYPE svg PUBLIC "-//W3C//DTD SVG 1.1//EN" "http://www.w3.org/Graphics/SVG/1.1/DTD/svg11.dtd" >
<svg xmlns="http://www.w3.org/2000/svg" xmlns:xlink="http://www.w3.org/1999/xlink" version="1.1" viewBox="-10 0 17802 16383">
   <path fill="currentColor"
d="M16945 6878q-3453 1616 -5876 1985.5t-4260 100t-3310 -874t-3025 -939.5q3052 -1455 5148 -1951.5t3848.5 -364.5t3468 726t4006.5 1318zM13317 5974q-1149 -311 -2127 -481v3011q1045 -155 2127 -465v-2065zM13717 7919q1291 -405 2625 -1027q-680 -214 -1333 -419
t-1292 -388v1834zM10765 5426q-1133 -164 -2196 -157v3395q1205 35 2431 -132h-235v-3106zM8144 5278q-968 40 -1915 208v2934q985 175 1915 227v-3369zM5804 5568q-900 187 -1819 487v1841q983 276 1819 444v-2772zM3560 6199q-1115 394 -2296 957q530 114 1102 278.5
t1194 341.5v-1577z" />
</svg>
