<?xml version="1.0" standalone="no"?>
<!DOCTYPE svg PUBLIC "-//W3C//DTD SVG 1.1//EN" "http://www.w3.org/Graphics/SVG/1.1/DTD/svg11.dtd" >
<svg xmlns="http://www.w3.org/2000/svg" xmlns:xlink="http://www.w3.org/1999/xlink" version="1.1" viewBox="-10 0 14072 16383">
   <path fill="currentColor"
d="M11878 8992v-1655.5v-1172.5v-1191v-1712h-260h-610l1193 -1962l1192 1962h-813h-115v1734.5v1226v1224v1725.5q0 723 -257.5 1262t-635.5 894q-378 354 -1267 606.5t-1757 252.5q-874 0 -1609.5 -249t-1123.5 -597q-864 -773 -864 -2169v-1725.5v-1224v-1226.5v-1734
h-290h-610l1192 -1962l1193 1962h-813h-71v1735.5v1218.5v1212.5v1717.5q0 556 57 817q60 285 191 480q402 609 1030 952t1894 319q1266 -22 1811.5 -338.5t812.5 -604.5q530 -570 530 -1778z" />
</svg>
