<?xml version="1.0" standalone="no"?>
<!DOCTYPE svg PUBLIC "-//W3C//DTD SVG 1.1//EN" "http://www.w3.org/Graphics/SVG/1.1/DTD/svg11.dtd" >
<svg xmlns="http://www.w3.org/2000/svg" xmlns:xlink="http://www.w3.org/1999/xlink" version="1.1" viewBox="-10 0 14004 16383">
   <path fill="currentColor"
d="M12198 4642q-644 -892 -1439 -1314q-791 -419 -1811 -419q-1594 0 -2728 1181q-1132 1183 -1132 2813q0 1730 1128 2921q1125 1188 2732 1188q990 0 1794 -414q799 -414 1391 -1235h1116q-654 1219 -1760 1889q-1104 666 -2475 666q-2108 0 -3516 -1439
q-1407 -1435 -1407 -3590q0 -1004 381 -1904q378 -898 1116 -1623q684 -684 1533 -1033q847 -352 1841 -352q1426 0 2563 695q1140 696 1803 1970h-1130z" />
</svg>
