<?xml version="1.0" standalone="no"?>
<!DOCTYPE svg PUBLIC "-//W3C//DTD SVG 1.1//EN" "http://www.w3.org/Graphics/SVG/1.1/DTD/svg11.dtd" >
<svg xmlns="http://www.w3.org/2000/svg" xmlns:xlink="http://www.w3.org/1999/xlink" version="1.1" viewBox="-10 0 17306 16383">
   <path fill="currentColor"
d="M946 7862h961q1109 -177 2214.5 -817t1324.5 -1375l234 2q-104 639 -979.5 1264.5t-1932.5 925.5q908 0 1053.5 -1t457.5 1q1109 -177 2214 -817t1325 -1375l235 2q-105 639 -980 1264.5t-1933 925.5q1559 0 1440.5 0t226.5 0q1109 -177 2214 -817t1324 -1375l234 2
q-104 639 -979 1264.5t-1932 925.5h294q785 8 1046.5 17t290.5 12t-27.5 -2.5t94.5 -26.5q1109 -177 2213.5 -817t1324.5 -1375l235 2q-105 639 -980 1264.5t-1933 925.5q2407 10 2887.5 12t156 0.5t-894 -4.5t-261.5 -3q993 -159 1967.5 -700t1355.5 -1195
q90 -155 137 -308h334l-38.5 116t-107.5 196q-35 41 -52 86t-57 96q-67 88 -151 202.5t-257 270.5q-295 267 -756 579q-126 84 -280.5 167t-280.5 152q-240 132 -488.5 216.5t-320.5 121.5l3354 -5v368h-15527v-368z" />
</svg>
