<?xml version="1.0" standalone="no"?>
<!DOCTYPE svg PUBLIC "-//W3C//DTD SVG 1.1//EN" "http://www.w3.org/Graphics/SVG/1.1/DTD/svg11.dtd" >
<svg xmlns="http://www.w3.org/2000/svg" xmlns:xlink="http://www.w3.org/1999/xlink" version="1.1" viewBox="-10 0 16847 16383">
   <path fill="currentColor"
d="M1382 6614q11 -63 12 -67q267 -530 549 -530q345 0 488.5 681.5t489.5 681.5t489.5 -681.5t489.5 -681.5q345 0 488.5 681.5t490.5 681.5q345 0 488.5 -681.5t489.5 -681.5t489.5 681.5t489.5 681.5t489 -681.5t490 -681.5q345 0 488 681.5t488 681.5q346 0 489.5 -681.5
t489.5 -681.5t489 681.5t490 681.5q345 0 488.5 -681.5t490.5 -681.5q345 0 488.5 681.5t489.5 681.5t489.5 -681.5t489.5 -681.5q345 0 488.5 681.5t490.5 681.5q345 0 488.5 -681.5t489.5 -681.5q209 0 394 441v497q-185 -441 -394 -441q-346 0 -489.5 681.5t-488.5 681.5
q-347 0 -490.5 -681.5t-488.5 -681.5q-346 0 -489.5 681.5t-489.5 681.5t-489.5 -681.5t-488.5 -681.5q-347 0 -490.5 681.5t-488.5 681.5q-347 0 -490 -681.5t-489 -681.5t-489.5 681.5t-489.5 681.5q-345 0 -488 -681.5t-488 -681.5q-347 0 -490 681.5t-489 681.5
t-489.5 -681.5t-489.5 -681.5t-489.5 681.5t-488.5 681.5q-347 0 -490.5 -681.5t-488.5 -681.5q-346 0 -489.5 681.5t-489.5 681.5t-489.5 -681.5t-488.5 -681.5q-276 0 -544 518q-5 -106 -10 -211t-7 -207z" />
</svg>
