<?xml version="1.0" standalone="no"?>
<!DOCTYPE svg PUBLIC "-//W3C//DTD SVG 1.1//EN" "http://www.w3.org/Graphics/SVG/1.1/DTD/svg11.dtd" >
<svg xmlns="http://www.w3.org/2000/svg" xmlns:xlink="http://www.w3.org/1999/xlink" version="1.1" viewBox="-10 0 14209 16383">
   <path fill="currentColor"
d="M10787 5689h1091v-3981h587v3981h1058l-1058 1904v1292q0 791 -257.5 1380.5t-635.5 978.5q-378 388 -1267 665t-1757 277q-874 0 -1609.5 -273t-1123.5 -654q-864 -845 -864 -2374v-1296l-1055 -1900h1055v-3981h601v3981h1080l-1080 1944v1223q0 609 57 895
q61 311 191 524q402 668 1030 1043.5t1894 350.5t1811.5 -371.5t812.5 -661.5q530 -625 530 -1948v-1034z" />
</svg>
