<?xml version="1.0" standalone="no"?>
<!DOCTYPE svg PUBLIC "-//W3C//DTD SVG 1.1//EN" "http://www.w3.org/Graphics/SVG/1.1/DTD/svg11.dtd" >
<svg xmlns="http://www.w3.org/2000/svg" xmlns:xlink="http://www.w3.org/1999/xlink" version="1.1" viewBox="-10 0 17755 16383">
   <path fill="currentColor"
d="M10991 10214l31 388q-303 2 -919.5 -20.5t-1261 -119t-1172.5 -292t-653 -540.5q-552 -1509 592.5 -1892t2181.5 -419q273 -8 484 -73q-1299 0 -1195 0t-71 0h-1469h-5389v-448h5678.5h1661.5t22 0t759 0q-196 -55 -474 -81q-342 -33 -902.5 -95.5t-1056 -262.5
t-784.5 -592t-88 -1085q120 -418 642 -695.5t1162 -437.5t1257.5 -216t929.5 -33l-26 440q-246 10 -802.5 48t-1135 157.5t-1035.5 347.5t-503 617q-67 548 340.5 809t968.5 379.5t1115 167.5t782 172q292 160 400 360h2203h3636v448h-3570h-2283q-173 289 -626 390
q-439 100 -1055.5 151t-1122 199.5t-757.5 467t39 951.5q247 540 1575 630t1891 179z" />
</svg>
