<?xml version="1.0" standalone="no"?>
<!DOCTYPE svg PUBLIC "-//W3C//DTD SVG 1.1//EN" "http://www.w3.org/Graphics/SVG/1.1/DTD/svg11.dtd" >
<svg xmlns="http://www.w3.org/2000/svg" xmlns:xlink="http://www.w3.org/1999/xlink" version="1.1" viewBox="-10 0 11754 16383">
   <path fill="currentColor"
d="M9889 4973h711l-555 1951q-22 66 -177 578q165 663 244 788q156 236 390 236q172 0 319 -142q144 -142 192 -440h172q-60 615 -259 853q-202 235 -462 235q-245 0 -444 -205q-201 -209 -357 -883q-191 375 -369 565q-257 269 -549 397q-296 131 -672 131
q-948 0 -1393 -631q-446 -630 -446 -1436q0 -941 524 -1527t1224 -586q489 0 861 299q372 298 677 1108zM9372 6744q-235 -885 -597 -1233q-364 -349 -740 -349q-421 0 -699 461q-279 462 -279 1468q0 599 121 936q117 339 361 527q245 187 512 187q328 0 605 -304
q370 -412 716 -1693z" />
</svg>
