<?xml version="1.0" encoding="UTF-8" standalone="no"?>
<!-- Creator: CorelDRAW -->

<svg
   xmlns:dc="http://purl.org/dc/elements/1.1/"
   xmlns:cc="http://creativecommons.org/ns#"
   xmlns:rdf="http://www.w3.org/1999/02/22-rdf-syntax-ns#"
   xmlns:svg="http://www.w3.org/2000/svg"
   xmlns="http://www.w3.org/2000/svg"
   xmlns:sodipodi="http://sodipodi.sourceforge.net/DTD/sodipodi-0.dtd"
   xmlns:inkscape="http://www.inkscape.org/namespaces/inkscape"
   xml:space="preserve"
   width="4.3232999mm"
   height="2.1422601mm"
   style="clip-rule:evenodd;fill-rule:evenodd;image-rendering:optimizeQuality;shape-rendering:geometricPrecision;text-rendering:geometricPrecision"
   viewBox="0 0 4.3232999 2.1422601"
   version="1.1"
   id="svg10"
   sodipodi:docname="Dobra  horizontal.svg"
   inkscape:version="0.92.5 (2060ec1f9f, 2020-04-08)"><metadata
   id="metadata14"><rdf:RDF><cc:Work
       rdf:about=""><dc:format>image/svg+xml</dc:format><dc:type
         rdf:resource="http://purl.org/dc/dcmitype/StillImage" /></cc:Work></rdf:RDF></metadata><sodipodi:namedview
   pagecolor="#ffffff"
   bordercolor="#666666"
   borderopacity="1"
   objecttolerance="10"
   gridtolerance="10"
   guidetolerance="10"
   inkscape:pageopacity="0"
   inkscape:pageshadow="2"
   inkscape:window-width="1920"
   inkscape:window-height="1057"
   id="namedview12"
   showgrid="false"
   inkscape:zoom="53.821773"
   inkscape:cx="4.4290929"
   inkscape:cy="2.7560868"
   inkscape:window-x="-8"
   inkscape:window-y="-8"
   inkscape:window-maximized="1"
   inkscape:current-layer="svg10" />
 <defs
   id="defs4">
  <style
   type="text/css"
   id="style2">
   <![CDATA[
    .fil0 {fill:black;fill-rule:nonzero}
   ]]>
  </style>
 </defs>
 <g
   id="Camada_x0020_1"
   transform="translate(-103.6506,-131.45244)">
  <metadata
   id="CorelCorpID_0Corel-Layer" />
  <path
   class="fil0"
   d="m 106.242,133.481 0.01,0.1137 c -0.0592,0 -0.1497,-0.002 -0.2697,-0.006 -0.1209,-0.004 -0.2441,-0.016 -0.3698,-0.0344 -0.1256,-0.0192 -0.2401,-0.0473 -0.3433,-0.0857 -0.1033,-0.0384 -0.1673,-0.0912 -0.1913,-0.1584 -0.108,-0.2946 -0.0504,-0.4794 0.1729,-0.5546 0.2241,-0.0744 0.437,-0.116 0.6395,-0.1224 0.0536,-0.002 0.1008,-0.009 0.1424,-0.0217 -0.2537,0 -0.3705,0 -0.3505,0 0.02,0 0.0136,0 -0.0208,0 -0.0345,0 -0.1777,0 -0.4306,0 -0.2529,0 -0.7795,0 -1.5798,0 v -0.1312 c 0.829,0 1.3837,0 1.6646,0 0.2809,0 0.4434,0 0.4874,0 0.0432,0 0.0456,0 0.006,0 -0.0392,0 0.0344,0 0.2225,0 -0.0384,-0.0112 -0.0848,-0.0192 -0.1392,-0.024 -0.0673,-0.006 -0.1553,-0.016 -0.265,-0.028 -0.1088,-0.012 -0.2121,-0.0376 -0.3089,-0.0769 -0.0968,-0.0392 -0.1737,-0.0968 -0.2305,-0.1736 -0.056,-0.0761 -0.0648,-0.1825 -0.0256,-0.3178 0.0232,-0.0816 0.0864,-0.1496 0.1881,-0.2041 0.1024,-0.0544 0.2161,-0.0968 0.3409,-0.128 0.1249,-0.0312 0.2481,-0.0528 0.3682,-0.0633 0.1208,-0.0112 0.2121,-0.0144 0.2729,-0.01 l -0.008,0.1289 c -0.048,0.002 -0.1265,0.006 -0.2353,0.0136 -0.108,0.008 -0.2193,0.0232 -0.3321,0.0464 -0.1137,0.0232 -0.2145,0.0577 -0.3042,0.1017 -0.0888,0.0448 -0.1384,0.1048 -0.1472,0.1808 -0.0129,0.1073 0.02,0.1865 0.1,0.2378 0.0792,0.0504 0.1745,0.088 0.2841,0.1112 0.1097,0.0232 0.2185,0.0392 0.3266,0.0488 0.108,0.01 0.1848,0.0264 0.2289,0.0504 0.0576,0.0313 0.0968,0.0665 0.1176,0.1057 0.1569,0 0.3722,0 0.6459,0 0.2737,0 0.629,0 1.0652,0 v 0.1312 c -0.421,0 -0.7699,0 -1.046,0 -0.2769,0 -0.4994,0 -0.6691,0 -0.0336,0.0561 -0.0952,0.0945 -0.1833,0.1145 -0.0864,0.0192 -0.1896,0.0344 -0.3097,0.044 -0.1209,0.01 -0.2305,0.0296 -0.3289,0.0584 -0.0985,0.0289 -0.1729,0.0744 -0.2217,0.1368 -0.0497,0.0624 -0.0457,0.1553 0.0112,0.2793 0.048,0.1049 0.2017,0.1665 0.4618,0.1841 0.2593,0.0176 0.4442,0.0352 0.5538,0.0528 z"
   id="path7"
   inkscape:connector-curvature="0"
   style="fill:#000000;fill-rule:nonzero" />
 </g>
</svg>