<?xml version="1.0" encoding="UTF-8" standalone="no"?>
<!-- Creator: CorelDRAW -->

<svg
   xmlns:dc="http://purl.org/dc/elements/1.1/"
   xmlns:cc="http://creativecommons.org/ns#"
   xmlns:rdf="http://www.w3.org/1999/02/22-rdf-syntax-ns#"
   xmlns:svg="http://www.w3.org/2000/svg"
   xmlns="http://www.w3.org/2000/svg"
   xmlns:sodipodi="http://sodipodi.sourceforge.net/DTD/sodipodi-0.dtd"
   xmlns:inkscape="http://www.inkscape.org/namespaces/inkscape"
   xml:space="preserve"
   width="2.7634001mm"
   height="2.9122mm"
   style="clip-rule:evenodd;fill-rule:evenodd;image-rendering:optimizeQuality;shape-rendering:geometricPrecision;text-rendering:geometricPrecision"
   viewBox="0 0 2.7634001 2.9122"
   version="1.1"
   id="svg10"
   sodipodi:docname="Garimpo paralisado.svg"
   inkscape:version="0.92.5 (2060ec1f9f, 2020-04-08)"><metadata
   id="metadata14"><rdf:RDF><cc:Work
       rdf:about=""><dc:format>image/svg+xml</dc:format><dc:type
         rdf:resource="http://purl.org/dc/dcmitype/StillImage" /></cc:Work></rdf:RDF></metadata><sodipodi:namedview
   pagecolor="#ffffff"
   bordercolor="#666666"
   borderopacity="1"
   objecttolerance="10"
   gridtolerance="10"
   guidetolerance="10"
   inkscape:pageopacity="0"
   inkscape:pageshadow="2"
   inkscape:window-width="1920"
   inkscape:window-height="1057"
   id="namedview12"
   showgrid="false"
   inkscape:zoom="77.952239"
   inkscape:cx="5.222173"
   inkscape:cy="5.5033702"
   inkscape:window-x="-8"
   inkscape:window-y="-8"
   inkscape:window-maximized="1"
   inkscape:current-layer="svg10" />
 <defs
   id="defs4">
  <style
   type="text/css"
   id="style2">
   <![CDATA[
    .fil0 {fill:black}
   ]]>
  </style>
 </defs>
 <g
   id="Camada_x0020_1"
   transform="matrix(0.60081564,0,0,0.55594406,-61.709214,-81.082925)">
  <metadata
   id="CorelCorpID_0Corel-Layer" />
  <path
   class="fil0"
   d="m 106.382,147.299 -2.0832,2.0938 c 0.0213,0.0212 0.0399,0.0398 0.0558,0.0558 0.016,0.0159 0.0293,0.0327 0.0399,0.0505 0.0248,0.0212 0.054,0.0451 0.0877,0.0717 0.0336,0.0266 0.077,0.0584 0.1302,0.0956 0.0531,0.0372 0.1195,0.0798 0.1993,0.1276 0.0797,0.0478 0.178,0.1018 0.2949,0.1621 -0.1063,-0.0213 -0.1993,-0.0417 -0.279,-0.0611 -0.0797,-0.0195 -0.1497,-0.0381 -0.2099,-0.0558 -0.0567,-0.0284 -0.124,-0.0426 -0.202,-0.0426 -0.418,-0.2019 -0.6837,-0.4853 -0.7971,-0.8502 l 0.3082,-0.1276 c 0.0284,0.039 0.0585,0.0895 0.0904,0.1515 0.0319,0.062 0.0726,0.139 0.1222,0.2312 l 1.9556,-2.1576 z"
   id="path7"
   inkscape:connector-curvature="0"
   style="fill:#000000" />
 </g>
</svg>