<?xml version="1.0" encoding="UTF-8" standalone="no"?>
<!-- Created with Inkscape (http://www.inkscape.org/) -->

<svg
   xmlns:dc="http://purl.org/dc/elements/1.1/"
   xmlns:cc="http://creativecommons.org/ns#"
   xmlns:rdf="http://www.w3.org/1999/02/22-rdf-syntax-ns#"
   xmlns:svg="http://www.w3.org/2000/svg"
   xmlns="http://www.w3.org/2000/svg"
   xmlns:sodipodi="http://sodipodi.sourceforge.net/DTD/sodipodi-0.dtd"
   xmlns:inkscape="http://www.inkscape.org/namespaces/inkscape"
   width="4.32mm"
   height="4.26mm"
   version="1.1"
   viewBox="0 0 4.32 4.26"
   id="svg12"
   sodipodi:docname="Concrecao_calcitica.svg"
   inkscape:version="0.92.5 (2060ec1f9f, 2020-04-08)">
  <defs
     id="defs16" />
  <sodipodi:namedview
     pagecolor="#ffffff"
     bordercolor="#666666"
     borderopacity="1"
     objecttolerance="10"
     gridtolerance="10"
     guidetolerance="10"
     inkscape:pageopacity="0"
     inkscape:pageshadow="2"
     inkscape:window-width="1920"
     inkscape:window-height="1057"
     id="namedview14"
     showgrid="false"
     inkscape:zoom="41.458144"
     inkscape:cx="6.9698655"
     inkscape:cy="8.0503941"
     inkscape:window-x="-8"
     inkscape:window-y="-8"
     inkscape:window-maximized="1"
     inkscape:current-layer="svg12" />
  <metadata
     id="metadata2">
    <rdf:RDF>
      <cc:Work
         rdf:about="">
        <dc:format>image/svg+xml</dc:format>
        <dc:type
           rdf:resource="http://purl.org/dc/dcmitype/StillImage" />
        <dc:title />
      </cc:Work>
    </rdf:RDF>
  </metadata>
  <g
     transform="translate(-63.062 -108.85)"
     id="g10">
    <g
       transform="matrix(.01 0 0 .01 -84.808 68.372)"
       clip-rule="evenodd"
       fill-rule="evenodd"
       image-rendering="optimizeQuality"
       shape-rendering="geometricPrecision"
       text-rendering="geometricPrecision"
       id="g8">
      <path
         style="fill:none;stroke:#000000;stroke-width:50"
         d="m 15194,4261 a 191,188 0 0 1 -191,188 191,188 0 0 1 -191,-188 191,188 0 0 1 191,-188 191,188 0 0 1 191,188 z"
         id="ellipse4" />
      <g
         aria-label="C"
         style="font-weight:bold;font-size:246.94000244px;font-family:Arial;fill:#000000"
         id="text6">
        <path
           style="font-weight:bold;font-size:246.94000244px;font-family:Arial;fill:#000000"
           d="m 15051.066,4279.0094 34.606,10.9725 q -7.958,28.9383 -26.527,43.0457 -18.448,13.9868 -46.904,13.9868 -35.208,0 -57.877,-23.9947 -22.668,-24.1152 -22.668,-65.8345 0,-44.1309 22.789,-68.4873 22.789,-24.477 59.926,-24.477 32.435,0 52.692,19.1716 12.058,11.3342 18.086,32.5556 l -35.328,8.4403 q -3.135,-13.7456 -13.143,-21.7037 -9.888,-7.958 -24.115,-7.958 -19.654,0 -31.953,14.1074 -12.178,14.1074 -12.178,45.6984 0,33.5202 12.057,47.7481 12.058,14.228 31.35,14.228 14.228,0 24.477,-9.0432 10.249,-9.0432 14.71,-28.456 z"
           id="path824" />
      </g>
    </g>
  </g>
</svg>
