<?xml version="1.0" encoding="UTF-8" standalone="no"?>
<!-- Created with Inkscape (http://www.inkscape.org/) -->

<svg
   xmlns:dc="http://purl.org/dc/elements/1.1/"
   xmlns:cc="http://creativecommons.org/ns#"
   xmlns:rdf="http://www.w3.org/1999/02/22-rdf-syntax-ns#"
   xmlns:svg="http://www.w3.org/2000/svg"
   xmlns="http://www.w3.org/2000/svg"
   xmlns:sodipodi="http://sodipodi.sourceforge.net/DTD/sodipodi-0.dtd"
   xmlns:inkscape="http://www.inkscape.org/namespaces/inkscape"
   width="4.32mm"
   height="4.26mm"
   version="1.1"
   viewBox="0 0 4.32 4.26"
   id="svg12"
   sodipodi:docname="Concrecao_silicosa.svg"
   inkscape:version="0.92.5 (2060ec1f9f, 2020-04-08)">
  <defs
     id="defs16" />
  <sodipodi:namedview
     pagecolor="#ffffff"
     bordercolor="#666666"
     borderopacity="1"
     objecttolerance="10"
     gridtolerance="10"
     guidetolerance="10"
     inkscape:pageopacity="0"
     inkscape:pageshadow="2"
     inkscape:window-width="1920"
     inkscape:window-height="1057"
     id="namedview14"
     showgrid="false"
     inkscape:zoom="41.458144"
     inkscape:cx="6.9698655"
     inkscape:cy="8.0503941"
     inkscape:window-x="-8"
     inkscape:window-y="-8"
     inkscape:window-maximized="1"
     inkscape:current-layer="svg12" />
  <metadata
     id="metadata2">
    <rdf:RDF>
      <cc:Work
         rdf:about="">
        <dc:format>image/svg+xml</dc:format>
        <dc:type
           rdf:resource="http://purl.org/dc/dcmitype/StillImage" />
        <dc:title />
      </cc:Work>
    </rdf:RDF>
  </metadata>
  <g
     transform="translate(-63.21 -108.59)"
     id="g10">
    <g
       transform="matrix(.01 0 0 .01 -84.66 77.551)"
       clip-rule="evenodd"
       fill-rule="evenodd"
       image-rendering="optimizeQuality"
       shape-rendering="geometricPrecision"
       text-rendering="geometricPrecision"
       id="g8">
      <path
         style="fill:none;stroke:#000000;stroke-width:50"
         d="m 15194,3317 a 191,188 0 0 1 -191,188 191,188 0 0 1 -191,-188 191,188 0 0 1 191,-188 191,188 0 0 1 191,188 z"
         id="ellipse4" />
      <g
         aria-label="S"
         style="font-weight:bold;font-size:246.94000244px;font-family:Arial;fill:#000000"
         id="text6">
        <path
           d="m 14935.923,3348.4852 34.726,-3.3762 q 3.135,17.4836 12.66,25.6828 9.646,8.1991 25.924,8.1991 17.242,0 25.924,-7.2345 8.802,-7.3552 8.802,-17.1218 0,-6.27 -3.738,-10.6108 -3.617,-4.4613 -12.781,-7.7168 -6.27,-2.1704 -28.577,-7.7169 -28.697,-7.114 -40.272,-17.4835 -16.278,-14.5898 -16.278,-35.57 0,-13.5046 7.596,-25.2004 7.717,-11.8165 22.066,-17.9659 14.469,-6.1494 34.846,-6.1494 33.279,0 50.04,14.5897 16.88,14.5898 17.724,38.9461 l -35.69,1.5675 q -2.291,-13.6251 -9.888,-19.5333 -7.475,-6.0288 -22.547,-6.0288 -15.555,0 -24.357,6.3905 -5.667,4.0996 -5.667,10.9725 0,6.2699 5.306,10.7312 6.752,5.6671 32.796,11.8165 26.045,6.1494 38.464,12.7811 12.54,6.5111 19.533,17.9658 7.114,11.3342 7.114,28.0943 0,15.1926 -8.44,28.456 -8.44,13.2633 -23.874,19.7744 -15.434,6.3906 -38.464,6.3906 -33.52,0 -51.486,-15.4338 -17.966,-15.5543 -21.462,-45.216 z"
           style="font-weight:bold;font-size:246.94000244px;font-family:Arial;fill:#000000"
           id="path824" />
      </g>
    </g>
  </g>
</svg>
