<?xml version="1.0" encoding="UTF-8" standalone="no"?>
<!-- Created with Inkscape (http://www.inkscape.org/) -->

<svg
   xmlns:dc="http://purl.org/dc/elements/1.1/"
   xmlns:cc="http://creativecommons.org/ns#"
   xmlns:rdf="http://www.w3.org/1999/02/22-rdf-syntax-ns#"
   xmlns:svg="http://www.w3.org/2000/svg"
   xmlns="http://www.w3.org/2000/svg"
   xmlns:sodipodi="http://sodipodi.sourceforge.net/DTD/sodipodi-0.dtd"
   xmlns:inkscape="http://www.inkscape.org/namespaces/inkscape"
   width="6.27mm"
   height="1.8279mm"
   version="1.1"
   viewBox="0 0 6.27 1.8279"
   id="svg14"
   sodipodi:docname="Crosta.svg"
   inkscape:version="0.92.5 (2060ec1f9f, 2020-04-08)">
  <defs
     id="defs18" />
  <sodipodi:namedview
     pagecolor="#ffffff"
     bordercolor="#666666"
     borderopacity="1"
     objecttolerance="10"
     gridtolerance="10"
     guidetolerance="10"
     inkscape:pageopacity="0"
     inkscape:pageshadow="2"
     inkscape:window-width="1920"
     inkscape:window-height="1057"
     id="namedview16"
     showgrid="false"
     inkscape:zoom="18.60945"
     inkscape:cx="10.908436"
     inkscape:cy="3.4542993"
     inkscape:window-x="-8"
     inkscape:window-y="-8"
     inkscape:window-maximized="1"
     inkscape:current-layer="svg14" />
  <metadata
     id="metadata2">
    <rdf:RDF>
      <cc:Work
         rdf:about="">
        <dc:format>image/svg+xml</dc:format>
        <dc:type
           rdf:resource="http://purl.org/dc/dcmitype/StillImage" />
        <dc:title />
      </cc:Work>
    </rdf:RDF>
  </metadata>
  <g
     transform="translate(-59.759 -110.17)"
     id="g12">
    <g
       transform="matrix(.01 0 0 .01 -87.271 45.063)"
       clip-rule="evenodd"
       fill-rule="evenodd"
       image-rendering="optimizeQuality"
       shape-rendering="geometricPrecision"
       text-rendering="geometricPrecision"
       id="g10">
      <g
         aria-label="HG"
         style="font-weight:bold;font-size:246.94000244px;font-family:Arial;fill:#000000"
         id="text4">
        <path
           d="m 14851.086,6691 v -176.7647 h 35.691 v 69.5725 h 69.934 v -69.5725 h 35.691 V 6691 h -35.691 v -77.2893 h -69.934 V 6691 Z"
           style="font-weight:bold;font-size:246.94000244px;font-family:Arial;fill:#000000"
           id="path828" />
        <path
           d="m 15111.652,6626.0094 v -29.7823 h 76.927 v 70.4165 q -11.213,10.8519 -32.555,19.1716 -21.222,8.1992 -43.046,8.1992 -27.733,0 -48.351,-11.5753 -20.619,-11.6959 -30.988,-33.279 -10.37,-21.7037 -10.37,-47.1453 0,-27.612 11.576,-49.0745 11.575,-21.4626 33.881,-32.9173 17.002,-8.8021 42.323,-8.8021 32.917,0 51.365,13.8663 18.569,13.7457 23.874,38.1021 l -35.449,6.6316 q -3.738,-13.0222 -14.108,-20.4979 -10.249,-7.5963 -25.682,-7.5963 -23.392,0 -37.258,14.8309 -13.746,14.8308 -13.746,44.0103 0,31.4704 13.987,47.2658 13.987,15.6749 36.655,15.6749 11.214,0 22.427,-4.3407 11.334,-4.4613 19.413,-10.7313 v -22.4272 z"
           style="font-weight:bold;font-size:246.94000244px;font-family:Arial;fill:#000000"
           id="path830" />
      </g>
      <path
         style="fill:none;stroke:#000000;stroke-width:50"
         d="m 14703,6603 h 105"
         id="line6" />
      <path
         style="fill:none;stroke:#000000;stroke-width:50"
         d="m 15224,6603 h 106"
         id="line8" />
    </g>
  </g>
</svg>
