<?xml version="1.0" encoding="UTF-8" standalone="no"?>
<!-- Created with Inkscape (http://www.inkscape.org/) -->

<svg
   xmlns:dc="http://purl.org/dc/elements/1.1/"
   xmlns:cc="http://creativecommons.org/ns#"
   xmlns:rdf="http://www.w3.org/1999/02/22-rdf-syntax-ns#"
   xmlns:svg="http://www.w3.org/2000/svg"
   xmlns="http://www.w3.org/2000/svg"
   xmlns:sodipodi="http://sodipodi.sourceforge.net/DTD/sodipodi-0.dtd"
   xmlns:inkscape="http://www.inkscape.org/namespaces/inkscape"
   width="9.278mm"
   height="3.6053mm"
   version="1.1"
   viewBox="0 0 9.278 3.6053"
   id="svg18"
   sodipodi:docname="Estratificacao_cruzada_acanalada.svg"
   inkscape:version="0.92.5 (2060ec1f9f, 2020-04-08)">
  <defs
     id="defs22" />
  <sodipodi:namedview
     pagecolor="#ffffff"
     bordercolor="#666666"
     borderopacity="1"
     objecttolerance="10"
     gridtolerance="10"
     guidetolerance="10"
     inkscape:pageopacity="0"
     inkscape:pageshadow="2"
     inkscape:window-width="1920"
     inkscape:window-height="1057"
     id="namedview20"
     showgrid="false"
     inkscape:zoom="35.570642"
     inkscape:cx="16.718174"
     inkscape:cy="6.0822254"
     inkscape:window-x="-8"
     inkscape:window-y="-8"
     inkscape:window-maximized="1"
     inkscape:current-layer="svg18" />
  <metadata
     id="metadata2">
    <rdf:RDF>
      <cc:Work
         rdf:about="">
        <dc:format>image/svg+xml</dc:format>
        <dc:type
           rdf:resource="http://purl.org/dc/dcmitype/StillImage" />
        <dc:title />
      </cc:Work>
    </rdf:RDF>
  </metadata>
  <path
     id="path4"
     transform="scale(0.26458334)"
     style="color:#000000;font-style:normal;font-variant:normal;font-weight:normal;font-stretch:normal;font-size:medium;line-height:normal;font-family:sans-serif;font-variant-ligatures:normal;font-variant-position:normal;font-variant-caps:normal;font-variant-numeric:normal;font-variant-alternates:normal;font-feature-settings:normal;text-indent:0;text-align:start;text-decoration:none;text-decoration-line:none;text-decoration-style:solid;text-decoration-color:#000000;letter-spacing:normal;word-spacing:normal;text-transform:none;writing-mode:lr-tb;direction:ltr;text-orientation:mixed;dominant-baseline:auto;baseline-shift:baseline;text-anchor:start;white-space:normal;shape-padding:0;clip-rule:evenodd;display:inline;overflow:visible;visibility:visible;opacity:1;isolation:auto;mix-blend-mode:normal;color-interpolation:sRGB;color-interpolation-filters:linearRGB;solid-color:#000000;solid-opacity:1;vector-effect:none;fill:#000000;fill-opacity:1;fill-rule:evenodd;stroke:none;stroke-width:1.88976371;stroke-linecap:butt;stroke-linejoin:miter;stroke-miterlimit:4;stroke-dasharray:none;stroke-dashoffset:0;stroke-opacity:1;color-rendering:auto;image-rendering:optimizeQuality;shape-rendering:geometricPrecision;text-rendering:auto;enable-background:accumulate"
     d="M 1.6972656,-0.0078125 0,0.8203125 C 0.75869244,2.375632 1.5619194,3.9885958 2.4589844,5.4707031 l 0.00586,0.00586 0.00781,0.00781 C 3.4147133,6.9759874 4.4751793,8.3130699 5.625,9.4628906 6.7671411,10.605032 7.9515524,11.5573 9.0644531,12.216797 l 0.00781,0.0078 c 1.1360999,0.6492 2.2289999,1.04396 3.5351559,1.248047 h 0.01563 0.01563 c 1.300803,0.162599 2.769656,0.163268 4.185547,0.125 h 0.01367 l 0.01563,-0.0078 c 1.407223,-0.07607 2.924034,-0.188248 4.451172,-0.679688 l 0.02148,-0.0059 c 1.52547,-0.456948 2.977416,-1.250213 4.40039,-2.134766 1.457054,-0.9057359 2.855477,-1.9983978 4.169922,-3.1582029 1.323176,-1.1675081 2.59281,-2.4717228 3.462891,-3.5 0.886918,-1.0481753 1.318549,-1.8488538 1.712891,-2.4941406 L 33.455078,0.62695312 C 33.017924,1.3422962 32.688184,1.9773524 31.912109,2.8945312 31.119198,3.8316084 29.895341,5.0931506 28.648438,6.1933594 27.392804,7.3012708 26.068312,8.3273098 24.728516,9.1601562 23.361377,10.009999 22.029107,10.725933 20.765625,11.101562 H 20.75 l -0.0078,0.0078 c -0.01984,0.0064 -0.04066,0.0093 -0.06055,0.01563 0.0053,-0.0027 0.01227,-0.0051 0.01758,-0.0078 l 0.0078,-0.0078 c 1.492746,-0.74767 2.424153,-1.462927 3.248047,-2.2070312 l 0.01367,-0.013672 c 0.848654,-0.7338522 1.662798,-1.498896 2.363284,-2.2382982 0.716364,-0.7561621 1.302759,-1.5030366 1.800781,-2.1542968 0.523087,-0.6840359 0.923168,-1.3248499 1.1875,-1.8535157 l 0.01563,-0.029297 0.01367,-0.029297 c 0.25346,-0.6083677 0.265625,-1.1578894 0.265625,-1.4980469 h -1.888672 c 0,0.3268853 -0.0015,0.4632057 -0.111328,0.7382813 C 27.423692,2.2025509 27.086171,2.7534506 26.634766,3.34375 26.150111,3.9775294 25.60325,4.6715046 24.958984,5.3515625 24.303335,6.0436371 23.529067,6.7803829 22.720703,7.4785156 l -0.0059,0.00586 -0.0078,0.00781 c -0.758196,0.6859891 -1.484557,1.2510678 -2.849609,1.9335937 h -0.0078 -0.0078 c -0.834699,0.428629 -1.970137,0.9241947 -3.177735,1.4335937 0.310784,-0.1817 0.61139,-0.370986 0.896485,-0.568359 1.068639,-0.7398273 1.859564,-1.5723606 2.599609,-2.4667971 0.752051,-0.8707952 1.451371,-1.83994 2.007813,-2.7519532 0.587819,-0.9237165 0.917067,-1.7904991 1.173828,-2.4140625 l 0.0078,-0.029297 0.01367,-0.023437 C 23.600372,1.933706 23.766272,1.3602604 23.888672,0.7890625 l -1.853516,-0.390625 c -0.101992,0.47596251 -0.243147,0.9493746 -0.451172,1.5429687 -0.27127,0.659187 -0.541289,1.3751509 -1.009765,2.1113282 v 0.00781 l -0.0078,0.00781 c -0.500233,0.8218159 -1.158273,1.7365123 -1.83789,2.5234375 l -0.0078,0.00781 v 0.00781 c -0.692428,0.8382119 -1.339981,1.508508 -2.230469,2.125 -0.909132,0.6293998 -2.002399,1.1938512 -3.083984,1.4980471 -0.597846,0.168144 -1.203917,0.264899 -1.826172,0.33789 0.976639,-0.370051 1.830519,-0.9346645 2.607422,-1.5703121 0.903902,-0.739556 1.655048,-1.5761937 2.193359,-2.1914063 0.51756,-0.5914964 0.890888,-1.0117604 1.269532,-1.5957031 C 18.029298,4.6636542 18.38888,4.0249913 18.675807,3.4101462 18.926763,2.8723833 19.20214,2.3831415 19.392604,1.859365 19.572069,1.3658365 19.656857,0.93067708 19.732448,0.55272438 L 17.878906,0.18359375 C 17.803316,0.56154653 17.73618,0.88078246 17.613281,1.21875 17.501385,1.5264696 17.241069,2.0171859 16.962891,2.6132812 16.720685,3.1322945 16.401043,3.699362 16.099609,4.1347656 l -0.0078,0.013672 -0.01367,0.015625 c -0.295885,0.4602406 -0.590242,0.7934245 -1.123047,1.4023437 -0.519956,0.5942366 -1.2038,1.3496293 -1.96289,1.9707032 -0.780812,0.6388463 -1.554066,1.1222544 -2.369141,1.3730468 v 0.00781 h -0.0078 C 9.9268137,9.1382705 9.0667381,9.1929006 8.1660156,9.2304688 8.128448,9.1985517 8.0903936,9.1672803 8.0527344,9.1347656 8.7589802,8.9720433 9.4599577,8.6774361 10.113281,8.2753906 11.231805,7.5870688 12.107238,6.6647218 12.740234,5.7363281 13.354711,4.8350953 13.758962,3.9947909 14.083984,3.3808594 l 0.0078,-0.021484 0.0078,-0.023437 C 14.390573,2.7176353 14.661074,2.236668 14.851537,1.7128915 15.042001,1.189115 15.094992,0.73859587 15.132787,0.3984384 L 13.25,0.18359375 C 13.212205,0.52375126 13.191976,0.75478044 13.080078,1.0625 12.970919,1.3626876 12.711633,1.8518977 12.408203,2.4941406 12.052911,3.1652485 11.702975,3.9101162 11.183594,4.671875 10.682731,5.4064734 9.9698776,6.1448887 9.1230469,6.6660156 8.2966694,7.1745556 7.2452663,7.4179887 6.7773438,7.359375 6.2736499,7.2647133 5.9407772,6.915855 5.4179688,6.3183594 L 5.3886719,6.34375 C 4.9304369,5.7606498 4.4885461,5.1432513 4.0742188,4.4882812 l -0.00586,-0.015625 C 3.2299365,3.0857272 2.4479403,1.5310705 1.6972656,-0.0078125 Z" />
</svg>
