<?xml version="1.0" encoding="UTF-8" standalone="no"?>
<!-- Created with Inkscape (http://www.inkscape.org/) -->

<svg
   xmlns:dc="http://purl.org/dc/elements/1.1/"
   xmlns:cc="http://creativecommons.org/ns#"
   xmlns:rdf="http://www.w3.org/1999/02/22-rdf-syntax-ns#"
   xmlns:svg="http://www.w3.org/2000/svg"
   xmlns="http://www.w3.org/2000/svg"
   xmlns:sodipodi="http://sodipodi.sourceforge.net/DTD/sodipodi-0.dtd"
   xmlns:inkscape="http://www.inkscape.org/namespaces/inkscape"
   width="4.32mm"
   height="4.26mm"
   version="1.1"
   viewBox="0 0 4.32 4.26"
   id="svg12"
   sodipodi:docname="Concrecao_piritosa.svg"
   inkscape:version="0.92.5 (2060ec1f9f, 2020-04-08)">
  <defs
     id="defs16" />
  <sodipodi:namedview
     pagecolor="#ffffff"
     bordercolor="#666666"
     borderopacity="1"
     objecttolerance="10"
     gridtolerance="10"
     guidetolerance="10"
     inkscape:pageopacity="0"
     inkscape:pageshadow="2"
     inkscape:window-width="1920"
     inkscape:window-height="1057"
     id="namedview14"
     showgrid="false"
     inkscape:zoom="41.458144"
     inkscape:cx="6.9698655"
     inkscape:cy="8.0503941"
     inkscape:window-x="-8"
     inkscape:window-y="-8"
     inkscape:window-maximized="1"
     inkscape:current-layer="svg12" />
  <metadata
     id="metadata2">
    <rdf:RDF>
      <cc:Work
         rdf:about="">
        <dc:format>image/svg+xml</dc:format>
        <dc:type
           rdf:resource="http://purl.org/dc/dcmitype/StillImage" />
        <dc:title />
      </cc:Work>
    </rdf:RDF>
  </metadata>
  <g
     transform="translate(-62.962 -108.87)"
     id="g10">
    <g
       transform="matrix(.01 0 0 .01 -84.908 73.146)"
       clip-rule="evenodd"
       fill-rule="evenodd"
       image-rendering="optimizeQuality"
       shape-rendering="geometricPrecision"
       text-rendering="geometricPrecision"
       id="g8">
      <path
         style="fill:none;stroke:#000000;stroke-width:50"
         d="m 15194,3785 a 191,188 0 0 1 -191,188 191,188 0 0 1 -191,-188 191,188 0 0 1 191,-188 191,188 0 0 1 191,188 z"
         id="ellipse4" />
      <g
         aria-label="P"
         style="font-weight:bold;font-size:246.94000244px;font-family:Arial;fill:#000000"
         id="text6">
        <path
           d="m 14957.966,3874 v -176.7647 h 57.274 q 32.555,0 42.442,2.6527 15.193,3.979 25.442,17.363 10.249,13.2634 10.249,34.3642 0,16.2778 -5.908,27.3708 -5.909,11.093 -15.072,17.4835 -9.044,6.27 -18.449,8.3198 -12.781,2.5321 -37.016,2.5321 h -23.272 V 3874 Z m 35.69,-146.8618 v 50.1597 h 19.534 q 21.101,0 28.215,-2.7732 7.114,-2.7733 11.093,-8.6815 4.099,-5.9083 4.099,-13.7457 0,-9.6461 -5.667,-15.9161 -5.667,-6.2699 -14.348,-7.8374 -6.391,-1.2058 -25.683,-1.2058 z"
           style="font-weight:bold;font-size:246.94000244px;font-family:Arial;fill:#000000"
           id="path824" />
      </g>
    </g>
  </g>
</svg>
