<?xml version="1.0" encoding="UTF-8" standalone="no"?>
<!-- Created with Inkscape (http://www.inkscape.org/) -->

<svg
   xmlns:dc="http://purl.org/dc/elements/1.1/"
   xmlns:cc="http://creativecommons.org/ns#"
   xmlns:rdf="http://www.w3.org/1999/02/22-rdf-syntax-ns#"
   xmlns:svg="http://www.w3.org/2000/svg"
   xmlns="http://www.w3.org/2000/svg"
   xmlns:sodipodi="http://sodipodi.sourceforge.net/DTD/sodipodi-0.dtd"
   xmlns:inkscape="http://www.inkscape.org/namespaces/inkscape"
   width="8.78mm"
   height="3.9704mm"
   version="1.1"
   viewBox="0 0 8.78 3.9704"
   id="svg26"
   sodipodi:docname="Estratificacao_cruzada_espinha_peixe.svg"
   inkscape:version="0.92.5 (2060ec1f9f, 2020-04-08)">
  <defs
     id="defs30" />
  <sodipodi:namedview
     pagecolor="#ffffff"
     bordercolor="#666666"
     borderopacity="1"
     objecttolerance="10"
     gridtolerance="10"
     guidetolerance="10"
     inkscape:pageopacity="0"
     inkscape:pageshadow="2"
     inkscape:window-width="1920"
     inkscape:window-height="1057"
     id="namedview28"
     showgrid="false"
     inkscape:zoom="13.289437"
     inkscape:cx="15.27529"
     inkscape:cy="7.5031183"
     inkscape:window-x="-8"
     inkscape:window-y="-8"
     inkscape:window-maximized="1"
     inkscape:current-layer="svg26" />
  <metadata
     id="metadata2">
    <rdf:RDF>
      <cc:Work
         rdf:about="">
        <dc:format>image/svg+xml</dc:format>
        <dc:type
           rdf:resource="http://purl.org/dc/dcmitype/StillImage" />
        <dc:title />
      </cc:Work>
    </rdf:RDF>
  </metadata>
  <g
     transform="translate(-58.214 -101.58)"
     id="g24">
    <g
       transform="matrix(.01 0 0 .01 35.904 -33.061)"
       clip-rule="evenodd"
       fill="none"
       fill-rule="evenodd"
       image-rendering="optimizeQuality"
       shape-rendering="geometricPrecision"
       stroke="#000"
       stroke-width="50"
       id="g22">
      <path
         style="color:#000000;font-style:normal;font-variant:normal;font-weight:normal;font-stretch:normal;font-size:medium;line-height:normal;font-family:sans-serif;font-variant-ligatures:normal;font-variant-position:normal;font-variant-caps:normal;font-variant-numeric:normal;font-variant-alternates:normal;font-feature-settings:normal;text-indent:0;text-align:start;text-decoration:none;text-decoration-line:none;text-decoration-style:solid;text-decoration-color:#000000;letter-spacing:normal;word-spacing:normal;text-transform:none;writing-mode:lr-tb;direction:ltr;text-orientation:mixed;dominant-baseline:auto;baseline-shift:baseline;text-anchor:start;white-space:normal;shape-padding:0;clip-rule:nonzero;display:inline;overflow:visible;visibility:visible;opacity:1;isolation:auto;mix-blend-mode:normal;color-interpolation:sRGB;color-interpolation-filters:linearRGB;solid-color:#000000;solid-opacity:1;vector-effect:none;fill:#000000;fill-opacity:1;fill-rule:nonzero;stroke:none;stroke-width:1.88976371;stroke-linecap:butt;stroke-linejoin:miter;stroke-miterlimit:4;stroke-dasharray:none;stroke-dashoffset:0;stroke-opacity:1;color-rendering:auto;image-rendering:auto;shape-rendering:auto;text-rendering:auto;enable-background:accumulate"
         d="M 5.3320312 -0.00390625 C 4.142807 2.1646602 2.9167587 4.3137664 1.7128906 6.4960938 L 0 6.4960938 L 0 8.3867188 L 1.6484375 8.3867188 C 2.8728192 10.609142 4.1217013 12.7949 5.3320312 15.001953 L 6.9882812 14.09375 C 5.9346385 12.172385 4.8656986 10.284678 3.8105469 8.3867188 L 9.4726562 8.3867188 C 10.697038 10.609142 11.94592 12.7949 13.15625 15.001953 L 14.8125 14.09375 C 13.758857 12.172385 12.689917 10.284678 11.634766 8.3867188 L 17.181641 8.3867188 C 18.406022 10.609142 19.654904 12.7949 20.865234 15.001953 L 22.523438 14.09375 C 21.469795 12.172385 20.400855 10.284678 19.345703 8.3867188 L 25.988281 8.3867188 C 27.212663 10.609142 28.461545 12.7949 29.671875 15.001953 L 31.330078 14.09375 C 30.276407 12.172333 29.205569 10.284729 28.150391 8.3867188 L 33.183594 8.3867188 L 33.183594 6.4960938 L 28.214844 6.4960938 C 29.249465 4.6367769 30.297702 2.7868812 31.330078 0.90429688 L 29.671875 -0.00390625 C 28.482651 2.1646602 27.256602 4.3137664 26.052734 6.4960938 L 19.257812 6.4960938 C 20.292404 4.6368327 21.338748 2.7868252 22.371094 0.90429688 L 20.714844 -0.00390625 C 19.525619 2.1646602 18.299571 4.3137664 17.095703 6.4960938 L 11.585938 6.4960938 C 12.620529 4.6368327 13.666873 2.7868252 14.699219 0.90429688 L 13.042969 -0.00390625 C 11.853744 2.1646602 10.627696 4.3137664 9.4238281 6.4960938 L 3.875 6.4960938 C 4.9095915 4.6368327 5.955936 2.7868252 6.9882812 0.90429688 L 5.3320312 -0.00390625 z "
         transform="matrix(26.458333,0,0,26.458333,2231,13464.1)"
         id="path4" />
    </g>
  </g>
</svg>
