<?xml version="1.0" encoding="UTF-8"?>
<!-- Created with Inkscape (http://www.inkscape.org/) -->
<svg width="6.3mm" height="2.5125mm" version="1.1" viewBox="0 0 6.3 2.5125" xmlns="http://www.w3.org/2000/svg" xmlns:cc="http://creativecommons.org/ns#" xmlns:dc="http://purl.org/dc/elements/1.1/" xmlns:rdf="http://www.w3.org/1999/02/22-rdf-syntax-ns#">
 <metadata>
  <rdf:RDF>
   <cc:Work rdf:about="">
    <dc:format>image/svg+xml</dc:format>
    <dc:type rdf:resource="http://purl.org/dc/dcmitype/StillImage"/>
    <dc:title/>
   </cc:Work>
  </rdf:RDF>
 </metadata>
 <g transform="translate(-63.69 -106.94)">
  <path class="fil2 str1" d="m63.69 107.35h1.12c0.22 0 0.22 0 0.19 0.1s-0.09 0.3-0.08 0.58 0.09 0.63 0.22 0.84 0.32 0.28 0.49 0.31 0.32 0.02 0.46-0.06c0.15-0.08 0.29-0.24 0.37-0.43s0.11-0.4 0.14-0.64 0.07-0.52 0.09-0.67 0.03-0.18 0.16-0.19 0.37-0.01 0.5 0c0.12 0.01 0.12 0.04 0.1 0.16-0.03 0.12-0.08 0.33-0.06 0.56s0.11 0.48 0.2 0.67c0.1 0.19 0.2 0.34 0.34 0.42 0.14 0.09 0.32 0.12 0.47 0.1 0.15-0.03 0.27-0.11 0.37-0.22 0.09-0.11 0.15-0.23 0.19-0.42 0.04-0.19 0.06-0.45 0.08-0.64s0.05-0.33 0.07-0.39c0.02-0.07 0.04-0.07 0.19-0.07h0.69" clip-rule="evenodd" fill="none" image-rendering="optimizeQuality" shape-rendering="geometricPrecision" stroke="#000" stroke-width=".5"/>
 </g>
</svg>
