<?xml version="1.0" encoding="UTF-8" standalone="no"?>
<!-- Created with Inkscape (http://www.inkscape.org/) -->

<svg
   xmlns:dc="http://purl.org/dc/elements/1.1/"
   xmlns:cc="http://creativecommons.org/ns#"
   xmlns:rdf="http://www.w3.org/1999/02/22-rdf-syntax-ns#"
   xmlns:svg="http://www.w3.org/2000/svg"
   xmlns="http://www.w3.org/2000/svg"
   xmlns:sodipodi="http://sodipodi.sourceforge.net/DTD/sodipodi-0.dtd"
   xmlns:inkscape="http://www.inkscape.org/namespaces/inkscape"
   width="9.53mm"
   height="3.2632mm"
   version="1.1"
   viewBox="0 0 9.53 3.2632"
   id="svg16"
   sodipodi:docname="Estratificacao_cruzada_tangencial.svg"
   inkscape:version="0.92.5 (2060ec1f9f, 2020-04-08)">
  <defs
     id="defs20" />
  <sodipodi:namedview
     pagecolor="#ffffff"
     bordercolor="#666666"
     borderopacity="1"
     objecttolerance="10"
     gridtolerance="10"
     guidetolerance="10"
     inkscape:pageopacity="0"
     inkscape:pageshadow="2"
     inkscape:window-width="1920"
     inkscape:window-height="1057"
     id="namedview18"
     showgrid="false"
     inkscape:zoom="12.243573"
     inkscape:cx="16.580127"
     inkscape:cy="6.1666772"
     inkscape:window-x="-8"
     inkscape:window-y="-8"
     inkscape:window-maximized="1"
     inkscape:current-layer="svg16" />
  <metadata
     id="metadata2">
    <rdf:RDF>
      <cc:Work
         rdf:about="">
        <dc:format>image/svg+xml</dc:format>
        <dc:type
           rdf:resource="http://purl.org/dc/dcmitype/StillImage" />
        <dc:title />
      </cc:Work>
    </rdf:RDF>
  </metadata>
  <g
     transform="translate(-61.076 -102.62)"
     id="g14">
    <g
       transform="matrix(.01 0 0 .01 39.766 -17.651)"
       clip-rule="evenodd"
       fill="none"
       fill-rule="evenodd"
       image-rendering="optimizeQuality"
       shape-rendering="geometricPrecision"
       stroke="#000"
       stroke-width="50"
       id="g12">
      <path
         style="color:#000000;font-style:normal;font-variant:normal;font-weight:normal;font-stretch:normal;font-size:medium;line-height:normal;font-family:sans-serif;font-variant-ligatures:normal;font-variant-position:normal;font-variant-caps:normal;font-variant-numeric:normal;font-variant-alternates:normal;font-feature-settings:normal;text-indent:0;text-align:start;text-decoration:none;text-decoration-line:none;text-decoration-style:solid;text-decoration-color:#000000;letter-spacing:normal;word-spacing:normal;text-transform:none;writing-mode:lr-tb;direction:ltr;text-orientation:mixed;dominant-baseline:auto;baseline-shift:baseline;text-anchor:start;white-space:normal;shape-padding:0;clip-rule:nonzero;display:inline;overflow:visible;visibility:visible;opacity:1;isolation:auto;mix-blend-mode:normal;color-interpolation:sRGB;color-interpolation-filters:linearRGB;solid-color:#000000;solid-opacity:1;vector-effect:none;fill:#000000;fill-opacity:1;fill-rule:nonzero;stroke:none;stroke-width:1.88976383;stroke-linecap:butt;stroke-linejoin:miter;stroke-miterlimit:4;stroke-dasharray:none;stroke-dashoffset:0;stroke-opacity:1;color-rendering:auto;image-rendering:auto;shape-rendering:auto;text-rendering:auto;enable-background:accumulate"
         d="M 5.4375 -0.015625 L 3.5566406 0.16015625 C 3.7064762 1.7709154 3.8100059 3.4301744 4.234375 4.8730469 C 4.6567637 6.309154 5.3767241 7.3441961 6.2851562 8.3710938 C 6.9207324 9.089583 7.7050651 9.8152126 8.5820312 10.427734 L 0 10.427734 L 0 12.318359 L 36.019531 12.318359 L 36.019531 10.427734 L 33.589844 10.427734 C 32.270936 10.24301 31.039001 10.020844 29.96875 9.5019531 L 29.962891 9.5 L 29.958984 9.4980469 C 28.844288 8.9734862 27.742713 8.0293643 26.9375 7.1191406 C 26.107349 6.1806839 25.618673 5.4738154 25.285156 4.3398438 C 24.95362 3.2126374 24.828308 1.6240097 24.675781 -0.015625 L 22.794922 0.16015625 C 22.944757 1.7709154 23.046334 3.4301744 23.470703 4.8730469 C 23.893092 6.309154 24.613052 7.3441961 25.521484 8.3710938 C 26.155777 9.0881282 26.942354 9.8146084 27.832031 10.427734 L 22.949219 10.427734 C 21.743395 10.243597 20.628334 10.02997 19.583984 9.5078125 C 18.536519 8.9840834 17.424354 8.0293643 16.619141 7.1191406 C 15.78899 6.1806839 15.300314 5.4738154 14.966797 4.3398438 C 14.63526 3.2126374 14.509948 1.6240097 14.357422 -0.015625 L 12.476562 0.16015625 C 12.626398 1.7709154 12.729928 3.4301744 13.154297 4.8730469 C 13.576686 6.309154 14.296646 7.3441961 15.205078 8.3710938 C 15.842087 9.0912022 16.624055 9.8158904 17.488281 10.427734 L 14.277344 10.427734 C 12.96222 10.243406 11.7701 10.024009 10.693359 9.5019531 C 9.612577 8.9779216 8.504432 8.0293643 7.6992188 7.1191406 C 6.8690682 6.1806839 6.3803919 5.4738154 6.046875 4.3398438 C 5.7153386 3.2126374 5.5900266 1.6240097 5.4375 -0.015625 z "
         transform="matrix(26.458333,0,0,26.458333,2131,12027.1)"
         id="path4" />
    </g>
  </g>
</svg>
