<?xml version="1.0" encoding="UTF-8"?>
<!-- Created with Inkscape (http://www.inkscape.org/) -->
<svg width="7.29mm" height="3.181mm" version="1.1" viewBox="0 0 7.29 3.181" xmlns="http://www.w3.org/2000/svg" xmlns:cc="http://creativecommons.org/ns#" xmlns:dc="http://purl.org/dc/elements/1.1/" xmlns:rdf="http://www.w3.org/1999/02/22-rdf-syntax-ns#">
 <metadata>
  <rdf:RDF>
   <cc:Work rdf:about="">
    <dc:format>image/svg+xml</dc:format>
    <dc:type rdf:resource="http://purl.org/dc/dcmitype/StillImage"/>
    <dc:title/>
   </cc:Work>
  </rdf:RDF>
 </metadata>
 <g transform="translate(-64.174 -106.17)">
  <path class="fil2 str1" d="m64.174 109.03c0.68 0 1.36 0 1.71-0.01s0.38-0.03 0.48-0.18 0.28-0.43 0.42-0.64 0.25-0.34 0.4-0.48 0.36-0.28001 0.59-0.42001c0.23-0.15 0.5-0.3 0.81-0.44 0.31-0.15 0.67-0.29 0.91-0.37 0.24-0.09 0.35-0.12 0.22 0.09-0.13 0.22-0.5 0.68-0.76 1-0.26 0.32-0.41 0.49-0.54 0.67-0.13 0.19-0.25 0.4-0.31 0.53-0.06 0.13-0.07 0.17-0.05 0.21s0.08 0.07 0.65 0.09 1.67 0.02 2.76 0.02" clip-rule="evenodd" fill="none" image-rendering="optimizeQuality" shape-rendering="geometricPrecision" stroke="#000" stroke-width=".5"/>
 </g>
</svg>
