<?xml version="1.0" encoding="UTF-8" standalone="no"?>
<!-- Created with Inkscape (http://www.inkscape.org/) -->

<svg
   xmlns:dc="http://purl.org/dc/elements/1.1/"
   xmlns:cc="http://creativecommons.org/ns#"
   xmlns:rdf="http://www.w3.org/1999/02/22-rdf-syntax-ns#"
   xmlns:svg="http://www.w3.org/2000/svg"
   xmlns="http://www.w3.org/2000/svg"
   xmlns:sodipodi="http://sodipodi.sourceforge.net/DTD/sodipodi-0.dtd"
   xmlns:inkscape="http://www.inkscape.org/namespaces/inkscape"
   width="6.0052mm"
   height="2.8083mm"
   version="1.1"
   viewBox="0 0 6.0052 2.8083"
   id="svg12"
   sodipodi:docname="Filme_argila.svg"
   inkscape:version="0.92.5 (2060ec1f9f, 2020-04-08)">
  <defs
     id="defs16" />
  <sodipodi:namedview
     pagecolor="#ffffff"
     bordercolor="#666666"
     borderopacity="1"
     objecttolerance="10"
     gridtolerance="10"
     guidetolerance="10"
     inkscape:pageopacity="0"
     inkscape:pageshadow="2"
     inkscape:window-width="1920"
     inkscape:window-height="1057"
     id="namedview14"
     showgrid="false"
     inkscape:zoom="19.430036"
     inkscape:cx="10.447742"
     inkscape:cy="5.3070237"
     inkscape:window-x="-8"
     inkscape:window-y="-8"
     inkscape:window-maximized="1"
     inkscape:current-layer="svg12" />
  <metadata
     id="metadata2">
    <rdf:RDF>
      <cc:Work
         rdf:about="">
        <dc:format>image/svg+xml</dc:format>
        <dc:type
           rdf:resource="http://purl.org/dc/dcmitype/StillImage" />
        <dc:title />
      </cc:Work>
    </rdf:RDF>
  </metadata>
  <g
     transform="translate(-55.829 -109.73)"
     id="g10">
    <g
       transform="matrix(.01 0 0 .01 -90.713 20.545)"
       clip-rule="evenodd"
       fill="none"
       fill-rule="evenodd"
       image-rendering="optimizeQuality"
       shape-rendering="geometricPrecision"
       stroke="#000"
       stroke-width="50"
       id="g8">
      <path
         style="color:#000000;font-style:normal;font-variant:normal;font-weight:normal;font-stretch:normal;font-size:medium;line-height:normal;font-family:sans-serif;font-variant-ligatures:normal;font-variant-position:normal;font-variant-caps:normal;font-variant-numeric:normal;font-variant-alternates:normal;font-feature-settings:normal;text-indent:0;text-align:start;text-decoration:none;text-decoration-line:none;text-decoration-style:solid;text-decoration-color:#000000;letter-spacing:normal;word-spacing:normal;text-transform:none;writing-mode:lr-tb;direction:ltr;text-orientation:mixed;dominant-baseline:auto;baseline-shift:baseline;text-anchor:start;white-space:normal;shape-padding:0;clip-rule:nonzero;display:inline;overflow:visible;visibility:visible;opacity:1;isolation:auto;mix-blend-mode:normal;color-interpolation:sRGB;color-interpolation-filters:linearRGB;solid-color:#000000;solid-opacity:1;vector-effect:none;fill:#000000;fill-opacity:1;fill-rule:nonzero;stroke:none;stroke-width:1.88976383;stroke-linecap:butt;stroke-linejoin:miter;stroke-miterlimit:4;stroke-dasharray:none;stroke-dashoffset:0;stroke-opacity:1;color-rendering:auto;image-rendering:auto;shape-rendering:auto;text-rendering:auto;enable-background:accumulate"
         d="M 0.09765625 -0.017578125 L 0.0390625 1.8710938 C 1.2485113 1.908889 2.4162459 1.9458013 3.6347656 2.125 C 4.8533231 2.3041987 6.1393737 2.6370583 7.0527344 3.09375 C 7.9580824 3.5464202 8.6863889 4.2287118 9.5410156 4.9667969 C 9.6454121 5.061527 9.7589998 5.1507808 9.8652344 5.2441406 C 9.659635 5.4050832 9.466118 5.5617864 9.2519531 5.7265625 C 8.2859059 6.4323023 7.3050439 7.117752 6.3242188 7.6445312 C 5.3418439 8.1344487 4.3214948 8.4794953 3.5097656 8.609375 C 2.6910066 8.7403696 2.0415352 8.6738281 1.390625 8.6738281 C 0.82369587 8.6738281 0.41845706 8.6705241 0.001953125 8.7167969 L 0.2109375 10.595703 C 0.47474852 10.566389 0.82369587 10.564453 1.390625 10.564453 C 1.873573 10.564453 2.737589 10.64793 3.8085938 10.476562 C 4.8835292 10.304579 6.0489662 9.8954312 7.1796875 9.3300781 L 7.1914062 9.3242188 L 7.203125 9.3183594 C 8.3312762 8.7139902 9.3849405 7.9690616 10.376953 7.2441406 L 10.386719 7.2382812 L 10.394531 7.2304688 C 10.723239 6.9776181 11.034601 6.7281916 11.349609 6.4785156 C 11.664618 6.7281916 11.97598 6.9776181 12.304688 7.2304688 L 12.314453 7.2382812 L 12.322266 7.2441406 C 13.314278 7.9690616 14.367943 8.7139902 15.496094 9.3183594 L 15.507812 9.3242188 L 15.519531 9.3300781 C 16.650253 9.8954312 17.817643 10.304579 18.892578 10.476562 C 19.963583 10.64793 20.825646 10.564453 21.308594 10.564453 C 21.875523 10.564453 22.226423 10.566385 22.490234 10.595703 L 22.699219 8.7167969 C 22.282715 8.6705203 21.875523 8.6738281 21.308594 8.6738281 C 20.657684 8.6738281 20.010165 8.7403696 19.191406 8.609375 C 18.379677 8.4794953 17.357375 8.1344487 16.375 7.6445312 C 15.394175 7.117752 14.415266 6.4323023 13.449219 5.7265625 C 13.234818 5.561605 13.039801 5.4052569 12.833984 5.2441406 C 12.940219 5.1507808 13.053807 5.061527 13.158203 4.9667969 L 13.175781 4.9511719 C 14.022347 4.2192997 14.747753 3.5431117 15.646484 3.09375 C 16.559845 2.6370583 17.845896 2.3041987 19.064453 2.125 C 20.282973 1.9458013 21.452661 1.908889 22.662109 1.8710938 L 22.601562 -0.017578125 C 21.392114 0.020217151 20.142575 0.057105359 18.791016 0.25585938 C 17.439494 0.45461339 16.003956 0.80272081 14.800781 1.4042969 C 13.589594 2.0098944 12.732193 2.8389739 11.923828 3.5371094 L 11.914062 3.5449219 L 11.904297 3.5527344 C 11.728976 3.7121163 11.533452 3.8694325 11.349609 4.0273438 C 11.165766 3.8694325 10.970243 3.7121163 10.794922 3.5527344 L 10.785156 3.5449219 L 10.777344 3.5371094 C 9.9689784 2.8389739 9.1096249 2.0098944 7.8984375 1.4042969 C 6.6952627 0.80272081 5.2616775 0.45461339 3.9101562 0.25585938 C 2.5585972 0.057105359 1.3071051 0.020217151 0.09765625 -0.017578125 z "
         transform="matrix(26.458333,0,0,26.458333,14654.2,8918.5)"
         id="path4" />
    </g>
  </g>
</svg>
