<?xml version="1.0" encoding="UTF-8" standalone="no"?>
<!-- Created with Inkscape (http://www.inkscape.org/) -->

<svg
   xmlns:dc="http://purl.org/dc/elements/1.1/"
   xmlns:cc="http://creativecommons.org/ns#"
   xmlns:rdf="http://www.w3.org/1999/02/22-rdf-syntax-ns#"
   xmlns:svg="http://www.w3.org/2000/svg"
   xmlns="http://www.w3.org/2000/svg"
   xmlns:sodipodi="http://sodipodi.sourceforge.net/DTD/sodipodi-0.dtd"
   xmlns:inkscape="http://www.inkscape.org/namespaces/inkscape"
   width="9.3361mm"
   height="3.8956mm"
   version="1.1"
   viewBox="0 0 9.3361 3.8956"
   id="svg14"
   sodipodi:docname="Estratificacao_cruzada_hummocky.svg"
   inkscape:version="0.92.5 (2060ec1f9f, 2020-04-08)">
  <defs
     id="defs18" />
  <sodipodi:namedview
     pagecolor="#ffffff"
     bordercolor="#666666"
     borderopacity="1"
     objecttolerance="10"
     gridtolerance="10"
     guidetolerance="10"
     inkscape:pageopacity="0"
     inkscape:pageshadow="2"
     inkscape:window-width="1920"
     inkscape:window-height="1057"
     id="namedview16"
     showgrid="false"
     inkscape:zoom="12.497858"
     inkscape:cx="16.242783"
     inkscape:cy="7.3617639"
     inkscape:window-x="-8"
     inkscape:window-y="-8"
     inkscape:window-maximized="1"
     inkscape:current-layer="svg14" />
  <metadata
     id="metadata2">
    <rdf:RDF>
      <cc:Work
         rdf:about="">
        <dc:format>image/svg+xml</dc:format>
        <dc:type
           rdf:resource="http://purl.org/dc/dcmitype/StillImage" />
        <dc:title />
      </cc:Work>
    </rdf:RDF>
  </metadata>
  <g
     transform="translate(-58.066 -102.09)"
     id="g12">
    <g
       transform="matrix(.01 0 0 .01 35.741 -38.672)"
       clip-rule="evenodd"
       fill="none"
       fill-rule="evenodd"
       image-rendering="optimizeQuality"
       shape-rendering="geometricPrecision"
       stroke="#000"
       stroke-width="50"
       id="g10">
      <path
         style="color:#000000;font-style:normal;font-variant:normal;font-weight:normal;font-stretch:normal;font-size:medium;line-height:normal;font-family:sans-serif;font-variant-ligatures:normal;font-variant-position:normal;font-variant-caps:normal;font-variant-numeric:normal;font-variant-alternates:normal;font-feature-settings:normal;text-indent:0;text-align:start;text-decoration:none;text-decoration-line:none;text-decoration-style:solid;text-decoration-color:#000000;letter-spacing:normal;word-spacing:normal;text-transform:none;writing-mode:lr-tb;direction:ltr;text-orientation:mixed;dominant-baseline:auto;baseline-shift:baseline;text-anchor:start;white-space:normal;shape-padding:0;clip-rule:nonzero;display:inline;overflow:visible;visibility:visible;opacity:1;isolation:auto;mix-blend-mode:normal;color-interpolation:sRGB;color-interpolation-filters:linearRGB;solid-color:#000000;solid-opacity:1;vector-effect:none;fill:#000000;fill-opacity:1;fill-rule:nonzero;stroke:none;stroke-width:1.88976371;stroke-linecap:butt;stroke-linejoin:miter;stroke-miterlimit:4;stroke-dasharray:none;stroke-dashoffset:0;stroke-opacity:1;color-rendering:auto;image-rendering:auto;shape-rendering:auto;text-rendering:auto;enable-background:accumulate"
         d="M 18.210938 0.01953125 C 16.622451 0.035178494 14.923896 0.3535708 13.283203 0.91210938 C 11.404253 1.5517566 9.644985 2.5107307 8.0859375 3.75 C 6.5129775 5.0003055 5.2206538 6.5373772 3.9199219 8.2207031 C 2.6149493 9.9094716 1.2846018 11.809902 -0.001953125 13.664062 L 1.5507812 14.742188 C 2.834305 12.892411 4.1509095 11.014169 5.4160156 9.3769531 C 5.5219012 9.2399269 5.6253782 9.1142225 5.7304688 8.9804688 C 6.9420722 10.117529 8.2040633 11.26216 9.6386719 12.164062 C 11.367946 13.288925 13.298754 14.053899 15.310547 14.416016 C 17.326898 14.778964 19.396961 14.736832 20.929688 14.535156 L 20.943359 14.533203 L 20.957031 14.53125 C 22.458127 14.287811 23.500607 13.839465 24.505859 13.236328 C 25.483627 12.649632 26.570241 11.910907 27.697266 11.017578 C 28.543135 10.375445 29.376704 9.6759908 30.203125 8.96875 C 30.374306 9.2069909 30.545602 9.4432334 30.712891 9.6972656 C 31.708063 11.208434 32.67787 12.923304 33.615234 14.685547 L 35.285156 13.796875 C 34.332757 12.006362 33.336788 10.244294 32.291016 8.65625 C 31.232691 7.0491571 30.07025 5.682214 28.599609 4.4492188 C 27.167879 3.2172818 25.454016 2.1285866 23.822266 1.3710938 C 22.196275 0.57867802 20.643232 0.11303897 18.884766 0.03125 C 18.662854 0.02093189 18.437864 0.017301329 18.210938 0.01953125 z M 18.796875 1.9199219 C 20.28658 1.9892006 21.529015 2.3547223 23 3.0722656 L 23.007812 3.0761719 L 23.017578 3.0800781 C 23.771086 3.4292591 24.559786 3.8725412 25.326172 4.3691406 C 24.579362 5.144927 23.825925 5.8816608 22.960938 6.4667969 C 21.788917 7.2596284 20.412828 7.8295934 18.746094 7.9316406 C 17.065005 8.0345572 15.115673 7.6788899 13.541016 6.9257812 L 13.533203 6.921875 L 13.525391 6.9179688 C 12.290309 6.3541078 11.231264 5.5096449 10.171875 4.5683594 C 11.32358 3.782686 12.573348 3.1502679 13.892578 2.7011719 C 15.570257 2.1300475 17.321771 1.8512857 18.796875 1.9199219 z M 26.871094 5.4882812 C 27.03784 5.621227 27.213177 5.7507372 27.371094 5.8867188 L 27.375 5.890625 L 27.380859 5.8945312 C 27.983724 6.3996376 28.519969 6.9282285 29.023438 7.4902344 C 28.189363 8.2043721 27.360677 8.9021538 26.546875 9.5195312 L 26.539062 9.5253906 L 26.53125 9.5332031 C 25.468693 10.375924 24.443136 11.071235 23.533203 11.617188 C 22.652139 12.14583 21.955993 12.453996 20.669922 12.664062 C 19.330707 12.838866 17.402015 12.871034 15.644531 12.554688 C 13.87919 12.236905 12.183603 11.565614 10.664062 10.576172 L 10.65625 10.572266 L 10.650391 10.568359 C 9.371499 9.7653484 8.1489922 8.6612359 6.9335938 7.5214844 C 7.49476 6.8762772 8.0676126 6.2866409 8.6621094 5.7558594 C 9.8427951 6.8246148 11.116466 7.8945517 12.734375 8.6347656 C 14.635194 9.5421168 16.841125 9.9420633 18.861328 9.8183594 C 20.898531 9.693635 22.621473 8.9770012 24.019531 8.03125 C 25.140331 7.2730592 26.028582 6.3781223 26.871094 5.4882812 z "
         transform="matrix(26.458334,0,0,26.458334,2232.5,14076.2)"
         id="path4" />
    </g>
  </g>
</svg>
