<?xml version="1.0" encoding="UTF-8" standalone="no"?>
<!-- Created with Inkscape (http://www.inkscape.org/) -->

<svg
   xmlns:dc="http://purl.org/dc/elements/1.1/"
   xmlns:cc="http://creativecommons.org/ns#"
   xmlns:rdf="http://www.w3.org/1999/02/22-rdf-syntax-ns#"
   xmlns:svg="http://www.w3.org/2000/svg"
   xmlns="http://www.w3.org/2000/svg"
   xmlns:sodipodi="http://sodipodi.sourceforge.net/DTD/sodipodi-0.dtd"
   xmlns:inkscape="http://www.inkscape.org/namespaces/inkscape"
   width="7.52mm"
   height="5.24mm"
   version="1.1"
   viewBox="0 0 7.52 5.24"
   id="svg24"
   sodipodi:docname="Geodo_1.svg"
   inkscape:version="0.92.5 (2060ec1f9f, 2020-04-08)">
  <defs
     id="defs28" />
  <sodipodi:namedview
     pagecolor="#ffffff"
     bordercolor="#666666"
     borderopacity="1"
     objecttolerance="10"
     gridtolerance="10"
     guidetolerance="10"
     inkscape:pageopacity="0"
     inkscape:pageshadow="2"
     inkscape:window-width="1920"
     inkscape:window-height="1057"
     id="namedview26"
     showgrid="false"
     inkscape:zoom="11.916349"
     inkscape:cx="9.8053113"
     inkscape:cy="9.9023616"
     inkscape:window-x="-8"
     inkscape:window-y="-8"
     inkscape:window-maximized="1"
     inkscape:current-layer="svg24" />
  <metadata
     id="metadata2">
    <rdf:RDF>
      <cc:Work
         rdf:about="">
        <dc:format>image/svg+xml</dc:format>
        <dc:type
           rdf:resource="http://purl.org/dc/dcmitype/StillImage" />
        <dc:title />
      </cc:Work>
    </rdf:RDF>
  </metadata>
  <g
     transform="translate(-62.335 -108.16)"
     id="g22"
     style="fill:#000000">
    <g
       transform="matrix(.01 0 0 .01 -22.855 -19.819)"
       clip-rule="evenodd"
       fill-rule="evenodd"
       image-rendering="optimizeQuality"
       shape-rendering="geometricPrecision"
       id="g20"
       style="fill:#000000">
      <path
         style="color:#000000;font-style:normal;font-variant:normal;font-weight:normal;font-stretch:normal;font-size:medium;line-height:normal;font-family:sans-serif;font-variant-ligatures:normal;font-variant-position:normal;font-variant-caps:normal;font-variant-numeric:normal;font-variant-alternates:normal;font-feature-settings:normal;text-indent:0;text-align:start;text-decoration:none;text-decoration-line:none;text-decoration-style:solid;text-decoration-color:#000000;letter-spacing:normal;word-spacing:normal;text-transform:none;writing-mode:lr-tb;direction:ltr;text-orientation:mixed;dominant-baseline:auto;baseline-shift:baseline;text-anchor:start;white-space:normal;shape-padding:0;clip-rule:nonzero;display:inline;overflow:visible;visibility:visible;opacity:1;isolation:auto;mix-blend-mode:normal;color-interpolation:sRGB;color-interpolation-filters:linearRGB;solid-color:#000000;solid-opacity:1;vector-effect:none;fill:#000000;fill-opacity:1;fill-rule:nonzero;stroke:none;stroke-width:7.61999989;stroke-linecap:butt;stroke-linejoin:miter;stroke-miterlimit:4;stroke-dasharray:none;stroke-dashoffset:0;stroke-opacity:1;color-rendering:auto;image-rendering:auto;shape-rendering:auto;text-rendering:auto;enable-background:accumulate"
         d="m 8895,12804.189 c -101.777,0 -193.9824,28.367 -260.9609,74.483 -66.9786,46.116 -108.8496,110.245 -108.8496,181.328 0,71.083 41.871,135.212 108.8496,181.328 66.9785,46.116 159.1839,74.483 260.9609,74.483 101.777,0 193.9824,-28.367 260.9609,-74.483 66.9786,-46.116 108.8496,-110.245 108.8496,-181.328 0,-71.083 -41.871,-135.212 -108.8496,-181.328 -66.9785,-46.116 -159.1839,-74.483 -260.9609,-74.483 z m 0,7.622 c 100.3592,0 191.1532,28.047 256.6406,73.136 65.4874,45.09 105.5489,106.96 105.5489,175.053 0,68.093 -40.0615,129.963 -105.5489,175.053 -65.4874,45.089 -156.2814,73.136 -256.6406,73.136 -100.3592,0 -191.1532,-28.047 -256.6406,-73.136 -65.4874,-45.09 -105.5489,-106.96 -105.5489,-175.053 0,-68.093 40.0615,-129.963 105.5489,-175.053 65.4874,-45.089 156.2814,-73.136 256.6406,-73.136 z"
         id="ellipse4"
         inkscape:connector-curvature="0" />
      <g
         fill="none"
         id="g18"
         style="fill:#000000">
        <path
           style="stroke:none;stroke-width:20;fill:#000000"
           d="m 9261,13060 a 366,252 0 0 1 -366,252 366,252 0 0 1 -366,-252 366,252 0 0 1 366,-252 366,252 0 0 1 366,252 z"
           id="ellipse16" />
        <g
           stroke="#fff"
           stroke-width="34.99"
           id="g14"
           style="fill:#000000">
          <path
             style="color:#000000;font-style:normal;font-variant:normal;font-weight:normal;font-stretch:normal;font-size:medium;line-height:normal;font-family:sans-serif;font-variant-ligatures:normal;font-variant-position:normal;font-variant-caps:normal;font-variant-numeric:normal;font-variant-alternates:normal;font-feature-settings:normal;text-indent:0;text-align:start;text-decoration:none;text-decoration-line:none;text-decoration-style:solid;text-decoration-color:#000000;letter-spacing:normal;word-spacing:normal;text-transform:none;writing-mode:lr-tb;direction:ltr;text-orientation:mixed;dominant-baseline:auto;baseline-shift:baseline;text-anchor:start;white-space:normal;shape-padding:0;clip-rule:nonzero;display:inline;overflow:visible;visibility:visible;opacity:1;isolation:auto;mix-blend-mode:normal;color-interpolation:sRGB;color-interpolation-filters:linearRGB;solid-color:#000000;solid-opacity:1;vector-effect:none;fill:#ffffff;fill-opacity:1;fill-rule:nonzero;stroke:none;stroke-width:34.99000168;stroke-linecap:butt;stroke-linejoin:miter;stroke-miterlimit:4;stroke-dasharray:none;stroke-dashoffset:0;stroke-opacity:1;color-rendering:auto;image-rendering:auto;shape-rendering:auto;text-rendering:auto;enable-background:accumulate"
             d="m 8865.6328,13070.662 c -1.3623,-0.1 -2.7755,-0.07 -4.2187,0.127 -5.7732,0.783 -10.4042,4.127 -12.9356,6.889 -5.0628,5.523 -5.7226,9.324 -6.7226,11.824 -2.4481,6.12 -3.0998,9.065 -5.4043,13.674 -3.6955,7.391 -6.6955,15.391 -9,20 -3.6955,7.391 -4.589,10.881 -6.3536,13.822 l -0.9882,1.648 -0.6075,1.821 c -1.0779,3.234 -5.0779,10.234 -8,19 -2.3688,7.106 -3.8964,14.589 -3.8964,22.533 0,6 -0.1265,12.3 -0.7637,16.123 l -0.2363,1.43 v 1.447 c 0,2.014 -0.7672,5.143 -3.8399,11.441 -4.247,6.671 -10.5747,14.904 -15.9492,21.174 -6.7144,7.834 -11.8436,15.518 -16.3652,24.561 l -0.1778,0.355 -0.1601,0.364 c -3.9512,8.89 -8.9414,19.865 -13.9414,30.865 l 31.8554,14.48 c 4.9028,-10.786 9.7787,-21.524 13.7852,-30.529 3.4491,-6.88 6.3179,-11.198 11.5703,-17.326 6.4465,-7.521 13.7887,-16.891 19.5527,-26.114 l 0.4395,-0.703 0.373,-0.744 c 4.0964,-8.192 7.0735,-16.3 7.6231,-25.097 1.3352,-8.119 1.2226,-15.765 1.2226,-21.727 0,-4.056 0.4724,-6.573 2.1036,-11.467 1.0052,-3.016 4.5235,-9.495 7.3671,-17.439 3.2377,-5.855 4.6232,-10.149 6.6836,-14.27 3.4997,-6.999 6.3259,-14.356 8.5782,-19.051 0.3101,0.501 0.6343,1.013 0.9375,1.498 4.3749,7 6.3967,12.437 12.1738,19.659 3.2892,4.111 6.7091,9.285 9.0137,13.894 l 0.83,1.658 1.1563,1.448 c 2.2229,2.778 4.1983,8.348 11.291,15.441 4,4 10.0695,10.539 19.5469,15.277 8.0864,4.044 15.6598,6.073 24.291,8.95 10.1065,3.368 22.1065,6.368 30,9 8.2623,2.754 13.8066,5.122 22.0371,9.695 l 0.332,0.186 0.3399,0.169 c 6.9568,3.479 16.6823,9.321 22.6562,13.588 l 0.7188,0.514 0.7695,0.439 c 6.08,3.475 11.1954,7.294 19.6055,10.194 7.384,2.896 13.2408,3.927 15.5762,4.861 1.174,0.47 1.0547,0.301 1.1875,0.256 l 0.9316,1.863 2.0078,2.008 c 0.2509,0.251 1.7227,2.453 4.7227,8.453 l 0.3007,0.602 0.3457,0.576 c 2.8236,4.706 6.8125,11.678 10.8125,18.678 l 30.379,-17.36 c -3.8797,-6.789 -7.7227,-13.505 -10.8516,-18.74 -2.6845,-5.407 -5.1762,-10.659 -10.0137,-15.857 -4.4932,-6.26 -11.3249,-10.767 -16.8262,-12.967 -7.6139,-3.046 -13.6139,-4.046 -16,-5 l -0.4785,-0.192 -0.4863,-0.162 c -3.1863,-1.062 -6.0769,-3.132 -13.5996,-7.443 -7.7315,-5.42 -17.1912,-11.101 -25.7207,-15.393 -9.6447,-5.336 -18.0405,-8.951 -27.6797,-12.164 -10.1065,-3.368 -22.1065,-6.368 -30,-9 -9.3688,-3.123 -15.7954,-5.094 -19.709,-7.05 -2.5226,-1.262 -6.4531,-4.723 -10.4531,-8.723 -0.8324,-0.833 -2.9408,-4.933 -7.6895,-11.131 -3.5278,-6.722 -7.681,-13.005 -12.0195,-18.428 -2.2229,-2.778 -4.2011,-7.341 -9.8262,-16.341 -2.3611,-3.778 -5.4227,-8.892 -8.5898,-13.711 -3.1671,-4.82 -4.7114,-8.735 -11.75,-14.014 l -0.7207,-0.541 -0.7734,-0.465 c -2.6473,-1.588 -6.2823,-3.04 -10.3692,-3.336 z"
             id="path12"
             inkscape:connector-curvature="0" />
          <path
             style="color:#000000;font-style:normal;font-variant:normal;font-weight:normal;font-stretch:normal;font-size:medium;line-height:normal;font-family:sans-serif;font-variant-ligatures:normal;font-variant-position:normal;font-variant-caps:normal;font-variant-numeric:normal;font-variant-alternates:normal;font-feature-settings:normal;text-indent:0;text-align:start;text-decoration:none;text-decoration-line:none;text-decoration-style:solid;text-decoration-color:#000000;letter-spacing:normal;word-spacing:normal;text-transform:none;writing-mode:lr-tb;direction:ltr;text-orientation:mixed;dominant-baseline:auto;baseline-shift:baseline;text-anchor:start;white-space:normal;shape-padding:0;clip-rule:nonzero;display:inline;overflow:visible;visibility:visible;opacity:1;isolation:auto;mix-blend-mode:normal;color-interpolation:sRGB;color-interpolation-filters:linearRGB;solid-color:#000000;solid-opacity:1;vector-effect:none;fill:#ffffff;fill-opacity:1;fill-rule:nonzero;stroke:none;stroke-width:34.99000168;stroke-linecap:butt;stroke-linejoin:miter;stroke-miterlimit:4;stroke-dasharray:none;stroke-dashoffset:0;stroke-opacity:1;color-rendering:auto;image-rendering:auto;shape-rendering:auto;text-rendering:auto;enable-background:accumulate"
             d="m 8569.8848,12935.523 -11.7696,32.954 c 12.9573,4.627 26.8057,11.588 43.5567,11.951 11.538,1.003 20.6477,-1.031 24.0176,-2.198 0.3412,0.397 -0.029,0.173 0.9394,1.141 3,3 10.8301,10.109 21.4941,11.887 10.6641,1.777 20.4664,0.09 30.6719,-2.18 l 0.2246,-0.05 0.2227,-0.06 c 1.7261,-0.432 2.5403,-0.525 3.9629,-0.84 -0.1998,0.193 -0.3739,0.294 -0.5762,0.496 -8.4981,8.498 -8.123,19.371 -8.123,21.371 0,0.457 0.087,0.612 0.1035,1.033 -1.6231,1.676 -2.8428,3.024 -4.1055,3.971 -0.5071,0.38 -1.422,0.889 -3.4238,1.967 -2.0019,1.078 -6.5773,1.902 -10.7285,10.205 -1.554,3.108 -2.6105,8.08 -1.7657,12.472 0.066,0.346 0.1829,0.624 0.2637,0.952 -2.4286,1.855 -5.0976,4.232 -7.4062,7.695 -1.5024,2.253 -9.2692,11.779 -6.5977,25.137 2.4076,12.038 8.5923,17.565 8.5059,17.392 l 0.4882,0.975 0.6036,0.906 c 0.1843,0.277 0.2149,0.262 0.2578,0.275 -0.088,-0.05 -0,0.602 0.2636,1.823 -1.6674,1.063 -3.7281,2.591 -6.2148,4.886 -7.1532,5.697 -10.6747,12.759 -12.3477,17.778 -1.422,4.266 -1.5825,10.236 -0.2851,14.56 1.2974,4.325 3.0773,6.805 4.3262,8.678 1.3737,2.061 2.068,3.207 2.8652,4.481 -1.9814,1.849 -3.9361,3.567 -3.1328,3.166 -0.4352,0.217 -1.6048,0.5 -4.8828,2.013 -2.8765,1.328 -6.8911,4.143 -9.9942,7.666 -3.9109,4.03 -5.4269,7.182 -6.9883,9.914 -1.2627,2.21 -2.0176,3.434 -2.58,4.336 -1.2766,1.032 -2.3571,1.822 -3.3067,2.41 -0.4912,-0.09 -0.6379,-0.185 -3.4238,-0.185 1.9158,0 2.9926,0.297 0.377,-0.139 -2.6157,-0.436 -9.0716,-0.08 -13.2012,1.985 -8.2592,4.129 -9.5469,7.277 -12.5469,10.277 l 22.168,22.168 c -0.815,0.04 -1.848,0.14 -2.1739,0.09 -0.7826,-0.131 0.6075,0.163 2.6465,0.387 l 2.1016,2.101 c 0.5774,-0.577 1.0847,-0.925 1.7129,-1.457 2.424,0.191 6.682,0.178 11.1582,-0.941 l 0.6523,-0.162 0.6387,-0.213 c 7.4259,-2.476 12.7761,-6.165 18.8379,-12.227 l 0.8789,-0.879 0.7461,-0.996 c 2.7596,-3.679 4.3121,-6.774 5.6934,-9.191 1.3813,-2.418 2.9307,-4.183 1.6816,-2.934 l 0.7148,-0.715 c 0.6769,-0.226 1.8594,-0.568 4.7383,-2.008 9.216,-4.608 13.7723,-10.286 18.1719,-16.152 2.1998,-2.933 4.7769,-6.686 5.9863,-12.33 1.1236,-5.244 0.087,-11.363 -1.9062,-15.91 -1.4968,-4.62 -3.3588,-8.154 -5.041,-10.342 0.3431,-0.242 1.1188,-0.823 3.4199,-2.357 2.7476,-1.832 7.5853,-4.517 11.1933,-11.733 5.6512,-11.302 2.6869,-20.144 0.9493,-25.357 l 0.375,1.291 c -0.8336,-3.335 -2.4207,-8.97 -5.4161,-13.463 l 1.0918,1.881 c -1.8494,-3.699 -3.0885,-5.888 -4.0117,-7.362 0.2047,-0.08 0.5038,-0.214 2.0684,-1.257 1.8732,-1.249 4.0097,-2.756 6.2441,-4.618 2.0298,-1.691 4.1897,-2.897 6.8926,-7.728 1.4141,-2.02 2.7334,-4.461 3.2617,-7.895 0.3269,-2.124 0.1239,-4.193 -0.2519,-6.144 4.2922,-3.5 8.1526,-7.138 11.705,-12.467 3.0761,-4.614 3.7998,-11.548 3.4707,-15.531 1.9837,-1.129 4.8595,-2.817 8.6524,-4.985 l 0.5234,-0.298 0.502,-0.334 c 4.507,-3.005 12.559,-6.762 20.2246,-12.895 1.5832,-1.266 2.9553,-2.445 4.291,-3.752 1.3357,-1.307 2.5288,-1.788 4.8027,-6.336 1.137,-2.274 4.6189,-7.712 -0.2089,-16.595 -2.414,-4.442 -7.0544,-7.431 -10.2696,-8.438 -3.2151,-1.007 -5.3219,-0.885 -6.8613,-0.762 -6.1575,0.493 -6.7254,1.681 -8.5078,2.573 -2.5216,1.26 -5.6148,2.888 -8.5098,4.064 -0.1014,0.04 -0.1501,0.02 -0.2519,0.06 -1.6296,-2.191 -3.9502,-5.2 -9.4121,-8.477 -7.5007,-4.5 -14.6966,-4.342 -20.1778,-3.775 -5.3035,0.548 -9.739,1.721 -13.6465,2.703 -7.7858,1.726 -15.9664,2.039 -17.3007,1.816 -1.336,-0.222 0.4941,0.887 -2.5059,-2.113 -1.6255,-1.626 -10.5955,-12.123 -24.3711,-12.123 -13.7756,0 -16.2716,3.629 -22.416,3.07 l -0.791,-0.07 H 8603 c -4.6382,0 -18.4194,-4.734 -33.1152,-9.983 z m 149.8632,29.379 c -0.036,0.04 -0.3517,0.296 -0.457,0.391 0.3872,-0.471 0.5314,-0.463 0.457,-0.391 z m 19.0762,26.746 c 0.1309,-0.06 -0.029,0.166 -0.9453,0.448 0.1692,-0.09 0.8181,-0.384 0.9453,-0.448 z m -54.166,55.596 c -1.1901,1.153 -1.7463,0.943 -0.9883,0.535 0.2008,-0.108 0.6983,-0.383 0.9883,-0.535 z"
             id="path6"
             inkscape:connector-curvature="0" />
          <path
             style="color:#000000;font-style:normal;font-variant:normal;font-weight:normal;font-stretch:normal;font-size:medium;line-height:normal;font-family:sans-serif;font-variant-ligatures:normal;font-variant-position:normal;font-variant-caps:normal;font-variant-numeric:normal;font-variant-alternates:normal;font-feature-settings:normal;text-indent:0;text-align:start;text-decoration:none;text-decoration-line:none;text-decoration-style:solid;text-decoration-color:#000000;letter-spacing:normal;word-spacing:normal;text-transform:none;writing-mode:lr-tb;direction:ltr;text-orientation:mixed;dominant-baseline:auto;baseline-shift:baseline;text-anchor:start;white-space:normal;shape-padding:0;clip-rule:nonzero;display:inline;overflow:visible;visibility:visible;opacity:1;isolation:auto;mix-blend-mode:normal;color-interpolation:sRGB;color-interpolation-filters:linearRGB;solid-color:#000000;solid-opacity:1;vector-effect:none;fill:#ffffff;fill-opacity:1;fill-rule:nonzero;stroke:none;stroke-width:34.99000168;stroke-linecap:butt;stroke-linejoin:miter;stroke-miterlimit:4;stroke-dasharray:none;stroke-dashoffset:0;stroke-opacity:1;color-rendering:auto;image-rendering:auto;shape-rendering:auto;text-rendering:auto;enable-background:accumulate"
             d="m 8867.3887,12811.068 -34.7774,3.864 c 0.8093,7.283 0.8967,14.608 1.8946,22.662 V 12855 c 0,5 -0.7623,12.608 3.8457,21.824 2.6156,5.231 5.5526,8.696 8.0586,11.102 -2.322,3.883 -4.6547,9.79 -2.5625,19.285 0.7862,6.013 3.4561,10.321 5.5937,13.281 2.5115,3.478 4.864,6.001 7.1191,8.707 5.1225,6.147 9.8704,13.42 9.8418,13.334 0.5247,1.574 0.3917,2.279 -0.6601,8.59 l 0.1035,-0.555 c -1.5279,7.64 -1.8167,14.681 0.1816,22.674 2.4976,9.991 9.0281,15.822 14.2676,19.315 l 0.9063,0.603 0.9746,0.488 c 2,1 4.6977,2.558 9.1914,3.756 4.3592,1.163 12.1121,1.521 18.7129,-2.547 6.201,-3.54 8.9914,-8.158 10.9199,-11.273 2.0678,-3.34 3.4692,-5.942 5.2363,-8.416 3.5343,-4.948 11.3325,-12.95 18.0469,-20.783 7.3395,-8.563 11.2482,-16.266 13.7188,-20.383 1.0806,-1.801 1.2428,-2.221 1.8496,-3.381 1.1332,-0.06 1.914,-0.127 4.1484,-0.127 9.8317,0 19.0683,-6.056 23.5566,-12.789 l 0.6036,-0.906 0.4882,-0.975 c 4.0864,-8.173 4.303,-12.965 6.4317,-17.931 l 0.4375,-1.02 0.3047,-1.066 c 0,-0.01 0.01,-0.02 0.012,-0.03 4.4365,1.192 9.4952,1.557 14.6992,-0.177 5.9259,-1.976 8.101,-4.266 10.4688,-6.077 2.3677,-1.81 4.4496,-3.462 6.7031,-4.964 l 0.6308,-0.422 0.5938,-0.473 c 3.2229,-2.578 8.8393,-5.686 12.8769,-6.84 4.0377,-1.153 7.3491,-1.153 11.3868,0 5.5188,1.577 13.9101,6.731 27.6836,4.436 15.9499,-2.659 21.6796,-14.553 25.6796,-20.553 l -29.1132,-19.41 c -1.8048,2.707 -3.0485,3.932 -3.7364,4.711 -2.059,-0.541 -5.844,-1.384 -10.9004,-2.828 -9.9623,-2.847 -20.6509,-2.847 -30.6132,0 -9.9624,2.846 -18.346,7.738 -25.1231,13.16 l 1.2246,-0.895 c -2.779,1.853 -4.5568,3.284 -6.3398,4.662 -1.3044,-0.727 -2.7965,-1.494 -4.9219,-2.203 -4.8194,-1.606 -13.7593,-1.445 -19.7383,2.541 -7.0987,4.733 -8.4742,8.996 -10.4531,13.133 -1.8753,3.921 -3.2744,7.935 -4.4492,11.953 -1.4778,3.593 -2.6915,6.907 -3.4903,9.395 -3.7523,-0.222 -9.1359,0.132 -15.7265,3.428 -5.6512,2.825 -9.6041,7.773 -11.5528,11.021 -1.9486,3.248 -2.7427,5.155 -3.625,6.625 -3.5294,5.883 -5.6207,10.18 -10.2812,15.617 -4.3999,5.133 -10.7754,11.584 -16.5332,18.807 0.6221,-5.287 0.7969,-11.807 -1.5859,-18.955 -4.0286,-12.086 -11.2807,-18.813 -16.1582,-24.666 -1.9362,-2.324 -2.9154,-3.505 -3.9727,-4.791 0.228,-0.881 0.5736,-1.97 1.1816,-3.186 l 0.8594,-1.719 0.4649,-1.863 c 1.4992,-5.997 1.2405,-15.937 -2.3243,-23.066 l -1.2695,-2.539 -2.0078,-2.008 c -3.097,-3.097 -5.6576,-6.063 -6.5391,-6.795 -0.086,-0.9 -0.3379,-2.82 -0.3379,-5.834 v -19.244 l -0.1757,-1.231 c -0.7361,-5.152 -0.8041,-13.326 -1.9297,-23.457 z m 10.584,88.69 c 0.1427,0.571 0.064,0.203 0.1679,0.65 -0,-0 -0.01,-0 -0.01,-0.01 z"
             id="path8"
             inkscape:connector-curvature="0" />
          <path
             style="color:#000000;font-style:normal;font-variant:normal;font-weight:normal;font-stretch:normal;font-size:medium;line-height:normal;font-family:sans-serif;font-variant-ligatures:normal;font-variant-position:normal;font-variant-caps:normal;font-variant-numeric:normal;font-variant-alternates:normal;font-feature-settings:normal;text-indent:0;text-align:start;text-decoration:none;text-decoration-line:none;text-decoration-style:solid;text-decoration-color:#000000;letter-spacing:normal;word-spacing:normal;text-transform:none;writing-mode:lr-tb;direction:ltr;text-orientation:mixed;dominant-baseline:auto;baseline-shift:baseline;text-anchor:start;white-space:normal;shape-padding:0;clip-rule:nonzero;display:inline;overflow:visible;visibility:visible;opacity:1;isolation:auto;mix-blend-mode:normal;color-interpolation:sRGB;color-interpolation-filters:linearRGB;solid-color:#000000;solid-opacity:1;vector-effect:none;fill:#ffffff;fill-opacity:1;fill-rule:nonzero;stroke:none;stroke-width:34.99000168;stroke-linecap:butt;stroke-linejoin:miter;stroke-miterlimit:4;stroke-dasharray:none;stroke-dashoffset:0;stroke-opacity:1;color-rendering:auto;image-rendering:auto;shape-rendering:auto;text-rendering:auto;enable-background:accumulate"
             d="m 9180.0703,12897.338 c -4.1114,3.289 -9.7754,7.105 -15.7754,11.105 -5.2535,3.503 -12.5733,7.093 -19.666,14.186 -7.0927,7.093 -9.873,14.873 -11.873,19.873 -1.5519,3.88 -3.0397,6.629 -5.9551,9.059 l -0.6113,0.507 -0.5606,0.561 c -0.8764,0.876 -6.4935,3.851 -12.4355,5.549 l -0.6778,0.193 -0.6582,0.248 c -7.252,2.72 -14.6237,4.438 -22.8594,9.379 -7.4054,4.443 -12.384,10.642 -15.5468,16.277 -4.3605,5.86 -6.1057,8.598 -4.9473,7.729 l -0.9961,0.746 -0.8789,0.879 c -0.2509,0.251 -1.8911,1.449 -8.5215,4.291 -6.6303,2.841 -16.5407,6.736 -23.9316,10.432 -8.0864,4.043 -14.2394,9.703 -17.7324,14.943 l -1.2989,1.949 -0.7422,2.223 c -3.5817,10.745 2.5951,24.535 12.5957,30.535 11.4714,6.883 21.1469,6.395 31.2618,7.406 l -0.1914,-0.02 c 10.4136,1.157 20.0174,1.416 24.6894,2.584 4.672,1.168 9.027,3.98 16.418,7.675 6,3 15.9364,7.846 28.8242,7.846 11.5919,0 22.9212,-2.215 30.9316,-3.105 7.8691,-0.875 14.6789,-0.717 18.1914,-0.131 5.6891,0.948 9.246,1.733 12.379,2.986 6.867,2.747 13.5615,4.008 21.0234,5.074 10.6947,1.528 20.8073,0.176 23.4746,0.176 h 1.4473 l 1.4297,-0.236 c 7.2437,-1.207 9.0108,-1.764 8.123,-1.764 4,0 7.7678,0.1 10.5684,0.66 l 6.8632,-34.308 c -7.1994,-1.44 -13.4316,-1.34 -17.4316,-1.34 -6.4363,0 -8.9081,1.238 -13.0723,2.051 -6.681,0.1 -13.4657,0.551 -16.4531,0.125 -6.5381,-0.934 -9.8436,-1.673 -12.9766,-2.926 -6.867,-2.747 -13.3101,-3.962 -19.621,-5.014 -8.4875,-1.414 -17.6777,-1.256 -27.8086,-0.131 -9.9896,1.11 -20.6603,2.895 -27.0684,2.895 -5.1122,0 -7.1758,-1.154 -13.1758,-4.154 -4.609,-2.305 -12.254,-7.493 -23.582,-10.325 -8.13,-2.032 -15.3521,-2.475 -21.8281,-2.873 0.8846,-0.374 1.6508,-0.719 2.4785,-1.074 6.7193,-2.88 12.5711,-5.572 17.914,-10.363 8.9133,-6.831 11.1631,-13.852 12.1895,-15.221 l 0.9473,-1.262 0.705,-1.41 c 0.9568,-1.913 1.5892,-2.763 3.3536,-3.822 1.7216,-1.033 8.1647,-3.266 16.5996,-6.42 7.7875,-2.234 17.5193,-5.321 26.2304,-13.768 8.6115,-7.453 13.0287,-16.357 15.4121,-22.316 2,-5 3.2197,-7.22 4.127,-8.127 0.9073,-0.907 7.5875,-5.317 14.334,-9.814 6,-4 12.336,-8.184 18.2246,-12.895 z"
             id="path10"
             inkscape:connector-curvature="0" />
        </g>
      </g>
    </g>
  </g>
</svg>
