<?xml version="1.0" encoding="UTF-8"?>
<!-- Created with Inkscape (http://www.inkscape.org/) -->
<svg width="5.7798mm" height="2.3971mm" version="1.1" viewBox="0 0 5.7798 2.3971" xmlns="http://www.w3.org/2000/svg" xmlns:cc="http://creativecommons.org/ns#" xmlns:dc="http://purl.org/dc/elements/1.1/" xmlns:rdf="http://www.w3.org/1999/02/22-rdf-syntax-ns#">
 <metadata>
  <rdf:RDF>
   <cc:Work rdf:about="">
    <dc:format>image/svg+xml</dc:format>
    <dc:type rdf:resource="http://purl.org/dc/dcmitype/StillImage"/>
    <dc:title/>
   </cc:Work>
  </rdf:RDF>
 </metadata>
 <g transform="translate(-61.008 -103.08)">
  <path class="fil0" d="m61.054 103.29c0.01 0.14 0.01 0.37 0.05 0.57s0.13 0.37 0.28 0.55 0.37 0.37 0.64 0.54c0.28 0.16 0.62 0.3 0.97 0.38 0.36 0.09 0.73 0.13 1.05 0.14s0.6-0.01 0.83-0.05 0.42-0.11 0.6-0.19c0.19-0.08 0.38-0.19 0.54-0.31 0.17-0.12 0.31-0.26 0.42-0.41 0.11-0.14 0.2-0.29 0.26-0.43s0.08-0.26 0.09-0.38 0-0.23-0.02-0.34-0.06-0.23-0.09-0.27-0.05 0.01-0.07 0.06-0.04 0.11-0.08 0.19c-0.05 0.08-0.13 0.19-0.26 0.3s-0.3 0.22-0.5 0.31c-0.19 0.09-0.4 0.17-0.62 0.22s-0.44 0.08-0.67 0.09-0.46 0.01-0.67 0-0.4-0.03-0.62-0.07c-0.22-0.03-0.47-0.08-0.71-0.15s-0.47-0.17-0.67-0.28c-0.21-0.11-0.39-0.24-0.52-0.36s-0.22-0.23-0.26-0.26c-0.03-0.03-0.01 0.01 0 0.15z" clip-rule="evenodd" fill-rule="evenodd" image-rendering="optimizeQuality" shape-rendering="geometricPrecision" stroke-width=".01"/>
 </g>
</svg>
