<?xml version="1.0" encoding="UTF-8"?>
<!-- Created with Inkscape (http://www.inkscape.org/) -->
<svg width="7.01mm" height="1.7204mm" version="1.1" viewBox="0 0 7.01 1.7204" xmlns="http://www.w3.org/2000/svg" xmlns:cc="http://creativecommons.org/ns#" xmlns:dc="http://purl.org/dc/elements/1.1/" xmlns:rdf="http://www.w3.org/1999/02/22-rdf-syntax-ns#">
 <metadata>
  <rdf:RDF>
   <cc:Work rdf:about="">
    <dc:format>image/svg+xml</dc:format>
    <dc:type rdf:resource="http://purl.org/dc/dcmitype/StillImage"/>
    <dc:title/>
   </cc:Work>
  </rdf:RDF>
 </metadata>
 <g transform="translate(-62.115 -101.88)">
  <path class="fil2 str1" d="m62.115 103.34c0.37 0 0.74 0.01 0.93 0.01s0.19 0 0.19-0.05 0.01-0.16 0.02-0.3c0.02-0.14 0.05-0.31 0.1-0.44 0.06-0.13 0.13-0.21 0.22-0.28s0.19-0.13 0.3-0.14c0.12-0.02 0.26 0.01 0.37 0.05s0.18 0.09 0.25 0.17c0.07 0.09 0.15 0.22 0.2 0.35s0.08 0.26 0.09 0.36 0 0.17 0 0.21 0 0.04 0.33 0.04h1.35c0.34 0 0.34 0 0.35-0.09 0.01-0.09 0.04-0.28 0.08-0.43s0.1-0.25 0.18-0.35 0.17-0.19 0.27-0.24c0.1-0.05 0.2-0.06 0.3-0.06 0.1 0.01 0.21 0.03 0.32 0.1s0.22 0.17 0.3 0.29c0.07 0.12 0.1 0.24 0.11 0.36 0.02 0.12 0.03 0.23 0.03 0.29v0.07h0.12 0.6" clip-rule="evenodd" fill="none" image-rendering="optimizeQuality" shape-rendering="geometricPrecision" stroke="#000" stroke-width=".5"/>
 </g>
</svg>
