<?xml version="1.0" encoding="UTF-8" standalone="no"?>
<!-- Created with Inkscape (http://www.inkscape.org/) -->

<svg
   xmlns:dc="http://purl.org/dc/elements/1.1/"
   xmlns:cc="http://creativecommons.org/ns#"
   xmlns:rdf="http://www.w3.org/1999/02/22-rdf-syntax-ns#"
   xmlns:svg="http://www.w3.org/2000/svg"
   xmlns="http://www.w3.org/2000/svg"
   xmlns:sodipodi="http://sodipodi.sourceforge.net/DTD/sodipodi-0.dtd"
   xmlns:inkscape="http://www.inkscape.org/namespaces/inkscape"
   width="8.1604mm"
   height="2.4553mm"
   version="1.1"
   viewBox="0 0 8.1604 2.4553"
   id="svg20"
   sodipodi:docname="Laminacao_linsen.svg"
   inkscape:version="0.92.5 (2060ec1f9f, 2020-04-08)">
  <defs
     id="defs24" />
  <sodipodi:namedview
     pagecolor="#ffffff"
     bordercolor="#666666"
     borderopacity="1"
     objecttolerance="10"
     gridtolerance="10"
     guidetolerance="10"
     inkscape:pageopacity="0"
     inkscape:pageshadow="2"
     inkscape:window-width="1920"
     inkscape:window-height="1057"
     id="namedview22"
     showgrid="false"
     inkscape:zoom="14.298471"
     inkscape:cx="14.197322"
     inkscape:cy="4.6399372"
     inkscape:window-x="-8"
     inkscape:window-y="-8"
     inkscape:window-maximized="1"
     inkscape:current-layer="svg20" />
  <metadata
     id="metadata2">
    <rdf:RDF>
      <cc:Work
         rdf:about="">
        <dc:format>image/svg+xml</dc:format>
        <dc:type
           rdf:resource="http://purl.org/dc/dcmitype/StillImage" />
        <dc:title />
      </cc:Work>
    </rdf:RDF>
  </metadata>
  <g
     transform="translate(-58.19 -102.86)"
     id="g18">
    <g
       transform="matrix(.01 0 0 .01 35.574 -70.021)"
       clip-rule="evenodd"
       fill-rule="evenodd"
       image-rendering="optimizeQuality"
       shape-rendering="geometricPrecision"
       stroke="#000"
       stroke-width="50"
       id="g16">
      <path
         style="color:#000000;font-style:normal;font-variant:normal;font-weight:normal;font-stretch:normal;font-size:medium;line-height:normal;font-family:sans-serif;font-variant-ligatures:normal;font-variant-position:normal;font-variant-caps:normal;font-variant-numeric:normal;font-variant-alternates:normal;font-feature-settings:normal;text-indent:0;text-align:start;text-decoration:none;text-decoration-line:none;text-decoration-style:solid;text-decoration-color:#000000;letter-spacing:normal;word-spacing:normal;text-transform:none;writing-mode:lr-tb;direction:ltr;text-orientation:mixed;dominant-baseline:auto;baseline-shift:baseline;text-anchor:start;white-space:normal;shape-padding:0;clip-rule:nonzero;display:inline;overflow:visible;visibility:visible;opacity:1;isolation:auto;mix-blend-mode:normal;color-interpolation:sRGB;color-interpolation-filters:linearRGB;solid-color:#000000;solid-opacity:1;vector-effect:none;fill:#000000;fill-opacity:1;fill-rule:nonzero;stroke:none;stroke-width:1.88976395;stroke-linecap:butt;stroke-linejoin:miter;stroke-miterlimit:4;stroke-dasharray:none;stroke-dashoffset:0;stroke-opacity:1;color-rendering:auto;image-rendering:auto;shape-rendering:auto;text-rendering:auto;enable-background:accumulate"
         d="M 14.814453 -0.0078125 L 14.814453 -0.005859375 C 13.648851 -0.0011727605 12.530272 0.15034144 11.417969 0.49023438 C 9.9502042 0.93871315 8.5471221 1.6468641 7.3671875 2.2558594 L 7.3574219 2.2617188 L 7.3457031 2.2675781 C 6.1638863 2.9156916 5.2620631 3.4311813 4.1503906 3.734375 C 3.0387143 4.0375687 1.5613201 4.1560898 -0.001953125 4.3085938 L 0.18164062 6.1894531 C 1.7175803 6.0395948 3.2656254 5.9337619 4.6484375 5.5566406 C 4.7726536 5.522765 4.8825926 5.4770669 5.0019531 5.4394531 C 5.8922316 6.3950849 6.8543995 7.382072 8.1855469 8.0859375 C 9.7137725 8.914221 11.521382 9.1779633 13.585938 9.2558594 C 15.676137 9.3347381 18.051525 9.1399182 19.882812 8.8671875 C 21.738107 8.5908662 23.101103 8.1411101 24.275391 7.5742188 C 25.293571 7.0826749 26.203783 6.5304732 27.091797 5.9589844 C 27.714553 6.1603976 28.30708 6.3452883 28.685547 6.4804688 L 28.695312 6.4824219 L 28.705078 6.4863281 C 29.272007 6.6753045 29.702979 6.8184548 30.115234 6.9902344 L 30.841797 5.2460938 C 30.353127 5.0424877 29.879937 4.8850975 29.322266 4.6992188 L 29.302734 4.6933594 C 28.737359 4.4922023 28.108518 4.3082982 27.224609 4.0136719 C 26.332463 3.7162986 25.196767 3.3092945 24.210938 2.8164062 L 24.205078 2.8144531 L 24.199219 2.8105469 C 23.181384 2.3192083 22.199063 1.6534458 20.775391 1.0839844 L 20.763672 1.0800781 L 20.753906 1.0761719 C 19.337029 0.54991042 17.614487 0.15835663 15.998047 0.037109375 C 15.597844 0.0070999239 15.202989 -0.0093621064 14.814453 -0.0078125 z M 14.822266 1.8808594 C 15.156571 1.8800645 15.499769 1.8951915 15.855469 1.921875 C 17.258271 2.0270593 18.856692 2.3893374 20.083984 2.84375 C 21.298543 3.3310067 22.203216 3.9452931 23.371094 4.5097656 C 23.849729 4.748826 24.339794 4.9499141 24.818359 5.140625 C 24.374764 5.3980506 23.925085 5.6452084 23.453125 5.8730469 C 22.435287 6.3644233 21.30293 6.7452343 19.605469 6.9980469 C 17.884 7.25445 15.57235 7.4394899 13.65625 7.3671875 C 11.716426 7.293978 10.200525 7.0279979 9.0839844 6.421875 L 9.078125 6.4199219 L 9.0742188 6.4179688 C 8.2543094 5.9852348 7.5625892 5.3648495 6.8710938 4.6582031 C 7.3291873 4.4246903 7.7798002 4.1853004 8.2421875 3.9316406 C 9.4035986 3.3323209 10.720095 2.6809762 11.970703 2.2988281 C 12.899344 2.0150801 13.81935 1.883244 14.822266 1.8808594 z "
         transform="matrix(26.458331,0,0,26.458331,2261.6,17288.1)"
         id="path4" />
      <g
         id="g14">
        <path
           style=""
           d="m 2575,17415 a 14,12 0 0 1 -14,12 14,12 0 0 1 -14,-12 14,12 0 0 1 14,-12 14,12 0 0 1 14,12 z"
           id="ellipse8" />
        <path
           style=""
           d="m 2697,17415 a 14,12 0 0 1 -14,12 14,12 0 0 1 -14,-12 14,12 0 0 1 14,-12 14,12 0 0 1 14,12 z"
           id="ellipse10" />
        <path
           style=""
           d="m 2797,17415 a 14,12 0 0 1 -14,12 14,12 0 0 1 -14,-12 14,12 0 0 1 14,-12 14,12 0 0 1 14,12 z"
           id="ellipse12" />
      </g>
    </g>
  </g>
</svg>
