<?xml version="1.0" standalone="no"?>
<!DOCTYPE svg PUBLIC "-//W3C//DTD SVG 20010904//EN"
 "http://www.w3.org/TR/2001/REC-SVG-20010904/DTD/svg10.dtd">
<svg version="1.0" xmlns="http://www.w3.org/2000/svg"
 width="299.000000pt" height="119.000000pt" viewBox="0 0 299.000000 119.000000"
 preserveAspectRatio="xMidYMid meet">

<g transform="translate(0.000000,119.000000) scale(0.100000,-0.100000)"
fill="#000000" stroke="none">
<path d="M1506 917 c-7 -61 -28 -120 -116 -317 -70 -158 -97 -303 -70 -375 21
-55 175 -88 310 -66 56 9 70 16 102 49 44 47 58 93 58 189 0 86 -15 160 -45
228 -19 44 -220 355 -229 355 -2 0 -7 -28 -10 -63z"/>
<path d="M2 103 l3 -98 1488 -3 1487 -2 0 100 0 100 -560 0 -560 0 -58 -58
c-69 -71 -114 -85 -267 -85 -154 -1 -259 39 -294 110 l-16 33 -613 0 -613 0 3
-97z"/>
</g>
</svg>
