<?xml version="1.0" encoding="UTF-8"?>
<!-- Created with Inkscape (http://www.inkscape.org/) -->
<svg width="8.2258mm" height="3.0977mm" version="1.1" viewBox="0 0 8.2258 3.0977" xmlns="http://www.w3.org/2000/svg" xmlns:cc="http://creativecommons.org/ns#" xmlns:dc="http://purl.org/dc/elements/1.1/" xmlns:rdf="http://www.w3.org/1999/02/22-rdf-syntax-ns#">
 <metadata>
  <rdf:RDF>
   <cc:Work rdf:about="">
    <dc:format>image/svg+xml</dc:format>
    <dc:type rdf:resource="http://purl.org/dc/dcmitype/StillImage"/>
    <dc:title/>
   </cc:Work>
  </rdf:RDF>
 </metadata>
 <g transform="translate(-62.779 -100.68)">
  <g transform="matrix(.01 0 0 .01 41.635 31.876)" clip-rule="evenodd" fill="none" fill-rule="evenodd" image-rendering="optimizeQuality" shape-rendering="geometricPrecision" stroke="#000" stroke-width="50">
   <path class="fil2 str1" d="m2125 7050c72-34 145-69 194-90 50-22 77-30 107-21 30 10 63 38 97 56s69 25 103 19 67-24 97-42c31-18 60-34 85-46s45-19 65-20 39 3 59 7"/>
   <path class="fil2 str1" d="m2125 7168c72-34 145-69 194-90 50-22 77-30 107-21 30 10 63 38 97 56s69 25 103 19 67-24 97-42c31-18 60-34 85-46s45-19 65-20 39 3 59 7"/>
  </g>
 </g>
</svg>
