<?xml version="1.0" encoding="UTF-8" standalone="no"?>
<!-- Created with Inkscape (http://www.inkscape.org/) -->

<svg
   xmlns:dc="http://purl.org/dc/elements/1.1/"
   xmlns:cc="http://creativecommons.org/ns#"
   xmlns:rdf="http://www.w3.org/1999/02/22-rdf-syntax-ns#"
   xmlns:svg="http://www.w3.org/2000/svg"
   xmlns="http://www.w3.org/2000/svg"
   xmlns:sodipodi="http://sodipodi.sourceforge.net/DTD/sodipodi-0.dtd"
   xmlns:inkscape="http://www.inkscape.org/namespaces/inkscape"
   width="7.49mm"
   height="2.5917mm"
   version="1.1"
   viewBox="0 0 7.49 2.5917"
   id="svg18"
   sodipodi:docname="Seixo_pingado.svg"
   inkscape:version="0.92.5 (2060ec1f9f, 2020-04-08)">
  <defs
     id="defs22" />
  <sodipodi:namedview
     pagecolor="#ffffff"
     bordercolor="#666666"
     borderopacity="1"
     objecttolerance="10"
     gridtolerance="10"
     guidetolerance="10"
     inkscape:pageopacity="0"
     inkscape:pageshadow="2"
     inkscape:window-width="1492"
     inkscape:window-height="866"
     id="namedview20"
     showgrid="false"
     inkscape:zoom="15.578272"
     inkscape:cx="13.030971"
     inkscape:cy="4.8977009"
     inkscape:window-x="0"
     inkscape:window-y="0"
     inkscape:window-maximized="0"
     inkscape:current-layer="svg18" />
  <metadata
     id="metadata2">
    <rdf:RDF>
      <cc:Work
         rdf:about="">
        <dc:format>image/svg+xml</dc:format>
        <dc:type
           rdf:resource="http://purl.org/dc/dcmitype/StillImage" />
        <dc:title />
      </cc:Work>
    </rdf:RDF>
  </metadata>
  <g
     transform="translate(-60.392 -104.39)"
     id="g16">
    <g
       transform="matrix(.01 0 0 .01 -25.008 38.049)"
       clip-rule="evenodd"
       fill-rule="evenodd"
       image-rendering="optimizeQuality"
       shape-rendering="geometricPrecision"
       stroke="#000"
       stroke-width="50"
       id="g14">
      <g
         fill="none"
         id="g10">
        <path
           style="color:#000000;font-style:normal;font-variant:normal;font-weight:normal;font-stretch:normal;font-size:medium;line-height:normal;font-family:sans-serif;font-variant-ligatures:normal;font-variant-position:normal;font-variant-caps:normal;font-variant-numeric:normal;font-variant-alternates:normal;font-feature-settings:normal;text-indent:0;text-align:start;text-decoration:none;text-decoration-line:none;text-decoration-style:solid;text-decoration-color:#000000;letter-spacing:normal;word-spacing:normal;text-transform:none;writing-mode:lr-tb;direction:ltr;text-orientation:mixed;dominant-baseline:auto;baseline-shift:baseline;text-anchor:start;white-space:normal;shape-padding:0;clip-rule:nonzero;display:inline;overflow:visible;visibility:visible;opacity:1;isolation:auto;mix-blend-mode:normal;color-interpolation:sRGB;color-interpolation-filters:linearRGB;solid-color:#000000;solid-opacity:1;vector-effect:none;fill:#000000;fill-opacity:1;fill-rule:nonzero;stroke:none;stroke-width:1.88976371;stroke-linecap:butt;stroke-linejoin:miter;stroke-miterlimit:4;stroke-dasharray:none;stroke-dashoffset:0;stroke-opacity:1;color-rendering:auto;image-rendering:auto;shape-rendering:auto;text-rendering:auto;enable-background:accumulate"
           d="M 6.8691406 3.5058594 C 6.6900175 3.5073712 6.4671937 3.5117188 6.1601562 3.5117188 L 0 3.5117188 L 0 5.4003906 L 6.1601562 5.4003906 C 6.6514759 5.4003906 6.826469 5.3999749 6.9785156 5.4003906 C 7.096035 5.5437291 7.2934165 5.744138 7.4980469 5.9472656 C 7.2129585 5.9318707 6.9173593 5.9296875 6.3496094 5.9296875 L 0.037109375 5.9296875 L 0.037109375 7.8203125 L 6.3496094 7.8203125 C 7.0110267 7.8203125 7.3827515 7.823654 7.5332031 7.8359375 C 7.5478148 7.8371469 7.5479553 7.8359375 7.5566406 7.8359375 C 7.6828353 7.9260679 8.0880114 8.268095 8.6601562 8.5761719 C 9.2227314 8.8790972 9.9136058 9.1659014 10.617188 9.3417969 C 11.216467 9.4916167 11.755907 9.5371834 12.255859 9.5722656 C 12.873785 9.7625329 13.541603 9.8433606 14.255859 9.78125 C 15.055403 9.7117265 15.915836 9.5278803 16.730469 9.2246094 C 17.160232 9.1775009 17.572083 9.1069801 17.992188 9.0019531 L 18.027344 8.9921875 L 18.0625 8.9804688 C 18.605686 8.7994067 19.086333 8.5552145 19.478516 8.3769531 C 19.851056 8.2076152 20.24836 8.0635435 20.646484 7.9042969 C 21.024437 7.7531158 21.253768 7.6574303 21.681641 7.6289062 L 21.712891 7.6269531 L 21.744141 7.6230469 C 22.161106 7.5674538 22.904075 7.5928335 24.044922 7.6308594 L 24.060547 7.6308594 L 28.308594 7.6308594 L 28.308594 5.7402344 L 24.089844 5.7402344 C 23.612833 5.7242201 23.222091 5.7093225 22.849609 5.7011719 C 22.972547 5.6725402 23.088769 5.6375778 23.214844 5.6152344 C 23.821292 5.514476 24.48407 5.4765625 25.285156 5.4765625 L 27.439453 5.4765625 L 28.308594 5.4765625 L 28.308594 3.5859375 L 27.439453 3.5859375 L 25.285156 3.5859375 C 24.425027 3.5859375 23.653477 3.6244857 22.900391 3.75 L 22.894531 3.7519531 L 22.890625 3.7519531 C 22.171086 3.8789301 21.512588 4.0850865 20.990234 4.3027344 C 20.526369 4.4960119 20.098235 4.68358 19.640625 5.0039062 L 19.621094 5.0175781 L 19.603516 5.0332031 C 19.213638 5.336446 18.813899 5.7013292 18.314453 6.09375 C 17.788445 6.5070413 17.170652 6.9780067 16.464844 7.2988281 C 15.759036 7.6196495 14.859831 7.8316495 14.091797 7.8984375 C 13.517515 7.9483735 13.079251 7.8828544 12.648438 7.7167969 L 12.648438 7.7089844 C 12.640902 7.708482 12.634465 7.7075333 12.626953 7.7070312 C 12.527728 7.6679571 12.428376 7.6302035 12.328125 7.5800781 C 11.829145 7.3305883 11.271254 6.8321143 10.625 6.2617188 L 10.603516 6.2421875 C 9.9770799 5.6566913 9.3327852 5.121844 8.9824219 4.7714844 L 8.96875 4.7558594 L 8.953125 4.7421875 C 8.5521474 4.3746322 8.3907296 4.1531342 8.2773438 4.0019531 C 8.2376587 3.9490397 8.0901265 3.7579558 7.859375 3.6425781 C 7.6286235 3.5272043 7.452748 3.5191833 7.3183594 3.5117188 C 7.1839707 3.5042504 7.0482676 3.5043551 6.8691406 3.5058594 z "
           transform="matrix(26.458334,0,0,26.458334,8540,6634.1)"
           id="path4" />
      </g>
      <path
         class="fil0 str1"
         d="m8981 6661c-16-1-38 3-56 11s-32 20-41 34c-9 13-13 27-14 40s2 24 7 34 13 19 25 23c12 5 29 6 45 3s31-10 43-21c12-10 22-23 29-37 7-13 10-27 9-40s-7-24-14-33-17-14-32-15z"
         id="path12" />
    </g>
  </g>
</svg>
