<?xml version="1.0" encoding="UTF-8"?>
<!-- Created with Inkscape (http://www.inkscape.org/) -->
<svg width="7.8437mm" height="4.0485mm" version="1.1" viewBox="0 0 7.8437 4.0485" xmlns="http://www.w3.org/2000/svg" xmlns:cc="http://creativecommons.org/ns#" xmlns:dc="http://purl.org/dc/elements/1.1/" xmlns:rdf="http://www.w3.org/1999/02/22-rdf-syntax-ns#">
 <metadata>
  <rdf:RDF>
   <cc:Work rdf:about="">
    <dc:format>image/svg+xml</dc:format>
    <dc:type rdf:resource="http://purl.org/dc/dcmitype/StillImage"/>
    <dc:title/>
   </cc:Work>
  </rdf:RDF>
 </metadata>
 <g transform="translate(-63.878 -100.04)">
  <g transform="matrix(.01 0 0 .01 42.342 37.248)" clip-rule="evenodd" fill="none" fill-rule="evenodd" image-rendering="optimizeQuality" shape-rendering="geometricPrecision" stroke="#000" stroke-width="50">
   <path class="fil2 str1" d="m2175 6484c23-38 46-76 70-103s50-44 81-52 67-7 100-1 62 16 92 35 62 46 97 67c35 20 73 34 107 36 34 3 64-5 89-24s45-48 62-75 30-52 43-76"/>
   <path class="fil2 str1" d="m2175 6671c23-38 46-76 70-103s50-44 81-52 67-7 100-1 62 16 92 35 62 46 97 67c35 20 73 34 107 36 34 3 64-5 89-24s45-48 62-75 30-52 43-76"/>
  </g>
 </g>
</svg>
