<?xml version="1.0" standalone="no"?>
<!DOCTYPE svg PUBLIC "-//W3C//DTD SVG 20010904//EN"
 "http://www.w3.org/TR/2001/REC-SVG-20010904/DTD/svg10.dtd">
<svg version="1.0" xmlns="http://www.w3.org/2000/svg"
 width="84.000000pt" height="133.000000pt" viewBox="0 0 84.000000 133.000000"
 preserveAspectRatio="xMidYMid meet">

<g transform="translate(0.000000,133.000000) scale(0.100000,-0.100000)"
fill="#000000" stroke="none">
<path d="M536 1175 c-55 -79 -103 -150 -108 -157 -6 -9 -46 27 -145 130 l-138
143 -68 -61 c-37 -34 -67 -66 -67 -72 0 -5 64 -77 143 -159 78 -82 143 -154
145 -159 2 -5 -30 -63 -71 -127 -158 -250 -213 -382 -204 -485 12 -140 117
-204 347 -215 352 -16 509 110 445 357 -28 111 -133 305 -237 441 l-28 36 71
104 c40 57 96 138 125 181 l54 76 -80 56 c-43 31 -81 56 -82 56 -2 0 -48 -65
-102 -145z m-11 -640 c61 -102 105 -209 105 -259 0 -26 -6 -36 -27 -46 -40
-19 -262 -26 -331 -10 l-54 12 5 38 c6 50 59 157 143 294 l67 108 19 -23 c10
-13 43 -64 73 -114z"/>
</g>
</svg>
