<?xml version="1.0" encoding="UTF-8" standalone="no"?>
<!-- Created with Inkscape (http://www.inkscape.org/) -->

<svg
   xmlns:dc="http://purl.org/dc/elements/1.1/"
   xmlns:cc="http://creativecommons.org/ns#"
   xmlns:rdf="http://www.w3.org/1999/02/22-rdf-syntax-ns#"
   xmlns:svg="http://www.w3.org/2000/svg"
   xmlns="http://www.w3.org/2000/svg"
   xmlns:sodipodi="http://sodipodi.sourceforge.net/DTD/sodipodi-0.dtd"
   xmlns:inkscape="http://www.inkscape.org/namespaces/inkscape"
   width="10.702mm"
   height="2.2652mm"
   version="1.1"
   viewBox="0 0 10.702 2.2652"
   id="svg12"
   sodipodi:docname="Marca_ondul_interferencia.svg"
   inkscape:version="0.92.5 (2060ec1f9f, 2020-04-08)">
  <defs
     id="defs16" />
  <sodipodi:namedview
     pagecolor="#ffffff"
     bordercolor="#666666"
     borderopacity="1"
     objecttolerance="10"
     gridtolerance="10"
     guidetolerance="10"
     inkscape:pageopacity="0"
     inkscape:pageshadow="2"
     inkscape:window-width="1920"
     inkscape:window-height="1057"
     id="namedview14"
     showgrid="false"
     inkscape:zoom="10.902752"
     inkscape:cx="18.619152"
     inkscape:cy="4.2806927"
     inkscape:window-x="-8"
     inkscape:window-y="-8"
     inkscape:window-maximized="1"
     inkscape:current-layer="svg12" />
  <metadata
     id="metadata2">
    <rdf:RDF>
      <cc:Work
         rdf:about="">
        <dc:format>image/svg+xml</dc:format>
        <dc:type
           rdf:resource="http://purl.org/dc/dcmitype/StillImage" />
        <dc:title />
      </cc:Work>
    </rdf:RDF>
  </metadata>
  <g
     transform="translate(-60.927 -101.64)"
     id="g10">
    <g
       transform="matrix(.01 0 0 .01 40.445 13.052)"
       clip-rule="evenodd"
       fill="none"
       fill-rule="evenodd"
       image-rendering="optimizeQuality"
       shape-rendering="geometricPrecision"
       stroke="#000"
       stroke-width="50"
       id="g8">
      <path
         style="color:#000000;font-style:normal;font-variant:normal;font-weight:normal;font-stretch:normal;font-size:medium;line-height:normal;font-family:sans-serif;font-variant-ligatures:normal;font-variant-position:normal;font-variant-caps:normal;font-variant-numeric:normal;font-variant-alternates:normal;font-feature-settings:normal;text-indent:0;text-align:start;text-decoration:none;text-decoration-line:none;text-decoration-style:solid;text-decoration-color:#000000;letter-spacing:normal;word-spacing:normal;text-transform:none;writing-mode:lr-tb;direction:ltr;text-orientation:mixed;dominant-baseline:auto;baseline-shift:baseline;text-anchor:start;white-space:normal;shape-padding:0;clip-rule:nonzero;display:inline;overflow:visible;visibility:visible;opacity:1;isolation:auto;mix-blend-mode:normal;color-interpolation:sRGB;color-interpolation-filters:linearRGB;solid-color:#000000;solid-opacity:1;vector-effect:none;fill:#000000;fill-opacity:1;fill-rule:nonzero;stroke:none;stroke-width:1.88976359;stroke-linecap:butt;stroke-linejoin:miter;stroke-miterlimit:4;stroke-dasharray:none;stroke-dashoffset:0;stroke-opacity:1;color-rendering:auto;image-rendering:auto;shape-rendering:auto;text-rendering:auto;enable-background:accumulate"
         d="M 14.150391 -0.013671875 C 13.318615 -0.018558804 12.483044 0.050757353 11.582031 0.2109375 C 9.7485372 0.53689149 7.7299489 1.2953024 5.7539062 2.4414062 C 3.7825955 3.5847662 1.8628232 5.0867517 0 6.6074219 L 1.1953125 8.0722656 C 1.686343 7.6714239 2.1776766 7.3002255 2.6699219 6.9140625 C 4.1857788 7.5585219 5.7603452 8.1684283 7.4882812 8.4257812 C 9.4390465 8.7163211 11.45764 8.4643908 13.404297 7.9082031 C 15.362383 7.3487499 17.234585 6.4497416 18.664062 5.5761719 C 19.868901 4.8398822 20.752872 4.1521129 21.585938 3.4667969 C 23.308058 4.150686 25.018992 5.1121727 26.65625 5.8535156 C 28.291134 6.6314482 29.830749 7.1861511 31.376953 7.5429688 C 32.910315 7.8968194 34.461089 8.1063279 35.869141 7.9785156 C 37.271564 7.8546038 38.410415 7.4881738 39.126953 7.1933594 C 39.802366 6.9305008 40.128688 6.7944878 40.449219 6.6113281 L 39.511719 4.9707031 C 39.306052 5.0882275 39.100177 5.1779476 38.427734 5.4394531 L 38.419922 5.4414062 L 38.410156 5.4453125 C 37.841738 5.6793673 36.866642 5.992866 35.701172 6.0957031 L 35.699219 6.0957031 C 34.613096 6.1944433 33.215027 6.0275378 31.800781 5.7011719 C 30.401479 5.3782566 28.997878 4.8744571 27.460938 4.1425781 L 27.451172 4.1386719 L 27.443359 4.1347656 C 25.914835 3.4432898 24.158089 2.4498669 22.261719 1.6992188 C 20.365348 0.94857439 18.41409 0.4824294 16.695312 0.20898438 L 16.693359 0.20703125 L 16.691406 0.20703125 C 15.808902 0.069751259 14.982166 -0.0087887257 14.150391 -0.013671875 z M 14.142578 1.8710938 C 14.860146 1.8756131 15.582594 1.9470717 16.400391 2.0742188 C 17.36211 2.2272675 18.403081 2.4556452 19.455078 2.7539062 C 18.932385 3.1480305 18.365156 3.5439931 17.679688 3.9628906 C 16.387906 4.7523129 14.630616 5.5929824 12.884766 6.0917969 C 11.127486 6.5938768 9.3676154 6.7952346 7.765625 6.5566406 C 6.6401728 6.3890207 5.5334644 6.0245184 4.4121094 5.5839844 C 5.1807327 5.031785 5.9471828 4.5146185 6.703125 4.0761719 C 8.5066096 3.0301499 10.344029 2.351036 11.912109 2.0722656 C 12.711563 1.9301403 13.42501 1.8665744 14.142578 1.8710938 z "
         transform="matrix(26.458335,0,0,26.458335,2048.2,8858.8)"
         id="path4" />
    </g>
  </g>
</svg>
