<?xml version="1.0" encoding="UTF-8" standalone="no"?>
<!-- Created with Inkscape (http://www.inkscape.org/) -->

<svg
   xmlns:dc="http://purl.org/dc/elements/1.1/"
   xmlns:cc="http://creativecommons.org/ns#"
   xmlns:rdf="http://www.w3.org/1999/02/22-rdf-syntax-ns#"
   xmlns:svg="http://www.w3.org/2000/svg"
   xmlns="http://www.w3.org/2000/svg"
   xmlns:sodipodi="http://sodipodi.sourceforge.net/DTD/sodipodi-0.dtd"
   xmlns:inkscape="http://www.inkscape.org/namespaces/inkscape"
   width="9.15mm"
   height="3.4158mm"
   version="1.1"
   viewBox="0 0 9.15 3.4158"
   id="svg12"
   sodipodi:docname="Marca_ondul_cavalgante_critica.svg"
   inkscape:version="0.92.5 (2060ec1f9f, 2020-04-08)">
  <defs
     id="defs16" />
  <sodipodi:namedview
     pagecolor="#ffffff"
     bordercolor="#666666"
     borderopacity="1"
     objecttolerance="10"
     gridtolerance="10"
     guidetolerance="10"
     inkscape:pageopacity="0"
     inkscape:pageshadow="2"
     inkscape:window-width="1920"
     inkscape:window-height="1057"
     id="namedview14"
     showgrid="false"
     inkscape:zoom="12.75205"
     inkscape:cx="15.919009"
     inkscape:cy="6.4550553"
     inkscape:window-x="-8"
     inkscape:window-y="-8"
     inkscape:window-maximized="1"
     inkscape:current-layer="svg12" />
  <metadata
     id="metadata2">
    <rdf:RDF>
      <cc:Work
         rdf:about="">
        <dc:format>image/svg+xml</dc:format>
        <dc:type
           rdf:resource="http://purl.org/dc/dcmitype/StillImage" />
        <dc:title />
      </cc:Work>
    </rdf:RDF>
  </metadata>
  <g
     transform="translate(-63.361 -100.51)"
     id="g10">
    <g
       transform="matrix(.01 0 0 .01 42.161 26.672)"
       clip-rule="evenodd"
       fill="none"
       fill-rule="evenodd"
       image-rendering="optimizeQuality"
       shape-rendering="geometricPrecision"
       stroke="#000"
       stroke-width="50"
       id="g8">
      <path
         style="color:#000000;font-style:normal;font-variant:normal;font-weight:normal;font-stretch:normal;font-size:medium;line-height:normal;font-family:sans-serif;font-variant-ligatures:normal;font-variant-position:normal;font-variant-caps:normal;font-variant-numeric:normal;font-variant-alternates:normal;font-feature-settings:normal;text-indent:0;text-align:start;text-decoration:none;text-decoration-line:none;text-decoration-style:solid;text-decoration-color:#000000;letter-spacing:normal;word-spacing:normal;text-transform:none;writing-mode:lr-tb;direction:ltr;text-orientation:mixed;dominant-baseline:auto;baseline-shift:baseline;text-anchor:start;white-space:normal;shape-padding:0;clip-rule:nonzero;display:inline;overflow:visible;visibility:visible;opacity:1;isolation:auto;mix-blend-mode:normal;color-interpolation:sRGB;color-interpolation-filters:linearRGB;solid-color:#000000;solid-opacity:1;vector-effect:none;fill:#000000;fill-opacity:1;fill-rule:nonzero;stroke:none;stroke-width:1.88976371;stroke-linecap:butt;stroke-linejoin:miter;stroke-miterlimit:4;stroke-dasharray:none;stroke-dashoffset:0;stroke-opacity:1;color-rendering:auto;image-rendering:auto;shape-rendering:auto;text-rendering:auto;enable-background:accumulate"
         d="M 33.376953 -0.001953125 C 31.643556 1.4299851 29.866716 2.8347245 28.623047 3.4238281 C 27.379378 4.0129355 26.615774 3.9430774 25.357422 3.6914062 L 25.355469 3.6914062 L 25.351562 3.6914062 C 24.057592 3.4397993 22.498545 2.983634 20.851562 2.6699219 C 19.178857 2.3513115 17.432401 2.2645302 15.574219 2.71875 L 15.564453 2.7207031 L 15.554688 2.7226562 C 13.702137 3.216667 11.828445 4.2066595 9.2441406 5.7265625 L 9.2421875 5.7265625 C 6.6508036 7.212805 3.3219646 9.2560019 -0.00390625 11.296875 L 0.98632812 12.90625 C 4.0837826 11.005539 7.1224654 9.1494705 9.5917969 7.7167969 C 10.66976 8.7024215 11.831085 9.6595781 13.220703 10.28125 L 13.230469 10.285156 L 13.240234 10.289062 C 14.877945 10.978626 16.705668 11.090624 18.460938 10.845703 C 20.203957 10.602491 21.842997 10.04609 23.130859 9.3398438 L 23.142578 9.3339844 L 23.152344 9.328125 C 24.447361 8.5761804 25.296167 7.6847312 25.863281 6.9960938 C 26.275078 6.4960554 26.53014 6.086976 26.746094 5.7226562 C 27.595196 5.7241717 28.477085 5.5849697 29.431641 5.1328125 C 31.060413 4.3612862 32.83631 2.8936277 34.580078 1.453125 L 33.376953 -0.001953125 z M 18.279297 4.2910156 C 19.015646 4.2958024 19.748604 4.3826398 20.498047 4.5253906 C 21.905318 4.7934419 23.312386 5.1878375 24.642578 5.4667969 C 24.561489 5.5769194 24.505741 5.67174 24.404297 5.7949219 C 23.914784 6.3893282 23.255107 7.0802773 22.212891 7.6875 C 21.158202 8.2640707 19.702023 8.7649174 18.199219 8.9746094 C 16.707757 9.1827215 15.21541 9.0674162 13.982422 8.5507812 C 13.063938 8.1379947 12.185284 7.4810812 11.3125 6.7207031 C 13.255962 5.6174082 14.733073 4.8989095 16.033203 4.5507812 C 16.803006 4.3634887 17.542948 4.2862289 18.279297 4.2910156 z "
         transform="matrix(26.458334,0,0,26.458334,2120,7383.8)"
         id="path4" />
    </g>
  </g>
</svg>
