<?xml version="1.0" encoding="UTF-8"?>
<!-- Created with Inkscape (http://www.inkscape.org/) -->
<svg width="9.3481mm" height="2.7494mm" version="1.1" viewBox="0 0 9.3481 2.7494" xmlns="http://www.w3.org/2000/svg" xmlns:cc="http://creativecommons.org/ns#" xmlns:dc="http://purl.org/dc/elements/1.1/" xmlns:rdf="http://www.w3.org/1999/02/22-rdf-syntax-ns#">
 <metadata>
  <rdf:RDF>
   <cc:Work rdf:about="">
    <dc:format>image/svg+xml</dc:format>
    <dc:type rdf:resource="http://purl.org/dc/dcmitype/StillImage"/>
    <dc:title/>
   </cc:Work>
  </rdf:RDF>
 </metadata>
 <g transform="translate(-63.413 -99.966)">
  <g transform="matrix(.01 0 0 .01 43.332 54.315)" clip-rule="evenodd" fill="none" fill-rule="evenodd" image-rendering="optimizeQuality" shape-rendering="geometricPrecision" stroke="#000" stroke-width="50">
   <path class="fil2 str1" d="m2013 4653c50 10 101 19 144 28 44 9 81 17 112 13s57-20 82-38 50-38 78-51c29-13 61-18 90-13s55 20 78 37c24 17 46 37 63 49 17 13 28 19 56 19s72-5 112-11c40-7 75-15 110-22"/>
   <path class="fil2 str1" d="m2013 4771c50 10 101 19 144 28 44 9 81 17 112 13s57-20 82-38 50-38 78-51c29-13 61-18 90-13s55 20 78 37c24 17 46 37 63 49 17 13 28 19 56 19s72-5 112-11c40-7 75-15 110-22"/>
  </g>
 </g>
</svg>
