<?xml version="1.0" encoding="UTF-8"?>
<!-- Created with Inkscape (http://www.inkscape.org/) -->
<svg width="5.1138mm" height="4.7578mm" version="1.1" viewBox="0 0 5.1138 4.7578" xmlns="http://www.w3.org/2000/svg" xmlns:cc="http://creativecommons.org/ns#" xmlns:dc="http://purl.org/dc/elements/1.1/" xmlns:rdf="http://www.w3.org/1999/02/22-rdf-syntax-ns#">
 <metadata>
  <rdf:RDF>
   <cc:Work rdf:about="">
    <dc:format>image/svg+xml</dc:format>
    <dc:type rdf:resource="http://purl.org/dc/dcmitype/StillImage"/>
    <dc:title/>
   </cc:Work>
  </rdf:RDF>
 </metadata>
 <g transform="translate(-56.865 -108.65)">
  <path class="fil2 str1" d="m57.663 110.57c0.29-0.01 0.8-0.01 1.06-0.01s0.28 0.01 0.29-0.21c0-0.22-0.01-0.66-0.01-0.9s0.01-0.29 0.05-0.34 0.1-0.11 0.18-0.16c0.08-0.04 0.17-0.06 0.26-0.04 0.09 0.03 0.18 0.11 0.24 0.16s0.09 0.07 0.11 0.17 0.03 0.29 0.03 0.5 0 0.43 0.01 0.56c0 0.13 0.01 0.18 0.02 0.21s0.02 0.04 0.11 0.05 0.25 0.01 0.5 0.02c0.24 0 0.57 0 0.77 0.01s0.26 0.03 0.32 0.06c0.05 0.03 0.09 0.08 0.11 0.14s0.02 0.12 0.01 0.19-0.02 0.16-0.04 0.22-0.05 0.11-0.15 0.15c-0.09 0.04-0.25 0.07-0.41 0.09s-0.34 0.02-0.55 0.02h-0.6c-0.13 0-0.15 0-0.15 0.15s0.01 0.46 0.01 0.7 0 0.41-0.02 0.52-0.06 0.16-0.11 0.21c-0.06 0.05-0.13 0.09-0.22 0.11s-0.2 0-0.28-0.03-0.14-0.09-0.18-0.21-0.06-0.3-0.07-0.56c-0.01-0.25 0-0.58 0-0.74s0-0.16-0.21-0.16h-0.9c-0.26 0-0.35 0-0.43-0.02s-0.15-0.06-0.2-0.12-0.07-0.15-0.09-0.24c-0.01-0.09-0.01-0.17 0-0.24s0.04-0.13 0.09-0.18c0.06-0.04 0.14-0.06 0.43-0.08z" clip-rule="evenodd" fill="none" image-rendering="optimizeQuality" shape-rendering="geometricPrecision" stroke="#000" stroke-width=".5"/>
 </g>
</svg>
