<?xml version="1.0" encoding="UTF-8" standalone="no"?>
<!-- Created with Inkscape (http://www.inkscape.org/) -->

<svg
   xmlns:dc="http://purl.org/dc/elements/1.1/"
   xmlns:cc="http://creativecommons.org/ns#"
   xmlns:rdf="http://www.w3.org/1999/02/22-rdf-syntax-ns#"
   xmlns:svg="http://www.w3.org/2000/svg"
   xmlns="http://www.w3.org/2000/svg"
   xmlns:sodipodi="http://sodipodi.sourceforge.net/DTD/sodipodi-0.dtd"
   xmlns:inkscape="http://www.inkscape.org/namespaces/inkscape"
   width="5.511mm"
   height="3.1946mm"
   version="1.1"
   viewBox="0 0 5.511 3.1946"
   id="svg16"
   sodipodi:docname="Vulcao_lama.svg"
   inkscape:version="0.92.5 (2060ec1f9f, 2020-04-08)">
  <defs
     id="defs20" />
  <sodipodi:namedview
     pagecolor="#ffffff"
     bordercolor="#666666"
     borderopacity="1"
     objecttolerance="10"
     gridtolerance="10"
     guidetolerance="10"
     inkscape:pageopacity="0"
     inkscape:pageshadow="2"
     inkscape:window-width="1920"
     inkscape:window-height="1057"
     id="namedview18"
     showgrid="false"
     inkscape:zoom="19.546004"
     inkscape:cx="9.5191648"
     inkscape:cy="6.0370396"
     inkscape:window-x="-8"
     inkscape:window-y="-8"
     inkscape:window-maximized="1"
     inkscape:current-layer="svg16" />
  <metadata
     id="metadata2">
    <rdf:RDF>
      <cc:Work
         rdf:about="">
        <dc:format>image/svg+xml</dc:format>
        <dc:type
           rdf:resource="http://purl.org/dc/dcmitype/StillImage" />
        <dc:title />
      </cc:Work>
    </rdf:RDF>
  </metadata>
  <g
     transform="translate(-63.314 -108.46)"
     id="g14">
    <g
       transform="matrix(.01 0 0 .01 -22.064 -14.954)"
       clip-rule="evenodd"
       fill="none"
       fill-rule="evenodd"
       image-rendering="optimizeQuality"
       shape-rendering="geometricPrecision"
       stroke="#000"
       stroke-width="50"
       id="g12">
      <path
         style="color:#000000;font-style:normal;font-variant:normal;font-weight:normal;font-stretch:normal;font-size:medium;line-height:normal;font-family:sans-serif;font-variant-ligatures:normal;font-variant-position:normal;font-variant-caps:normal;font-variant-numeric:normal;font-variant-alternates:normal;font-feature-settings:normal;text-indent:0;text-align:start;text-decoration:none;text-decoration-line:none;text-decoration-style:solid;text-decoration-color:#000000;letter-spacing:normal;word-spacing:normal;text-transform:none;writing-mode:lr-tb;direction:ltr;text-orientation:mixed;dominant-baseline:auto;baseline-shift:baseline;text-anchor:start;white-space:normal;shape-padding:0;clip-rule:nonzero;display:inline;overflow:visible;visibility:visible;opacity:1;isolation:auto;mix-blend-mode:normal;color-interpolation:sRGB;color-interpolation-filters:linearRGB;solid-color:#000000;solid-opacity:1;vector-effect:none;fill:#000000;fill-opacity:1;fill-rule:nonzero;stroke:none;stroke-width:1.88976395;stroke-linecap:butt;stroke-linejoin:miter;stroke-miterlimit:4;stroke-dasharray:none;stroke-dashoffset:0;stroke-opacity:1;color-rendering:auto;image-rendering:auto;shape-rendering:auto;text-rendering:auto;enable-background:accumulate"
         d="M 12.013672 -0.013671875 C 11.140983 -0.029092348 10.196771 0.028999941 9.3847656 0.19140625 L 9.3808594 0.19335938 L 9.3769531 0.19335938 C 8.3251861 0.4124964 7.5846669 0.84460896 7.0820312 1.2558594 L 7.0644531 1.2714844 L 7.0488281 1.2851562 C 6.5807034 1.7064602 6.2590254 2.1943559 5.8691406 2.9335938 C 5.4586197 3.6732851 4.9775287 4.7079099 4.4824219 5.5566406 C 3.980425 6.4172391 3.512163 7.0389044 2.8691406 7.4023438 C 2.2261182 7.7658209 1.15183 7.9705296 0 8.1191406 L 0.2421875 9.9921875 C 1.4336647 9.8384363 2.7032677 9.666075 3.7988281 9.046875 C 4.8943885 8.4276372 5.5589635 7.4613874 6.1152344 6.5078125 C 6.4743373 5.8922019 6.7896445 5.275032 7.0742188 4.7148438 C 7.7448721 5.1243573 8.425133 5.5217274 9.1464844 5.8339844 C 8.930695 6.4807495 8.7053383 7.0855094 8.4257812 7.5371094 C 8.0224981 8.1885488 7.5127656 8.6199875 7.03125 8.8339844 L 7.0117188 8.84375 L 6.9921875 8.8535156 C 6.4746379 9.1122621 5.9661187 9.1768494 5.2578125 9.2949219 L 5.5683594 11.160156 C 6.2145452 11.052478 6.9805835 10.966051 7.8144531 10.554688 C 8.6872103 10.162637 9.4571993 9.4636851 10.033203 8.5332031 C 10.453236 7.8546967 10.717508 7.123661 10.953125 6.3984375 C 11.050007 6.4171045 11.145632 6.4321368 11.242188 6.4472656 C 11.335894 7.0264599 11.449848 7.6135918 11.669922 8.2109375 C 11.996103 9.0962541 12.537791 9.807326 13.097656 10.367188 L 13.109375 10.378906 L 13.123047 10.390625 C 13.755883 10.978266 14.436893 11.353921 14.791016 11.566406 L 14.806641 11.576172 L 14.824219 11.585938 C 15.190655 11.785837 15.315574 11.89751 15.583984 12.058594 L 16.556641 10.4375 C 16.447099 10.371812 16.193575 10.181378 15.728516 9.9277344 L 15.763672 9.9453125 C 15.365544 9.7064463 14.843308 9.4054455 14.419922 9.015625 C 14.00284 8.5957195 13.642197 8.1016485 13.441406 7.5566406 C 13.325338 7.2415996 13.241108 6.8992765 13.169922 6.5332031 C 13.455262 6.5122644 13.73641 6.4817101 14.005859 6.4335938 L 14.023438 6.4296875 L 14.039062 6.4257812 C 14.49777 6.3274965 14.916717 6.1881984 15.320312 6.0351562 C 15.394642 6.3641184 15.480527 6.6943985 15.59375 7.0214844 C 15.983718 8.1480482 16.597508 9.1053282 17.253906 9.7617188 L 17.265625 9.7734375 L 17.277344 9.7851562 C 17.960221 10.422536 18.642932 10.716604 19.042969 10.898438 L 19.076172 10.914062 L 19.111328 10.925781 C 19.54004 11.081687 19.892264 11.199114 20.232422 11.3125 L 20.830078 9.5195312 C 20.499691 9.4093958 20.17428 9.3023677 19.787109 9.1621094 C 19.375961 8.9757409 19.011553 8.8129539 18.580078 8.4140625 C 18.179543 8.0094641 17.666993 7.2365489 17.378906 6.4042969 C 17.25961 6.0596645 17.173332 5.6554074 17.09375 5.234375 C 17.106741 5.2278775 17.121808 5.2213225 17.134766 5.2148438 L 17.058594 5.0644531 C 16.961893 4.5284601 16.876701 3.9635727 16.769531 3.4277344 L 16.765625 3.40625 L 16.759766 3.3847656 C 16.513522 2.3997829 16.198857 1.51563 15.5 0.875 L 15.486328 0.86328125 L 15.470703 0.8515625 C 14.781809 0.26864593 13.903694 0.069459919 12.855469 0.025390625 L 12.853516 0.025390625 C 12.586224 0.0048299938 12.304465 -0.0085317172 12.013672 -0.013671875 z M 11.201172 1.890625 C 11.726116 1.8683683 12.261753 1.8757436 12.708984 1.9101562 L 12.728516 1.9121094 L 12.746094 1.9121094 C 13.628939 1.9460873 13.950926 2.0496405 14.232422 2.28125 C 14.438236 2.4781256 14.717973 3.0178943 14.921875 3.8242188 C 14.94014 3.916826 14.959287 4.0448276 14.976562 4.1445312 C 14.544789 4.3263029 14.111986 4.4756298 13.658203 4.5742188 C 12.750795 4.733677 11.651573 4.7012866 10.607422 4.375 C 9.8011139 4.1230196 8.9080121 3.6142414 7.9882812 3.0566406 C 8.0852019 2.9225661 8.1770047 2.8142789 8.296875 2.7050781 C 8.621767 2.4418718 9.0129801 2.2010164 9.7597656 2.0449219 C 10.163372 1.9645313 10.676228 1.9128817 11.201172 1.890625 z "
         transform="matrix(26.458332,0,0,26.458332,8537.8,12341.4)"
         id="path4" />
    </g>
  </g>
</svg>
