<?xml version="1.0" encoding="UTF-8" standalone="no"?>
<!-- Created with Inkscape (http://www.inkscape.org/) -->

<svg
   xmlns:dc="http://purl.org/dc/elements/1.1/"
   xmlns:cc="http://creativecommons.org/ns#"
   xmlns:rdf="http://www.w3.org/1999/02/22-rdf-syntax-ns#"
   xmlns:svg="http://www.w3.org/2000/svg"
   xmlns="http://www.w3.org/2000/svg"
   xmlns:sodipodi="http://sodipodi.sourceforge.net/DTD/sodipodi-0.dtd"
   xmlns:inkscape="http://www.inkscape.org/namespaces/inkscape"
   width="5.3637mm"
   height="6.107mm"
   version="1.1"
   viewBox="0 0 3.2182 3.6642"
   id="svg196"
   sodipodi:docname="artropoda.svg"
   inkscape:version="0.92.5 (2060ec1f9f, 2020-04-08)">
  <defs
     id="defs200" />
  <sodipodi:namedview
     pagecolor="#ffffff"
     bordercolor="#666666"
     borderopacity="1"
     objecttolerance="10"
     gridtolerance="10"
     guidetolerance="10"
     inkscape:pageopacity="0"
     inkscape:pageshadow="2"
     inkscape:window-width="1366"
     inkscape:window-height="745"
     id="namedview198"
     showgrid="false"
     inkscape:zoom="24.95497"
     inkscape:cx="10.136126"
     inkscape:cy="11.540787"
     inkscape:window-x="-8"
     inkscape:window-y="-8"
     inkscape:window-maximized="1"
     inkscape:current-layer="svg196" />
  <metadata
     id="metadata168">
    <rdf:RDF>
      <cc:Work
         rdf:about="">
        <dc:format>image/svg+xml</dc:format>
        <dc:type
           rdf:resource="http://purl.org/dc/dcmitype/StillImage" />
        <dc:title></dc:title>
      </cc:Work>
    </rdf:RDF>
  </metadata>
  <g
     transform="translate(-44.785 -79.152)"
     id="g194">
    <g
       transform="matrix(.006 0 0 .006 7.892 27.194)"
       clip-rule="evenodd"
       fill-rule="evenodd"
       image-rendering="optimizeQuality"
       shape-rendering="geometricPrecision"
       id="g192">
      <path
         style="fill:#ffffff;fill-rule:nonzero;stroke:#000000;stroke-width:12.69999981"
         d="m 6490,8850 c -23,26 28,22 12,106"
         id="path228" />
      <path
         style="fill:#ffffff;fill-rule:nonzero;stroke:#000000;stroke-width:12.69999981"
         d="m 6502,8956 c -16,84 -44,102 -37,116"
         id="path226" />
      <path
         style="fill:#ffffff;fill-rule:nonzero;stroke:#000000;stroke-width:12.69999981"
         d="m 6465,9072 c 7,14 36,150 10,175"
         id="path224" />
      <path
         style="fill:#ffffff;fill-rule:nonzero;stroke:#000000;stroke-width:12.69999981"
         d="m 6475,9247 c -15,15 -21,17 -21,17"
         id="path222" />
      <path
         style="fill:#ffffff;fill-rule:nonzero;stroke:#000000;stroke-width:12.69999981"
         d="m 6454,9264 h -76"
         id="path220" />
      <path
         style="fill:#ffffff;fill-rule:nonzero;stroke:#000000;stroke-width:12.69999981"
         d="m 6378,9264 c 0,0 -5,-2 -21,-17"
         id="path218" />
      <path
         style="fill:#ffffff;fill-rule:nonzero;stroke:#000000;stroke-width:12.69999981"
         d="m 6357,9247 c -26,-25 3,-162 10,-175"
         id="path216" />
      <path
         style="fill:#ffffff;fill-rule:nonzero;stroke:#000000;stroke-width:12.69999981"
         d="m 6367,9072 c 7,-14 -21,-31 -37,-116"
         id="path214" />
      <path
         style="fill:#ffffff;fill-rule:nonzero;stroke:#000000;stroke-width:12.69999981"
         d="m 6330,8956 c -16,-84 35,-80 12,-106"
         id="path212" />
      <path
         style="fill:#ffffff;fill-rule:nonzero;stroke:#000000;stroke-width:12.69999981"
         d="m 6342,8850 c -22,-26 36,-184 73,-184"
         id="path210" />
      <path
         style="fill:#ffffff;fill-rule:nonzero;stroke:#000000;stroke-width:12.69999981"
         d="m 6415,8666 h 2 c 37,0 96,157 73,184"
         id="path170" />
      <path
         class="fil1 str0"
         d="m6348 8857 69 55 69-55m-120 224 51-11 52 11"
         fill="none"
         stroke="#000"
         stroke-width="12.7"
         id="path172" />
      <g
         fill="#fff"
         fill-rule="nonzero"
         stroke="#000"
         stroke-width="12.7"
         id="g186">
        <path
           style=""
           d="m 6550,9041 -84,20 3,-8 4,-8 84,-20 47,36 32,49 -47,-48 z"
           id="polygon174" />
        <path
           style=""
           d="m 6254,8948 85,40 -2,-6 -2,-8 -76,-36 -45,15 -60,-66 53,75 z"
           id="polygon176" />
        <path
           d="m 6199,8841 -29,-83"
           id="path260" />
        <path
           d="m 6170,8758 18,88"
           id="path258" />
        <path
           d="m 6188,8846 55,21"
           id="path256" />
        <path
           d="m 6243,8867 72,44"
           id="path254" />
        <path
           d="m 6315,8911 13,9"
           id="path252" />
        <path
           d="m 6328,8920 1,-10"
           id="path250" />
        <path
           d="m 6329,8910 2,-11"
           id="path248" />
        <path
           d="m 6331,8899 -16,-4"
           id="path246" />
        <path
           d="m 6315,8895 -68,-40"
           id="path244" />
        <path
           d="m 6247,8855 -48,-14"
           id="polygon178" />
        <path
           style=""
           d="m 6580,8948 -85,40 2,-6 2,-8 76,-36 45,15 60,-66 -53,75 z"
           id="polygon180" />
        <path
           style=""
           d="m 6635,8841 29,-83 -18,88 -55,21 -72,44 -13,9 -1,-10 -2,-11 16,-4 68,-40 z"
           id="polygon182" />
        <path
           style=""
           d="m 6284,9041 85,20 -4,-8 -4,-8 -84,-20 -47,36 -32,49 47,-48 z"
           id="polygon184" />
      </g>
      <path
         class="fil2"
         d="m6391 8739c0 7-5 12-11 12s-11-5-11-12 5-12 11-12 11 5 11 12z"
         fill-rule="nonzero"
         id="path188" />
      <path
         class="fil2"
         d="m6466 8739c0 7-5 12-11 12s-11-5-11-12 5-12 11-12 11 5 11 12z"
         fill-rule="nonzero"
         id="path190" />
    </g>
  </g>
</svg>
