<?xml version="1.0" encoding="UTF-8" standalone="no"?>
<!-- Created with Inkscape (http://www.inkscape.org/) -->

<svg
   xmlns:dc="http://purl.org/dc/elements/1.1/"
   xmlns:cc="http://creativecommons.org/ns#"
   xmlns:rdf="http://www.w3.org/1999/02/22-rdf-syntax-ns#"
   xmlns:svg="http://www.w3.org/2000/svg"
   xmlns="http://www.w3.org/2000/svg"
   xmlns:sodipodi="http://sodipodi.sourceforge.net/DTD/sodipodi-0.dtd"
   xmlns:inkscape="http://www.inkscape.org/namespaces/inkscape"
   width="5.0491mm"
   height="6.297mm"
   version="1.1"
   viewBox="0 0 3.0294 3.7782"
   id="svg87"
   sodipodi:docname="cnidarios.svg"
   inkscape:version="0.92.5 (2060ec1f9f, 2020-04-08)">
  <defs
     id="defs91" />
  <sodipodi:namedview
     pagecolor="#ffffff"
     bordercolor="#666666"
     borderopacity="1"
     objecttolerance="10"
     gridtolerance="10"
     guidetolerance="10"
     inkscape:pageopacity="0"
     inkscape:pageshadow="2"
     inkscape:window-width="1366"
     inkscape:window-height="745"
     id="namedview89"
     showgrid="false"
     inkscape:zoom="24.202001"
     inkscape:cx="9.5416062"
     inkscape:cy="11.899842"
     inkscape:window-x="-8"
     inkscape:window-y="-8"
     inkscape:window-maximized="1"
     inkscape:current-layer="svg87" />
  <metadata
     id="metadata81">
    <rdf:RDF>
      <cc:Work
         rdf:about="">
        <dc:format>image/svg+xml</dc:format>
        <dc:type
           rdf:resource="http://purl.org/dc/dcmitype/StillImage" />
        <dc:title></dc:title>
      </cc:Work>
    </rdf:RDF>
  </metadata>
  <g
     transform="translate(-45.979 -76.341)"
     id="g85">
    <path
       style="color:#000000;font-style:normal;font-variant:normal;font-weight:normal;font-stretch:normal;font-size:medium;line-height:normal;font-family:sans-serif;font-variant-ligatures:normal;font-variant-position:normal;font-variant-caps:normal;font-variant-numeric:normal;font-variant-alternates:normal;font-feature-settings:normal;text-indent:0;text-align:start;text-decoration:none;text-decoration-line:none;text-decoration-style:solid;text-decoration-color:#000000;letter-spacing:normal;word-spacing:normal;text-transform:none;writing-mode:lr-tb;direction:ltr;text-orientation:mixed;dominant-baseline:auto;baseline-shift:baseline;text-anchor:start;white-space:normal;shape-padding:0;clip-rule:evenodd;display:inline;overflow:visible;visibility:visible;opacity:1;isolation:auto;mix-blend-mode:normal;color-interpolation:sRGB;color-interpolation-filters:linearRGB;solid-color:#000000;solid-opacity:1;vector-effect:none;fill:#000000;fill-opacity:1;fill-rule:nonzero;stroke:none;stroke-width:0.0762;stroke-linecap:butt;stroke-linejoin:miter;stroke-miterlimit:4;stroke-dasharray:none;stroke-dashoffset:0;stroke-opacity:1;color-rendering:auto;image-rendering:optimizeQuality;shape-rendering:geometricPrecision;text-rendering:auto;enable-background:accumulate"
       d="m 47.867188,78.773438 -0.07422,0.01367 c 0.08165,0.489875 0.210127,0.814884 0.21289,1 0.0014,0.09256 -0.02014,0.144329 -0.09375,0.185547 -0.0736,0.04122 -0.207758,0.06438 -0.419921,0.07031 l 0.002,0.07617 c 0.216836,-0.0061 0.359932,-0.0268 0.455078,-0.08008 0.09515,-0.05328 0.134431,-0.145464 0.132812,-0.253906 -0.0032,-0.216883 -0.134489,-0.529593 -0.214843,-1.011718 z"
       id="path127" />
    <path
       style="color:#000000;font-style:normal;font-variant:normal;font-weight:normal;font-stretch:normal;font-size:medium;line-height:normal;font-family:sans-serif;font-variant-ligatures:normal;font-variant-position:normal;font-variant-caps:normal;font-variant-numeric:normal;font-variant-alternates:normal;font-feature-settings:normal;text-indent:0;text-align:start;text-decoration:none;text-decoration-line:none;text-decoration-style:solid;text-decoration-color:#000000;letter-spacing:normal;word-spacing:normal;text-transform:none;writing-mode:lr-tb;direction:ltr;text-orientation:mixed;dominant-baseline:auto;baseline-shift:baseline;text-anchor:start;white-space:normal;shape-padding:0;clip-rule:evenodd;display:inline;overflow:visible;visibility:visible;opacity:1;isolation:auto;mix-blend-mode:normal;color-interpolation:sRGB;color-interpolation-filters:linearRGB;solid-color:#000000;solid-opacity:1;vector-effect:none;fill:#000000;fill-opacity:1;fill-rule:nonzero;stroke:none;stroke-width:0.0762;stroke-linecap:butt;stroke-linejoin:miter;stroke-miterlimit:4;stroke-dasharray:none;stroke-dashoffset:0;stroke-opacity:1;color-rendering:auto;image-rendering:optimizeQuality;shape-rendering:geometricPrecision;text-rendering:auto;enable-background:accumulate"
       d="m 48.123047,77.597656 c 0,0 -0.03513,0.01314 -0.08008,0.04687 -0.04494,0.03373 -0.103234,0.08909 -0.154297,0.175781 -0.102126,0.173377 -0.177727,0.471615 -0.0957,0.966797 l 0.07422,-0.01367 c -0.07998,-0.482818 -0.0035,-0.75894 0.08789,-0.914063 0.04569,-0.07756 0.09507,-0.125968 0.132813,-0.154297 0.03774,-0.02833 0.06055,-0.03516 0.06055,-0.03516 z"
       id="path125" />
    <path
       style="color:#000000;font-style:normal;font-variant:normal;font-weight:normal;font-stretch:normal;font-size:medium;line-height:normal;font-family:sans-serif;font-variant-ligatures:normal;font-variant-position:normal;font-variant-caps:normal;font-variant-numeric:normal;font-variant-alternates:normal;font-feature-settings:normal;text-indent:0;text-align:start;text-decoration:none;text-decoration-line:none;text-decoration-style:solid;text-decoration-color:#000000;letter-spacing:normal;word-spacing:normal;text-transform:none;writing-mode:lr-tb;direction:ltr;text-orientation:mixed;dominant-baseline:auto;baseline-shift:baseline;text-anchor:start;white-space:normal;shape-padding:0;clip-rule:evenodd;display:inline;overflow:visible;visibility:visible;opacity:1;isolation:auto;mix-blend-mode:normal;color-interpolation:sRGB;color-interpolation-filters:linearRGB;solid-color:#000000;solid-opacity:1;vector-effect:none;fill:#000000;fill-opacity:1;fill-rule:nonzero;stroke:none;stroke-width:0.0762;stroke-linecap:butt;stroke-linejoin:miter;stroke-miterlimit:4;stroke-dasharray:none;stroke-dashoffset:0;stroke-opacity:1;color-rendering:auto;image-rendering:optimizeQuality;shape-rendering:geometricPrecision;text-rendering:auto;enable-background:accumulate"
       d="m 48.685547,77.355469 c -0.02996,0.04839 -0.106242,0.08904 -0.208985,0.125 -0.102742,0.03596 -0.227815,0.06813 -0.353515,0.117187 l 0.02734,0.07227 c 0.1203,-0.04695 0.244304,-0.07965 0.351562,-0.117188 0.107258,-0.03754 0.200006,-0.07864 0.248047,-0.15625 0,0 -0.0054,-0.02134 -0.06445,-0.04102 z"
       id="path123" />
    <path
       style="color:#000000;font-style:normal;font-variant:normal;font-weight:normal;font-stretch:normal;font-size:medium;line-height:normal;font-family:sans-serif;font-variant-ligatures:normal;font-variant-position:normal;font-variant-caps:normal;font-variant-numeric:normal;font-variant-alternates:normal;font-feature-settings:normal;text-indent:0;text-align:start;text-decoration:none;text-decoration-line:none;text-decoration-style:solid;text-decoration-color:#000000;letter-spacing:normal;word-spacing:normal;text-transform:none;writing-mode:lr-tb;direction:ltr;text-orientation:mixed;dominant-baseline:auto;baseline-shift:baseline;text-anchor:start;white-space:normal;shape-padding:0;clip-rule:evenodd;display:inline;overflow:visible;visibility:visible;opacity:1;isolation:auto;mix-blend-mode:normal;color-interpolation:sRGB;color-interpolation-filters:linearRGB;solid-color:#000000;solid-opacity:1;vector-effect:none;fill:#000000;fill-opacity:1;fill-rule:nonzero;stroke:none;stroke-width:0.0762;stroke-linecap:butt;stroke-linejoin:miter;stroke-miterlimit:4;stroke-dasharray:none;stroke-dashoffset:0;stroke-opacity:1;color-rendering:auto;image-rendering:optimizeQuality;shape-rendering:geometricPrecision;text-rendering:auto;enable-background:accumulate"
       d="m 48.962891,76.720703 -0.02148,0.07422 c -0.0038,-0.0011 -0.0085,-0.0056 -0.0098,-0.0078 0,0 0,0.002 0,0.002 6.76e-4,0.0078 -4.18e-4,0.02633 -0.0059,0.04883 -0.01088,0.04499 -0.03529,0.108964 -0.06445,0.175781 -0.05833,0.133635 -0.138688,0.281877 -0.175781,0.341797 l 0.06445,0.04102 c 0.04091,-0.06608 0.121467,-0.213697 0.181641,-0.351562 0.03009,-0.06893 0.05348,-0.13601 0.06641,-0.189453 0.0065,-0.02672 0.01174,-0.04943 0.0098,-0.07227 -9.85e-4,-0.01142 -0.0047,-0.02341 -0.01172,-0.03516 -0.007,-0.01175 -0.01894,-0.02327 -0.0332,-0.02734 z"
       id="path121" />
    <path
       style="color:#000000;font-style:normal;font-variant:normal;font-weight:normal;font-stretch:normal;font-size:medium;line-height:normal;font-family:sans-serif;font-variant-ligatures:normal;font-variant-position:normal;font-variant-caps:normal;font-variant-numeric:normal;font-variant-alternates:normal;font-feature-settings:normal;text-indent:0;text-align:start;text-decoration:none;text-decoration-line:none;text-decoration-style:solid;text-decoration-color:#000000;letter-spacing:normal;word-spacing:normal;text-transform:none;writing-mode:lr-tb;direction:ltr;text-orientation:mixed;dominant-baseline:auto;baseline-shift:baseline;text-anchor:start;white-space:normal;shape-padding:0;clip-rule:evenodd;display:inline;overflow:visible;visibility:visible;opacity:1;isolation:auto;mix-blend-mode:normal;color-interpolation:sRGB;color-interpolation-filters:linearRGB;solid-color:#000000;solid-opacity:1;vector-effect:none;fill:#000000;fill-opacity:1;fill-rule:nonzero;stroke:none;stroke-width:0.0762;stroke-linecap:butt;stroke-linejoin:miter;stroke-miterlimit:4;stroke-dasharray:none;stroke-dashoffset:0;stroke-opacity:1;color-rendering:auto;image-rendering:optimizeQuality;shape-rendering:geometricPrecision;text-rendering:auto;enable-background:accumulate"
       d="m 48.960938,76.720703 c -0.02761,-0.0074 -0.05257,0.0067 -0.07031,0.02148 -0.01774,0.01478 -0.03143,0.03205 -0.04687,0.05469 -0.03089,0.04528 -0.06304,0.105645 -0.0957,0.167969 -0.03266,0.06232 -0.06684,0.127504 -0.09961,0.179687 -0.03277,0.05218 -0.0657,0.09052 -0.08594,0.101563 l 0.03516,0.06641 c 0.04576,-0.02496 0.07995,-0.07076 0.115235,-0.126953 0.03529,-0.05619 0.07093,-0.123371 0.103515,-0.185547 0.03259,-0.06218 0.06317,-0.12106 0.08984,-0.160156 0.01334,-0.01955 0.025,-0.03223 0.0332,-0.03906 0.0082,-0.0068 0.0071,-0.0045 0.002,-0.0059 z"
       id="path119"
       inkscape:connector-curvature="0" />
    <path
       style="color:#000000;font-style:normal;font-variant:normal;font-weight:normal;font-stretch:normal;font-size:medium;line-height:normal;font-family:sans-serif;font-variant-ligatures:normal;font-variant-position:normal;font-variant-caps:normal;font-variant-numeric:normal;font-variant-alternates:normal;font-feature-settings:normal;text-indent:0;text-align:start;text-decoration:none;text-decoration-line:none;text-decoration-style:solid;text-decoration-color:#000000;letter-spacing:normal;word-spacing:normal;text-transform:none;writing-mode:lr-tb;direction:ltr;text-orientation:mixed;dominant-baseline:auto;baseline-shift:baseline;text-anchor:start;white-space:normal;shape-padding:0;clip-rule:evenodd;display:inline;overflow:visible;visibility:visible;opacity:1;isolation:auto;mix-blend-mode:normal;color-interpolation:sRGB;color-interpolation-filters:linearRGB;solid-color:#000000;solid-opacity:1;vector-effect:none;fill:#000000;fill-opacity:1;fill-rule:nonzero;stroke:none;stroke-width:0.0762;stroke-linecap:butt;stroke-linejoin:miter;stroke-miterlimit:4;stroke-dasharray:none;stroke-dashoffset:0;stroke-opacity:1;color-rendering:auto;image-rendering:optimizeQuality;shape-rendering:geometricPrecision;text-rendering:auto;enable-background:accumulate"
       d="m 48.560547,77.248047 c -0.06473,0.03825 -0.221168,0.124438 -0.365235,0.189453 -0.07203,0.03251 -0.139855,0.05944 -0.191406,0.07227 -0.02578,0.0064 -0.04816,0.0085 -0.06055,0.0078 -0.01239,-7.07e-4 -0.0098,-0.0033 -0.0078,0 l -0.06641,0.03906 c 0.01548,0.0258 0.04494,0.03566 0.07031,0.03711 0.02537,0.0014 0.05203,-0.0023 0.08203,-0.0098 0.06001,-0.01493 0.130862,-0.04463 0.205078,-0.07813 0.148434,-0.06699 0.305775,-0.153607 0.373047,-0.193359 z"
       id="path117" />
    <path
       style="color:#000000;font-style:normal;font-variant:normal;font-weight:normal;font-stretch:normal;font-size:medium;line-height:normal;font-family:sans-serif;font-variant-ligatures:normal;font-variant-position:normal;font-variant-caps:normal;font-variant-numeric:normal;font-variant-alternates:normal;font-feature-settings:normal;text-indent:0;text-align:start;text-decoration:none;text-decoration-line:none;text-decoration-style:solid;text-decoration-color:#000000;letter-spacing:normal;word-spacing:normal;text-transform:none;writing-mode:lr-tb;direction:ltr;text-orientation:mixed;dominant-baseline:auto;baseline-shift:baseline;text-anchor:start;white-space:normal;shape-padding:0;clip-rule:evenodd;display:inline;overflow:visible;visibility:visible;opacity:1;isolation:auto;mix-blend-mode:normal;color-interpolation:sRGB;color-interpolation-filters:linearRGB;solid-color:#000000;solid-opacity:1;vector-effect:none;fill:#000000;fill-opacity:1;fill-rule:nonzero;stroke:none;stroke-width:0.0762;stroke-linecap:butt;stroke-linejoin:miter;stroke-miterlimit:4;stroke-dasharray:none;stroke-dashoffset:0;stroke-opacity:1;color-rendering:auto;image-rendering:optimizeQuality;shape-rendering:geometricPrecision;text-rendering:auto;enable-background:accumulate"
       d="m 48.208984,76.503906 -0.01367,0.07617 c 0.01677,0.0034 0.01737,0.0054 0.02148,0.02344 0.0041,0.01808 0.0022,0.05043 -0.0078,0.0918 -0.01996,0.08274 -0.06793,0.197429 -0.123046,0.3125 -0.05512,0.115072 -0.117639,0.233007 -0.16211,0.328126 -0.02224,0.04756 -0.03939,0.08798 -0.05078,0.123046 -0.0057,0.01754 -0.01,0.03348 -0.01172,0.04883 -0.0018,0.01534 -0.0029,0.03094 0.0078,0.04883 l 0.06641,-0.03906 c 0,0 0.002,0 0.002,0 8.15e-4,-0.0071 0.0031,-0.02052 0.0078,-0.03516 0.0095,-0.02926 0.02719,-0.06895 0.04883,-0.115234 0.04328,-0.09257 0.104271,-0.209494 0.160156,-0.326172 0.05589,-0.116679 0.106118,-0.231723 0.128906,-0.326172 0.01139,-0.04722 0.01654,-0.09053 0.0078,-0.128906 -0.0087,-0.03838 -0.0403,-0.07347 -0.08203,-0.08203 z"
       id="path115"
       inkscape:connector-curvature="0" />
    <path
       style="color:#000000;font-style:normal;font-variant:normal;font-weight:normal;font-stretch:normal;font-size:medium;line-height:normal;font-family:sans-serif;font-variant-ligatures:normal;font-variant-position:normal;font-variant-caps:normal;font-variant-numeric:normal;font-variant-alternates:normal;font-feature-settings:normal;text-indent:0;text-align:start;text-decoration:none;text-decoration-line:none;text-decoration-style:solid;text-decoration-color:#000000;letter-spacing:normal;word-spacing:normal;text-transform:none;writing-mode:lr-tb;direction:ltr;text-orientation:mixed;dominant-baseline:auto;baseline-shift:baseline;text-anchor:start;white-space:normal;shape-padding:0;clip-rule:evenodd;display:inline;overflow:visible;visibility:visible;opacity:1;isolation:auto;mix-blend-mode:normal;color-interpolation:sRGB;color-interpolation-filters:linearRGB;solid-color:#000000;solid-opacity:1;vector-effect:none;fill:#000000;fill-opacity:1;fill-rule:nonzero;stroke:none;stroke-width:0.0762;stroke-linecap:butt;stroke-linejoin:miter;stroke-miterlimit:4;stroke-dasharray:none;stroke-dashoffset:0;stroke-opacity:1;color-rendering:auto;image-rendering:optimizeQuality;shape-rendering:geometricPrecision;text-rendering:auto;enable-background:accumulate"
       d="m 48.208984,76.503906 c -0.04549,-0.0093 -0.08717,0.01331 -0.121093,0.04687 -0.03392,0.03357 -0.06416,0.08084 -0.09375,0.136719 -0.05918,0.111755 -0.116009,0.261499 -0.167969,0.412109 -0.05196,0.150611 -0.09899,0.301545 -0.140625,0.414063 -0.02082,0.05626 -0.04037,0.104483 -0.05664,0.134766 -0.0081,0.01514 -0.01492,0.02613 -0.01953,0.03125 -0.0046,0.0051 -0.006,0 0.0039,0 v 0.07617 c 0.02417,0 0.0412,-0.0126 0.05273,-0.02539 0.01154,-0.01279 0.0195,-0.02864 0.0293,-0.04687 0.01959,-0.03647 0.03918,-0.08484 0.06055,-0.142578 0.04274,-0.115483 0.09104,-0.266626 0.142579,-0.416016 0.05154,-0.14939 0.10691,-0.298099 0.162109,-0.402344 0.0276,-0.05212 0.05564,-0.093 0.08008,-0.117187 0.02444,-0.02419 0.04168,-0.02806 0.05469,-0.02539 z"
       id="path113"
       inkscape:connector-curvature="0" />
    <path
       style="color:#000000;font-style:normal;font-variant:normal;font-weight:normal;font-stretch:normal;font-size:medium;line-height:normal;font-family:sans-serif;font-variant-ligatures:normal;font-variant-position:normal;font-variant-caps:normal;font-variant-numeric:normal;font-variant-alternates:normal;font-feature-settings:normal;text-indent:0;text-align:start;text-decoration:none;text-decoration-line:none;text-decoration-style:solid;text-decoration-color:#000000;letter-spacing:normal;word-spacing:normal;text-transform:none;writing-mode:lr-tb;direction:ltr;text-orientation:mixed;dominant-baseline:auto;baseline-shift:baseline;text-anchor:start;white-space:normal;shape-padding:0;clip-rule:evenodd;display:inline;overflow:visible;visibility:visible;opacity:1;isolation:auto;mix-blend-mode:normal;color-interpolation:sRGB;color-interpolation-filters:linearRGB;solid-color:#000000;solid-opacity:1;vector-effect:none;fill:#000000;fill-opacity:1;fill-rule:nonzero;stroke:none;stroke-width:0.0762;stroke-linecap:butt;stroke-linejoin:miter;stroke-miterlimit:4;stroke-dasharray:none;stroke-dashoffset:0;stroke-opacity:1;color-rendering:auto;image-rendering:optimizeQuality;shape-rendering:geometricPrecision;text-rendering:auto;enable-background:accumulate"
       d="m 47.494141,76.341797 v 0.07617 c 0.0037,0 0.005,-5.8e-4 0.0098,0.0039 0.0047,0.0045 0.01133,0.0142 0.01758,0.0293 0.0125,0.03019 0.02325,0.08176 0.0293,0.142578 0.01209,0.121634 0.0095,0.286358 0.0039,0.453125 -0.0056,0.166767 -0.01534,0.335745 -0.01563,0.462891 -1.42e-4,0.06357 0.0016,0.115644 0.0078,0.15625 0.0031,0.0203 0.0078,0.0367 0.01563,0.05273 0.0039,0.008 0.0091,0.01614 0.01758,0.02344 0.0085,0.0073 0.02032,0.01367 0.0332,0.01367 v -0.07617 c 0.0058,-10e-7 0.01302,0.0036 0.01563,0.0059 0,0 0.002,0 0.002,0 -0.0017,-0.0036 -0.0053,-0.01497 -0.0078,-0.03125 -0.005,-0.03257 -0.008,-0.08267 -0.0078,-0.144531 2.78e-4,-0.123729 0.01,-0.291251 0.01563,-0.458985 0.0056,-0.167733 0.007,-0.335603 -0.0059,-0.464843 -0.0064,-0.06462 -0.0154,-0.119126 -0.0332,-0.16211 -0.0089,-0.02149 -0.01919,-0.04153 -0.03516,-0.05664 -0.01597,-0.01511 -0.03917,-0.02539 -0.0625,-0.02539 z"
       id="path111" />
    <path
       style="color:#000000;font-style:normal;font-variant:normal;font-weight:normal;font-stretch:normal;font-size:medium;line-height:normal;font-family:sans-serif;font-variant-ligatures:normal;font-variant-position:normal;font-variant-caps:normal;font-variant-numeric:normal;font-variant-alternates:normal;font-feature-settings:normal;text-indent:0;text-align:start;text-decoration:none;text-decoration-line:none;text-decoration-style:solid;text-decoration-color:#000000;letter-spacing:normal;word-spacing:normal;text-transform:none;writing-mode:lr-tb;direction:ltr;text-orientation:mixed;dominant-baseline:auto;baseline-shift:baseline;text-anchor:start;white-space:normal;shape-padding:0;clip-rule:evenodd;display:inline;overflow:visible;visibility:visible;opacity:1;isolation:auto;mix-blend-mode:normal;color-interpolation:sRGB;color-interpolation-filters:linearRGB;solid-color:#000000;solid-opacity:1;vector-effect:none;fill:#000000;fill-opacity:1;fill-rule:nonzero;stroke:none;stroke-width:0.0762;stroke-linecap:butt;stroke-linejoin:miter;stroke-miterlimit:4;stroke-dasharray:none;stroke-dashoffset:0;stroke-opacity:1;color-rendering:auto;image-rendering:optimizeQuality;shape-rendering:geometricPrecision;text-rendering:auto;enable-background:accumulate"
       d="m 47.494141,76.341797 c -0.02333,0 -0.04653,0.01028 -0.0625,0.02539 -0.01597,0.01511 -0.02626,0.03515 -0.03516,0.05664 -0.0178,0.04298 -0.02873,0.09749 -0.03516,0.16211 -0.01285,0.12924 -0.0095,0.29711 -0.0039,0.464843 0.0056,0.167734 0.01535,0.335256 0.01563,0.458985 1.39e-4,0.06186 -0.0028,0.111964 -0.0078,0.144531 -0.0025,0.01628 -0.0061,0.02769 -0.0078,0.03125 0,0 0.002,0 0.002,0 0.0026,-0.0022 0.0079,-0.0059 0.01367,-0.0059 v 0.07617 c 0.01288,0 0.02665,-0.0064 0.03516,-0.01367 0.0085,-0.0073 0.01367,-0.01542 0.01758,-0.02344 0.0078,-0.01603 0.01252,-0.03243 0.01563,-0.05273 0.0062,-0.04061 0.008,-0.09268 0.0078,-0.15625 -2.85e-4,-0.127146 -0.01002,-0.296124 -0.01563,-0.462891 -0.0056,-0.166767 -0.0082,-0.331491 0.0039,-0.453125 0.006,-0.06082 0.01679,-0.11239 0.0293,-0.142578 0.0063,-0.01509 0.01284,-0.02481 0.01758,-0.0293 0.0047,-0.0045 0.0061,-0.0039 0.0098,-0.0039 z"
       id="path109"
       inkscape:connector-curvature="0" />
    <path
       style="color:#000000;font-style:normal;font-variant:normal;font-weight:normal;font-stretch:normal;font-size:medium;line-height:normal;font-family:sans-serif;font-variant-ligatures:normal;font-variant-position:normal;font-variant-caps:normal;font-variant-numeric:normal;font-variant-alternates:normal;font-feature-settings:normal;text-indent:0;text-align:start;text-decoration:none;text-decoration-line:none;text-decoration-style:solid;text-decoration-color:#000000;letter-spacing:normal;word-spacing:normal;text-transform:none;writing-mode:lr-tb;direction:ltr;text-orientation:mixed;dominant-baseline:auto;baseline-shift:baseline;text-anchor:start;white-space:normal;shape-padding:0;clip-rule:evenodd;display:inline;overflow:visible;visibility:visible;opacity:1;isolation:auto;mix-blend-mode:normal;color-interpolation:sRGB;color-interpolation-filters:linearRGB;solid-color:#000000;solid-opacity:1;vector-effect:none;fill:#000000;fill-opacity:1;fill-rule:nonzero;stroke:none;stroke-width:0.0762;stroke-linecap:butt;stroke-linejoin:miter;stroke-miterlimit:4;stroke-dasharray:none;stroke-dashoffset:0;stroke-opacity:1;color-rendering:auto;image-rendering:optimizeQuality;shape-rendering:geometricPrecision;text-rendering:auto;enable-background:accumulate"
       d="m 46.779297,76.503906 0.01367,0.07617 c 0.01301,-0.0027 0.03025,0.0012 0.05469,0.02539 0.02444,0.02418 0.05248,0.06507 0.08008,0.117187 0.0552,0.104245 0.11057,0.252954 0.16211,0.402344 0.05154,0.14939 0.09789,0.300533 0.140625,0.416016 0.02137,0.05774 0.04291,0.10611 0.0625,0.142578 0.0098,0.01823 0.01776,0.03409 0.0293,0.04687 0.01154,0.01279 0.02661,0.02539 0.05078,0.02539 v -0.07617 c 0.0099,0 0.01047,0.0051 0.0059,0 -0.0046,-0.0051 -0.0114,-0.01611 -0.01953,-0.03125 -0.01627,-0.03028 -0.03582,-0.07851 -0.05664,-0.134766 -0.04164,-0.112518 -0.09062,-0.263452 -0.142578,-0.414063 -0.05196,-0.15061 -0.106839,-0.300354 -0.166015,-0.412109 -0.02959,-0.05588 -0.05983,-0.103153 -0.09375,-0.136719 -0.03392,-0.03356 -0.0756,-0.05621 -0.121094,-0.04687 z"
       id="path107" />
    <path
       style="color:#000000;font-style:normal;font-variant:normal;font-weight:normal;font-stretch:normal;font-size:medium;line-height:normal;font-family:sans-serif;font-variant-ligatures:normal;font-variant-position:normal;font-variant-caps:normal;font-variant-numeric:normal;font-variant-alternates:normal;font-feature-settings:normal;text-indent:0;text-align:start;text-decoration:none;text-decoration-line:none;text-decoration-style:solid;text-decoration-color:#000000;letter-spacing:normal;word-spacing:normal;text-transform:none;writing-mode:lr-tb;direction:ltr;text-orientation:mixed;dominant-baseline:auto;baseline-shift:baseline;text-anchor:start;white-space:normal;shape-padding:0;clip-rule:evenodd;display:inline;overflow:visible;visibility:visible;opacity:1;isolation:auto;mix-blend-mode:normal;color-interpolation:sRGB;color-interpolation-filters:linearRGB;solid-color:#000000;solid-opacity:1;vector-effect:none;fill:#000000;fill-opacity:1;fill-rule:nonzero;stroke:none;stroke-width:0.0762;stroke-linecap:butt;stroke-linejoin:miter;stroke-miterlimit:4;stroke-dasharray:none;stroke-dashoffset:0;stroke-opacity:1;color-rendering:auto;image-rendering:optimizeQuality;shape-rendering:geometricPrecision;text-rendering:auto;enable-background:accumulate"
       d="m 46.779297,76.503906 c -0.04173,0.0086 -0.0733,0.04366 -0.08203,0.08203 -0.0087,0.03838 -0.0036,0.08168 0.0078,0.128906 0.02279,0.09445 0.07302,0.209493 0.128906,0.326172 0.05588,0.116678 0.116878,0.233603 0.160157,0.326172 0.02164,0.04628 0.03932,0.08597 0.04883,0.115234 0.0048,0.01463 0.007,0.02802 0.0078,0.03516 0,0 0.002,0 0.002,0 l 0.06641,0.03906 c 0.01073,-0.01789 0.0096,-0.03348 0.0078,-0.04883 -0.0018,-0.01534 -0.006,-0.03129 -0.01172,-0.04883 -0.0114,-0.03507 -0.02855,-0.07549 -0.05078,-0.123046 -0.04447,-0.09512 -0.106994,-0.213054 -0.162109,-0.328126 -0.05512,-0.115071 -0.103085,-0.229762 -0.123047,-0.3125 -0.01,-0.04137 -0.01193,-0.07371 -0.0078,-0.0918 0.0041,-0.01809 0.0047,-0.02 0.02148,-0.02344 z"
       id="path105" />
    <path
       style="color:#000000;font-style:normal;font-variant:normal;font-weight:normal;font-stretch:normal;font-size:medium;line-height:normal;font-family:sans-serif;font-variant-ligatures:normal;font-variant-position:normal;font-variant-caps:normal;font-variant-numeric:normal;font-variant-alternates:normal;font-feature-settings:normal;text-indent:0;text-align:start;text-decoration:none;text-decoration-line:none;text-decoration-style:solid;text-decoration-color:#000000;letter-spacing:normal;word-spacing:normal;text-transform:none;writing-mode:lr-tb;direction:ltr;text-orientation:mixed;dominant-baseline:auto;baseline-shift:baseline;text-anchor:start;white-space:normal;shape-padding:0;clip-rule:evenodd;display:inline;overflow:visible;visibility:visible;opacity:1;isolation:auto;mix-blend-mode:normal;color-interpolation:sRGB;color-interpolation-filters:linearRGB;solid-color:#000000;solid-opacity:1;vector-effect:none;fill:#000000;fill-opacity:1;fill-rule:nonzero;stroke:none;stroke-width:0.0762;stroke-linecap:butt;stroke-linejoin:miter;stroke-miterlimit:4;stroke-dasharray:none;stroke-dashoffset:0;stroke-opacity:1;color-rendering:auto;image-rendering:optimizeQuality;shape-rendering:geometricPrecision;text-rendering:auto;enable-background:accumulate"
       d="m 46.427734,77.248047 -0.03906,0.06445 c 0.06727,0.03975 0.22266,0.126374 0.371094,0.193359 0.07422,0.03349 0.147019,0.0632 0.207031,0.07813 0.03001,0.0075 0.05666,0.01121 0.08203,0.0098 0.02537,-0.0014 0.05483,-0.01131 0.07031,-0.03711 l -0.06641,-0.03906 c 0.002,-0.0033 0.0046,-7.07e-4 -0.0078,0 -0.01239,7.08e-4 -0.03477,-0.0014 -0.06055,-0.0078 -0.05155,-0.01282 -0.121326,-0.03976 -0.193359,-0.07227 -0.144067,-0.06502 -0.298554,-0.151205 -0.363282,-0.189453 z"
       id="path103" />
    <path
       style="color:#000000;font-style:normal;font-variant:normal;font-weight:normal;font-stretch:normal;font-size:medium;line-height:normal;font-family:sans-serif;font-variant-ligatures:normal;font-variant-position:normal;font-variant-caps:normal;font-variant-numeric:normal;font-variant-alternates:normal;font-feature-settings:normal;text-indent:0;text-align:start;text-decoration:none;text-decoration-line:none;text-decoration-style:solid;text-decoration-color:#000000;letter-spacing:normal;word-spacing:normal;text-transform:none;writing-mode:lr-tb;direction:ltr;text-orientation:mixed;dominant-baseline:auto;baseline-shift:baseline;text-anchor:start;white-space:normal;shape-padding:0;clip-rule:evenodd;display:inline;overflow:visible;visibility:visible;opacity:1;isolation:auto;mix-blend-mode:normal;color-interpolation:sRGB;color-interpolation-filters:linearRGB;solid-color:#000000;solid-opacity:1;vector-effect:none;fill:#000000;fill-opacity:1;fill-rule:nonzero;stroke:none;stroke-width:0.0762;stroke-linecap:butt;stroke-linejoin:miter;stroke-miterlimit:4;stroke-dasharray:none;stroke-dashoffset:0;stroke-opacity:1;color-rendering:auto;image-rendering:optimizeQuality;shape-rendering:geometricPrecision;text-rendering:auto;enable-background:accumulate"
       d="m 46.023438,76.722656 0.02539,0.07227 c -0.0045,0.0015 -0.0078,-0.0022 0,0.0039 0.0078,0.0061 0.01994,0.01997 0.0332,0.03906 0.02652,0.03818 0.05729,0.09608 0.08984,0.158203 0.03256,0.06212 0.0683,0.128702 0.103516,0.185547 0.03521,0.05684 0.06845,0.104369 0.113281,0.130859 l 0.03906,-0.06445 c -0.02117,-0.01251 -0.05504,-0.05439 -0.08789,-0.107422 -0.03285,-0.05303 -0.06692,-0.117308 -0.09961,-0.179687 -0.03269,-0.06238 -0.06466,-0.121325 -0.0957,-0.166016 -0.01552,-0.02235 -0.03065,-0.04229 -0.04883,-0.05664 -0.01818,-0.01435 -0.04523,-0.02464 -0.07227,-0.01563 z"
       id="path101" />
    <path
       style="color:#000000;font-style:normal;font-variant:normal;font-weight:normal;font-stretch:normal;font-size:medium;line-height:normal;font-family:sans-serif;font-variant-ligatures:normal;font-variant-position:normal;font-variant-caps:normal;font-variant-numeric:normal;font-variant-alternates:normal;font-feature-settings:normal;text-indent:0;text-align:start;text-decoration:none;text-decoration-line:none;text-decoration-style:solid;text-decoration-color:#000000;letter-spacing:normal;word-spacing:normal;text-transform:none;writing-mode:lr-tb;direction:ltr;text-orientation:mixed;dominant-baseline:auto;baseline-shift:baseline;text-anchor:start;white-space:normal;shape-padding:0;clip-rule:evenodd;display:inline;overflow:visible;visibility:visible;opacity:1;isolation:auto;mix-blend-mode:normal;color-interpolation:sRGB;color-interpolation-filters:linearRGB;solid-color:#000000;solid-opacity:1;vector-effect:none;fill:#000000;fill-opacity:1;fill-rule:nonzero;stroke:none;stroke-width:0.0762;stroke-linecap:butt;stroke-linejoin:miter;stroke-miterlimit:4;stroke-dasharray:none;stroke-dashoffset:0;stroke-opacity:1;color-rendering:auto;image-rendering:optimizeQuality;shape-rendering:geometricPrecision;text-rendering:auto;enable-background:accumulate"
       d="m 46.025391,76.720703 c -0.01412,0.0038 -0.02755,0.01376 -0.03516,0.02539 -0.0076,0.01163 -0.0104,0.02353 -0.01172,0.03516 -0.0026,0.02326 0.0015,0.04736 0.0078,0.07422 0.01269,0.05372 0.03787,0.120478 0.06836,0.189453 0.06097,0.13795 0.142917,0.285854 0.183593,0.351562 l 0.06445,-0.04102 c -0.03732,-0.06029 -0.118706,-0.208247 -0.177734,-0.341797 -0.02951,-0.06677 -0.05389,-0.131068 -0.06445,-0.175781 -0.0053,-0.02236 -0.0067,-0.03946 -0.0059,-0.04687 0,0 0,-0.002 0,-0.002 -0.0014,0.0021 -0.0069,0.0051 -0.0098,0.0059 z"
       id="path99" />
    <path
       style="color:#000000;font-style:normal;font-variant:normal;font-weight:normal;font-stretch:normal;font-size:medium;line-height:normal;font-family:sans-serif;font-variant-ligatures:normal;font-variant-position:normal;font-variant-caps:normal;font-variant-numeric:normal;font-variant-alternates:normal;font-feature-settings:normal;text-indent:0;text-align:start;text-decoration:none;text-decoration-line:none;text-decoration-style:solid;text-decoration-color:#000000;letter-spacing:normal;word-spacing:normal;text-transform:none;writing-mode:lr-tb;direction:ltr;text-orientation:mixed;dominant-baseline:auto;baseline-shift:baseline;text-anchor:start;white-space:normal;shape-padding:0;clip-rule:evenodd;display:inline;overflow:visible;visibility:visible;opacity:1;isolation:auto;mix-blend-mode:normal;color-interpolation:sRGB;color-interpolation-filters:linearRGB;solid-color:#000000;solid-opacity:1;vector-effect:none;fill:#000000;fill-opacity:1;fill-rule:nonzero;stroke:none;stroke-width:0.0762;stroke-linecap:butt;stroke-linejoin:miter;stroke-miterlimit:4;stroke-dasharray:none;stroke-dashoffset:0;stroke-opacity:1;color-rendering:auto;image-rendering:optimizeQuality;shape-rendering:geometricPrecision;text-rendering:auto;enable-background:accumulate"
       d="m 46.302734,77.355469 -0.06445,0.04102 c 0.04827,0.07798 0.142067,0.118742 0.25,0.15625 0.107934,0.03751 0.232558,0.07037 0.34961,0.117188 l 0.02734,-0.07227 c -0.122948,-0.04918 -0.247996,-0.0812 -0.351562,-0.117187 -0.103566,-0.03599 -0.181209,-0.07698 -0.210938,-0.125001 z"
       id="path97" />
    <path
       style="color:#000000;font-style:normal;font-variant:normal;font-weight:normal;font-stretch:normal;font-size:medium;line-height:normal;font-family:sans-serif;font-variant-ligatures:normal;font-variant-position:normal;font-variant-caps:normal;font-variant-numeric:normal;font-variant-alternates:normal;font-feature-settings:normal;text-indent:0;text-align:start;text-decoration:none;text-decoration-line:none;text-decoration-style:solid;text-decoration-color:#000000;letter-spacing:normal;word-spacing:normal;text-transform:none;writing-mode:lr-tb;direction:ltr;text-orientation:mixed;dominant-baseline:auto;baseline-shift:baseline;text-anchor:start;white-space:normal;shape-padding:0;clip-rule:evenodd;display:inline;overflow:visible;visibility:visible;opacity:1;isolation:auto;mix-blend-mode:normal;color-interpolation:sRGB;color-interpolation-filters:linearRGB;solid-color:#000000;solid-opacity:1;vector-effect:none;fill:#000000;fill-opacity:1;fill-rule:nonzero;stroke:none;stroke-width:0.0762;stroke-linecap:butt;stroke-linejoin:miter;stroke-miterlimit:4;stroke-dasharray:none;stroke-dashoffset:0;stroke-opacity:1;color-rendering:auto;image-rendering:optimizeQuality;shape-rendering:geometricPrecision;text-rendering:auto;enable-background:accumulate"
       d="m 46.865234,77.597656 -0.02539,0.07227 c 0,0 0.0213,0.0068 0.05859,0.03516 0.03729,0.02831 0.08746,0.0767 0.132812,0.154297 0.09071,0.155199 0.166869,0.431175 0.08984,0.914063 l 0.07422,0.01172 c 0.07898,-0.495112 0.0017,-0.791542 -0.09961,-0.964844 -0.05065,-0.08665 -0.10593,-0.142027 -0.150391,-0.175781 -0.04446,-0.03375 -0.08008,-0.04687 -0.08008,-0.04687 z"
       id="path95" />
    <path
       style="color:#000000;font-style:normal;font-variant:normal;font-weight:normal;font-stretch:normal;font-size:medium;line-height:normal;font-family:sans-serif;font-variant-ligatures:normal;font-variant-position:normal;font-variant-caps:normal;font-variant-numeric:normal;font-variant-alternates:normal;font-feature-settings:normal;text-indent:0;text-align:start;text-decoration:none;text-decoration-line:none;text-decoration-style:solid;text-decoration-color:#000000;letter-spacing:normal;word-spacing:normal;text-transform:none;writing-mode:lr-tb;direction:ltr;text-orientation:mixed;dominant-baseline:auto;baseline-shift:baseline;text-anchor:start;white-space:normal;shape-padding:0;clip-rule:evenodd;display:inline;overflow:visible;visibility:visible;opacity:1;isolation:auto;mix-blend-mode:normal;color-interpolation:sRGB;color-interpolation-filters:linearRGB;solid-color:#000000;solid-opacity:1;vector-effect:none;fill:#000000;fill-opacity:1;fill-rule:nonzero;stroke:none;stroke-width:0.0762;stroke-linecap:butt;stroke-linejoin:miter;stroke-miterlimit:4;stroke-dasharray:none;stroke-dashoffset:0;stroke-opacity:1;color-rendering:auto;image-rendering:optimizeQuality;shape-rendering:geometricPrecision;text-rendering:auto;enable-background:accumulate"
       d="m 47.121094,78.773438 c -0.08036,0.48513 -0.211605,0.799434 -0.214844,1.015624 -0.0016,0.108096 0.03767,0.197249 0.132812,0.25 0.09514,0.05275 0.236333,0.07402 0.453126,0.08008 l 0.002,-0.07617 c -0.212208,-0.0059 -0.344362,-0.0295 -0.417969,-0.07031 -0.07361,-0.04081 -0.09513,-0.09144 -0.09375,-0.183594 0.0028,-0.184309 0.13125,-0.509083 0.21289,-1.001953 z"
       id="path83" />
  </g>
</svg>
