<?xml version="1.0" encoding="UTF-8" standalone="no"?>
<!-- Created with Inkscape (http://www.inkscape.org/) -->

<svg
   xmlns:dc="http://purl.org/dc/elements/1.1/"
   xmlns:cc="http://creativecommons.org/ns#"
   xmlns:rdf="http://www.w3.org/1999/02/22-rdf-syntax-ns#"
   xmlns:svg="http://www.w3.org/2000/svg"
   xmlns="http://www.w3.org/2000/svg"
   xmlns:sodipodi="http://sodipodi.sourceforge.net/DTD/sodipodi-0.dtd"
   xmlns:inkscape="http://www.inkscape.org/namespaces/inkscape"
   width="5.3471mm"
   height="6.147mm"
   version="1.1"
   viewBox="0 0 3.2083 3.6882"
   id="svg60"
   sodipodi:docname="amonoides.svg"
   inkscape:version="0.92.4 (5da689c313, 2019-01-14)">
  <defs
     id="defs64" />
  <sodipodi:namedview
     pagecolor="#ffffff"
     bordercolor="#666666"
     borderopacity="1"
     objecttolerance="10"
     gridtolerance="10"
     guidetolerance="10"
     inkscape:pageopacity="0"
     inkscape:pageshadow="2"
     inkscape:window-width="1548"
     inkscape:window-height="1256"
     id="namedview62"
     showgrid="false"
     inkscape:zoom="36.766409"
     inkscape:cx="10.035918"
     inkscape:cy="11.786483"
     inkscape:window-x="440"
     inkscape:window-y="22"
     inkscape:window-maximized="0"
     inkscape:current-layer="svg60" />
  <metadata
     id="metadata49">
    <rdf:RDF>
      <cc:Work
         rdf:about="">
        <dc:format>image/svg+xml</dc:format>
        <dc:type
           rdf:resource="http://purl.org/dc/dcmitype/StillImage" />
        <dc:title></dc:title>
      </cc:Work>
    </rdf:RDF>
  </metadata>
  <g
     transform="translate(-46.58 -75.861)"
     id="g58">
    <g
       id="Amonoides"
       transform="matrix(.006 0 0 .006 9.6702 -79.327)"
       clip-rule="evenodd"
       fill-rule="evenodd"
       image-rendering="optimizeQuality"
       shape-rendering="geometricPrecision"
       stroke="#000"
       stroke-width="12.7">
      <path
         style="fill:#ffffff;fill-rule:nonzero"
         d="m 6540,25905 c 84,55 140,151 140,259"
         id="path82" />
      <path
         style="fill:#ffffff;fill-rule:nonzero"
         d="m 6680,26164 c 0,171 -138,309 -309,309"
         id="path80" />
      <path
         style="fill:#ffffff;fill-rule:nonzero"
         d="m 6371,26473 c -83,0 -158,-32 -213,-85"
         id="path78" />
      <path
         style="fill:#ffffff;fill-rule:nonzero"
         d="m 6158,26388 c 0,0 -2,-51 36,-111"
         id="path76" />
      <path
         style="fill:#ffffff;fill-rule:nonzero"
         d="m 6194,26277 c 38,-60 87,-88 87,-88"
         id="path74" />
      <path
         style="fill:#ffffff;fill-rule:nonzero"
         d="m 6281,26189 c -28,-34 -45,-77 -45,-124"
         id="path72" />
      <path
         style="fill:#ffffff;fill-rule:nonzero"
         d="m 6236,26065 c 0,-107 87,-194 194,-194"
         id="path70" />
      <path
         style="fill:#ffffff;fill-rule:nonzero"
         d="m 6430,25871 c 40,0 77,12 108,33"
         id="path68" />
      <path
         style="fill:#ffffff;fill-rule:nonzero"
         d="m 6538,25904 2,1"
         id="path51" />
      <path
         class="fil2 str0"
         d="m6428 26062c0 8-6 14-14 14s-14-6-14-14 7-14 14-14c8 0 14 6 14 14z"
         fill-rule="nonzero"
         id="path53" />
      <path
         style="fill:none"
         d="m 6280,26189 143,-116"
         id="path92" />
      <path
         style="fill:none"
         d="m 6409,26061 c -17,-4 -2,-30 -16,-35 -14,-5 -29,43 -43,38 -15,-5 1,-52 -14,-57 -14,-5 -30,43 -44,38 -14,-5 2,-52 -12,-56 -13,-4 -28,43 -40,39"
         id="path90" />
      <path
         style="fill:none"
         d="m 6413,26058 c -4,-16 51,-30 47,-46 -4,-16 -58,-3 -62,-20 -4,-16 50,-29 47,-45 -4,-16 -58,-3 -62,-19 -4,-16 50,-29 47,-45 -2,-7 -16,-8 -29,-9"
         id="path88" />
      <path
         style="fill:none"
         d="m 6419,26061 c 18,-10 53,50 71,40 18,-10 -17,-74 1,-84 18,-10 54,55 72,44 18,-10 -17,-74 1,-84 17,-9 53,55 70,46 4,-2 5,-7 5,-13"
         id="path86" />
      <path
         style="fill:none"
         d="m 6418,26068 c 15,15 -35,65 -20,80 15,15 65,-36 80,-21 15,15 -35,65 -20,80 15,15 65,-35 80,-20 15,15 -35,65 -20,81 15,15 65,-35 80,-20 14,14 -36,65 -21,79 12,12 54,-26 73,-25"
         id="path55" />
    </g>
  </g>
</svg>
