<?xml version="1.0" encoding="UTF-8" standalone="no"?>
<!-- Created with Inkscape (http://www.inkscape.org/) -->

<svg
   xmlns:dc="http://purl.org/dc/elements/1.1/"
   xmlns:cc="http://creativecommons.org/ns#"
   xmlns:rdf="http://www.w3.org/1999/02/22-rdf-syntax-ns#"
   xmlns:svg="http://www.w3.org/2000/svg"
   xmlns="http://www.w3.org/2000/svg"
   xmlns:sodipodi="http://sodipodi.sourceforge.net/DTD/sodipodi-0.dtd"
   xmlns:inkscape="http://www.inkscape.org/namespaces/inkscape"
   width="6.3416mm"
   height="5.5576mm"
   version="1.1"
   viewBox="0 0 3.805 3.3345"
   id="svg26"
   sodipodi:docname="acritarcos.svg"
   inkscape:version="0.92.4 (5da689c313, 2019-01-14)">
  <defs
     id="defs30" />
  <sodipodi:namedview
     pagecolor="#ffffff"
     bordercolor="#666666"
     borderopacity="1"
     objecttolerance="10"
     gridtolerance="10"
     guidetolerance="10"
     inkscape:pageopacity="0"
     inkscape:pageshadow="2"
     inkscape:window-width="1454"
     inkscape:window-height="844"
     id="namedview28"
     showgrid="false"
     inkscape:zoom="23.470488"
     inkscape:cx="11.984126"
     inkscape:cy="10.502551"
     inkscape:window-x="2764"
     inkscape:window-y="46"
     inkscape:window-maximized="0"
     inkscape:current-layer="svg26" />
  <metadata
     id="metadata21">
    <rdf:RDF>
      <cc:Work
         rdf:about="">
        <dc:format>image/svg+xml</dc:format>
        <dc:type
           rdf:resource="http://purl.org/dc/dcmitype/StillImage" />
        <dc:title></dc:title>
      </cc:Work>
    </rdf:RDF>
  </metadata>
  <g
     transform="translate(-44.175 -78.755)"
     id="g24">
    <path
       style="color:#000000;font-style:normal;font-variant:normal;font-weight:normal;font-stretch:normal;font-size:medium;line-height:normal;font-family:sans-serif;font-variant-ligatures:normal;font-variant-position:normal;font-variant-caps:normal;font-variant-numeric:normal;font-variant-alternates:normal;font-feature-settings:normal;text-indent:0;text-align:start;text-decoration:none;text-decoration-line:none;text-decoration-style:solid;text-decoration-color:#000000;letter-spacing:normal;word-spacing:normal;text-transform:none;writing-mode:lr-tb;direction:ltr;text-orientation:mixed;dominant-baseline:auto;baseline-shift:baseline;text-anchor:start;white-space:normal;shape-padding:0;clip-rule:evenodd;display:inline;overflow:visible;visibility:visible;opacity:1;isolation:auto;mix-blend-mode:normal;color-interpolation:sRGB;color-interpolation-filters:linearRGB;solid-color:#000000;solid-opacity:1;vector-effect:none;fill:#000000;fill-opacity:1;fill-rule:nonzero;stroke:none;stroke-width:0.0762;stroke-linecap:butt;stroke-linejoin:miter;stroke-miterlimit:4;stroke-dasharray:none;stroke-dashoffset:0;stroke-opacity:1;color-rendering:auto;image-rendering:optimizeQuality;shape-rendering:geometricPrecision;text-rendering:auto;enable-background:accumulate"
       d="m 45.945312,78.763672 c -4.68e-4,3.28e-4 -0.004,0.002 -0.0059,0.0039 -0.0018,0.0019 -0.0026,0.0041 -0.0039,0.0059 -0.0026,0.0035 -0.0061,0.0065 -0.0078,0.0098 -0.0034,0.0065 -0.0054,0.01425 -0.0078,0.02148 -0.0049,0.01446 -0.009,0.03143 -0.01367,0.05273 -0.0094,0.04261 -0.01991,0.100767 -0.03125,0.169922 -0.02267,0.13831 -0.04921,0.321804 -0.08398,0.521484 -0.06955,0.39936 -0.171315,0.860651 -0.3125,1.111328 l 0.06641,0.03711 c 0.152814,-0.271323 0.250364,-0.733126 0.320312,-1.134766 0.03497,-0.20082 0.06343,-0.386122 0.08594,-0.523438 0.01126,-0.06866 0.02052,-0.126362 0.0293,-0.166015 0.0044,-0.01983 0.0084,-0.03518 0.01172,-0.04492 9.7e-4,-0.0029 0.0012,-0.0042 0.002,-0.0059 -8.94e-4,9.11e-4 -0.0044,0.0042 -0.0039,0.0039 z"
       id="path50"
       inkscape:connector-curvature="0" />
    <path
       style="color:#000000;font-style:normal;font-variant:normal;font-weight:normal;font-stretch:normal;font-size:medium;line-height:normal;font-family:sans-serif;font-variant-ligatures:normal;font-variant-position:normal;font-variant-caps:normal;font-variant-numeric:normal;font-variant-alternates:normal;font-feature-settings:normal;text-indent:0;text-align:start;text-decoration:none;text-decoration-line:none;text-decoration-style:solid;text-decoration-color:#000000;letter-spacing:normal;word-spacing:normal;text-transform:none;writing-mode:lr-tb;direction:ltr;text-orientation:mixed;dominant-baseline:auto;baseline-shift:baseline;text-anchor:start;white-space:normal;shape-padding:0;clip-rule:evenodd;display:inline;overflow:visible;visibility:visible;opacity:1;isolation:auto;mix-blend-mode:normal;color-interpolation:sRGB;color-interpolation-filters:linearRGB;solid-color:#000000;solid-opacity:1;vector-effect:none;fill:#000000;fill-opacity:1;fill-rule:nonzero;stroke:none;stroke-width:0.0762;stroke-linecap:butt;stroke-linejoin:miter;stroke-miterlimit:4;stroke-dasharray:none;stroke-dashoffset:0;stroke-opacity:1;color-rendering:auto;image-rendering:optimizeQuality;shape-rendering:geometricPrecision;text-rendering:auto;enable-background:accumulate"
       d="m 45.990234,78.757812 c -0.01234,-0.0046 -0.03306,-0.0026 -0.04492,0.0059 l 0.04492,0.06055 c -0.0066,0.0047 -0.0213,0.0062 -0.02734,0.0039 -0.006,-0.0022 -0.0051,-0.0033 -0.0039,-0.002 0.0024,0.0027 0.0098,0.0146 0.01758,0.03125 0.01563,0.0333 0.03553,0.08847 0.05469,0.15625 0.03831,0.135566 0.07691,0.322991 0.09766,0.515625 l 0.07422,-0.0078 c -0.02125,-0.197366 -0.05992,-0.388863 -0.09961,-0.529296 -0.01984,-0.07022 -0.03972,-0.12777 -0.05859,-0.167969 -0.0094,-0.0201 -0.01729,-0.03541 -0.0293,-0.04883 -0.006,-0.0067 -0.01305,-0.01299 -0.02539,-0.01758 z"
       id="path48"
       inkscape:connector-curvature="0" />
    <path
       style="color:#000000;font-style:normal;font-variant:normal;font-weight:normal;font-stretch:normal;font-size:medium;line-height:normal;font-family:sans-serif;font-variant-ligatures:normal;font-variant-position:normal;font-variant-caps:normal;font-variant-numeric:normal;font-variant-alternates:normal;font-feature-settings:normal;text-indent:0;text-align:start;text-decoration:none;text-decoration-line:none;text-decoration-style:solid;text-decoration-color:#000000;letter-spacing:normal;word-spacing:normal;text-transform:none;writing-mode:lr-tb;direction:ltr;text-orientation:mixed;dominant-baseline:auto;baseline-shift:baseline;text-anchor:start;white-space:normal;shape-padding:0;clip-rule:evenodd;display:inline;overflow:visible;visibility:visible;opacity:1;isolation:auto;mix-blend-mode:normal;color-interpolation:sRGB;color-interpolation-filters:linearRGB;solid-color:#000000;solid-opacity:1;vector-effect:none;fill:#000000;fill-opacity:1;fill-rule:nonzero;stroke:none;stroke-width:0.0762;stroke-linecap:butt;stroke-linejoin:miter;stroke-miterlimit:4;stroke-dasharray:none;stroke-dashoffset:0;stroke-opacity:1;color-rendering:auto;image-rendering:optimizeQuality;shape-rendering:geometricPrecision;text-rendering:auto;enable-background:accumulate"
       d="m 46.203125,79.521484 -0.07422,0.0078 c 0.01707,0.164964 -0.02253,0.395123 -0.04297,0.609375 -0.01022,0.107126 -0.01503,0.210989 -0.0059,0.302734 0.0092,0.09175 0.03284,0.173819 0.08789,0.232422 l 0.05664,-0.05273 c -0.03795,-0.0404 -0.06009,-0.104683 -0.06836,-0.1875 -0.0083,-0.08282 -0.0042,-0.181986 0.0059,-0.28711 0.02006,-0.210247 0.05995,-0.441964 0.04102,-0.625 z"
       id="path46"
       inkscape:connector-curvature="0" />
    <path
       style="color:#000000;font-style:normal;font-variant:normal;font-weight:normal;font-stretch:normal;font-size:medium;line-height:normal;font-family:sans-serif;font-variant-ligatures:normal;font-variant-position:normal;font-variant-caps:normal;font-variant-numeric:normal;font-variant-alternates:normal;font-feature-settings:normal;text-indent:0;text-align:start;text-decoration:none;text-decoration-line:none;text-decoration-style:solid;text-decoration-color:#000000;letter-spacing:normal;word-spacing:normal;text-transform:none;writing-mode:lr-tb;direction:ltr;text-orientation:mixed;dominant-baseline:auto;baseline-shift:baseline;text-anchor:start;white-space:normal;shape-padding:0;clip-rule:evenodd;display:inline;overflow:visible;visibility:visible;opacity:1;isolation:auto;mix-blend-mode:normal;color-interpolation:sRGB;color-interpolation-filters:linearRGB;solid-color:#000000;solid-opacity:1;vector-effect:none;fill:#000000;fill-opacity:1;fill-rule:nonzero;stroke:none;stroke-width:0.0762;stroke-linecap:butt;stroke-linejoin:miter;stroke-miterlimit:4;stroke-dasharray:none;stroke-dashoffset:0;stroke-opacity:1;color-rendering:auto;image-rendering:optimizeQuality;shape-rendering:geometricPrecision;text-rendering:auto;enable-background:accumulate"
       d="m 46.224609,80.621094 -0.05664,0.05273 c 0.107906,0.114651 0.30752,0.181084 0.521484,0.253906 0.213964,0.07282 0.441904,0.149892 0.599609,0.261719 l 0.04492,-0.0625 c -0.172294,-0.122172 -0.405604,-0.198807 -0.61914,-0.271484 -0.213536,-0.07268 -0.406141,-0.145026 -0.490235,-0.234375 z"
       id="path44"
       inkscape:connector-curvature="0" />
    <path
       style="color:#000000;font-style:normal;font-variant:normal;font-weight:normal;font-stretch:normal;font-size:medium;line-height:normal;font-family:sans-serif;font-variant-ligatures:normal;font-variant-position:normal;font-variant-caps:normal;font-variant-numeric:normal;font-variant-alternates:normal;font-feature-settings:normal;text-indent:0;text-align:start;text-decoration:none;text-decoration-line:none;text-decoration-style:solid;text-decoration-color:#000000;letter-spacing:normal;word-spacing:normal;text-transform:none;writing-mode:lr-tb;direction:ltr;text-orientation:mixed;dominant-baseline:auto;baseline-shift:baseline;text-anchor:start;white-space:normal;shape-padding:0;clip-rule:evenodd;display:inline;overflow:visible;visibility:visible;opacity:1;isolation:auto;mix-blend-mode:normal;color-interpolation:sRGB;color-interpolation-filters:linearRGB;solid-color:#000000;solid-opacity:1;vector-effect:none;fill:#000000;fill-opacity:1;fill-rule:nonzero;stroke:none;stroke-width:0.0762;stroke-linecap:butt;stroke-linejoin:miter;stroke-miterlimit:4;stroke-dasharray:none;stroke-dashoffset:0;stroke-opacity:1;color-rendering:auto;image-rendering:optimizeQuality;shape-rendering:geometricPrecision;text-rendering:auto;enable-background:accumulate"
       d="m 47.333984,81.126953 -0.04492,0.0625 c 0.163643,0.117708 0.332659,0.328561 0.451172,0.507813 0.05926,0.08962 0.106522,0.171847 0.134766,0.228515 0.01412,0.02833 0.02394,0.05125 0.02734,0.0625 0,0 0.002,0.002 0.002,0.002 1.23e-4,-0.001 9.7e-5,-0.0043 0,-0.0039 -9.8e-5,3.75e-4 0.0021,-0.0062 0.002,-0.0059 -2.86e-4,6.07e-4 0.01219,-0.01399 0.01172,-0.01367 -4.69e-4,3.19e-4 0.02019,-0.0059 0.01953,-0.0059 -3.27e-4,1.1e-5 0.0062,6.4e-5 0.0059,0 -3.74e-4,-6.5e-5 0.0028,-3.83e-4 0.0039,0 l -0.02344,0.07227 c 0.002,6.64e-4 0.0074,0.0019 0.0078,0.002 3.74e-4,6.4e-5 0.0075,0.002 0.0078,0.002 6.55e-4,-2.2e-5 0.02102,-0.0075 0.02148,-0.0078 4.68e-4,-3.19e-4 0.01339,-0.01697 0.01367,-0.01758 1.43e-4,-3.04e-4 0.0038,-0.0055 0.0039,-0.0059 9.7e-5,-3.74e-4 -2.29e-4,-0.0059 0,-0.0078 0.0018,-0.0154 -9.2e-4,-0.02138 -0.0039,-0.03125 -0.006,-0.01974 -0.01612,-0.04387 -0.03125,-0.07422 -0.03026,-0.06071 -0.07793,-0.144454 -0.138671,-0.236328 -0.121487,-0.183749 -0.292347,-0.401005 -0.470704,-0.529297 z"
       id="path42"
       inkscape:connector-curvature="0" />
    <path
       style="color:#000000;font-style:normal;font-variant:normal;font-weight:normal;font-stretch:normal;font-size:medium;line-height:normal;font-family:sans-serif;font-variant-ligatures:normal;font-variant-position:normal;font-variant-caps:normal;font-variant-numeric:normal;font-variant-alternates:normal;font-feature-settings:normal;text-indent:0;text-align:start;text-decoration:none;text-decoration-line:none;text-decoration-style:solid;text-decoration-color:#000000;letter-spacing:normal;word-spacing:normal;text-transform:none;writing-mode:lr-tb;direction:ltr;text-orientation:mixed;dominant-baseline:auto;baseline-shift:baseline;text-anchor:start;white-space:normal;shape-padding:0;clip-rule:evenodd;display:inline;overflow:visible;visibility:visible;opacity:1;isolation:auto;mix-blend-mode:normal;color-interpolation:sRGB;color-interpolation-filters:linearRGB;solid-color:#000000;solid-opacity:1;vector-effect:none;fill:#000000;fill-opacity:1;fill-rule:nonzero;stroke:none;stroke-width:0.0762;stroke-linecap:butt;stroke-linejoin:miter;stroke-miterlimit:4;stroke-dasharray:none;stroke-dashoffset:0;stroke-opacity:1;color-rendering:auto;image-rendering:optimizeQuality;shape-rendering:geometricPrecision;text-rendering:auto;enable-background:accumulate"
       d="m 46.943359,81.302734 -0.03125,0.07031 c 0.124279,0.05649 0.355022,0.213316 0.5625,0.359375 0.10374,0.07303 0.202728,0.143063 0.28125,0.197266 0.03926,0.0271 0.07375,0.0508 0.101563,0.06836 0.02782,0.01756 0.04636,0.02847 0.06641,0.03516 l 0.02344,-0.07227 c -0.0025,-8.19e-4 -0.02262,-0.0108 -0.04883,-0.02734 -0.02621,-0.01654 -0.06078,-0.0396 -0.09961,-0.06641 -0.07767,-0.05361 -0.175286,-0.124046 -0.279297,-0.197266 -0.208021,-0.146441 -0.436451,-0.303678 -0.576172,-0.367188 z"
       id="path40"
       inkscape:connector-curvature="0" />
    <path
       style="color:#000000;font-style:normal;font-variant:normal;font-weight:normal;font-stretch:normal;font-size:medium;line-height:normal;font-family:sans-serif;font-variant-ligatures:normal;font-variant-position:normal;font-variant-caps:normal;font-variant-numeric:normal;font-variant-alternates:normal;font-feature-settings:normal;text-indent:0;text-align:start;text-decoration:none;text-decoration-line:none;text-decoration-style:solid;text-decoration-color:#000000;letter-spacing:normal;word-spacing:normal;text-transform:none;writing-mode:lr-tb;direction:ltr;text-orientation:mixed;dominant-baseline:auto;baseline-shift:baseline;text-anchor:start;white-space:normal;shape-padding:0;clip-rule:evenodd;display:inline;overflow:visible;visibility:visible;opacity:1;isolation:auto;mix-blend-mode:normal;color-interpolation:sRGB;color-interpolation-filters:linearRGB;solid-color:#000000;solid-opacity:1;vector-effect:none;fill:#000000;fill-opacity:1;fill-rule:nonzero;stroke:none;stroke-width:0.0762;stroke-linecap:butt;stroke-linejoin:miter;stroke-miterlimit:4;stroke-dasharray:none;stroke-dashoffset:0;stroke-opacity:1;color-rendering:auto;image-rendering:optimizeQuality;shape-rendering:geometricPrecision;text-rendering:auto;enable-background:accumulate"
       d="m 45.798828,81.15625 0.01367,0.07617 c 0.207084,-0.03451 0.715288,-0.03989 1.099609,0.140625 l 0.03125,-0.07031 C 46.53568,81.111249 46.023744,81.118764 45.798828,81.15625 Z"
       id="path38"
       inkscape:connector-curvature="0" />
    <path
       style="color:#000000;font-style:normal;font-variant:normal;font-weight:normal;font-stretch:normal;font-size:medium;line-height:normal;font-family:sans-serif;font-variant-ligatures:normal;font-variant-position:normal;font-variant-caps:normal;font-variant-numeric:normal;font-variant-alternates:normal;font-feature-settings:normal;text-indent:0;text-align:start;text-decoration:none;text-decoration-line:none;text-decoration-style:solid;text-decoration-color:#000000;letter-spacing:normal;word-spacing:normal;text-transform:none;writing-mode:lr-tb;direction:ltr;text-orientation:mixed;dominant-baseline:auto;baseline-shift:baseline;text-anchor:start;white-space:normal;shape-padding:0;clip-rule:evenodd;display:inline;overflow:visible;visibility:visible;opacity:1;isolation:auto;mix-blend-mode:normal;color-interpolation:sRGB;color-interpolation-filters:linearRGB;solid-color:#000000;solid-opacity:1;vector-effect:none;fill:#000000;fill-opacity:1;fill-rule:nonzero;stroke:none;stroke-width:0.0762;stroke-linecap:butt;stroke-linejoin:miter;stroke-miterlimit:4;stroke-dasharray:none;stroke-dashoffset:0;stroke-opacity:1;color-rendering:auto;image-rendering:optimizeQuality;shape-rendering:geometricPrecision;text-rendering:auto;enable-background:accumulate"
       d="m 45.798828,81.15625 c -0.417926,0.07375 -0.63789,0.288827 -0.96875,0.673828 l 0.05664,0.04883 c 0.32914,-0.382999 0.527707,-0.576236 0.925781,-0.646484 z"
       id="path36"
       inkscape:connector-curvature="0" />
    <path
       style="color:#000000;font-style:normal;font-variant:normal;font-weight:normal;font-stretch:normal;font-size:medium;line-height:normal;font-family:sans-serif;font-variant-ligatures:normal;font-variant-position:normal;font-variant-caps:normal;font-variant-numeric:normal;font-variant-alternates:normal;font-feature-settings:normal;text-indent:0;text-align:start;text-decoration:none;text-decoration-line:none;text-decoration-style:solid;text-decoration-color:#000000;letter-spacing:normal;word-spacing:normal;text-transform:none;writing-mode:lr-tb;direction:ltr;text-orientation:mixed;dominant-baseline:auto;baseline-shift:baseline;text-anchor:start;white-space:normal;shape-padding:0;clip-rule:evenodd;display:inline;overflow:visible;visibility:visible;opacity:1;isolation:auto;mix-blend-mode:normal;color-interpolation:sRGB;color-interpolation-filters:linearRGB;solid-color:#000000;solid-opacity:1;vector-effect:none;fill:#000000;fill-opacity:1;fill-rule:nonzero;stroke:none;stroke-width:0.0762;stroke-linecap:butt;stroke-linejoin:miter;stroke-miterlimit:4;stroke-dasharray:none;stroke-dashoffset:0;stroke-opacity:1;color-rendering:auto;image-rendering:optimizeQuality;shape-rendering:geometricPrecision;text-rendering:auto;enable-background:accumulate"
       d="m 44.828125,81.830078 c -0.0892,0.105923 -0.209019,0.158197 -0.322266,0.175781 -0.113246,0.01758 -0.218958,-0.0038 -0.269531,-0.03516 l -0.04102,0.06641 c 0.07543,0.04669 0.194013,0.06484 0.322266,0.04492 0.128254,-0.01991 0.266339,-0.08105 0.369141,-0.203125 z"
       id="path34"
       inkscape:connector-curvature="0" />
    <path
       style="color:#000000;font-style:normal;font-variant:normal;font-weight:normal;font-stretch:normal;font-size:medium;line-height:normal;font-family:sans-serif;font-variant-ligatures:normal;font-variant-position:normal;font-variant-caps:normal;font-variant-numeric:normal;font-variant-alternates:normal;font-feature-settings:normal;text-indent:0;text-align:start;text-decoration:none;text-decoration-line:none;text-decoration-style:solid;text-decoration-color:#000000;letter-spacing:normal;word-spacing:normal;text-transform:none;writing-mode:lr-tb;direction:ltr;text-orientation:mixed;dominant-baseline:auto;baseline-shift:baseline;text-anchor:start;white-space:normal;shape-padding:0;clip-rule:evenodd;display:inline;overflow:visible;visibility:visible;opacity:1;isolation:auto;mix-blend-mode:normal;color-interpolation:sRGB;color-interpolation-filters:linearRGB;solid-color:#000000;solid-opacity:1;vector-effect:none;fill:#000000;fill-opacity:1;fill-rule:nonzero;stroke:none;stroke-width:0.0762;stroke-linecap:butt;stroke-linejoin:miter;stroke-miterlimit:4;stroke-dasharray:none;stroke-dashoffset:0;stroke-opacity:1;color-rendering:auto;image-rendering:optimizeQuality;shape-rendering:geometricPrecision;text-rendering:auto;enable-background:accumulate"
       d="m 45.478516,80.658203 c -0.131853,0.229308 -0.4704,0.55503 -0.767578,0.822266 -0.14859,0.133618 -0.287162,0.253705 -0.384766,0.34375 -0.0488,0.04502 -0.08746,0.08206 -0.113281,0.111328 -0.01291,0.01463 -0.02204,0.02721 -0.0293,0.04102 -0.0036,0.0069 -0.0073,0.01321 -0.0078,0.02539 -1.4e-4,0.003 -1.02e-4,0.0092 0,0.0098 1.02e-4,6.04e-4 0.0037,0.01121 0.0039,0.01172 4.76e-4,0.001 0.01459,0.01887 0.01562,0.01953 l 0.05859,0.03711 v -0.07422 c 0.003,-0.0046 0.007,-0.0098 0.01563,-0.01953 0.02201,-0.02494 0.05938,-0.0631 0.107422,-0.107422 0.09608,-0.08864 0.235605,-0.207664 0.384766,-0.341797 0.298322,-0.268264 0.639055,-0.589152 0.783203,-0.839843 z m -1.242188,1.320313 c -0.001,-6.57e-4 0.01219,0.0147 0.01172,0.01367 -2.38e-4,-5.14e-4 0.0021,0.0084 0.002,0.0078 -7.2e-5,-4.23e-4 0.0018,0.0019 0.002,0.0039 h -0.0625 z"
       id="Acritarcos"
       inkscape:connector-curvature="0" />
  </g>
</svg>
