<?xml version="1.0" encoding="UTF-8" standalone="no"?>
<!-- Created with Inkscape (http://www.inkscape.org/) -->

<svg
   xmlns:dc="http://purl.org/dc/elements/1.1/"
   xmlns:cc="http://creativecommons.org/ns#"
   xmlns:rdf="http://www.w3.org/1999/02/22-rdf-syntax-ns#"
   xmlns:svg="http://www.w3.org/2000/svg"
   xmlns="http://www.w3.org/2000/svg"
   xmlns:sodipodi="http://sodipodi.sourceforge.net/DTD/sodipodi-0.dtd"
   xmlns:inkscape="http://www.inkscape.org/namespaces/inkscape"
   width="6.5716mm"
   height="6.2585mm"
   version="1.1"
   viewBox="0 0 3.943 3.7551"
   id="svg54"
   sodipodi:docname="angiospermas.svg"
   inkscape:version="0.92.4 (5da689c313, 2019-01-14)">
  <defs
     id="defs58" />
  <sodipodi:namedview
     pagecolor="#ffffff"
     bordercolor="#666666"
     borderopacity="1"
     objecttolerance="10"
     gridtolerance="10"
     guidetolerance="10"
     inkscape:pageopacity="0"
     inkscape:pageshadow="2"
     inkscape:window-width="1360"
     inkscape:window-height="951"
     id="namedview56"
     showgrid="false"
     inkscape:zoom="25.534606"
     inkscape:cx="12.511058"
     inkscape:cy="11.038291"
     inkscape:window-x="2820"
     inkscape:window-y="29"
     inkscape:window-maximized="0"
     inkscape:current-layer="svg54" />
  <metadata
     id="metadata35">
    <rdf:RDF>
      <cc:Work
         rdf:about="">
        <dc:format>image/svg+xml</dc:format>
        <dc:type
           rdf:resource="http://purl.org/dc/dcmitype/StillImage" />
        <dc:title></dc:title>
      </cc:Work>
    </rdf:RDF>
  </metadata>
  <g
     transform="translate(-46.355 -78.507)"
     id="g52">
    <g
       id="Angiospermas"
       transform="matrix(.006 0 0 .006 -30.277 -50.742)"
       clip-rule="evenodd"
       fill="#fff"
       image-rendering="optimizeQuality"
       shape-rendering="geometricPrecision"
       stroke="#000"
       stroke-width="12.7">
      <path
         style="color:#000000;font-style:normal;font-variant:normal;font-weight:normal;font-stretch:normal;font-size:medium;line-height:normal;font-family:sans-serif;font-variant-ligatures:normal;font-variant-position:normal;font-variant-caps:normal;font-variant-numeric:normal;font-variant-alternates:normal;font-feature-settings:normal;text-indent:0;text-align:start;text-decoration:none;text-decoration-line:none;text-decoration-style:solid;text-decoration-color:#000000;letter-spacing:normal;word-spacing:normal;text-transform:none;writing-mode:lr-tb;direction:ltr;text-orientation:mixed;dominant-baseline:auto;baseline-shift:baseline;text-anchor:start;white-space:normal;shape-padding:0;clip-rule:nonzero;display:inline;overflow:visible;visibility:visible;opacity:1;isolation:auto;mix-blend-mode:normal;color-interpolation:sRGB;color-interpolation-filters:linearRGB;solid-color:#000000;solid-opacity:1;vector-effect:none;fill:#000000;fill-opacity:1;fill-rule:nonzero;stroke:none;stroke-width:12.69999981;stroke-linecap:butt;stroke-linejoin:miter;stroke-miterlimit:4;stroke-dasharray:none;stroke-dashoffset:0;stroke-opacity:1;color-rendering:auto;image-rendering:auto;shape-rendering:auto;text-rendering:auto;enable-background:accumulate"
         d="m 13190.494,21541.586 c -35.494,-0.469 -71.766,16.119 -92.486,42.49 -12.498,15.906 -17.797,40.376 -19.903,68.322 -2.105,27.947 -0.698,59.474 2.073,89.192 5.54,59.436 16.609,111.724 16.609,111.724 l 6.213,-1.314 3.971,4.955 c 0,0 44.21,-35.408 88.25,-79.07 22.02,-21.832 44.021,-45.725 60.576,-68.547 16.554,-22.822 28.141,-44.351 27.551,-63.533 l -6.348,0.195 6.346,-0.254 c -1.293,-32.309 -10.427,-56.567 -24.584,-73.492 -14.158,-16.925 -33.186,-26.264 -53.151,-29.402 -4.991,-0.785 -10.046,-1.199 -15.117,-1.266 z m -0.129,12.75 c 4.48,0.03 8.921,0.378 13.274,1.062 17.41,2.737 33.319,10.586 45.381,25.004 12.055,14.412 20.417,35.643 21.63,65.811 0.402,13.318 -9.258,33.78 -25.134,55.668 -15.883,21.897 -37.507,45.441 -59.237,66.984 -36.917,36.601 -68.671,62.822 -79.021,71.276 -2.574,-12.872 -9.844,-50.474 -14.436,-99.731 -2.729,-29.282 -4.072,-60.255 -2.052,-87.058 2.019,-26.804 7.72,-49.334 17.222,-61.428 17.78,-22.629 51.015,-37.813 82.373,-37.588 z"
         id="path37"
         inkscape:connector-curvature="0" />
      <path
         style="color:#000000;font-style:normal;font-variant:normal;font-weight:normal;font-stretch:normal;font-size:medium;line-height:normal;font-family:sans-serif;font-variant-ligatures:normal;font-variant-position:normal;font-variant-caps:normal;font-variant-numeric:normal;font-variant-alternates:normal;font-feature-settings:normal;text-indent:0;text-align:start;text-decoration:none;text-decoration-line:none;text-decoration-style:solid;text-decoration-color:#000000;letter-spacing:normal;word-spacing:normal;text-transform:none;writing-mode:lr-tb;direction:ltr;text-orientation:mixed;dominant-baseline:auto;baseline-shift:baseline;text-anchor:start;white-space:normal;shape-padding:0;clip-rule:nonzero;display:inline;overflow:visible;visibility:visible;opacity:1;isolation:auto;mix-blend-mode:normal;color-interpolation:sRGB;color-interpolation-filters:linearRGB;solid-color:#000000;solid-opacity:1;vector-effect:none;fill:#000000;fill-opacity:1;fill-rule:nonzero;stroke:none;stroke-width:12.69999981;stroke-linecap:butt;stroke-linejoin:miter;stroke-miterlimit:4;stroke-dasharray:none;stroke-dashoffset:0;stroke-opacity:1;color-rendering:auto;image-rendering:auto;shape-rendering:auto;text-rendering:auto;enable-background:accumulate"
         d="m 13096.029,21852.045 c 0,0 -44.21,35.408 -88.25,79.07 -22.02,21.832 -44.021,45.725 -60.576,68.547 -16.554,22.822 -28.141,44.351 -27.551,63.533 l 6.348,-0.195 -6.346,0.254 c 1.293,32.309 10.427,56.567 24.584,73.492 14.158,16.925 33.186,26.264 53.151,29.402 39.929,6.277 83.923,-11.086 107.603,-41.224 12.498,-15.906 17.797,-40.376 19.903,-68.322 2.105,-27.947 0.698,-59.474 -2.073,-89.192 -5.54,-59.436 -16.609,-111.724 -16.609,-111.724 L 13100,21857 Z m -0.287,16.814 c 2.574,12.872 9.844,50.474 14.436,99.731 2.729,29.282 4.072,60.255 2.052,87.058 -2.019,26.804 -7.72,49.334 -17.222,61.428 -20.32,25.862 -60.826,41.999 -95.647,36.526 -17.41,-2.737 -33.319,-10.586 -45.381,-25.004 -12.055,-14.412 -20.417,-35.643 -21.63,-65.811 -0.402,-13.318 9.258,-33.78 25.134,-55.668 15.883,-21.897 37.507,-45.441 59.237,-66.984 36.917,-36.601 68.671,-62.822 79.021,-71.276 z"
         id="path39"
         inkscape:connector-curvature="0" />
      <path
         style="color:#000000;font-style:normal;font-variant:normal;font-weight:normal;font-stretch:normal;font-size:medium;line-height:normal;font-family:sans-serif;font-variant-ligatures:normal;font-variant-position:normal;font-variant-caps:normal;font-variant-numeric:normal;font-variant-alternates:normal;font-feature-settings:normal;text-indent:0;text-align:start;text-decoration:none;text-decoration-line:none;text-decoration-style:solid;text-decoration-color:#000000;letter-spacing:normal;word-spacing:normal;text-transform:none;writing-mode:lr-tb;direction:ltr;text-orientation:mixed;dominant-baseline:auto;baseline-shift:baseline;text-anchor:start;white-space:normal;shape-padding:0;clip-rule:nonzero;display:inline;overflow:visible;visibility:visible;opacity:1;isolation:auto;mix-blend-mode:normal;color-interpolation:sRGB;color-interpolation-filters:linearRGB;solid-color:#000000;solid-opacity:1;vector-effect:none;fill:#000000;fill-opacity:1;fill-rule:nonzero;stroke:none;stroke-width:12.69999981;stroke-linecap:butt;stroke-linejoin:miter;stroke-miterlimit:4;stroke-dasharray:none;stroke-dashoffset:0;stroke-opacity:1;color-rendering:auto;image-rendering:auto;shape-rendering:auto;text-rendering:auto;enable-background:accumulate"
         d="m 13099.973,21852.965 1.129,4.717 -2.102,0.318 -4.49,-4.49 -8.315,8.314 7.455,2.434 c 1.169,7.48 8.775,55.43 23.332,111.099 7.864,30.073 17.513,61.134 28.95,86.877 11.426,25.721 24.188,46.449 41.068,55.358 l -0,0 c 0.01,0 0.02,0.01 0.04,0.02 0,0 0,0 0,0 28.419,15.233 53.85,19.604 75.494,15.906 21.656,-3.699 39.214,-15.466 51.901,-31.158 25.373,-31.383 32.466,-78.166 18.47,-113.695 l -5.908,2.328 5.877,-2.404 c -7.66,-18.725 -26.272,-35.526 -49.477,-51.315 -23.204,-15.788 -51.24,-30.335 -78.375,-42.801 -54.27,-24.931 -105.052,-41.515 -105.052,-41.515 z m 7.408,16.097 c 13.501,4.6 48.413,16.776 92.344,36.958 26.74,12.284 54.266,26.612 76.531,41.761 22.242,15.134 38.99,31.316 44.846,45.58 11.986,30.47 5.579,73.664 -16.54,101.022 -11.063,13.683 -25.755,23.479 -44.162,26.623 -18.406,3.144 -40.836,-0.355 -67.398,-14.602 l -3.002,5.596 2.957,-5.619 c -11.598,-6.104 -24.45,-24.609 -35.42,-49.303 -10.97,-24.694 -20.508,-55.258 -28.269,-84.935 -12.88,-49.251 -19.529,-88.586 -21.887,-103.081 z"
         id="path41"
         inkscape:connector-curvature="0" />
      <path
         style="color:#000000;font-style:normal;font-variant:normal;font-weight:normal;font-stretch:normal;font-size:medium;line-height:normal;font-family:sans-serif;font-variant-ligatures:normal;font-variant-position:normal;font-variant-caps:normal;font-variant-numeric:normal;font-variant-alternates:normal;font-feature-settings:normal;text-indent:0;text-align:start;text-decoration:none;text-decoration-line:none;text-decoration-style:solid;text-decoration-color:#000000;letter-spacing:normal;word-spacing:normal;text-transform:none;writing-mode:lr-tb;direction:ltr;text-orientation:mixed;dominant-baseline:auto;baseline-shift:baseline;text-anchor:start;white-space:normal;shape-padding:0;clip-rule:nonzero;display:inline;overflow:visible;visibility:visible;opacity:1;isolation:auto;mix-blend-mode:normal;color-interpolation:sRGB;color-interpolation-filters:linearRGB;solid-color:#000000;solid-opacity:1;vector-effect:none;fill:#000000;fill-opacity:1;fill-rule:nonzero;stroke:none;stroke-width:12.69999981;stroke-linecap:butt;stroke-linejoin:miter;stroke-miterlimit:4;stroke-dasharray:none;stroke-dashoffset:0;stroke-opacity:1;color-rendering:auto;image-rendering:auto;shape-rendering:auto;text-rendering:auto;enable-background:accumulate"
         d="m 12949.402,21578.258 c -5.875,-0.128 -11.525,0.292 -16.939,1.217 -21.656,3.699 -39.214,15.466 -51.901,31.158 -25.373,31.383 -32.466,78.166 -18.47,113.695 7.395,18.773 25.844,35.587 48.914,51.381 23.069,15.794 51.013,30.342 78.088,42.809 54.148,24.933 104.933,41.517 104.933,41.517 l -3.093,-4.265 5.066,-0.77 h 6.35 v -5.605 l -0.94,-0.307 c -1.098,-7.046 -8.758,-55.485 -23.392,-111.445 -7.864,-30.073 -17.513,-61.134 -28.95,-86.877 -11.426,-25.721 -24.188,-46.449 -41.068,-55.358 l 0,-0 c -0.01,-0 -0.02,-0.01 -0.04,-0.02 -0,-0 -0,-0 -0,-0 -21.311,-11.423 -40.942,-16.739 -58.555,-17.123 z m -0.24,12.687 c 15.319,0.326 32.914,4.965 52.836,15.651 l 3.002,-5.596 -2.957,5.619 c 11.598,6.104 24.45,24.609 35.42,49.303 10.97,24.694 20.508,55.258 28.269,84.935 12.963,49.568 19.653,89.289 21.954,103.457 -12.591,-4.272 -48.564,-16.741 -93.28,-37.332 -26.675,-12.283 -54.106,-26.61 -76.224,-41.753 -22.118,-15.144 -38.669,-31.33 -44.274,-45.557 -12.004,-30.471 -5.597,-73.688 16.53,-101.055 11.063,-13.683 25.755,-23.479 44.162,-26.623 4.601,-0.786 9.456,-1.157 14.562,-1.049 z"
         id="path43"
         inkscape:connector-curvature="0" />
      <path
         style="color:#000000;font-style:normal;font-variant:normal;font-weight:normal;font-stretch:normal;font-size:medium;line-height:normal;font-family:sans-serif;font-variant-ligatures:normal;font-variant-position:normal;font-variant-caps:normal;font-variant-numeric:normal;font-variant-alternates:normal;font-feature-settings:normal;text-indent:0;text-align:start;text-decoration:none;text-decoration-line:none;text-decoration-style:solid;text-decoration-color:#000000;letter-spacing:normal;word-spacing:normal;text-transform:none;writing-mode:lr-tb;direction:ltr;text-orientation:mixed;dominant-baseline:auto;baseline-shift:baseline;text-anchor:start;white-space:normal;shape-padding:0;clip-rule:nonzero;display:inline;overflow:visible;visibility:visible;opacity:1;isolation:auto;mix-blend-mode:normal;color-interpolation:sRGB;color-interpolation-filters:linearRGB;solid-color:#000000;solid-opacity:1;vector-effect:none;fill:#000000;fill-opacity:1;fill-rule:nonzero;stroke:none;stroke-width:12.69999981;stroke-linecap:butt;stroke-linejoin:miter;stroke-miterlimit:4;stroke-dasharray:none;stroke-dashoffset:0;stroke-opacity:1;color-rendering:auto;image-rendering:auto;shape-rendering:auto;text-rendering:auto;enable-background:accumulate"
         d="m 13322.654,21722.828 c -16.25,0.822 -34.565,6.627 -53.836,14.916 -25.693,11.053 -53.014,26.864 -78.132,43.043 -50.238,32.358 -91.707,66.299 -91.707,66.299 l 4.021,4.914 -2.555,5.812 c 0,0 51.987,22.863 111.125,41.737 29.57,9.437 60.935,17.898 88.784,22.013 27.848,4.116 52.208,4.431 68.796,-5.048 l -3.15,-5.514 3.162,5.508 c 27.924,-16.03 45.144,-35.323 53.58,-55.688 8.436,-20.364 7.939,-41.548 1.529,-60.709 -12.816,-38.315 -48.412,-69.346 -86.095,-76.351 -0,-0 -0.01,-0 -0.02,-0 v 0 c -4.912,-0.924 -10.094,-1.204 -15.506,-0.93 z m 14.346,7.172 -1.16,6.244 c 32.311,6.001 65.207,34.465 76.389,67.895 5.59,16.714 5.968,34.468 -1.221,51.822 -7.188,17.352 -22.089,34.557 -48.158,49.525 -0,0 -0,0 -0.01,0 -11.415,6.515 -33.923,7.454 -60.629,3.508 -26.714,-3.947 -57.599,-12.236 -86.779,-21.549 -49.561,-15.817 -87.576,-31.865 -99.907,-37.148 10.291,-8.234 40.411,-32.025 82.041,-58.84 24.757,-15.946 51.624,-31.447 76.274,-42.051 24.65,-10.604 47.154,-15.966 61.986,-13.172 z"
         id="path45"
         inkscape:connector-curvature="0" />
      <path
         style="color:#000000;font-style:normal;font-variant:normal;font-weight:normal;font-stretch:normal;font-size:medium;line-height:normal;font-family:sans-serif;font-variant-ligatures:normal;font-variant-position:normal;font-variant-caps:normal;font-variant-numeric:normal;font-variant-alternates:normal;font-feature-settings:normal;text-indent:0;text-align:start;text-decoration:none;text-decoration-line:none;text-decoration-style:solid;text-decoration-color:#000000;letter-spacing:normal;word-spacing:normal;text-transform:none;writing-mode:lr-tb;direction:ltr;text-orientation:mixed;dominant-baseline:auto;baseline-shift:baseline;text-anchor:start;white-space:normal;shape-padding:0;clip-rule:nonzero;display:inline;overflow:visible;visibility:visible;opacity:1;isolation:auto;mix-blend-mode:normal;color-interpolation:sRGB;color-interpolation-filters:linearRGB;solid-color:#000000;solid-opacity:1;vector-effect:none;fill:#000000;fill-opacity:1;fill-rule:nonzero;stroke:none;stroke-width:12.69999981;stroke-linecap:butt;stroke-linejoin:miter;stroke-miterlimit:4;stroke-dasharray:none;stroke-dashoffset:0;stroke-opacity:1;color-rendering:auto;image-rendering:auto;shape-rendering:auto;text-rendering:auto;enable-background:accumulate"
         d="m 12871.016,21779.727 c -15.394,-0.264 -28.798,1.835 -39.166,7.759 l 3.15,5.514 -3.162,-5.508 c -27.924,16.03 -45.144,35.323 -53.58,55.688 -8.436,20.364 -7.939,41.548 -1.529,60.709 12.816,38.315 48.412,69.346 86.095,76.351 0,0 0.01,0 0.02,0 v -0 c 19.665,3.699 43.655,-2.936 69.342,-13.986 25.693,-11.053 53.014,-26.864 78.132,-43.043 50.238,-32.358 91.707,-66.299 91.707,-66.299 l -4.021,-4.914 2.555,-5.812 c 0,0 -51.987,-22.863 -111.125,-41.737 -29.57,-9.437 -60.935,-17.898 -88.784,-22.013 -10.443,-1.544 -20.394,-2.553 -29.63,-2.711 z m -8.284,13.105 c 10.395,-0.557 22.702,0.194 36.059,2.168 26.714,3.947 57.599,12.236 86.779,21.549 49.561,15.817 87.576,31.865 99.907,37.148 -10.291,8.234 -40.411,32.025 -82.041,58.84 -24.757,15.946 -51.624,31.447 -76.274,42.051 -24.65,10.604 -47.154,15.966 -61.986,13.172 l -1.176,6.24 1.16,-6.244 c -32.311,-6.001 -65.207,-34.465 -76.389,-67.895 -5.59,-16.714 -5.968,-34.468 1.221,-51.822 7.188,-17.352 22.089,-34.557 48.158,-49.525 0,-0 0,-0 0,-0 0,-0 0,-0 0,-0 5.706,-3.257 14.183,-5.12 24.57,-5.676 z"
         id="path47"
         inkscape:connector-curvature="0" />
      <path
         class="fil0 str0"
         d="m13152 21854c0 29-24 53-53 53s-53-24-53-53 24-53 53-53 53 24 53 53z"
         id="path49" />
    </g>
  </g>
</svg>
