<?xml version="1.0" encoding="UTF-8" standalone="no"?>
<!-- Created with Inkscape (http://www.inkscape.org/) -->

<svg
   xmlns:dc="http://purl.org/dc/elements/1.1/"
   xmlns:cc="http://creativecommons.org/ns#"
   xmlns:rdf="http://www.w3.org/1999/02/22-rdf-syntax-ns#"
   xmlns:svg="http://www.w3.org/2000/svg"
   xmlns="http://www.w3.org/2000/svg"
   xmlns:sodipodi="http://sodipodi.sourceforge.net/DTD/sodipodi-0.dtd"
   xmlns:inkscape="http://www.inkscape.org/namespaces/inkscape"
   width="7.6668mm"
   height="6.1103mm"
   version="1.1"
   viewBox="0 0 4.6001 3.6662"
   id="svg112"
   sodipodi:docname="crustaceos.svg"
   inkscape:version="0.92.5 (2060ec1f9f, 2020-04-08)">
  <defs
     id="defs116" />
  <sodipodi:namedview
     pagecolor="#ffffff"
     bordercolor="#666666"
     borderopacity="1"
     objecttolerance="10"
     gridtolerance="10"
     guidetolerance="10"
     inkscape:pageopacity="0"
     inkscape:pageshadow="2"
     inkscape:window-width="1366"
     inkscape:window-height="745"
     id="namedview114"
     showgrid="false"
     inkscape:zoom="24.941492"
     inkscape:cx="14.488441"
     inkscape:cy="11.547024"
     inkscape:window-x="-8"
     inkscape:window-y="-8"
     inkscape:window-maximized="1"
     inkscape:current-layer="svg112" />
  <metadata
     id="metadata79">
    <rdf:RDF>
      <cc:Work
         rdf:about="">
        <dc:format>image/svg+xml</dc:format>
        <dc:type
           rdf:resource="http://purl.org/dc/dcmitype/StillImage" />
        <dc:title></dc:title>
      </cc:Work>
    </rdf:RDF>
  </metadata>
  <g
     transform="translate(-45.833 -76.765)"
     id="g110">
    <g
       id="Crustáceo"
       transform="matrix(.006 0 0 .006 9.445 12.117)"
       clip-rule="evenodd"
       fill-rule="evenodd"
       image-rendering="optimizeQuality"
       shape-rendering="geometricPrecision"
       stroke="#000"
       stroke-width="12.7">
      <path
         style="fill:#ffffff;fill-rule:nonzero"
         d="m 6280,11081 -49,-87"
         id="path156" />
      <path
         style="fill:#ffffff;fill-rule:nonzero"
         d="m 6231,10994 13,-57"
         id="path154" />
      <path
         style="fill:#ffffff;fill-rule:nonzero"
         d="m 6244,10937 55,-97"
         id="path152" />
      <path
         style="fill:#ffffff;fill-rule:nonzero"
         d="m 6299,10840 92,-60"
         id="path150" />
      <path
         style="fill:#ffffff;fill-rule:nonzero"
         d="m 6391,10780 -58,79"
         id="path148" />
      <path
         style="fill:#ffffff;fill-rule:nonzero"
         d="m 6333,10859 78,-55"
         id="path146" />
      <path
         style="fill:#ffffff;fill-rule:nonzero"
         d="m 6411,10804 -65,94"
         id="path144" />
      <path
         style="fill:#ffffff;fill-rule:nonzero"
         d="m 6346,10898 -44,54"
         id="path142" />
      <path
         style="fill:#ffffff;fill-rule:nonzero"
         d="m 6302,10952 -4,43"
         id="path140" />
      <path
         style="fill:#ffffff;fill-rule:nonzero"
         d="m 6298,10995 20,38"
         id="path138" />
      <path
         style="fill:#ffffff;fill-rule:nonzero"
         d="m 6318,11033 c 0,0 -12,10 -21,22"
         id="path136" />
      <path
         style="fill:#ffffff;fill-rule:nonzero"
         d="m 6297,11055 -1,-1 c -13,17 -16,27 -16,27"
         id="path81" />
      <path
         style="fill:#ffffff;fill-rule:nonzero"
         d="m 6616,11082 49,-87"
         id="path180" />
      <path
         style="fill:#ffffff;fill-rule:nonzero"
         d="m 6665,10995 -13,-57"
         id="path178" />
      <path
         style="fill:#ffffff;fill-rule:nonzero"
         d="m 6652,10938 -55,-97"
         id="path176" />
      <path
         style="fill:#ffffff;fill-rule:nonzero"
         d="m 6597,10841 -92,-60"
         id="path174" />
      <path
         style="fill:#ffffff;fill-rule:nonzero"
         d="m 6505,10781 58,79"
         id="path172" />
      <path
         style="fill:#ffffff;fill-rule:nonzero"
         d="m 6563,10860 -78,-55"
         id="path170" />
      <path
         style="fill:#ffffff;fill-rule:nonzero"
         d="m 6485,10805 65,94"
         id="path168" />
      <path
         style="fill:#ffffff;fill-rule:nonzero"
         d="m 6550,10899 44,54"
         id="path166" />
      <path
         style="fill:#ffffff;fill-rule:nonzero"
         d="m 6594,10953 4,43"
         id="path164" />
      <path
         style="fill:#ffffff;fill-rule:nonzero"
         d="m 6598,10996 -20,38"
         id="path162" />
      <path
         style="fill:#ffffff;fill-rule:nonzero"
         d="m 6578,11034 c 0,0 12,10 21,21"
         id="path160" />
      <path
         style="fill:#ffffff;fill-rule:nonzero"
         d="m 6599,11055 1,-1 c 13,17 16,28 16,28"
         id="path83" />
      <path
         style="fill:none"
         d="m 6299,10840 33,18 13,39"
         id="polyline85" />
      <g
         fill="#fff"
         fill-rule="nonzero"
         id="g95">
        <path
           d="m 6448,11235 c 21,0 62,-1 92,-31"
           id="path132" />
        <path
           d="m 6540,11204 c 30,-30 35,-78 75,-101"
           id="path130" />
        <path
           d="m 6615,11103 c 23,-13 -47,-122 -167,-122"
           id="path128" />
        <path
           d="m 6448,10981 c -121,0 -190,108 -167,122"
           id="path126" />
        <path
           d="m 6281,11103 c 40,23 45,72 75,101"
           id="path124" />
        <path
           d="m 6356,11204 c 30,30 71,31 92,31"
           id="path87" />
        <path
           class="fil0 str0"
           d="m6320 11147s-6-10-12-19c-6-8-12-14-12-14l-70-25-59-60-4-152-13 153 70 80z"
           id="path89" />
        <path
           style=""
           d="m 6202,11138 137,44 -13,-23 -119,-41 -71,-7 -61,46 -4,67 17,-55 53,-38 z"
           id="polygon91" />
        <path
           class="fil0 str0"
           d="m6354 11203s-6-6-9-11c-4-5-7-11-7-11l-99-7-64 20-52 43-18 81 33-68 50-32 61-21z"
           id="path93" />
      </g>
      <path
         style="fill:none"
         d="m 6597,10840 -33,18 -13,39"
         id="polyline97" />
      <g
         fill="#fff"
         fill-rule="nonzero"
         id="g107">
        <path
           class="fil0 str0"
           d="m6576 11147s5-10 12-19c6-8 12-14 12-14l70-25 59-60 4-152 13 153-70 80z"
           id="path99" />
        <path
           style=""
           d="m 6694,11138 -137,44 13,-23 119,-41 71,-7 61,46 4,67 -17,-55 -53,-38 z"
           id="polygon101" />
        <path
           class="fil0 str0"
           d="m6542 11203s6-6 9-11c4-5 7-11 7-11l99-7 64 20 52 43 18 81-33-68-50-32-61-21z"
           id="path103" />
        <path
           class="fil0 str0"
           d="m6542 11203 17 16 76 33 52 47 22 40-56 34 11-62-50-22-65-43-101-5-101 5-65 43-50 22 11 62-56-34 22-40 52-47 76-33 17-16 7 6c29 25 67 26 87 26s58-1 87-26l6-6z"
           id="path105" />
      </g>
    </g>
  </g>
</svg>
