<?xml version="1.0" encoding="UTF-8" standalone="no"?>
<!-- Created with Inkscape (http://www.inkscape.org/) -->

<svg
   xmlns:dc="http://purl.org/dc/elements/1.1/"
   xmlns:cc="http://creativecommons.org/ns#"
   xmlns:rdf="http://www.w3.org/1999/02/22-rdf-syntax-ns#"
   xmlns:svg="http://www.w3.org/2000/svg"
   xmlns="http://www.w3.org/2000/svg"
   xmlns:sodipodi="http://sodipodi.sourceforge.net/DTD/sodipodi-0.dtd"
   xmlns:inkscape="http://www.inkscape.org/namespaces/inkscape"
   width="6.387mm"
   height="6.387mm"
   version="1.1"
   viewBox="0 0 3.8322 3.8322"
   id="svg53"
   sodipodi:docname="corais.svg"
   inkscape:version="0.92.5 (2060ec1f9f, 2020-04-08)">
  <defs
     id="defs57" />
  <sodipodi:namedview
     pagecolor="#ffffff"
     bordercolor="#666666"
     borderopacity="1"
     objecttolerance="10"
     gridtolerance="10"
     guidetolerance="10"
     inkscape:pageopacity="0"
     inkscape:pageshadow="2"
     inkscape:window-width="1366"
     inkscape:window-height="745"
     id="namedview55"
     showgrid="false"
     inkscape:zoom="23.860967"
     inkscape:cx="12.069921"
     inkscape:cy="12.069921"
     inkscape:window-x="-8"
     inkscape:window-y="-8"
     inkscape:window-maximized="1"
     inkscape:current-layer="svg53" />
  <metadata
     id="metadata44">
    <rdf:RDF>
      <cc:Work
         rdf:about="">
        <dc:format>image/svg+xml</dc:format>
        <dc:type
           rdf:resource="http://purl.org/dc/dcmitype/StillImage" />
        <dc:title></dc:title>
      </cc:Work>
    </rdf:RDF>
  </metadata>
  <g
     transform="translate(-45.395 -75.652)"
     id="g51">
    <g
       id="Corais"
       transform="matrix(.006 0 0 .006 8.6711 -27.606)"
       clip-rule="evenodd"
       fill-rule="evenodd"
       image-rendering="optimizeQuality"
       shape-rendering="geometricPrecision"
       stroke="#000"
       stroke-width="12.7">
      <path
         style="fill:#ffffff;fill-rule:nonzero"
         d="m 6753,17529 c 0,173 -140,313 -313,313"
         id="path65" />
      <path
         style="fill:#ffffff;fill-rule:nonzero"
         d="m 6440,17842 c -173,0 -313,-140 -313,-313"
         id="path63" />
      <path
         style="fill:#ffffff;fill-rule:nonzero"
         d="m 6127,17529 c 0,-173 140,-313 313,-313"
         id="path61" />
      <path
         style="fill:#ffffff;fill-rule:nonzero"
         d="m 6440,17216 c 173,0 313,140 313,313"
         id="path46" />
      <path
         class="fil1 str0"
         d="m6435 17217v153m0 318v153m89-223 131 131m-441-441 131 131m401 89h-153m-317 0h-153m401-89 131-131m-441 441 131-131"
         fill="none"
         id="path48" />
    </g>
  </g>
</svg>
