<?xml version="1.0" encoding="UTF-8" standalone="no"?>
<!-- Created with Inkscape (http://www.inkscape.org/) -->

<svg
   xmlns:dc="http://purl.org/dc/elements/1.1/"
   xmlns:cc="http://creativecommons.org/ns#"
   xmlns:rdf="http://www.w3.org/1999/02/22-rdf-syntax-ns#"
   xmlns:svg="http://www.w3.org/2000/svg"
   xmlns="http://www.w3.org/2000/svg"
   xmlns:sodipodi="http://sodipodi.sourceforge.net/DTD/sodipodi-0.dtd"
   xmlns:inkscape="http://www.inkscape.org/namespaces/inkscape"
   width="6.4542mm"
   height="5.964mm"
   version="1.1"
   viewBox="0 0 3.8725 3.5784"
   id="svg444"
   sodipodi:docname="esponjas.svg"
   inkscape:version="0.92.5 (2060ec1f9f, 2020-04-08)">
  <defs
     id="defs448" />
  <sodipodi:namedview
     pagecolor="#ffffff"
     bordercolor="#666666"
     borderopacity="1"
     objecttolerance="10"
     gridtolerance="10"
     guidetolerance="10"
     inkscape:pageopacity="0"
     inkscape:pageshadow="2"
     inkscape:window-width="1366"
     inkscape:window-height="745"
     id="namedview446"
     showgrid="false"
     inkscape:zoom="25.553319"
     inkscape:cx="12.196913"
     inkscape:cy="11.270552"
     inkscape:window-x="-8"
     inkscape:window-y="-8"
     inkscape:window-maximized="1"
     inkscape:current-layer="svg444" />
  <metadata
     id="metadata285">
    <rdf:RDF>
      <cc:Work
         rdf:about="">
        <dc:format>image/svg+xml</dc:format>
        <dc:type
           rdf:resource="http://purl.org/dc/dcmitype/StillImage" />
        <dc:title></dc:title>
      </cc:Work>
    </rdf:RDF>
  </metadata>
  <g
     transform="translate(-46.425 -76.325)"
     id="g442">
    <g
       id="Esponjas"
       transform="matrix(.006 0 0 .006 -30.508 30.931)"
       clip-rule="evenodd"
       image-rendering="optimizeQuality"
       shape-rendering="geometricPrecision">
      <path
         style="fill:#ffffff;stroke:#000000;stroke-width:12.69999981"
         d="m 12973,8130 c -8,8 99,-1 113,8"
         id="path512" />
      <path
         style="fill:#ffffff;stroke:#000000;stroke-width:12.69999981"
         d="m 13086,8138 c 14,10 55,28 92,10"
         id="path510" />
      <path
         style="fill:#ffffff;stroke:#000000;stroke-width:12.69999981"
         d="m 13178,8148 c 37,-19 113,28 81,-4"
         id="path508" />
      <path
         style="fill:#ffffff;stroke:#000000;stroke-width:12.69999981"
         d="m 13259,8144 c -32,-32 92,19 24,-22"
         id="path506" />
      <path
         style="fill:#ffffff;stroke:#000000;stroke-width:12.69999981"
         d="m 13283,8122 c -69,-40 -68,-28 -82,-30"
         id="path504" />
      <path
         style="fill:#ffffff;stroke:#000000;stroke-width:12.69999981"
         d="m 13201,8092 c -14,-2 -34,-7 -15,-25"
         id="path502" />
      <path
         style="fill:#ffffff;stroke:#000000;stroke-width:12.69999981"
         d="m 13186,8067 c 19,-19 55,-94 95,-111"
         id="path500" />
      <path
         style="fill:#ffffff;stroke:#000000;stroke-width:12.69999981"
         d="m 13281,7956 c 40,-17 37,-54 69,-85"
         id="path498" />
      <path
         style="fill:#ffffff;stroke:#000000;stroke-width:12.69999981"
         d="m 13350,7871 c 32,-32 69,-82 80,-113"
         id="path496" />
      <path
         style="fill:#ffffff;stroke:#000000;stroke-width:12.69999981"
         d="m 13430,7758 c 11,-31 39,-116 29,-140"
         id="path494" />
      <path
         style="fill:#ffffff;stroke:#000000;stroke-width:12.69999981"
         d="m 13459,7618 c -10,-24 -38,-47 -58,-46"
         id="path492" />
      <path
         style="fill:#ffffff;stroke:#000000;stroke-width:12.69999981"
         d="m 13401,7572 c -21,1 -57,22 -81,89"
         id="path490" />
      <path
         style="fill:#ffffff;stroke:#000000;stroke-width:12.69999981"
         d="m 13320,7661 c -24,68 -83,90 -90,174"
         id="path488" />
      <path
         style="fill:#ffffff;stroke:#000000;stroke-width:12.69999981"
         d="m 13230,7835 c -8,84 -29,28 -42,90"
         id="path486" />
      <path
         style="fill:#ffffff;stroke:#000000;stroke-width:12.69999981"
         d="m 13188,7925 c -13,62 -45,44 -42,14"
         id="path484" />
      <path
         style="fill:#ffffff;stroke:#000000;stroke-width:12.69999981"
         d="m 13146,7939 c 3,-30 9,-131 33,-180"
         id="path482" />
      <path
         style="fill:#ffffff;stroke:#000000;stroke-width:12.69999981"
         d="m 13179,7759 c 23,-49 38,-129 16,-150"
         id="path480" />
      <path
         style="fill:#ffffff;stroke:#000000;stroke-width:12.69999981"
         d="m 13195,7609 c -22,-22 -70,-46 -90,16"
         id="path478" />
      <path
         style="fill:#ffffff;stroke:#000000;stroke-width:12.69999981"
         d="m 13105,7625 c -20,62 -65,113 -58,149"
         id="path476" />
      <path
         style="fill:#ffffff;stroke:#000000;stroke-width:12.69999981"
         d="m 13047,7774 c 7,37 -44,82 -6,140"
         id="path474" />
      <path
         style="fill:#ffffff;stroke:#000000;stroke-width:12.69999981"
         d="m 13041,7914 c 38,58 -7,38 21,76"
         id="path472" />
      <path
         style="fill:#ffffff;stroke:#000000;stroke-width:12.69999981"
         d="m 13062,7990 c 27,39 -6,48 -21,13"
         id="path470" />
      <path
         style="fill:#ffffff;stroke:#000000;stroke-width:12.69999981"
         d="m 13041,8003 c -15,-35 -56,-79 -63,-133"
         id="path468" />
      <path
         style="fill:#ffffff;stroke:#000000;stroke-width:12.69999981"
         d="m 12978,7870 c -7,-54 -16,-113 -15,-137"
         id="path466" />
      <path
         style="fill:#ffffff;stroke:#000000;stroke-width:12.69999981"
         d="m 12963,7733 c 1,-24 -42,-47 -43,2"
         id="path464" />
      <path
         style="fill:#ffffff;stroke:#000000;stroke-width:12.69999981"
         d="m 12920,7735 c -1,49 27,99 1,117"
         id="path462" />
      <path
         style="fill:#ffffff;stroke:#000000;stroke-width:12.69999981"
         d="m 12921,7852 c -26,18 -48,-28 -76,-5"
         id="path460" />
      <path
         style="fill:#ffffff;stroke:#000000;stroke-width:12.69999981"
         d="m 12845,7847 c -28,24 -17,79 8,85"
         id="path458" />
      <path
         style="fill:#ffffff;stroke:#000000;stroke-width:12.69999981"
         d="m 12853,7932 c 25,7 55,15 69,55"
         id="path456" />
      <path
         style="fill:#ffffff;stroke:#000000;stroke-width:12.69999981"
         d="m 12922,7987 c 14,39 53,64 69,90"
         id="path454" />
      <path
         style="fill:#ffffff;stroke:#000000;stroke-width:12.69999981"
         d="m 12991,8077 c 16,26 42,35 42,35"
         id="path452" />
      <path
         style="fill:#ffffff;stroke:#000000;stroke-width:12.69999981"
         d="m 13033,8112 h -2 c 0,0 -51,11 -58,18"
         id="path287" />
      <g
         id="g297">
        <path
           class="fil2"
           d="m13382 7582c-17 17 51 62 66 38s-54-50-66-38z"
           id="path289" />
        <path
           class="fil2"
           d="m13124 7611c-3 22 59 50 69 22 9-27-64-54-69-22z"
           id="path291" />
        <path
           class="fil2"
           d="m12926 7722c-1 12 28 16 29 4s-27-22-29-4z"
           id="path293" />
        <path
           class="fil2"
           d="m12838 7909c14 6 27-51 15-57-10-5-34 48-15 57z"
           id="path295" />
      </g>
      <g
         fill="#373435"
         id="g439">
        <path
           class="fil3"
           d="m13078 8082c6 5 8 12 5 15s-9 1-15-5c-6-5-8-12-5-15s9 0 15 5z"
           id="path299" />
        <path
           class="fil3"
           d="m13029 8047c6 6 8 12 5 15s-9 1-15-5c-5-6-8-12-5-15s10-1 15 5z"
           id="path301" />
        <path
           class="fil3"
           d="m13022 8009c6 5 8 12 5 15s-9 1-15-5c-6-5-8-12-5-15s9-1 15 5z"
           id="path303" />
        <path
           class="fil3"
           d="m13041 8082c6 6 8 12 5 15s-9 1-15-5c-5-5-8-12-5-15s9-1 15 5z"
           id="path305" />
        <path
           class="fil3"
           d="m12962 7997c5 6 8 12 5 15s-10 1-15-5-8-12-5-15 10 0 15 5z"
           id="path307" />
        <path
           class="fil3"
           d="m12992 8025c6 5 8 12 5 15s-9 0-15-5c-6-6-8-12-5-15s9-1 15 5z"
           id="path309" />
        <path
           class="fil3"
           d="m13066 8042c6 5 8 12 5 15s-9 1-15-5-8-12-5-15 9-1 15 5z"
           id="path311" />
        <path
           class="fil3"
           d="m12956 7866c1 8-2 15-5 15-4 0-8-6-9-13-1-8 1-14 5-15 4 0 8 6 9 13z"
           id="path313" />
        <path
           class="fil3"
           d="m13135 8074c1 8-1 14-5 15-4 0-8-6-9-13-1-8 2-15 6-15 4-1 8 5 8 13z"
           id="path315" />
        <path
           class="fil3"
           d="m12949 7762c1 8-2 14-6 15-4 0-8-6-9-13-1-8 2-14 5-15 4 0 8 6 9 13z"
           id="path317" />
        <path
           class="fil3"
           d="m12949 7924c3 7 3 14-1 16s-9-3-12-10-3-14 1-16 9 3 12 10z"
           id="path319" />
        <path
           class="fil3"
           d="m12971 7920c3 7 3 14-1 16-3 2-9-3-12-10s-3-14 1-16c3-2 9 3 12 10z"
           id="path321" />
        <path
           class="fil3"
           d="m13002 7979c3 7 3 14-1 16s-9-3-12-10-3-14 1-16c4-1 9 3 12 10z"
           id="path323" />
        <path
           class="fil3"
           d="m12975 7971c3 7 3 14-1 16-4 1-9-3-12-10s-3-14 1-16 9 3 12 10z"
           id="path325" />
        <path
           class="fil3"
           d="m12933 7882c3 7 2 14-1 16-4 2-9-3-12-10s-3-14 1-16 9 3 12 10z"
           id="path327" />
        <path
           class="fil3"
           d="m12883 7869c5 5 8 12 5 15s-10 0-15-5c-6-6-8-12-5-15s9 0 15 5z"
           id="path329" />
        <path
           class="fil3"
           d="m12908 7907c6 5 8 12 5 15s-10 0-15-5c-5-6-8-12-5-15s9-1 15 5z"
           id="path331" />
        <path
           class="fil3"
           d="m12936 7951c5 5 8 12 5 15s-9 1-15-5c-6-5-8-12-5-15s9-1 15 5z"
           id="path333" />
        <path
           class="fil3"
           d="m12872 7906c6 6 8 12 5 15s-10 1-15-5-8-12-5-15 10-1 15 5z"
           id="path335" />
        <path
           class="fil3"
           d="m13130 8024c0 8-3 14-7 14s-7-6-7-14 3-14 7-14 7 6 7 14z"
           id="path337" />
        <path
           class="fil3"
           d="m12956 7821c0 8-3 14-7 14s-7-6-7-14 3-14 7-14 7 6 7 14z"
           id="path339" />
        <path
           class="fil3"
           d="m13128 7655c-3 7-8 12-12 11-4-2-4-9-1-16s8-12 11-11c4 1 5 8 2 16z"
           id="path341" />
        <path
           class="fil3"
           d="m13429 7651c-3 7-8 12-12 11-4-2-4-8-2-16 3-7 8-12 12-11s4 8 2 16z"
           id="path343" />
        <path
           class="fil3"
           d="m13374 7633c-3 7-8 12-12 11s-4-8-2-16c3-7 8-12 11-11 4 1 5 9 2 16z"
           id="path345" />
        <path
           class="fil3"
           d="m13352 7672c-3 8-8 12-12 11-4-2-5-9-2-16s8-12 12-11c4 2 4 9 2 16z"
           id="path347" />
        <path
           class="fil3"
           d="m13393 7660c-3 7-8 12-12 11-4-2-4-8-2-16 3-7 8-12 12-11 4 2 5 8 2 16z"
           id="path349" />
        <path
           class="fil3"
           d="m13427 7691c-3 8-8 12-12 11s-4-8-2-16c3-7 8-12 12-11s4 8 2 15z"
           id="path351" />
        <path
           class="fil3"
           d="m13355 7711c-3 8-8 12-12 11s-4-8-1-16c3-7 8-12 11-11 4 1 4 8 2 15z"
           id="path353" />
        <path
           class="fil3"
           d="m13401 7720c-3 7-8 12-12 11s-4-8-2-15c3-7 8-12 11-11 4 1 5 8 2 16z"
           id="path355" />
        <path
           class="fil3"
           d="m13302 7791c-3 7-8 12-12 11s-4-9-2-16c3-7 8-12 12-11 4 2 4 9 2 16z"
           id="path357" />
        <path
           class="fil3"
           d="m13315 7744c-3 7-8 12-12 11-4-2-4-8-2-16 3-7 8-12 12-11s5 8 2 15z"
           id="path359" />
        <path
           class="fil3"
           d="m13200 7974c-3 7-8 12-12 11-4-2-4-9-1-16s8-12 11-11c4 1 4 8 2 16z"
           id="path361" />
        <path
           class="fil3"
           d="m13372 7811c-3 7-8 12-11 11-4-2-4-9-2-16 3-7 8-12 12-11 4 2 4 9 2 16z"
           id="path363" />
        <path
           class="fil3"
           d="m13219 7926c-3 7-8 12-12 11-4-2-4-9-1-16s8-12 11-11c4 1 4 9 2 16z"
           id="path365" />
        <path
           class="fil3"
           d="m13290 7872c-3 7-8 12-12 11-4-2-4-8-2-16 3-7 8-12 12-11s4 8 2 16z"
           id="path367" />
        <path
           class="fil3"
           d="m13335 7851c-5 6-12 9-15 6-3-2-1-9 4-15s12-9 15-6 1 10-4 15z"
           id="path369" />
        <path
           class="fil3"
           d="m13236 7962c-5 6-12 9-14 6-3-2-1-9 4-15s11-9 14-6c3 2 1 9-4 15z"
           id="path371" />
        <path
           class="fil3"
           d="m13287 7923c-5 6-11 9-14 6s-1-9 4-15 12-9 15-6 1 9-4 15z"
           id="path373" />
        <path
           class="fil3"
           d="m13267 7811c-1 8-6 13-10 12s-6-8-4-15c2-8 6-13 10-13 4 1 6 8 4 15z"
           id="path375" />
        <path
           class="fil3"
           d="m13163 8046c-2 8-6 13-10 12s-6-8-4-15c2-8 6-13 10-12s6 8 4 15z"
           id="path377" />
        <path
           class="fil3"
           d="m13191 8017c-1 8-6 13-10 12s-6-7-4-15 6-13 10-12 6 8 4 15z"
           id="path379" />
        <path
           class="fil3"
           d="m13299 7833c-3 7-8 12-12 11s-4-8-2-16c3-7 8-12 11-11 4 1 5 8 2 16z"
           id="path381" />
        <path
           class="fil3"
           d="m13405 7766c-3 7-8 12-12 11s-4-9-1-16c2-7 8-12 12-11s4 8 2 16z"
           id="path383" />
        <path
           class="fil3"
           d="m13255 7911c-3 7-8 12-12 11-3-1-4-8-1-16 3-7 8-12 12-11 3 2 4 9 1 16z"
           id="path385" />
        <path
           class="fil3"
           d="m13126 7738c-3 7-8 12-12 11s-4-8-2-16c3-7 8-12 12-11s5 8 2 16z"
           id="path387" />
        <path
           class="fil3"
           d="m13370 7751c-3 7-8 12-12 11s-4-8-2-16c3-7 8-12 12-10 4 1 4 8 2 16z"
           id="path389" />
        <path
           class="fil3"
           d="m13337 7794c-3 7-8 12-12 11s-4-9-1-16c2-7 8-12 12-11 4 2 4 9 2 16z"
           id="path391" />
        <path
           class="fil3"
           d="m13109 7781c-3 7-8 12-11 11-4-1-4-8-2-16 3-7 8-12 12-11 3 2 4 8 1 16z"
           id="path393" />
        <path
           class="fil3"
           d="m13076 7801c-3 7-8 12-12 11s-4-8-2-16c3-7 8-12 12-11s5 8 2 16z"
           id="path395" />
        <path
           class="fil3"
           d="m13161 8093c-3 7-8 12-12 11s-4-8-2-16c3-7 8-12 12-11s4 8 2 16z"
           id="path397" />
        <path
           class="fil3"
           d="m13078 7753c-3 7-8 12-11 11-4-1-4-8-2-16 3-7 8-12 12-11s4 8 1 16z"
           id="path399" />
        <path
           class="fil3"
           d="m13165 7720c-3 7-8 12-11 11-4-1-4-8-2-16 3-7 8-12 12-11s4 8 2 16z"
           id="path401" />
        <path
           class="fil3"
           d="m13152 7765c-3 7-8 12-12 11s-4-8-2-16c3-7 8-12 12-11s4 8 2 16z"
           id="path403" />
        <path
           class="fil3"
           d="m13061 7850c-1 8-4 14-9 13-4 0-6-7-5-15s5-14 8-13c4 0 6 7 6 15z"
           id="path405" />
        <path
           class="fil3"
           d="m13103 7886c-1 8-5 14-8 13-4 0-6-7-5-15s5-14 8-13c4 0 7 7 6 15z"
           id="path407" />
        <path
           class="fil3"
           d="m13100 7837c-1 8-4 14-8 13-4 0-6-7-6-15 1-8 5-14 9-13 4 0 6 7 5 15z"
           id="path409" />
        <path
           class="fil3"
           d="m13133 7812c-1 8-5 14-8 13-4 0-6-7-6-15 1-8 4-14 8-13 4 0 6 7 5 15z"
           id="path411" />
        <path
           class="fil3"
           d="m13152 8004c-1 8-5 14-8 13-4 0-6-7-5-15s5-14 8-13c4 0 6 7 5 15z"
           id="path413" />
        <path
           class="fil3"
           d="m13131 7862c-1 8-5 14-9 13s-6-7-6-15c1-8 5-14 9-13 4 0 6 7 6 15z"
           id="path415" />
        <path
           class="fil3"
           d="m13124 7980c-1 8-5 14-8 13-4 0-7-7-6-15s5-14 9-13c4 0 6 7 6 15z"
           id="path417" />
        <path
           class="fil3"
           d="m13127 7919c-1 8-5 14-8 13-4 0-6-7-5-15s5-14 8-13c4 0 7 7 5 15z"
           id="path419" />
        <path
           class="fil3"
           d="m13257 7865c-1 8-5 14-8 13-4 0-6-7-6-15 1-8 5-14 9-13 4 0 6 7 5 15z"
           id="path421" />
        <path
           class="fil3"
           d="m13091 7934c2 8 1 15-3 16s-9-4-11-12-1-15 3-16 9 4 11 11z"
           id="path423" />
        <path
           class="fil3"
           d="m13069 7894c2 7 1 14-3 16-4 1-9-4-11-11-2-8-1-14 2-16 4-1 9 4 11 11z"
           id="path425" />
        <path
           class="fil3"
           d="m13092 7986c2 8 1 14-3 15s-9-4-11-11c-2-8-1-15 3-16s9 4 11 11z"
           id="path427" />
        <path
           class="fil3"
           d="m13113 8085c2 8 1 14-3 16-4 1-9-4-11-11-2-8-1-14 3-16 4-1 9 4 11 11z"
           id="path429" />
        <path
           class="fil3"
           d="m13103 8036c3 8 1 14-2 16-4 1-9-4-11-11-3-7-1-14 2-16 4-1 9 4 11 11z"
           id="path431" />
        <path
           class="fil3"
           d="m13146 7687c-3 7-8 12-11 11-4-1-5-8-2-16 3-7 8-12 12-11s4 8 1 16z"
           id="path433" />
        <path
           class="fil3"
           d="m13105 7708c-3 7-8 12-12 11s-4-8-2-16c3-7 8-12 12-11s5 8 2 16z"
           id="path435" />
        <path
           class="fil3"
           d="m13184 7671c0 8-3 14-7 14s-7-6-7-14 3-14 7-14 7 6 7 14z"
           id="path437" />
      </g>
    </g>
  </g>
</svg>
