<?xml version="1.0" encoding="UTF-8" standalone="no"?>
<!-- Created with Inkscape (http://www.inkscape.org/) -->

<svg
   xmlns:dc="http://purl.org/dc/elements/1.1/"
   xmlns:cc="http://creativecommons.org/ns#"
   xmlns:rdf="http://www.w3.org/1999/02/22-rdf-syntax-ns#"
   xmlns:svg="http://www.w3.org/2000/svg"
   xmlns="http://www.w3.org/2000/svg"
   xmlns:sodipodi="http://sodipodi.sourceforge.net/DTD/sodipodi-0.dtd"
   xmlns:inkscape="http://www.inkscape.org/namespaces/inkscape"
   width="6.307mm"
   height="6.307mm"
   version="1.1"
   viewBox="0 0 3.7842 3.7842"
   id="svg148"
   sodipodi:docname="equinoides.svg"
   inkscape:version="0.92.5 (2060ec1f9f, 2020-04-08)">
  <defs
     id="defs152" />
  <sodipodi:namedview
     pagecolor="#ffffff"
     bordercolor="#666666"
     borderopacity="1"
     objecttolerance="10"
     gridtolerance="10"
     guidetolerance="10"
     inkscape:pageopacity="0"
     inkscape:pageshadow="2"
     inkscape:window-width="1366"
     inkscape:window-height="745"
     id="namedview150"
     showgrid="false"
     inkscape:zoom="24.163627"
     inkscape:cx="11.91874"
     inkscape:cy="11.91874"
     inkscape:window-x="-8"
     inkscape:window-y="-8"
     inkscape:window-maximized="1"
     inkscape:current-layer="svg148" />
  <metadata
     id="metadata139">
    <rdf:RDF>
      <cc:Work
         rdf:about="">
        <dc:format>image/svg+xml</dc:format>
        <dc:type
           rdf:resource="http://purl.org/dc/dcmitype/StillImage" />
        <dc:title></dc:title>
      </cc:Work>
    </rdf:RDF>
  </metadata>
  <g
     transform="translate(-45.661 -76.554)"
     id="g146">
    <g
       id="Equinóides"
       transform="matrix(.006 0 0 .006 9.0334 -52.702)"
       clip-rule="evenodd"
       fill-rule="evenodd"
       image-rendering="optimizeQuality"
       shape-rendering="geometricPrecision"
       stroke="#000"
       stroke-width="12.7">
      <path
         style="fill:#ffffff;fill-rule:nonzero"
         d="m 6729,21858 c 0,171 -138,309 -309,309"
         id="path160" />
      <path
         style="fill:#ffffff;fill-rule:nonzero"
         d="m 6420,22167 c -171,0 -309,-138 -309,-309"
         id="path158" />
      <path
         style="fill:#ffffff;fill-rule:nonzero"
         d="m 6111,21858 c 0,-170 138,-309 309,-309"
         id="path156" />
      <path
         style="fill:#ffffff;fill-rule:nonzero"
         d="m 6420,21549 c 171,0 309,138 309,309"
         id="path141" />
      <path
         class="fil1 str0"
         d="m6429 21840s73-145 17-191m-33 191s-73-145-17-191m-2 258s-154 51-147 123m158-111s-51 154-123 147m158-149s51 154 123 147m-112-159s154 51 147 123m-126-156s145 73 191 17m-191-33s145-73 191-16m-293 33s-145 73-191 17m191-33s-145-73-191-16"
         fill="none"
         id="path143" />
    </g>
  </g>
</svg>
