<?xml version="1.0" encoding="UTF-8" standalone="no"?>
<!-- Created with Inkscape (http://www.inkscape.org/) -->

<svg
   xmlns:dc="http://purl.org/dc/elements/1.1/"
   xmlns:cc="http://creativecommons.org/ns#"
   xmlns:rdf="http://www.w3.org/1999/02/22-rdf-syntax-ns#"
   xmlns:svg="http://www.w3.org/2000/svg"
   xmlns="http://www.w3.org/2000/svg"
   xmlns:sodipodi="http://sodipodi.sourceforge.net/DTD/sodipodi-0.dtd"
   xmlns:inkscape="http://www.inkscape.org/namespaces/inkscape"
   width="3.6197mm"
   height="6.3647mm"
   version="1.1"
   viewBox="0 0 2.1718 3.8188"
   id="svg57"
   sodipodi:docname="coprolitos.svg"
   inkscape:version="0.92.5 (2060ec1f9f, 2020-04-08)">
  <defs
     id="defs61" />
  <sodipodi:namedview
     pagecolor="#ffffff"
     bordercolor="#666666"
     borderopacity="1"
     objecttolerance="10"
     gridtolerance="10"
     guidetolerance="10"
     inkscape:pageopacity="0"
     inkscape:pageshadow="2"
     inkscape:window-width="1366"
     inkscape:window-height="745"
     id="namedview59"
     showgrid="false"
     inkscape:zoom="23.94457"
     inkscape:cx="6.8403779"
     inkscape:cy="12.027779"
     inkscape:window-x="-8"
     inkscape:window-y="-8"
     inkscape:window-maximized="1"
     inkscape:current-layer="svg57" />
  <metadata
     id="metadata44">
    <rdf:RDF>
      <cc:Work
         rdf:about="">
        <dc:format>image/svg+xml</dc:format>
        <dc:type
           rdf:resource="http://purl.org/dc/dcmitype/StillImage" />
        <dc:title></dc:title>
      </cc:Work>
    </rdf:RDF>
  </metadata>
  <g
     transform="translate(-45.707 -77.711)"
     id="g55">
    <g
       id="Coprólitos"
       transform="matrix(.006 0 0 .006 -31.871 -83.696)"
       clip-rule="evenodd"
       fill="#fff"
       image-rendering="optimizeQuality"
       shape-rendering="geometricPrecision"
       stroke="#000"
       stroke-width="12.7">
      <path
         d="m 12943,27405 c 26,48 54,62 114,39"
         id="path107" />
      <path
         d="m 13057,27444 c 59,-22 148,-93 167,-130"
         id="path105" />
      <path
         d="m 13224,27314 c 19,-37 19,-81 19,-81"
         id="path103" />
      <path
         d="m 13243,27233 c 0,0 -52,33 -104,44"
         id="path101" />
      <path
         d="m 13139,27277 c -52,11 -122,15 -122,15"
         id="path99" />
      <path
         d="m 13017,27292 -1,1 c -48,4 -99,64 -73,112"
         id="path46" />
      <path
         d="m 13243,27234 c 54,-31 48,-67 8,-80"
         id="path95" />
      <path
         d="m 13251,27154 c -84,-26 -64,-36 -64,-36"
         id="path93" />
      <path
         d="m 13187,27118 c 0,0 -59,11 -89,41"
         id="path91" />
      <path
         d="m 13098,27159 c -30,30 -56,52 -107,41"
         id="path89" />
      <path
         d="m 12991,27200 c -52,-11 -44,47 -18,62"
         id="path87" />
      <path
         d="m 12973,27262 c 26,15 44,31 44,31"
         id="path85" />
      <path
         d="m 13017,27293 c 0,0 70,-4 122,-15"
         id="path83" />
      <path
         d="m 13139,27278 c 52,-11 104,-44 104,-44"
         id="path48" />
      <path
         d="m 13197,26982 c -21,-35 -110,-83 -97,-73"
         id="path79" />
      <path
         d="m 13100,26909 c 79,62 45,125 68,140"
         id="path77" />
      <path
         d="m 13168,27049 c 22,15 -91,-20 -132,6"
         id="path75" />
      <path
         d="m 13036,27055 c -41,26 -88,73 -69,144"
         id="path73" />
      <path
         d="m 12967,27199 8,-1"
         id="path71" />
      <path
         d="m 12975,27198 c 5,0 10,0 17,1"
         id="path69" />
      <path
         d="m 12992,27199 c 52,11 78,-11 107,-41"
         id="path67" />
      <path
         d="m 13099,27158 c 30,-30 89,-41 89,-41 h 1"
         id="path65" />
      <path
         d="m 13189,27117 -1,1 c 75,-30 28,-103 9,-136"
         id="path50" />
      <path
         d="m 13224,27315 c 4,-9 7,-17 10,-26"
         id="path121" />
      <path
         d="m 13234,27289 4,-16"
         id="path119" />
      <path
         d="m 13238,27273 c 56,6 40,1 47,57"
         id="path117" />
      <path
         d="m 13285,27330 c 6,55 -93,151 -145,167"
         id="path115" />
      <path
         d="m 13140,27497 c -53,15 -93,58 -142,18"
         id="path113" />
      <path
         d="m 12998,27515 c -49,-40 60,-70 60,-70"
         id="path111" />
      <path
         d="m 13058,27445 h -1 c 59,-22 148,-93 167,-130"
         id="path52" />
    </g>
  </g>
</svg>
