<?xml version="1.0" encoding="UTF-8" standalone="no"?>
<!-- Created with Inkscape (http://www.inkscape.org/) -->

<svg
   xmlns:dc="http://purl.org/dc/elements/1.1/"
   xmlns:cc="http://creativecommons.org/ns#"
   xmlns:rdf="http://www.w3.org/1999/02/22-rdf-syntax-ns#"
   xmlns:svg="http://www.w3.org/2000/svg"
   xmlns="http://www.w3.org/2000/svg"
   xmlns:sodipodi="http://sodipodi.sourceforge.net/DTD/sodipodi-0.dtd"
   xmlns:inkscape="http://www.inkscape.org/namespaces/inkscape"
   width="2.887mm"
   height="6.9437mm"
   version="1.1"
   viewBox="0 0 1.7322 4.1662"
   id="svg38"
   sodipodi:docname="folhas.svg"
   inkscape:version="0.92.5 (2060ec1f9f, 2020-04-08)">
  <defs
     id="defs42" />
  <sodipodi:namedview
     pagecolor="#ffffff"
     bordercolor="#666666"
     borderopacity="1"
     objecttolerance="10"
     gridtolerance="10"
     guidetolerance="10"
     inkscape:pageopacity="0"
     inkscape:pageshadow="2"
     inkscape:window-width="1366"
     inkscape:window-height="745"
     id="namedview40"
     showgrid="false"
     inkscape:zoom="21.947953"
     inkscape:cx="5.4557482"
     inkscape:cy="13.121952"
     inkscape:window-x="-8"
     inkscape:window-y="-8"
     inkscape:window-maximized="1"
     inkscape:current-layer="svg38" />
  <metadata
     id="metadata27">
    <rdf:RDF>
      <cc:Work
         rdf:about="">
        <dc:format>image/svg+xml</dc:format>
        <dc:type
           rdf:resource="http://purl.org/dc/dcmitype/StillImage" />
        <dc:title></dc:title>
      </cc:Work>
    </rdf:RDF>
  </metadata>
  <g
     transform="translate(-46.868 -77.909)"
     id="g36">
    <g
       id="Folhas"
       transform="matrix(.006 0 0 .006 -31.004 -12.461)"
       clip-rule="evenodd"
       fill-rule="evenodd"
       image-rendering="optimizeQuality"
       shape-rendering="geometricPrecision"
       stroke="#000"
       stroke-width="12.7">
      <path
         style="fill:#ffffff;fill-rule:nonzero"
         d="m 13123,15073 c 0,0 138,205 138,315"
         id="path51" />
      <path
         style="fill:#ffffff;fill-rule:nonzero"
         d="m 13261,15388 c 0,110 -73,258 -138,258"
         id="path49" />
      <path
         style="fill:#ffffff;fill-rule:nonzero"
         d="m 13123,15646 c -64,0 -138,-149 -138,-258"
         id="path47" />
      <path
         style="fill:#ffffff;fill-rule:nonzero"
         d="m 12985,15388 c 0,-110 138,-315 138,-315"
         id="path29" />
      <path
         style="fill:none"
         d="m 13123,15130 v 626"
         id="line31" />
      <path
         class="fil1 str0"
         d="m13123 15263c0-26-61-62-61-62m61 234c0-26-114-94-114-94m114 241c0-26-100-85-100-85m99-234c0-26 61-62 61-62m-61 234c0-26 114-94 114-94m-114 241c0-26 100-85 100-85"
         fill="none"
         id="path33" />
    </g>
  </g>
</svg>
