<?xml version="1.0" encoding="UTF-8" standalone="no"?>
<!-- Created with Inkscape (http://www.inkscape.org/) -->

<svg
   xmlns:dc="http://purl.org/dc/elements/1.1/"
   xmlns:cc="http://creativecommons.org/ns#"
   xmlns:rdf="http://www.w3.org/1999/02/22-rdf-syntax-ns#"
   xmlns:svg="http://www.w3.org/2000/svg"
   xmlns="http://www.w3.org/2000/svg"
   xmlns:sodipodi="http://sodipodi.sourceforge.net/DTD/sodipodi-0.dtd"
   xmlns:inkscape="http://www.inkscape.org/namespaces/inkscape"
   width="6.7315mm"
   height="4.49mm"
   version="1.1"
   viewBox="0 0 4.0389 2.694"
   id="svg191"
   sodipodi:docname="estromatolitos.svg"
   inkscape:version="0.92.5 (2060ec1f9f, 2020-04-08)">
  <defs
     id="defs195" />
  <sodipodi:namedview
     pagecolor="#ffffff"
     bordercolor="#666666"
     borderopacity="1"
     objecttolerance="10"
     gridtolerance="10"
     guidetolerance="10"
     inkscape:pageopacity="0"
     inkscape:pageshadow="2"
     inkscape:window-width="1366"
     inkscape:window-height="745"
     id="namedview193"
     showgrid="false"
     inkscape:zoom="33.942095"
     inkscape:cx="12.720945"
     inkscape:cy="8.4850389"
     inkscape:window-x="-8"
     inkscape:window-y="-8"
     inkscape:window-maximized="1"
     inkscape:current-layer="svg191" />
  <metadata
     id="metadata186">
    <rdf:RDF>
      <cc:Work
         rdf:about="">
        <dc:format>image/svg+xml</dc:format>
        <dc:type
           rdf:resource="http://purl.org/dc/dcmitype/StillImage" />
        <dc:title></dc:title>
      </cc:Work>
    </rdf:RDF>
  </metadata>
  <g
     transform="translate(-46.575 -78.903)"
     id="g189">
    <path
       style="color:#000000;font-style:normal;font-variant:normal;font-weight:normal;font-stretch:normal;font-size:medium;line-height:normal;font-family:sans-serif;font-variant-ligatures:normal;font-variant-position:normal;font-variant-caps:normal;font-variant-numeric:normal;font-variant-alternates:normal;font-feature-settings:normal;text-indent:0;text-align:start;text-decoration:none;text-decoration-line:none;text-decoration-style:solid;text-decoration-color:#000000;letter-spacing:normal;word-spacing:normal;text-transform:none;writing-mode:lr-tb;direction:ltr;text-orientation:mixed;dominant-baseline:auto;baseline-shift:baseline;text-anchor:start;white-space:normal;shape-padding:0;clip-rule:evenodd;display:inline;overflow:visible;visibility:visible;opacity:1;isolation:auto;mix-blend-mode:normal;color-interpolation:sRGB;color-interpolation-filters:linearRGB;solid-color:#000000;solid-opacity:1;vector-effect:none;fill:#000000;fill-opacity:1;fill-rule:nonzero;stroke:none;stroke-width:0.0762;stroke-linecap:butt;stroke-linejoin:miter;stroke-miterlimit:4;stroke-dasharray:none;stroke-dashoffset:0;stroke-opacity:1;color-rendering:auto;image-rendering:optimizeQuality;shape-rendering:geometricPrecision;text-rendering:auto;enable-background:accumulate"
       d="m 48.585938,78.902344 c -0.565545,0 -0.977975,0.169258 -1.273438,0.423828 -0.295463,0.25457 -0.474807,0.593566 -0.582031,0.929687 -0.214449,0.672243 -0.144531,1.341797 -0.144531,1.341797 l 0.07422,-0.0078 c 0,0 -0.06597,-0.65679 0.142578,-1.310547 0.104276,-0.326879 0.276932,-0.651852 0.558594,-0.894531 0.281662,-0.24268 0.674154,-0.40625 1.22461,-0.40625 h 0.02344 c 0.548935,0 0.937927,0.163584 1.21875,0.40625 0.280823,0.242665 0.452732,0.567644 0.556641,0.894531 0.207817,0.653773 0.142578,1.310547 0.142578,1.310547 l 0.07617,0.0078 c 0,0 0.06915,-0.66957 -0.144532,-1.341797 -0.106841,-0.336113 -0.285463,-0.675103 -0.580078,-0.929687 -0.294615,-0.254584 -0.705466,-0.423828 -1.269531,-0.423828 z"
       id="path233" />
    <path
       style="color:#000000;font-style:normal;font-variant:normal;font-weight:normal;font-stretch:normal;font-size:medium;line-height:normal;font-family:sans-serif;font-variant-ligatures:normal;font-variant-position:normal;font-variant-caps:normal;font-variant-numeric:normal;font-variant-alternates:normal;font-feature-settings:normal;text-indent:0;text-align:start;text-decoration:none;text-decoration-line:none;text-decoration-style:solid;text-decoration-color:#000000;letter-spacing:normal;word-spacing:normal;text-transform:none;writing-mode:lr-tb;direction:ltr;text-orientation:mixed;dominant-baseline:auto;baseline-shift:baseline;text-anchor:start;white-space:normal;shape-padding:0;clip-rule:evenodd;display:inline;overflow:visible;visibility:visible;opacity:1;isolation:auto;mix-blend-mode:normal;color-interpolation:sRGB;color-interpolation-filters:linearRGB;solid-color:#000000;solid-opacity:1;vector-effect:none;fill:#000000;fill-opacity:1;fill-rule:nonzero;stroke:none;stroke-width:0.0762;stroke-linecap:butt;stroke-linejoin:miter;stroke-miterlimit:4;stroke-dasharray:none;stroke-dashoffset:0;stroke-opacity:1;color-rendering:auto;image-rendering:optimizeQuality;shape-rendering:geometricPrecision;text-rendering:auto;enable-background:accumulate"
       d="m 48.585938,79.568359 c -0.426034,0 -0.73775,0.12818 -0.960938,0.320313 -0.223188,0.192133 -0.358853,0.446339 -0.439453,0.699219 -0.161201,0.505758 -0.109375,1.009765 -0.109375,1.009765 l 0.07617,-0.0078 c 0,0 -0.04983,-0.491275 0.105468,-0.978516 0.07765,-0.243621 0.206641,-0.485773 0.416016,-0.666016 0.209375,-0.180242 0.501143,-0.300781 0.91211,-0.300781 h 0.01758 c 0.410966,0 0.700781,0.120539 0.910156,0.300781 0.209375,0.180243 0.338366,0.422395 0.416016,0.666016 0.155298,0.487241 0.105468,0.978516 0.105468,0.978516 l 0.07617,0.0078 c 0,0 0.05183,-0.504007 -0.109375,-1.009765 -0.0806,-0.25288 -0.214312,-0.507086 -0.4375,-0.699219 -0.223187,-0.192133 -0.534904,-0.320313 -0.960937,-0.320313 z"
       id="path231" />
    <path
       style="color:#000000;font-style:normal;font-variant:normal;font-weight:normal;font-stretch:normal;font-size:medium;line-height:normal;font-family:sans-serif;font-variant-ligatures:normal;font-variant-position:normal;font-variant-caps:normal;font-variant-numeric:normal;font-variant-alternates:normal;font-feature-settings:normal;text-indent:0;text-align:start;text-decoration:none;text-decoration-line:none;text-decoration-style:solid;text-decoration-color:#000000;letter-spacing:normal;word-spacing:normal;text-transform:none;writing-mode:lr-tb;direction:ltr;text-orientation:mixed;dominant-baseline:auto;baseline-shift:baseline;text-anchor:start;white-space:normal;shape-padding:0;clip-rule:evenodd;display:inline;overflow:visible;visibility:visible;opacity:1;isolation:auto;mix-blend-mode:normal;color-interpolation:sRGB;color-interpolation-filters:linearRGB;solid-color:#000000;solid-opacity:1;vector-effect:none;fill:#000000;fill-opacity:1;fill-rule:nonzero;stroke:none;stroke-width:0.0762;stroke-linecap:butt;stroke-linejoin:miter;stroke-miterlimit:4;stroke-dasharray:none;stroke-dashoffset:0;stroke-opacity:1;color-rendering:auto;image-rendering:optimizeQuality;shape-rendering:geometricPrecision;text-rendering:auto;enable-background:accumulate"
       d="m 48.591838,80.210938 c -0.289566,0 -0.503663,0.08678 -0.65625,0.21875 -0.152587,0.131967 -0.244115,0.307852 -0.298828,0.480468 -0.109427,0.345233 -0.07422,0.6875 -0.07422,0.6875 l 0.07617,-0.0078 c 0,0 -0.03326,-0.331436 0.07031,-0.658203 0.05179,-0.163384 0.138556,-0.323327 0.277344,-0.44336 0.138788,-0.120032 0.331035,-0.201172 0.605469,-0.201172 h 0.01172 c 0.274434,0 0.466681,0.08114 0.605468,0.201172 0.138788,0.120033 0.223604,0.279976 0.275391,0.44336 0.103573,0.326767 0.07031,0.658203 0.07031,0.658203 l 0.07617,0.0078 c 0,0 0.03521,-0.342267 -0.07422,-0.6875 -0.05471,-0.172616 -0.146241,-0.348501 -0.298829,-0.480468 -0.152587,-0.131968 -0.36473,-0.21875 -0.654296,-0.21875 z"
       id="Estromatólitos" />
  </g>
</svg>
