<?xml version="1.0" encoding="UTF-8" standalone="no"?>
<!-- Created with Inkscape (http://www.inkscape.org/) -->

<svg
   xmlns:dc="http://purl.org/dc/elements/1.1/"
   xmlns:cc="http://creativecommons.org/ns#"
   xmlns:rdf="http://www.w3.org/1999/02/22-rdf-syntax-ns#"
   xmlns:svg="http://www.w3.org/2000/svg"
   xmlns="http://www.w3.org/2000/svg"
   xmlns:sodipodi="http://sodipodi.sourceforge.net/DTD/sodipodi-0.dtd"
   xmlns:inkscape="http://www.inkscape.org/namespaces/inkscape"
   width="5.1049mm"
   height="6.8951mm"
   version="1.1"
   viewBox="0 0 3.0629 4.137"
   id="svg116"
   sodipodi:docname="insetos.svg"
   inkscape:version="0.92.5 (2060ec1f9f, 2020-04-08)">
  <defs
     id="defs120" />
  <sodipodi:namedview
     pagecolor="#ffffff"
     bordercolor="#666666"
     borderopacity="1"
     objecttolerance="10"
     gridtolerance="10"
     guidetolerance="10"
     inkscape:pageopacity="0"
     inkscape:pageshadow="2"
     inkscape:window-width="1366"
     inkscape:window-height="745"
     id="namedview118"
     showgrid="false"
     inkscape:zoom="52.623547"
     inkscape:cx="8.4633304"
     inkscape:cy="5.4694629"
     inkscape:window-x="-8"
     inkscape:window-y="-8"
     inkscape:window-maximized="1"
     inkscape:current-layer="svg116" />
  <metadata
     id="metadata79">
    <rdf:RDF>
      <cc:Work
         rdf:about="">
        <dc:format>image/svg+xml</dc:format>
        <dc:type
           rdf:resource="http://purl.org/dc/dcmitype/StillImage" />
        <dc:title></dc:title>
      </cc:Work>
    </rdf:RDF>
  </metadata>
  <g
     transform="translate(-48.214 -76.86)"
     id="g114">
    <g
       id="Insetos"
       transform="matrix(.006 0 0 .006 11.195 6.1215)"
       clip-rule="evenodd"
       fill-rule="evenodd"
       image-rendering="optimizeQuality"
       shape-rendering="geometricPrecision">
      <g
         fill="#fff"
         fill-rule="nonzero"
         stroke="#000"
         stroke-width="12.7"
         id="g91">
        <path
           d="m 6488,12355 c 26,-11 59,-28 60,-168"
           id="path146" />
        <path
           d="m 6548,12187 c 1,-140 -32,-118 -31,-139"
           id="path144" />
        <path
           d="m 6517,12048 c 1,-20 -8,-43 -22,-81"
           id="path142" />
        <path
           d="m 6495,11967 c -14,-37 -55,-36 -34,-43"
           id="path140" />
        <path
           d="m 6461,11924 c 38,-13 -11,-47 -34,-49"
           id="path138" />
        <path
           d="m 6427,11875 c -23,2 -72,35 -34,49"
           id="path136" />
        <path
           d="m 6393,11924 c 20,7 -20,5 -34,43"
           id="path134" />
        <path
           d="m 6359,11967 c -14,38 -23,61 -22,81"
           id="path132" />
        <path
           d="m 6337,12048 c 1,20 -32,-1 -31,139"
           id="path130" />
        <path
           d="m 6306,12187 c 1,140 34,157 60,168"
           id="path128" />
        <path
           d="m 6366,12355 c 26,11 62,25 62,25"
           id="path126" />
        <path
           d="m 6428,12380 h 2"
           id="path124" />
        <path
           d="m 6430,12380 h -4 c 0,0 35,-14 62,-25"
           id="path81" />
        <path
           class="fil0 str0"
           d="m 6303,12218 -1,-17 m 0,0 c 0,0 -54,35 -51,73 m 0,0 c 3,38 58,85 57,96 m 0,0 c -1,11 -1,64 -1,64 m 0,0 -28,41 m 0,0 44,-47 1,-70 m 0,0 c 0,0 -66,-80 -58,-88 m 0,0 c 8,-8 37,-38 37,-38 m 0,0 -1,-15 m 0,0 1,1"
           id="path83"
           inkscape:connector-curvature="0"
           sodipodi:nodetypes="ccccccccccccccccccccc" />
        <path
           class="fil0 str0"
           d="m6317 12074 4-7 4-5s-27-6-35 1-57 77-57 77l-59 53 68-44s41-62 48-66c9-5 22 1 22 1l4-10z"
           id="path85" />
        <path
           class="fil0 str0"
           d="m6350 11982-25-6-9-60-52-35 43 39s3 53 11 61 25 23 25 23l8-22z"
           id="path87" />
        <path
           class="fil0 str0"
           d="m6403 11883s-37-47-71-57c-33-11-61-31-61-31s33 29 54 36 73 55 73 55z"
           id="path89" />
      </g>
      <path
         class="fil1 str0"
         d="m6410 11880s-11-21 8-22"
         fill="none"
         stroke="#000"
         stroke-width="12.7"
         id="path93" />
      <g
         fill="#fff"
         fill-rule="nonzero"
         stroke="#000"
         stroke-width="12.7"
         id="g103">
        <path
           d="m 6548,12201 c 0,0 54,35 51,73"
           id="path166" />
        <path
           d="m 6599,12274 c -3,38 -58,85 -57,96"
           id="path164" />
        <path
           d="m 6542,12370 c 1,11 1,64 1,64"
           id="path162" />
        <path
           d="m 6543,12434 28,41"
           id="path160" />
        <path
           d="m 6571,12475 -44,-47"
           id="path158" />
        <path
           d="m 6527,12428 -1,-70"
           id="path156" />
        <path
           d="m 6526,12358 c 0,0 66,-80 58,-88"
           id="path154" />
        <path
           d="m 6584,12270 c -8,-8 -37,-38 -37,-38"
           id="path152" />
        <path
           d="m 6547,12232 1,-15"
           id="path150" />
        <path
           d="m 6548,12217 -1,1 1,-17"
           id="path95" />
        <path
           class="fil0 str0"
           d="m6533 12074-4-7-4-5s27-6 35 1 57 77 57 77l59 53-68-44s-41-62-48-66c-9-5-22 1-22 1l-4-10z"
           id="path97" />
        <path
           class="fil0 str0"
           d="m6500 11982 25-6 9-60 53-35-42 39s-3 53-11 61-25 23-25 23l-8-22z"
           id="path99" />
        <path
           class="fil0 str0"
           d="m6448 11883s37-47 71-57c33-11 61-31 61-31s-33 29-54 36-73 55-73 55z"
           id="path101" />
      </g>
      <path
         class="fil1 str0"
         d="m6441 11880s11-21-8-22"
         fill="none"
         stroke="#000"
         stroke-width="12.7"
         id="path105" />
      <path
         class="fil2"
         d="m6405 11891c-4-4-13-2-20 6-7 7-10 16-6 20s13 2 20-5 10-16 6-20z"
         fill-rule="nonzero"
         id="path107" />
      <path
         class="fil2"
         d="m6446 11891c-4 4-2 13 6 20 7 7 16 10 20 5 4-4 2-13-6-20-7-7-16-10-20-6z"
         fill-rule="nonzero"
         id="path109" />
      <path
         class="fil1 str0"
         d="m6394 11930s18-9 31-9c16 0 32 9 32 9m-123 113h55l12 12h51l14-14h51m-176 300 85-42 86 42m-86-42v-244"
         fill="none"
         stroke="#000"
         stroke-width="12.7"
         id="path111" />
    </g>
  </g>
</svg>
