<?xml version="1.0" encoding="UTF-8" standalone="no"?>
<!-- Created with Inkscape (http://www.inkscape.org/) -->

<svg
   xmlns:dc="http://purl.org/dc/elements/1.1/"
   xmlns:cc="http://creativecommons.org/ns#"
   xmlns:rdf="http://www.w3.org/1999/02/22-rdf-syntax-ns#"
   xmlns:svg="http://www.w3.org/2000/svg"
   xmlns="http://www.w3.org/2000/svg"
   xmlns:sodipodi="http://sodipodi.sourceforge.net/DTD/sodipodi-0.dtd"
   xmlns:inkscape="http://www.inkscape.org/namespaces/inkscape"
   width="6.217mm"
   height="6.157mm"
   version="1.1"
   viewBox="0 0 3.7302 3.6942"
   id="svg87"
   sodipodi:docname="moluscos.svg"
   inkscape:version="0.92.5 (2060ec1f9f, 2020-04-08)">
  <defs
     id="defs91" />
  <sodipodi:namedview
     pagecolor="#ffffff"
     bordercolor="#666666"
     borderopacity="1"
     objecttolerance="10"
     gridtolerance="10"
     guidetolerance="10"
     inkscape:pageopacity="0"
     inkscape:pageshadow="2"
     inkscape:window-width="1366"
     inkscape:window-height="745"
     id="namedview89"
     showgrid="false"
     inkscape:zoom="24.752314"
     inkscape:cx="11.748661"
     inkscape:cy="11.635276"
     inkscape:window-x="-8"
     inkscape:window-y="-8"
     inkscape:window-maximized="1"
     inkscape:current-layer="svg87" />
  <metadata
     id="metadata76">
    <rdf:RDF>
      <cc:Work
         rdf:about="">
        <dc:format>image/svg+xml</dc:format>
        <dc:type
           rdf:resource="http://purl.org/dc/dcmitype/StillImage" />
        <dc:title></dc:title>
      </cc:Work>
    </rdf:RDF>
  </metadata>
  <g
     transform="translate(-46.33 -76.136)"
     id="g85">
    <g
       id="Moluscos_Genérico"
       transform="matrix(.006 0 0 .006 9.588 -65.996)"
       clip-rule="evenodd"
       fill-rule="evenodd"
       image-rendering="optimizeQuality"
       shape-rendering="geometricPrecision"
       stroke="#000"
       stroke-width="12.7">
      <path
         style="fill:#ffffff;fill-rule:nonzero"
         d="m 6634,23742 c 45,16 37,130 37,130"
         id="path105" />
      <path
         style="fill:#ffffff;fill-rule:nonzero"
         d="m 6198,23871 c 0,0 -8,-112 37,-128"
         id="path101" />
      <path
         style="fill:#ffffff;fill-rule:nonzero"
         d="m 6235,23743 c 33,-12 151,-12 151,-12"
         id="path99" />
      <path
         style="fill:#ffffff;fill-rule:nonzero"
         d="m 6386,23731 h 97"
         id="path97" />
      <path
         style="fill:#ffffff;fill-rule:nonzero"
         d="m 6483,23731 v -1 c 0,0 118,0 151,12"
         id="path78" />
      <path
         style="fill:#ffffff;fill-rule:nonzero"
         d="m 6712,23900 c 20,11 27,64 27,64"
         id="path123" />
      <path
         style="fill:#ffffff;fill-rule:nonzero"
         d="m 6739,23964 c 0,211 -136,334 -304,334 h -1"
         id="path121" />
      <path
         style="fill:#ffffff;fill-rule:nonzero"
         d="m 6434,24298 c -168,0 -304,-123 -304,-334"
         id="path119" />
      <path
         style="fill:#ffffff;fill-rule:nonzero"
         d="m 6130,23964 c 0,0 7,-53 27,-64"
         id="path117" />
      <path
         style="fill:#ffffff;fill-rule:nonzero"
         d="m 6157,23900 c 20,-11 277,-205 277,-205"
         id="path115" />
      <path
         style="fill:#ffffff;fill-rule:nonzero"
         d="m 6434,23695 h 4"
         id="path113" />
      <path
         style="fill:#ffffff;fill-rule:nonzero"
         d="m 6438,23695 h -1 c 0,0 254,193 275,205"
         id="path80" />
      <path
         class="fil1 str0"
         d="m6430 23749-285 285m285-275-215 419m215-398-90 486m93-517 285 285m-285-275 214 419m-215-398 90 486"
         fill="none"
         id="path82" />
    </g>
  </g>
</svg>
