<?xml version="1.0" encoding="UTF-8" standalone="no"?>
<!-- Created with Inkscape (http://www.inkscape.org/) -->

<svg
   xmlns:dc="http://purl.org/dc/elements/1.1/"
   xmlns:cc="http://creativecommons.org/ns#"
   xmlns:rdf="http://www.w3.org/1999/02/22-rdf-syntax-ns#"
   xmlns:svg="http://www.w3.org/2000/svg"
   xmlns="http://www.w3.org/2000/svg"
   xmlns:sodipodi="http://sodipodi.sourceforge.net/DTD/sodipodi-0.dtd"
   xmlns:inkscape="http://www.inkscape.org/namespaces/inkscape"
   width="6.3376mm"
   height="2.4925mm"
   version="1.1"
   viewBox="0 0 3.8026 1.4955"
   id="svg150"
   sodipodi:docname="madeira-fossil.svg"
   inkscape:version="0.92.5 (2060ec1f9f, 2020-04-08)">
  <defs
     id="defs154" />
  <sodipodi:namedview
     pagecolor="#ffffff"
     bordercolor="#666666"
     borderopacity="1"
     objecttolerance="10"
     gridtolerance="10"
     guidetolerance="10"
     inkscape:pageopacity="0"
     inkscape:pageshadow="2"
     inkscape:window-width="1366"
     inkscape:window-height="745"
     id="namedview152"
     showgrid="false"
     inkscape:zoom="50.557057"
     inkscape:cx="11.976567"
     inkscape:cy="4.7102363"
     inkscape:window-x="-8"
     inkscape:window-y="-8"
     inkscape:window-maximized="1"
     inkscape:current-layer="svg150" />
  <metadata
     id="metadata141">
    <rdf:RDF>
      <cc:Work
         rdf:about="">
        <dc:format>image/svg+xml</dc:format>
        <dc:type
           rdf:resource="http://purl.org/dc/dcmitype/StillImage" />
        <dc:title></dc:title>
      </cc:Work>
    </rdf:RDF>
  </metadata>
  <g
     transform="translate(-45.478 -79.708)"
     id="g148">
    <g
       id="Madeira_x0020_Fóssil"
       transform="matrix(.006 0 0 .006 -31.386 -24.726)"
       clip-rule="evenodd"
       fill-rule="evenodd"
       image-rendering="optimizeQuality"
       shape-rendering="geometricPrecision"
       stroke="#000"
       stroke-width="12.7">
      <path
         style="fill:#ffffff;fill-rule:nonzero"
         d="m 12897,17648 c 54,0 451,1 491,0"
         id="path172" />
      <path
         style="fill:#ffffff;fill-rule:nonzero"
         d="m 13388,17648 c 40,-1 51,-39 50,-66"
         id="path170" />
      <path
         style="fill:#ffffff;fill-rule:nonzero"
         d="m 13438,17582 c -2,-27 -22,-65 -65,-66"
         id="path168" />
      <path
         style="fill:#ffffff;fill-rule:nonzero"
         d="m 13373,17516 c -43,-1 -194,-1 -194,-1"
         id="path166" />
      <path
         style="fill:#ffffff;fill-rule:nonzero"
         d="m 13179,17515 c 0,0 9,-43 3,-60"
         id="path164" />
      <path
         style="fill:#ffffff;fill-rule:nonzero"
         d="m 13182,17455 c -7,-18 -63,-45 -110,-43"
         id="path162" />
      <path
         style="fill:#ffffff;fill-rule:nonzero"
         d="m 13072,17412 c -42,2 -60,47 -81,83"
         id="path160" />
      <path
         style="fill:#ffffff;fill-rule:nonzero"
         d="m 12991,17495 c -10,18 -75,12 -104,12 -29,0 -70,18 -70,70"
         id="path158" />
      <path
         style="fill:#ffffff;fill-rule:nonzero"
         d="m 12817,17577 v -1 c 1,48 26,72 80,72"
         id="path143" />
      <path
         class="fil1 str0"
         d="m13028 17435c-16 24 41 41 61 40 31-2 94 1 92-23m-320 60c22-8 32 39 32 63 0 34-4 77-28 69m74-101h95m42 66h121m46-49 95-1"
         fill="none"
         id="path145" />
    </g>
  </g>
</svg>
