<?xml version="1.0" encoding="UTF-8" standalone="no"?>
<!-- Created with Inkscape (http://www.inkscape.org/) -->

<svg
   xmlns:dc="http://purl.org/dc/elements/1.1/"
   xmlns:cc="http://creativecommons.org/ns#"
   xmlns:rdf="http://www.w3.org/1999/02/22-rdf-syntax-ns#"
   xmlns:svg="http://www.w3.org/2000/svg"
   xmlns="http://www.w3.org/2000/svg"
   xmlns:sodipodi="http://sodipodi.sourceforge.net/DTD/sodipodi-0.dtd"
   xmlns:inkscape="http://www.inkscape.org/namespaces/inkscape"
   width="5.3471mm"
   height="6.147mm"
   version="1.1"
   viewBox="0 0 3.2083 3.6882"
   id="svg57"
   sodipodi:docname="nautiloides.svg"
   inkscape:version="0.92.5 (2060ec1f9f, 2020-04-08)">
  <defs
     id="defs61" />
  <sodipodi:namedview
     pagecolor="#ffffff"
     bordercolor="#666666"
     borderopacity="1"
     objecttolerance="10"
     gridtolerance="10"
     guidetolerance="10"
     inkscape:pageopacity="0"
     inkscape:pageshadow="2"
     inkscape:window-width="1366"
     inkscape:window-height="745"
     id="namedview59"
     showgrid="false"
     inkscape:zoom="24.792582"
     inkscape:cx="10.104755"
     inkscape:cy="11.616378"
     inkscape:window-x="-8"
     inkscape:window-y="-8"
     inkscape:window-maximized="1"
     inkscape:current-layer="svg57" />
  <metadata
     id="metadata46">
    <rdf:RDF>
      <cc:Work
         rdf:about="">
        <dc:format>image/svg+xml</dc:format>
        <dc:type
           rdf:resource="http://purl.org/dc/dcmitype/StillImage" />
        <dc:title></dc:title>
      </cc:Work>
    </rdf:RDF>
  </metadata>
  <g
     transform="translate(-45.666 -76.465)"
     id="g55">
    <g
       id="Nautilóides"
       transform="matrix(.006 0 0 .006 8.7678 -91.467)"
       clip-rule="evenodd"
       fill-rule="evenodd"
       image-rendering="optimizeQuality"
       shape-rendering="geometricPrecision"
       stroke="#000"
       stroke-width="12.7">
      <path
         style="fill:#ffffff;fill-rule:nonzero"
         d="m 6678,28288 c 0,171 -138,309 -309,309"
         id="path77" />
      <path
         style="fill:#ffffff;fill-rule:nonzero"
         d="m 6369,28597 c -83,0 -158,-32 -213,-85"
         id="path75" />
      <path
         style="fill:#ffffff;fill-rule:nonzero"
         d="m 6156,28512 c 0,0 -2,-51 36,-111"
         id="path73" />
      <path
         style="fill:#ffffff;fill-rule:nonzero"
         d="m 6192,28401 c 38,-60 87,-88 87,-88"
         id="path71" />
      <path
         style="fill:#ffffff;fill-rule:nonzero"
         d="m 6279,28313 c -28,-34 -45,-77 -45,-124"
         id="path69" />
      <path
         style="fill:#ffffff;fill-rule:nonzero"
         d="m 6234,28189 c 0,-107 87,-194 194,-194"
         id="path67" />
      <path
         style="fill:#ffffff;fill-rule:nonzero"
         d="m 6428,27995 c 40,0 77,12 108,33"
         id="path65" />
      <path
         style="fill:#ffffff;fill-rule:nonzero"
         d="m 6536,28028 2,1 c 85,55 140,151 140,259"
         id="path48" />
      <path
         class="fil2 str0"
         d="m6426 28186c0 8-7 15-14 15-8 0-14-7-14-15s6-14 14-14 14 6 14 14z"
         fill-rule="nonzero"
         id="path50" />
      <path
         class="fil1 str0"
         d="m6278 28313 143-116m-158-111c-22 32 33 116 145 102m38-191c-57-2-99 115-39 188m237-35c-30-58-196-64-232 35m180 317c60-66 14-339-176-314"
         fill="none"
         id="path52" />
    </g>
  </g>
</svg>
