<?xml version="1.0" encoding="UTF-8" standalone="no"?>
<!-- Created with Inkscape (http://www.inkscape.org/) -->

<svg
   xmlns:dc="http://purl.org/dc/elements/1.1/"
   xmlns:cc="http://creativecommons.org/ns#"
   xmlns:rdf="http://www.w3.org/1999/02/22-rdf-syntax-ns#"
   xmlns:svg="http://www.w3.org/2000/svg"
   xmlns="http://www.w3.org/2000/svg"
   xmlns:sodipodi="http://sodipodi.sourceforge.net/DTD/sodipodi-0.dtd"
   xmlns:inkscape="http://www.inkscape.org/namespaces/inkscape"
   width="7.8915mm"
   height="4.3794mm"
   version="1.1"
   viewBox="0 0 4.7349 2.6277"
   id="svg38"
   sodipodi:docname="mamiferos.svg"
   inkscape:version="0.92.5 (2060ec1f9f, 2020-04-08)">
  <defs
     id="defs42" />
  <sodipodi:namedview
     pagecolor="#ffffff"
     bordercolor="#666666"
     borderopacity="1"
     objecttolerance="10"
     gridtolerance="10"
     guidetolerance="10"
     inkscape:pageopacity="0"
     inkscape:pageshadow="2"
     inkscape:window-width="1366"
     inkscape:window-height="745"
     id="namedview40"
     showgrid="false"
     inkscape:zoom="34.799289"
     inkscape:cx="14.913071"
     inkscape:cy="8.2760311"
     inkscape:window-x="-8"
     inkscape:window-y="-8"
     inkscape:window-maximized="1"
     inkscape:current-layer="svg38" />
  <metadata
     id="metadata27">
    <rdf:RDF>
      <cc:Work
         rdf:about="">
        <dc:format>image/svg+xml</dc:format>
        <dc:type
           rdf:resource="http://purl.org/dc/dcmitype/StillImage" />
        <dc:title></dc:title>
      </cc:Work>
    </rdf:RDF>
  </metadata>
  <g
     transform="translate(-45.397 -77.454)"
     id="g36">
    <g
       id="Mamíferos"
       transform="matrix(.006 0 0 .006 -31.067 5.6543)"
       clip-rule="evenodd"
       fill-rule="evenodd"
       image-rendering="optimizeQuality"
       shape-rendering="geometricPrecision">
      <path
         style="fill:#ffffff;fill-rule:nonzero;stroke:#000000;stroke-width:12.69999981"
         d="m 12776,12010 c -30,22 -32,33 -15,46"
         id="path90" />
      <path
         style="fill:#ffffff;fill-rule:nonzero;stroke:#000000;stroke-width:12.69999981"
         d="m 12761,12056 c 17,13 -8,25 50,54"
         id="path88" />
      <path
         style="fill:#ffffff;fill-rule:nonzero;stroke:#000000;stroke-width:12.69999981"
         d="m 12811,12110 c 58,29 96,29 101,43"
         id="path86" />
      <path
         style="fill:#ffffff;fill-rule:nonzero;stroke:#000000;stroke-width:12.69999981"
         d="m 12912,12153 c 5,13 78,74 81,100"
         id="path84" />
      <path
         style="fill:#ffffff;fill-rule:nonzero;stroke:#000000;stroke-width:12.69999981"
         d="m 12993,12253 c 3,26 41,70 40,95"
         id="path82" />
      <path
         style="fill:#ffffff;fill-rule:nonzero;stroke:#000000;stroke-width:12.69999981"
         d="m 13033,12348 c -1,27 -44,13 -52,34"
         id="path80" />
      <path
         style="fill:#ffffff;fill-rule:nonzero;stroke:#000000;stroke-width:12.69999981"
         d="m 12981,12382 c -5,12 40,8 75,8"
         id="path78" />
      <path
         style="fill:#ffffff;fill-rule:nonzero;stroke:#000000;stroke-width:12.69999981"
         d="m 13056,12390 c 19,0 52,-55 55,-78"
         id="path76" />
      <path
         style="fill:#ffffff;fill-rule:nonzero;stroke:#000000;stroke-width:12.69999981"
         d="m 13111,12312 c 3,-23 50,-6 77,15"
         id="path74" />
      <path
         style="fill:#ffffff;fill-rule:nonzero;stroke:#000000;stroke-width:12.69999981"
         d="m 13188,12327 c 15,12 26,19 26,19"
         id="path72" />
      <path
         style="fill:#ffffff;fill-rule:nonzero;stroke:#000000;stroke-width:12.69999981"
         d="m 13214,12346 c 0,0 -84,13 -82,32"
         id="path70" />
      <path
         style="fill:#ffffff;fill-rule:nonzero;stroke:#000000;stroke-width:12.69999981"
         d="m 13132,12378 c 2,19 72,27 99,13"
         id="path68" />
      <path
         style="fill:#ffffff;fill-rule:nonzero;stroke:#000000;stroke-width:12.69999981"
         d="m 13231,12391 c 27,-14 95,-49 110,-71"
         id="path66" />
      <path
         style="fill:#ffffff;fill-rule:nonzero;stroke:#000000;stroke-width:12.69999981"
         d="m 13341,12320 c 14,-22 14,-46 33,-46"
         id="path64" />
      <path
         style="fill:#ffffff;fill-rule:nonzero;stroke:#000000;stroke-width:12.69999981"
         d="m 13374,12274 c 19,0 76,-14 91,-65"
         id="path62" />
      <path
         style="fill:#ffffff;fill-rule:nonzero;stroke:#000000;stroke-width:12.69999981"
         d="m 13465,12209 c 17,-61 69,-102 61,-114"
         id="path60" />
      <path
         style="fill:#ffffff;fill-rule:nonzero;stroke:#000000;stroke-width:12.69999981"
         d="m 13526,12095 c -12,-18 -58,18 -74,54"
         id="path58" />
      <path
         style="fill:#ffffff;fill-rule:nonzero;stroke:#000000;stroke-width:12.69999981"
         d="m 13452,12149 c -16,36 -30,82 -52,82"
         id="path56" />
      <path
         style="fill:#ffffff;fill-rule:nonzero;stroke:#000000;stroke-width:12.69999981"
         d="m 13400,12231 c -22,0 -31,-1 -31,-1"
         id="path54" />
      <path
         style="fill:#ffffff;fill-rule:nonzero;stroke:#000000;stroke-width:12.69999981"
         d="m 13369,12230 c 0,0 10,-102 -61,-145"
         id="path52" />
      <path
         style="fill:#ffffff;fill-rule:nonzero;stroke:#000000;stroke-width:12.69999981"
         d="m 13308,12085 c -81,-48 -125,-62 -199,-46"
         id="path50" />
      <path
         style="fill:#ffffff;fill-rule:nonzero;stroke:#000000;stroke-width:12.69999981"
         d="m 13109,12039 c -74,16 -95,0 -113,-13"
         id="path48" />
      <path
         style="fill:#ffffff;fill-rule:nonzero;stroke:#000000;stroke-width:12.69999981"
         d="m 12996,12026 c -17,-13 -45,-53 -99,-52"
         id="path46" />
      <path
         style="fill:#ffffff;fill-rule:nonzero;stroke:#000000;stroke-width:12.69999981"
         d="m 12897,11974 -1,-1 c -47,1 -90,15 -120,37"
         id="path29" />
      <path
         class="fil2"
         d="m12867 12039c0 8-7 15-15 15s-15-7-15-15 7-15 15-15 15 7 15 15z"
         fill-rule="nonzero"
         id="path31" />
      <path
         class="fil1 str0"
         d="m12903 12145c20 7 78-33 75-74m13 173c-3-41-11-144 35-165m85 232c8-32 7-89-17-108m105 133c-26-18 13-120 79-126"
         fill="none"
         stroke="#000"
         stroke-width="12.7"
         id="path33" />
    </g>
  </g>
</svg>
