<?xml version="1.0" encoding="UTF-8" standalone="no"?>
<!-- Created with Inkscape (http://www.inkscape.org/) -->

<svg
   xmlns:dc="http://purl.org/dc/elements/1.1/"
   xmlns:cc="http://creativecommons.org/ns#"
   xmlns:rdf="http://www.w3.org/1999/02/22-rdf-syntax-ns#"
   xmlns:svg="http://www.w3.org/2000/svg"
   xmlns="http://www.w3.org/2000/svg"
   xmlns:sodipodi="http://sodipodi.sourceforge.net/DTD/sodipodi-0.dtd"
   xmlns:inkscape="http://www.inkscape.org/namespaces/inkscape"
   width="6.3123mm"
   height="2.177mm"
   version="1.1"
   viewBox="0 0 3.7874 1.3062"
   id="svg26"
   sodipodi:docname="tracos-fosseis.svg"
   inkscape:version="0.92.5 (2060ec1f9f, 2020-04-08)">
  <defs
     id="defs30" />
  <sodipodi:namedview
     pagecolor="#ffffff"
     bordercolor="#666666"
     borderopacity="1"
     objecttolerance="10"
     gridtolerance="10"
     guidetolerance="10"
     inkscape:pageopacity="0"
     inkscape:pageshadow="2"
     inkscape:window-width="1366"
     inkscape:window-height="745"
     id="namedview28"
     showgrid="false"
     inkscape:zoom="50.759692"
     inkscape:cx="11.928756"
     inkscape:cy="4.1140158"
     inkscape:window-x="-8"
     inkscape:window-y="-8"
     inkscape:window-maximized="1"
     inkscape:current-layer="svg26" />
  <metadata
     id="metadata21">
    <rdf:RDF>
      <cc:Work
         rdf:about="">
        <dc:format>image/svg+xml</dc:format>
        <dc:type
           rdf:resource="http://purl.org/dc/dcmitype/StillImage" />
        <dc:title></dc:title>
      </cc:Work>
    </rdf:RDF>
  </metadata>
  <g
     transform="translate(-45.862 -78.995)"
     id="g24">
    <path
       style="color:#000000;font-style:normal;font-variant:normal;font-weight:normal;font-stretch:normal;font-size:medium;line-height:normal;font-family:sans-serif;font-variant-ligatures:normal;font-variant-position:normal;font-variant-caps:normal;font-variant-numeric:normal;font-variant-alternates:normal;font-feature-settings:normal;text-indent:0;text-align:start;text-decoration:none;text-decoration-line:none;text-decoration-style:solid;text-decoration-color:#000000;letter-spacing:normal;word-spacing:normal;text-transform:none;writing-mode:lr-tb;direction:ltr;text-orientation:mixed;dominant-baseline:auto;baseline-shift:baseline;text-anchor:start;white-space:normal;shape-padding:0;clip-rule:evenodd;display:inline;overflow:visible;visibility:visible;opacity:1;isolation:auto;mix-blend-mode:normal;color-interpolation:sRGB;color-interpolation-filters:linearRGB;solid-color:#000000;solid-opacity:1;vector-effect:none;fill:#000000;fill-opacity:1;fill-rule:nonzero;stroke:none;stroke-width:0.0762;stroke-linecap:butt;stroke-linejoin:miter;stroke-miterlimit:4;stroke-dasharray:none;stroke-dashoffset:0;stroke-opacity:1;color-rendering:auto;image-rendering:optimizeQuality;shape-rendering:geometricPrecision;text-rendering:auto;enable-background:accumulate"
       d="m 48.574219,78.996094 c -0.389311,0 -0.752226,0.194848 -0.996094,0.371094 -9.96e-4,7.2e-4 -0.0029,0.0012 -0.0039,0.002 -0.185482,0.103522 -0.40068,0.160156 -0.632813,0.160156 -0.414194,0 -0.78071,-0.19129 -1.013672,-0.494141 l -0.06055,0.04687 c 0.247038,0.32115 0.636413,0.523438 1.074218,0.523438 0.24635,0 0.476146,-0.06068 0.673828,-0.171875 l -0.01758,-0.0332 0.02148,0.03125 c 0.236124,-0.171191 0.589979,-0.359375 0.955078,-0.359375 0.418947,0 0.790591,0.215063 1.011719,0.529296 l 0.0625,-0.04297 c -0.234873,-0.333767 -0.629166,-0.5625 -1.074219,-0.5625 z"
       id="path52" />
    <path
       style="color:#000000;font-style:normal;font-variant:normal;font-weight:normal;font-stretch:normal;font-size:medium;line-height:normal;font-family:sans-serif;font-variant-ligatures:normal;font-variant-position:normal;font-variant-caps:normal;font-variant-numeric:normal;font-variant-alternates:normal;font-feature-settings:normal;text-indent:0;text-align:start;text-decoration:none;text-decoration-line:none;text-decoration-style:solid;text-decoration-color:#000000;letter-spacing:normal;word-spacing:normal;text-transform:none;writing-mode:lr-tb;direction:ltr;text-orientation:mixed;dominant-baseline:auto;baseline-shift:baseline;text-anchor:start;white-space:normal;shape-padding:0;clip-rule:evenodd;display:inline;overflow:visible;visibility:visible;opacity:1;isolation:auto;mix-blend-mode:normal;color-interpolation:sRGB;color-interpolation-filters:linearRGB;solid-color:#000000;solid-opacity:1;vector-effect:none;fill:#000000;fill-opacity:1;fill-rule:nonzero;stroke:none;stroke-width:0.0762;stroke-linecap:butt;stroke-linejoin:miter;stroke-miterlimit:4;stroke-dasharray:none;stroke-dashoffset:0;stroke-opacity:1;color-rendering:auto;image-rendering:optimizeQuality;shape-rendering:geometricPrecision;text-rendering:auto;enable-background:accumulate"
       d="m 48.568319,79.691406 c -0.389311,0 -0.752226,0.194848 -0.996093,0.371094 -9.97e-4,7.2e-4 -0.0029,0.0012 -0.0039,0.002 -0.185482,0.103523 -0.400679,0.162109 -0.632812,0.162109 -0.414194,0 -0.78071,-0.193243 -1.013672,-0.496093 l -0.06055,0.04687 c 0.247038,0.321149 0.636413,0.52539 1.074219,0.52539 0.24635,0 0.476146,-0.06263 0.673828,-0.173828 l -0.01953,-0.0332 0.02344,0.03125 c 0.236125,-0.17119 0.58998,-0.359375 0.955078,-0.359375 0.418948,0 0.790592,0.217017 1.011719,0.53125 l 0.0625,-0.04492 c -0.234873,-0.333767 -0.629166,-0.5625 -1.074219,-0.5625 z"
       id="Traços_x0020_fósseis_Sim._Genérica" />
  </g>
</svg>
