<?xml version="1.0" encoding="UTF-8"?>
<!-- Created with Inkscape (http://www.inkscape.org/) -->
<svg width="4.6268mm" height="6.6028mm" version="1.1" viewBox="0 0 2.7761 3.9617" xmlns="http://www.w3.org/2000/svg" xmlns:cc="http://creativecommons.org/ns#" xmlns:dc="http://purl.org/dc/elements/1.1/" xmlns:rdf="http://www.w3.org/1999/02/22-rdf-syntax-ns#">
 <metadata>
  <rdf:RDF>
   <cc:Work rdf:about="">
    <dc:format>image/svg+xml</dc:format>
    <dc:type rdf:resource="http://purl.org/dc/dcmitype/StillImage"/>
    <dc:title/>
   </cc:Work>
  </rdf:RDF>
 </metadata>
 <g transform="translate(-45.962 -77.741)">
  <path id="Raízes_x0020_Fósseis" class="fil2 str0" d="m48.441 77.803s-0.552 0.576-0.636 0.768c-0.084 0.198-0.144 0.804-0.318 0.966-0.174 0.156-0.708 0.378-0.858 0.51s-0.552 0.582-0.624 0.78c-0.06 0.168 0.402-0.708 0.978-0.72 0.294-6e-3 0.426 0.144 0.45 0.294 0.024 0.144 0.096 0.666-0.048 1.224-0.036 0.138 0.186-0.12 0.234-0.27 0.084-0.282 0.06-0.852 0.096-0.93 0.036-0.072 0.258 0.036 0.294 0.084s0.48 0.624 0.564 0.816c0.018 0.042 0.036-0.246 0-0.378s-0.342-0.564-0.486-0.84c-0.15-0.282-0.222-0.486-0.168-0.72 0.048-0.234 0.39-0.894 0.522-1.026s0.246-0.222 0.258-0.294-0.168-0.234-0.258-0.27z" clip-rule="evenodd" image-rendering="optimizeQuality" shape-rendering="geometricPrecision" stroke="#000" stroke-width=".0762"/>
 </g>
</svg>
