<?xml version="1.0" encoding="UTF-8" standalone="no"?>
<!-- Created with Inkscape (http://www.inkscape.org/) -->

<svg
   xmlns:dc="http://purl.org/dc/elements/1.1/"
   xmlns:cc="http://creativecommons.org/ns#"
   xmlns:rdf="http://www.w3.org/1999/02/22-rdf-syntax-ns#"
   xmlns:svg="http://www.w3.org/2000/svg"
   xmlns="http://www.w3.org/2000/svg"
   xmlns:sodipodi="http://sodipodi.sourceforge.net/DTD/sodipodi-0.dtd"
   xmlns:inkscape="http://www.inkscape.org/namespaces/inkscape"
   width="6.9495mm"
   height="4.0538mm"
   version="1.1"
   viewBox="0 0 4.1697 2.4323"
   id="svg54"
   sodipodi:docname="samambaias.svg"
   inkscape:version="0.92.5 (2060ec1f9f, 2020-04-08)">
  <defs
     id="defs58" />
  <sodipodi:namedview
     pagecolor="#ffffff"
     bordercolor="#666666"
     borderopacity="1"
     objecttolerance="10"
     gridtolerance="10"
     guidetolerance="10"
     inkscape:pageopacity="0"
     inkscape:pageshadow="2"
     inkscape:window-width="1366"
     inkscape:window-height="745"
     id="namedview56"
     showgrid="false"
     inkscape:zoom="37.594355"
     inkscape:cx="13.132914"
     inkscape:cy="7.6607246"
     inkscape:window-x="-8"
     inkscape:window-y="-8"
     inkscape:window-maximized="1"
     inkscape:current-layer="svg54" />
  <metadata
     id="metadata35">
    <rdf:RDF>
      <cc:Work
         rdf:about="">
        <dc:format>image/svg+xml</dc:format>
        <dc:type
           rdf:resource="http://purl.org/dc/dcmitype/StillImage" />
        <dc:title></dc:title>
      </cc:Work>
    </rdf:RDF>
  </metadata>
  <g
     transform="translate(-45.463 -79.682)"
     id="g52">
    <g
       id="Samambaias"
       transform="matrix(.006 0 0 .006 -31.072 -43.895)"
       clip-rule="evenodd"
       fill-rule="evenodd"
       image-rendering="optimizeQuality"
       shape-rendering="geometricPrecision"
       stroke="#000"
       stroke-width="12.7">
      <g
         fill="#fff"
         fill-rule="nonzero"
         id="g47">
        <path
           d="m 13310,20874 c 0,0 -3,-105 -23,-151"
           id="path108" />
        <path
           d="m 13287,20723 c -20,-46 -60,-94 -86,-83"
           id="path106" />
        <path
           d="m 13201,20640 c -20,9 -11,54 3,89"
           id="path104" />
        <path
           d="m 13204,20729 c 15,34 75,132 75,132"
           id="path102" />
        <path
           d="m 13279,20861 31,13"
           id="path37" />
        <path
           d="m 13165,20976 c -29,14 -72,30 -87,9"
           id="path118" />
        <path
           d="m 13078,20985 c -16,-21 19,-55 36,-63"
           id="path116" />
        <path
           d="m 13114,20922 c 17,-9 97,-57 165,-60"
           id="path114" />
        <path
           d="m 13279,20862 31,13"
           id="path112" />
        <path
           d="m 13310,20875 v -1 c 0,0 -116,87 -145,102"
           id="path39" />
        <path
           d="m 12976,20813 c -32,11 -53,40 -39,63"
           id="path98" />
        <path
           d="m 12937,20876 c 17,28 69,3 93,-13"
           id="path96" />
        <path
           d="m 13030,20863 c 24,-16 83,-76 83,-76"
           id="path94" />
        <path
           d="m 13113,20787 c 6,-31 7,-92 3,-109"
           id="path92" />
        <path
           d="m 13116,20678 c -4,-17 -26,-80 -66,-69"
           id="path90" />
        <path
           d="m 13050,20609 c -26,7 -17,44 -7,66"
           id="path88" />
        <path
           d="m 13043,20675 c 10,21 37,96 37,96"
           id="path86" />
        <path
           d="m 13080,20771 v 1 c -39,4 -73,30 -104,41"
           id="path41" />
        <path
           d="m 12902,20650 c -4,-11 -11,-37 11,-46"
           id="path82" />
        <path
           d="m 12913,20604 c 23,-9 51,24 56,46"
           id="path80" />
        <path
           d="m 12969,20650 c 4,21 -2,59 -5,63"
           id="path78" />
        <path
           d="m 12964,20713 c 0,0 -37,41 -56,51"
           id="path76" />
        <path
           d="m 12908,20764 c -19,10 -66,22 -77,-2"
           id="path74" />
        <path
           d="m 12831,20762 c -11,-23 -3,-41 23,-46"
           id="path72" />
        <path
           d="m 12854,20716 c 26,-4 83,-14 83,-14"
           id="path70" />
        <path
           d="m 12937,20702 1,1 c 0,0 -31,-42 -36,-53"
           id="path43" />
        <path
           d="m 12777,20671 c -16,-9 -19,-33 -9,-47"
           id="path66" />
        <path
           d="m 12768,20624 c 11,-16 39,-23 50,-10"
           id="path64" />
        <path
           d="m 12818,20614 c 12,13 26,49 26,49"
           id="path62" />
        <path
           d="m 12844,20663 v -1 c 0,0 -51,17 -67,9"
           id="path45" />
      </g>
      <path
         class="fil1 str0"
         d="m13450 20923c-46-6-226-84-289-113-96-44-262-127-317-149"
         fill="none"
         id="path49" />
    </g>
  </g>
</svg>
