<?xml version="1.0" encoding="UTF-8" standalone="no"?>
<!-- Created with Inkscape (http://www.inkscape.org/) -->

<svg
   xmlns:dc="http://purl.org/dc/elements/1.1/"
   xmlns:cc="http://creativecommons.org/ns#"
   xmlns:rdf="http://www.w3.org/1999/02/22-rdf-syntax-ns#"
   xmlns:svg="http://www.w3.org/2000/svg"
   xmlns="http://www.w3.org/2000/svg"
   xmlns:sodipodi="http://sodipodi.sourceforge.net/DTD/sodipodi-0.dtd"
   xmlns:inkscape="http://www.inkscape.org/namespaces/inkscape"
   width="6.535mm"
   height="3.116mm"
   version="1.1"
   viewBox="0 0 3.921 1.8696"
   id="svg49"
   sodipodi:docname="perfuracoes.svg"
   inkscape:version="0.92.5 (2060ec1f9f, 2020-04-08)">
  <defs
     id="defs53" />
  <sodipodi:namedview
     pagecolor="#ffffff"
     bordercolor="#666666"
     borderopacity="1"
     objecttolerance="10"
     gridtolerance="10"
     guidetolerance="10"
     inkscape:pageopacity="0"
     inkscape:pageshadow="2"
     inkscape:window-width="1366"
     inkscape:window-height="745"
     id="namedview51"
     showgrid="false"
     inkscape:zoom="48.908858"
     inkscape:cx="12.349606"
     inkscape:cy="5.8885038"
     inkscape:window-x="-8"
     inkscape:window-y="-8"
     inkscape:window-maximized="1"
     inkscape:current-layer="svg49" />
  <metadata
     id="metadata40">
    <rdf:RDF>
      <cc:Work
         rdf:about="">
        <dc:format>image/svg+xml</dc:format>
        <dc:type
           rdf:resource="http://purl.org/dc/dcmitype/StillImage" />
        <dc:title></dc:title>
      </cc:Work>
    </rdf:RDF>
  </metadata>
  <g
     transform="translate(-45.035 -78.233)"
     id="g47">
    <g
       id="Perfurações"
       transform="matrix(.006 0 0 .006 -31.6 -77.682)"
       clip-rule="evenodd"
       fill-rule="evenodd"
       image-rendering="optimizeQuality"
       shape-rendering="geometricPrecision"
       stroke="#000"
       stroke-width="12.7">
      <path
         style="fill:#ffffff;fill-rule:nonzero"
         d="m 13417,26094 c 17,-62 -47,-109 -108,-101"
         id="path73" />
      <path
         style="fill:#ffffff;fill-rule:nonzero"
         d="m 13309,25993 -5,3"
         id="path71" />
      <path
         style="fill:#ffffff;fill-rule:nonzero"
         d="m 13304,25996 c -18,13 -86,98 -110,102"
         id="path69" />
      <path
         style="fill:#ffffff;fill-rule:nonzero"
         d="m 13194,26098 c -29,4 -281,-9 -305,4"
         id="path67" />
      <path
         style="fill:#ffffff;fill-rule:nonzero"
         d="m 12889,26102 c -24,13 -108,70 -110,101"
         id="path65" />
      <path
         style="fill:#ffffff;fill-rule:nonzero"
         d="m 12779,26203 c -2,42 42,88 92,88"
         id="path63" />
      <path
         style="fill:#ffffff;fill-rule:nonzero"
         d="m 12871,26291 c 34,0 77,-59 97,-64"
         id="path61" />
      <path
         style="fill:#ffffff;fill-rule:nonzero"
         d="m 12968,26227 c 82,-18 199,27 286,-2"
         id="path59" />
      <path
         style="fill:#ffffff;fill-rule:nonzero"
         d="m 13254,26225 c 17,-6 140,-101 160,-126"
         id="path57" />
      <path
         style="fill:#ffffff;fill-rule:nonzero"
         d="m 13414,26099 c 1,-1 2,-2 2,-3 l 1,-2"
         id="path42" />
      <path
         class="fil1 str0"
         d="m13416 26093c-59 7-113-44-107-98"
         fill="none"
         id="path44" />
    </g>
  </g>
</svg>
