<?xml version="1.0" encoding="UTF-8" standalone="no"?>
<!-- Created with Inkscape (http://www.inkscape.org/) -->

<svg
   xmlns:dc="http://purl.org/dc/elements/1.1/"
   xmlns:cc="http://creativecommons.org/ns#"
   xmlns:rdf="http://www.w3.org/1999/02/22-rdf-syntax-ns#"
   xmlns:svg="http://www.w3.org/2000/svg"
   xmlns="http://www.w3.org/2000/svg"
   xmlns:sodipodi="http://sodipodi.sourceforge.net/DTD/sodipodi-0.dtd"
   xmlns:inkscape="http://www.inkscape.org/namespaces/inkscape"
   width="6.3186mm"
   height="4.3559mm"
   version="1.1"
   viewBox="0 0 3.7912 2.6135"
   id="svg34"
   sodipodi:docname="pelecipodes.svg"
   inkscape:version="0.92.5 (2060ec1f9f, 2020-04-08)">
  <defs
     id="defs38" />
  <sodipodi:namedview
     pagecolor="#ffffff"
     bordercolor="#666666"
     borderopacity="1"
     objecttolerance="10"
     gridtolerance="10"
     guidetolerance="10"
     inkscape:pageopacity="0"
     inkscape:pageshadow="2"
     inkscape:window-width="1366"
     inkscape:window-height="745"
     id="namedview36"
     showgrid="false"
     inkscape:zoom="34.987031"
     inkscape:cx="11.940662"
     inkscape:cy="8.2316217"
     inkscape:window-x="-8"
     inkscape:window-y="-8"
     inkscape:window-maximized="1"
     inkscape:current-layer="svg34" />
  <metadata
     id="metadata25">
    <rdf:RDF>
      <cc:Work
         rdf:about="">
        <dc:format>image/svg+xml</dc:format>
        <dc:type
           rdf:resource="http://purl.org/dc/dcmitype/StillImage" />
        <dc:title></dc:title>
      </cc:Work>
    </rdf:RDF>
  </metadata>
  <g
     transform="translate(-45.725 -76.379)"
     id="g32">
    <g
       id="Pelecípodes_x0020__x0028_Bivalves_x0029_"
       transform="matrix(.006 0 0 .006 -30.971 36.996)"
       clip-rule="evenodd"
       fill-rule="evenodd"
       image-rendering="optimizeQuality"
       shape-rendering="geometricPrecision"
       stroke="#000"
       stroke-width="12.7">
      <path
         style="fill:#ffffff;fill-rule:nonzero"
         d="m 13114,6983 c 203,-48 311,-153 292,-269"
         id="path48" />
      <path
         style="fill:#ffffff;fill-rule:nonzero"
         d="m 13406,6714 c -19,-116 -182,-149 -201,-143"
         id="path46" />
      <path
         style="fill:#ffffff;fill-rule:nonzero"
         d="m 13205,6571 c -19,6 -293,127 -325,167"
         id="path44" />
      <path
         style="fill:#ffffff;fill-rule:nonzero"
         d="m 12880,6738 c -32,40 -74,80 -89,120"
         id="path42" />
      <path
         style="fill:#ffffff;fill-rule:nonzero"
         d="m 12791,6858 h -1 c -14,37 121,173 324,125"
         id="path27" />
      <path
         class="fil1 str0"
         d="m12880 6738c-22 45-49 163 69 181 119 18 258 1 325-48 67-50 131-110 126-177m-399-30c-29 42-51 112-4 138 47 25 157 41 252-22 96-62 120-107 115-141m-274-18c-19 26-53 94-12 116s116 20 172-17 79-81 74-112m-163-20c-18 28-16 81 32 82s111-32 103-76"
         fill="none"
         id="path29" />
    </g>
  </g>
</svg>
