<?xml version="1.0" encoding="UTF-8" standalone="no"?>
<!-- Created with Inkscape (http://www.inkscape.org/) -->

<svg
   xmlns:dc="http://purl.org/dc/elements/1.1/"
   xmlns:cc="http://creativecommons.org/ns#"
   xmlns:rdf="http://www.w3.org/1999/02/22-rdf-syntax-ns#"
   xmlns:svg="http://www.w3.org/2000/svg"
   xmlns="http://www.w3.org/2000/svg"
   xmlns:sodipodi="http://sodipodi.sourceforge.net/DTD/sodipodi-0.dtd"
   xmlns:inkscape="http://www.inkscape.org/namespaces/inkscape"
   width="7.4254mm"
   height="6.5551mm"
   version="1.1"
   viewBox="0 0 4.4552 3.9331"
   id="svg82"
   sodipodi:docname="repteis.svg"
   inkscape:version="0.92.5 (2060ec1f9f, 2020-04-08)">
  <defs
     id="defs86" />
  <sodipodi:namedview
     pagecolor="#ffffff"
     bordercolor="#666666"
     borderopacity="1"
     objecttolerance="10"
     gridtolerance="10"
     guidetolerance="10"
     inkscape:pageopacity="0"
     inkscape:pageshadow="2"
     inkscape:window-width="1366"
     inkscape:window-height="745"
     id="namedview84"
     showgrid="false"
     inkscape:zoom="23.249073"
     inkscape:cx="14.032252"
     inkscape:cy="12.38759"
     inkscape:window-x="-8"
     inkscape:window-y="-8"
     inkscape:window-maximized="1"
     inkscape:current-layer="svg82" />
  <metadata
     id="metadata67">
    <rdf:RDF>
      <cc:Work
         rdf:about="">
        <dc:format>image/svg+xml</dc:format>
        <dc:type
           rdf:resource="http://purl.org/dc/dcmitype/StillImage" />
        <dc:title></dc:title>
      </cc:Work>
    </rdf:RDF>
  </metadata>
  <g
     transform="translate(-45.465 -77.661)"
     id="g80">
    <g
       id="Répteis"
       transform="matrix(.006 0 0 .006 -30.926 .16625)"
       clip-rule="evenodd"
       fill-rule="evenodd"
       image-rendering="optimizeQuality"
       shape-rendering="geometricPrecision"
       stroke="#000"
       stroke-width="12.7">
      <g
         fill="#fff"
         fill-rule="nonzero"
         id="g75">
        <path
           class="fil0 str0"
           d="m13135 13028c-9-3-24-5-38-1s-19 11-20 19z"
           id="path69" />
        <path
           class="fil0 str0"
           d="m12964 13089c-12-3-41-8-55-2s-24 30-24 44z"
           id="path71" />
        <path
           d="m 12749,13404 c 33,91 110,154 219,160"
           id="path96" />
        <path
           d="m 12968,13564 c 109,6 189,-16 189,-29"
           id="path94" />
        <path
           d="m 13157,13535 c 0,-13 -34,-29 -109,-29"
           id="path92" />
        <path
           d="m 13048,13506 c -75,0 -202,-31 -218,-66"
           id="path90" />
        <path
           d="m 12830,13440 c -16,-35 67,-179 107,-182"
           id="path148" />
        <path
           d="m 12937,13258 c 40,-3 79,8 110,-7"
           id="path146" />
        <path
           d="m 13047,13251 c 4,-2 10,-8 10,-8"
           id="path144" />
        <path
           d="m 13057,13243 1,44"
           id="path142" />
        <path
           d="m 13058,13287 25,23"
           id="path140" />
        <path
           d="m 13083,13310 44,2 22,12 -12,-20 32,3"
           id="path138" />
        <path
           d="m 13169,13307 -22,-10 30,-2 -27,-7 30,-8 -64,-3"
           id="path136" />
        <path
           d="m 13116,13277 v -44"
           id="path134" />
        <path
           d="m 13116,13233 c 0,0 47,-11 64,-30"
           id="path132" />
        <path
           d="m 13180,13203 c 17,-18 69,-65 92,-71"
           id="path130" />
        <path
           d="m 13272,13132 c 7,-2 21,1 24,10"
           id="path128" />
        <path
           d="m 13296,13142 c 9,21 7,60 20,65"
           id="path126" />
        <path
           d="m 13316,13207 c 19,8 57,7 57,7"
           id="path124" />
        <path
           d="m 13373,13214 -17,-14 31,4"
           id="path122" />
        <path
           d="m 13387,13204 -19,-10 29,2 -24,-8 20,-6 -51,-1 -2,-28"
           id="path120" />
        <path
           d="m 13340,13153 c 0,0 -2,-44 -15,-58"
           id="path118" />
        <path
           d="m 13325,13095 c -13,-14 47,-28 42,-51 -5,-24 23,-7 32,-36"
           id="path116" />
        <path
           d="m 13399,13008 c 10,-29 63,-30 62,-44"
           id="path114" />
        <path
           d="m 13461,12964 c -1,-14 11,-16 6,-25"
           id="path112" />
        <path
           d="m 13467,12939 c -4,-10 -13,-11 -21,-13 l 2,3"
           id="path110" />
        <path
           d="m 13448,12929 c -16,-4 -52,19 -68,19"
           id="path108" />
        <path
           d="m 13380,12948 c -16,0 -15,-12 -33,0 -18,12 -1,-24 -36,-2"
           id="path106" />
        <path
           d="m 13311,12946 c -35,23 -82,43 -123,62"
           id="path104" />
        <path
           d="m 13188,13008 c -41,19 -144,45 -190,65"
           id="path102" />
        <path
           d="m 12998,13073 c -46,20 -127,54 -180,111"
           id="path100" />
        <path
           d="m 12818,13184 c -53,57 -102,129 -69,220"
           id="path73" />
      </g>
      <path
         class="fil1 str0"
         d="m13117 13235-1-32s-30-48-75-44c-44 4-67 22-73 40m358-103c-15-21-31-46-48-46-15 0-38 12-39 29m226-122-19 4-16 15h-19l-18 21-49-2-17 24m-457 452c-41-16-133-81-131-125"
         fill="none"
         id="path77" />
    </g>
  </g>
</svg>
